<svg id="Layer_1" data-name="Layer 1" xmlns="http://www.w3.org/2000/svg" viewBox="0 0 566.93 523.01"><defs><style>.cls-1{fill:#f58025;}.cls-2{fill:#1d1d1b;}</style></defs><title>ams-ix-logo-RGB</title><path class="cls-1" d="M390.54,373.3l-13,14-2.86-2.36c6.4-13.32,16-22.09,24.62-22.09,4.72,0,6.75,2.19,6.75,6.75a23.14,23.14,0,0,1-.34,3.21L397.29,433v.68a3.8,3.8,0,0,0,1,2.69l.84.85L412.3,423l2.87,2.53c-6.25,13-16.2,22.09-24.45,22.09-4.55,0-6.91-2.19-6.91-6.57a32.35,32.35,0,0,1,.34-3.88l8.43-59.7v-.84a2.47,2.47,0,0,0-1-2.19Zm14.17-39.8c4.38,0,6.92,2.53,6.92,7.25,0,7.08-3.55,11.3-9.44,11.3-4.39,0-6.92-2.53-6.92-7.09C395.26,338.05,399,333.5,404.71,333.5Z"/><path class="cls-1" d="M470.81,401.63,485.48,433c.68,1.51.85,1.51,2,2l8.77-12.14,3,2c-4,12.65-11.47,21.92-17.71,21.92-3.54,0-4.38-.84-7.59-7.59l-14-29.84-1.52,1.85q-2.78,3-7.58,8.1a88.14,88.14,0,0,0-8.1,9.44c2.53,4,3.71,7.09,3.71,9.78,0,5.06-3.71,8.26-9.61,8.26-5.73,0-8.77-2.53-8.77-7.25,0-3.21,2-7.59,5.57-11.8a246.37,246.37,0,0,1,23.77-23.95l-12.64-26.64c-.68-1.69-.85-1.85-2.19-2.19l-8.94,12-3.2-2,.68-1.52c5.9-14.5,10.79-20.57,16.86-20.57,3.88,0,5.06,1.18,8.43,8.26l11.81,25.13a195.49,195.49,0,0,0,14-15.68l-.84-1.52c-1.69-3.54-2.19-5.4-2.19-7.93,0-5.39,3.37-8.26,9.61-8.26,5.23,0,8.1,2.53,8.1,6.75,0,3.88-2,7.93-6.74,13s-11.64,11.81-18,17.71Z"/><path class="cls-1" d="M260.44,266.64q-7.82,8.53-21.35,22.77c-8.27,8.86-12.3,13.31-15.9,17.7a122.68,122.68,0,0,0,58.21,14.6c3.82,0,7.59-.19,11.33-.54l-28-59.75Z"/><path class="cls-1" d="M257.59,245.77,222,170.82c-1.9-4.74-2.37-5.22-6.16-6.17l-25.14,33.68-9-5.69,1.9-4.27c16.6-40.8,30.35-57.87,47.43-57.87,10.91,0,14.24,3.32,23.72,23.24l33.2,70.68c11.86-11.38,30.36-32.73,39.37-44.11L324.94,176c-4.75-10-6.16-15.18-6.16-22.3,0-15.17,9.48-23.24,27-23.24,14.71,0,22.77,7.12,22.77,19,0,10.91-5.69,22.29-19,36.52s-32.73,33.2-50.75,49.8l-3.8,3.79L329,312.15a123.23,123.23,0,1,0-123-16.23C223.07,277.61,243.68,257.53,257.59,245.77Z"/><path class="cls-2" d="M75.21,384.77V369.42c12.65-3.87,21.59-5.73,29.34-5.73,16.52,0,24.45,6.58,24.45,19.9v44.69c0,4.21.51,4.89,4.72,6.24l9.44,2.7v3.54l-12.14,4a36.66,36.66,0,0,1-7.08,1.18h-.67c-5.06,0-7.93-2.54-8.94-8.1l-2,1-5.73,2.7c-4,1.85-6.57,2.86-7.59,3.2A23.85,23.85,0,0,1,90.72,446c-13.65,0-23.1-8.43-23.1-20.41,0-10.12,6.24-16.69,17.87-19.22a231.46,231.46,0,0,1,28.33-3.88V384.26c0-10.46-4-13.83-16.87-13.83a21.76,21.76,0,0,0-4.55.33l-7.08,14Zm38.62,22.42a125.61,125.61,0,0,0-17.71,3.21c-8.1,2-11.64,5.9-11.64,12.81,0,8.26,6.24,13.49,16.19,13.49a26.74,26.74,0,0,0,6.41-.68,35.28,35.28,0,0,0,5.39-1.18,7.36,7.36,0,0,0,1.36-.34Z"/><path class="cls-2" d="M151.09,445.14v-4.22l14.17-5.9V376.84l-14.17-4v-4l29.34-6.58v9.62l2.19-1,8.77-3.37c10.29-3.88,12-4.38,17-4.38,7.76,0,12.48,2.7,17,9.78,1-.34,1.86-.68,2.36-.85,1.52-.51,5.23-1.85,11.47-4.38,8.77-3.38,14-4.72,18.55-4.72a22.79,22.79,0,0,1,16.53,6.91c5.06,5.06,6.75,10.12,6.75,20.07V435l14.17,5.9v4.22H252.6v-4.22l13.32-5.9V393c0-13.66-6.24-19.22-21.92-19.22a53.61,53.61,0,0,0-16.53,2.36c1.86,4.22,2.36,7.59,2.36,15.68V435l13.49,5.9v4.22H202.18v-4.22l12.65-5.9V393c0-14-5.73-19.22-20.91-19.22a50,50,0,0,0-13.49,1.69V435l13.32,5.9v4.22Z"/><path class="cls-2" d="M306.23,442.1V423.38h7.08l7.76,15.18a41.73,41.73,0,0,0,7.42.67c10.46,0,16.36-4.38,16.36-12,0-5.23-1.86-7.76-8.43-11.64L321.07,407c-9.45-5.57-14-12.48-14-21.42,0-13.83,9.78-22.77,25.46-22.77,6.07,0,11.47,1,21.75,3.71l1.34.51v16.86h-7.08l-6.74-13.66a22.73,22.73,0,0,0-7.09-.84c-9.61.17-15.18,4.05-15.18,10.79,0,4.72,2.87,8.09,10.45,12.31l13.15,7.25c10.79,5.9,15,12.31,15,22.43,0,14.16-11.13,24.62-26.48,24.62C326,446.82,316.34,445,306.23,442.1Z"/></svg>