<?xml version="1.0" encoding="utf-8"?>
<!-- Generator: Adobe Illustrator 19.0.0, SVG Export Plug-In . SVG Version: 6.00 Build 0)  -->
<svg version="1.1" id="Layer_1" xmlns="http://www.w3.org/2000/svg" xmlns:xlink="http://www.w3.org/1999/xlink" x="0px" y="0px"
	 viewBox="0 0 500 500" style="enable-background:new 0 0 500 500;" xml:space="preserve">
<style type="text/css">
	.st0{fill:#0086D0;}
	.st1{fill:#8EC320;}
</style>
<g id="XMLID_28_">
	<path id="XMLID_36_" class="st0" d="M254.7,210.8h-20.1V201h-5.3v9.7h-19.9v27.5h19.9v14.9h5.3v-14.9h20.1V210.8z M229.3,233.4
		h-14.7v-17.8h14.7V233.4z M249.5,233.4h-14.9v-17.8h14.9V233.4z"/>
	<path id="XMLID_39_" class="st0" d="M313,202.8h-46v48.8h46V202.8z M308,247h-36v-39.4h36V247z"/>
	<polyline id="XMLID_40_" class="st0" points="292.3,238.1 292.3,227.4 303.4,227.4 303.4,222.8 292.3,222.8 292.3,216.1 
		304.3,216.1 304.3,211.6 275.3,211.6 275.3,216.1 287.4,216.1 287.4,222.8 276.3,222.8 276.3,227.4 287.4,227.4 287.4,238.1 
		274.5,238.1 274.5,242.7 305.1,242.7 305.1,238.1 292.3,238.1 	"/>
	<path id="XMLID_41_" class="st0" d="M299.2,237.6l4-3.2c-2.1-2.4-5.9-6.7-5.9-6.7l-3.7,2.8C296.8,234.1,299.2,237.6,299.2,237.6"/>
	<path id="XMLID_42_" class="st0" d="M341.1,235.2l3.4-3.9l-8.5-7.2v-2.5h7.2v-4.6h-7.2v-7.4c3.3-0.8,7.3-1.6,7.3-1.6l-1-4.9
		c-4.3,1.4-18.7,2.9-18.7,2.9l0.7,4.8l6.7-1.1v7.2h-8.1v4.6h7.6c-0.6,1.9-3.2,9.7-8.5,17.1l3.7,4c0,0,3.1-4.9,5.3-9.9v20.5h5v-22.9
		L341.1,235.2"/>
	<path id="XMLID_43_" class="st0" d="M361,227.4c0.4-0.8,0.8-1.6,1.2-2.4l-4.8-0.8c0.7-0.4,1.4-0.8,2.1-1.3
		c9.6-6.3,12.7-13.3,12.7-13.3v-4.2h-16.5c0.7-1.1,1.3-2.1,1.8-3.2l-4.8-1.9c0,0-3.9,8.5-11.5,14.3l4.1,3.2c0,0,3.6-3.4,7.2-7.8h14
		c-1.9,3-4.7,5.6-7.7,7.7l-6.2-5.1l-3.2,3.4l5.2,4.4c-6.4,3.5-12.4,5.1-12.4,5.1l3.2,4c4.5-1.7,7.9-3.1,10.9-4.6
		c-0.8,1.4-2.8,4.4-6.4,7.8c-2.2,2.1-5.2,4.3-8.8,6.2l3.8,3.8c0,0,7.5-3.8,13-10.5h10.5c-1.1,5.1-4.3,8.6-8.2,11.1l-5.7-5.5
		l-3.6,2.9c0,0,3.2,3,4.9,4.9c-7.6,3.2-15.8,3.4-15.8,3.4l2.2,4.2c10.3-0.8,17.2-3.6,22-7.3c8-6.1,9.9-13.9,9.9-13.9v-4.5H361"/>
	<rect id="XMLID_45_" x="383.1" y="205.8" class="st0" width="21.8" height="4.9"/>
	<path id="XMLID_46_" class="st0" d="M400.7,245.3l5-1.9c-1.1-2.5-6-13.6-6-13.6l-4.6,2c1.3,2.7,2.5,5.7,3.6,8.2
		c-2.3,0.5-8.2,1.9-11.2,2.9c0,0,1.4-2.4,4.1-9.7c2.2-6,2.5-7.8,3.4-8.9h11.9v-4.9H381v4.9h8.3c-0.4,1.5-1.8,7-4,12.3
		c-1.3,3-2.6,5.9-4.4,8.1l1.2,3.8c0,0,13.1-4,18.1-4.4C400.5,244.9,400.7,245.3,400.7,245.3"/>
	<path id="XMLID_47_" class="st0" d="M417.1,211.8l0.2-10.7h-5.5c0,0,0,4.8,0.1,10.7h-6.7v4.9h6.8c0,3.7-0.1,7.6-0.3,10.2
		c-0.5,6.1-1.4,8.6-1.4,8.6c-2.7,10.1-10.6,14.6-10.6,14.6l3.9,3.7c14.1-9,13.2-29.1,13.2-29.1l0.2-8h8.7l-1.1,26.5
		c0,3.3-3.2,3.2-3.2,3.2h-6.1l1,5.3h5.8c7.4,0,7.7-7.6,7.7-7.6l1.2-32.2H417.1"/>
	<rect id="XMLID_51_" x="262.5" y="272.7" class="st0" width="4.1" height="20.7"/>
	<rect id="XMLID_52_" x="262.5" y="264.4" class="st0" width="4.1" height="4.6"/>
	<rect id="XMLID_53_" x="396.9" y="272.7" class="st0" width="4.1" height="20.7"/>
	<rect id="XMLID_54_" x="405.5" y="262.1" class="st0" width="4.1" height="31.2"/>
	<rect id="XMLID_59_" x="396.9" y="264.4" class="st0" width="4.1" height="4.6"/>
	<path id="XMLID_60_" class="st0" d="M253.4,272.4c0,0-4.8-1.2-8.1,2.4v-12.6h-4.1v31.2h4.1v-14.2c0.7-1.4,2.7-4.2,6.6-3.4
		c0,0,2.2,0.4,2.2,4c0,4,0,13.6,0,13.6h4.2v-13.5C258.4,279.9,258.9,273.7,253.4,272.4"/>
	<path id="XMLID_61_" class="st0" d="M283,272.4c0,0-5-1.3-8.3,2.7l-0.6-2.5h-3.1v20.8h4v-14l0,0c0.8-1.3,2.9-4.2,6.7-3.5
		c0,0,2.2,0.4,2.2,4c0,4,0,13.6,0,13.6h4.2v-13.5C287.9,279.9,288.5,273.7,283,272.4"/>
	<path id="XMLID_64_" class="st0" d="M302.8,272.7c-4.9-1.8-10.2,0.6-10.2,0.6v3.8c0,0,10.9-4.9,10.9,3.7l0,0.2c0,0-6-1.8-9.2,0.2
		c0,0-5.1,2.8-2.8,8.6c0,0,1.8,4.2,6.5,4c1.6-0.1,3.5-0.7,5.8-2.2l0.3,1.7h3.6v-13.2C307.5,280.2,308,274.6,302.8,272.7z
		 M303.3,288.1c0,0-1.9,2-5.5,2.1c0,0-3.4-0.2-2.9-3.6c0.5-3.5,4.8-3.2,8.3-2.1V288.1"/>
	<polyline id="XMLID_65_" class="st0" points="334,285.7 325.2,264.5 319.5,264.5 319.5,293.4 323.7,293.4 323.7,271.4 333,293.4 
		335,293.4 344.2,271.5 344.2,293.4 348.4,293.4 348.4,264.5 342.9,264.5 334,285.7 	"/>
	<path id="XMLID_68_" class="st0" d="M361.9,272.1c-5.9,0-10.8,4.8-10.8,10.8c0,6,4.8,10.8,10.8,10.8c6,0,10.8-4.8,10.8-10.8
		C372.7,276.9,367.9,272.1,361.9,272.1z M361.9,290.1c-3.9,0-7.1-3.2-7.1-7.2c0-4,3.2-7.2,7.1-7.2c3.9,0,7.1,3.2,7.1,7.2
		C369.1,286.9,365.9,290.1,361.9,290.1"/>
	<path id="XMLID_71_" class="st0" d="M388.6,273c-5.3-2.5-8.9,1.1-8.9,1.1v-11.9h-4.2v31.2h3.2l0.5-1.8c1.8,2.2,5.1,2.3,5.1,2.3
		c2.8,0,5-1.3,6.6-2.9c1.8-1.9,2.7-4.8,2.8-6C394.1,281.8,394,275.6,388.6,273z M384.6,290.3c-3.8,0.1-5-2.3-5-2.3v-10.1
		c0,0,1.8-2.1,4.9-2.1c3.1,0,4.5,2.4,4.9,6C389.8,285.3,388.9,290.2,384.6,290.3"/>
	<path id="XMLID_74_" class="st0" d="M428.3,275.2c-2.4-3.3-6.4-3-6.4-3c-2.4,0-4.5,1-5.9,2.2c-2.2,1.9-2.9,4.8-2.9,4.8
		c-1.8,7.3,1.5,11.3,1.5,11.3c1.6,2.2,4.8,3.3,7.4,3.5c4.4,0.3,7.6-1.3,7.6-1.3V289c-12.9,4.5-13-4.8-13-4.8h13.9
		C430.6,279.7,429.6,276.9,428.3,275.2z M416.9,280.6c0,0,0.9-4.8,5-4.8c4.1,0,4.2,4.8,4.2,4.8H416.9"/>
	<path id="XMLID_75_" class="st0" d="M224.1,289.8c-6,0-10.9-4.9-10.9-11c0-6.1,4.9-11,10.9-11c4.1,0,7.6,2.3,9.5,5.6h4.4
		c-2.2-5.6-7.5-9.5-13.8-9.5c-8.2,0-14.8,6.7-14.8,14.9s6.7,14.9,14.8,14.9c6.4,0,11.8-4,13.9-9.7h-4.3
		C231.9,287.4,228.3,289.8,224.1,289.8"/>
	<path id="XMLID_76_" class="st1" d="M75.2,232.2c0,0,11.3,15,23.8,24.9c0,0,4.7,4,9.8-0.5c5.1-4.6,26-23.6,26-23.6
		s7.9-7.8,16.7-0.1c0,0,18.5,16.4,28.6,30.2c0,0,0.6,0.5,0.1,1.4c-0.5,0.9-1.5,3.3-1.5,3.3s-11.1-14.4-23.9-25c0,0-5-3.8-9.3,0.2
		c-4.3,4-24.6,22.6-27.9,25c-3.2,2.4-8.6,4.8-16.2-1.9c-5.9-5.3-21.4-19.9-27.5-29.1c0,0-0.6-0.5-0.1-1.5
		C74.3,234.3,75.2,232.2,75.2,232.2"/>
	<path id="XMLID_77_" class="st0" d="M77.5,227.7l6.5,7.1c0,0,0.8,1,2.3-0.3c1.5-1.3,21.4-20.7,29-26.1c4.3-3.1,9-5.1,14.2-5.5
		c3.9-0.3,8.1,0.1,12.6,2.2c4.9,2.2,12.3,8.2,19.2,15.4c4.9,5.1,9.8,10.7,13.9,16.2c2.8,3.7,5.4,7.4,7.5,10.7c0,0,0-4.5-2-8.3
		c0,0-8.1-15.6-24-30.2c-1.6-1.4-15.1-15-28.2-14.7c0,0-12.3-0.7-23.4,8.5C103.2,204.1,83.6,221,77.5,227.7"/>
	<path id="XMLID_78_" class="st0" d="M91.4,242.7l7.3,7.1c0,0,1.7,1.3,3.6-0.5c0,0,7-6.9,13.1-12.4c5.7-5.2,11.4-10.6,13.6-12.1
		c0,0,9.2-9.6,21-0.3c0,0,16,12.6,31.8,34.1l0.5-2.5c0,0,0.6-2.1-0.8-4.1c0,0-12.3-18.2-27.5-31.3c0,0-7.6-8-17.2-10
		c0,0-8-1.9-15.6,4.1c-3.7,2.9-11.8,10.5-18.5,16.9C96.4,237.5,91.4,242.7,91.4,242.7"/>
	<path id="XMLID_79_" class="st0" d="M176.2,272.3l-6.5-7.1c0,0-0.8-1-2.3,0.3c-1.5,1.3-21.4,20.7-29,26.1c-4.4,3.1-9,5.1-14.2,5.5
		c-3.9,0.3-8.1-0.1-12.6-2.2c-4.9-2.2-12.3-8.2-19.2-15.4c-4.9-5.1-9.8-10.7-13.9-16.2c-2.8-3.7-5.4-7.4-7.5-10.7c0,0,0,4.5,2,8.3
		c0,0,8.1,15.6,24,30.2c1.5,1.4,15.1,15,28.2,14.7c0,0,12.3,0.7,23.4-8.5C150.5,295.9,170.1,279,176.2,272.3"/>
	<path id="XMLID_80_" class="st0" d="M162.3,257.3l-7.3-7.1c0,0-1.7-1.3-3.6,0.5c0,0-7,6.9-13.1,12.4c-5.7,5.2-11.4,10.6-13.6,12.1
		c0,0-9.2,9.6-21,0.3c0,0-16-12.6-31.8-34.1l-0.5,2.5c0,0-0.6,2.1,0.8,4.1c0,0,12.3,18.2,27.5,31.3c0,0,7.6,8,17.3,10
		c0,0,8,1.9,15.6-4.1c3.7-2.9,11.8-10.5,18.6-16.9C157.4,262.5,162.3,257.3,162.3,257.3"/>
</g>
</svg>
