<svg xmlns="http://www.w3.org/2000/svg" viewBox="0 0 600 130"><defs><style>.cls-1{fill:#fff;}</style></defs><g id="White"><path class="cls-1" d="M59.37,99.24A35.72,35.72,0,1,1,85.89,39.61l-9.3,10.24A22,22,0,1,0,77,76.67l9.92,9.58a35.65,35.65,0,0,1-27.55,13M118.82,63a59.41,59.41,0,1,0-99.93,43.87L15.82,126l16.88-9.51A59.43,59.43,0,0,0,118.82,63"/><path class="cls-1" d="M370.45,64.76v-.13c0-9.61,7.65-17.94,17.46-17.94,6.45,0,10.48,3,13.71,6.32l-2.35,2.41c-3-3-6.32-5.64-11.42-5.64-7.8,0-13.84,6.52-13.84,14.71v.14c0,8.26,6.24,14.85,14.11,14.85,4.83,0,8.6-2.49,11.48-5.71l2.29,2c-3.5,4-7.66,6.79-14,6.79a17.63,17.63,0,0,1-17.46-17.81"/><path class="cls-1" d="M435.41,64.76v-.13c0-8.26-6.18-14.85-14.11-14.85-8.13,0-14,6.65-14,14.71v.14c0,8.26,6.18,14.85,14.11,14.85,8.13,0,14-6.65,14-14.72m-31.64,0v-.13a17.7,17.7,0,0,1,17.67-17.94A17.52,17.52,0,0,1,439,64.49v.14A17.71,17.71,0,0,1,421.3,82.57a17.52,17.52,0,0,1-17.53-17.81"/><path class="cls-1" d="M443.07,47.5h3.29v6.38a13.41,13.41,0,0,1,12.36-7.19c8.67,0,13.71,5.91,13.71,14.11v21h-3.3V61.41c0-7.06-4-11.69-10.88-11.69-6.72,0-11.89,5.1-11.89,12.22V81.76h-3.29Z"/><path class="cls-1" d="M477.53,47.5h3.29v6.38a13.43,13.43,0,0,1,12.36-7.19c8.67,0,13.71,5.91,13.71,14.11v21H503.6V61.41c0-7.06-4-11.69-10.89-11.69-6.71,0-11.89,5.1-11.89,12.22V81.76h-3.29Z"/><path class="cls-1" d="M539.4,63c-.47-6.92-4.43-13.31-12.29-13.31-6.79,0-12,5.71-12.63,13.31ZM511,64.7v-.14c0-9.94,7-17.87,16.25-17.87,9.61,0,15.72,7.79,15.72,17.94A9.58,9.58,0,0,1,542.9,66H514.48c.6,8.54,6.72,13.51,13.44,13.51a15.36,15.36,0,0,0,11.75-5.38l2.29,2c-3.5,3.76-7.6,6.45-14.18,6.45-9,0-16.79-7.19-16.79-17.87"/><path class="cls-1" d="M546.19,64.76v-.13c0-9.61,7.66-17.94,17.46-17.94,6.45,0,10.49,3,13.71,6.32L575,55.42c-3-3-6.32-5.64-11.42-5.64-7.8,0-13.84,6.52-13.84,14.71v.14c0,8.26,6.24,14.85,14.11,14.85,4.83,0,8.6-2.49,11.48-5.71l2.29,2c-3.49,4-7.66,6.79-14,6.79a17.63,17.63,0,0,1-17.46-17.81"/><path class="cls-1" d="M584.68,73V50.52h-5v-3h5v-11H588v11h12v3H588v22.1c0,4.91,2.89,6.66,6.86,6.66a11.46,11.46,0,0,0,5-1.21v3.09a12.62,12.62,0,0,1-5.57,1.21c-5.31,0-9.61-2.89-9.61-9.41"/><path class="cls-1" d="M161.37,82.54a17.94,17.94,0,0,1,.06-35.87c6.51,0,10.55,2.41,13.74,5.92l-4.88,5.28c-2.41-2.54-4.95-4.3-8.92-4.3-5.73,0-9.9,5-9.9,11s4.23,11.14,10.29,11.14c3.71,0,6.44-1.76,8.92-4.3l4.75,4.69c-3.39,3.77-7.36,6.44-14.06,6.44"/><path class="cls-1" d="M223.76,81.71h-7.88V49.13a1.88,1.88,0,0,1,1.81-1.8H234.5c7.75,0,12.25,4.49,12.25,12.5V81.71h-7.88V62.17c0-5.34-2.67-8.39-7.36-8.39s-7.75,3.19-7.75,8.52Z"/><rect class="cls-1" x="321.35" y="34.23" width="7.88" height="47.53"/><path class="cls-1" d="M359,62.12c-.53-5.1-3.53-9.08-8.75-9.08-4.83,0-8.22,3.72-8.94,9.08Zm-7.71,14c3.86,0,6.6-1.43,9.34-4.11l4.63,4.11a17.4,17.4,0,0,1-14.1,6.46c-10,0-17.68-7.24-17.68-17.94,0-9.93,7-18,16.84-18,11,0,16.51,8.62,16.51,18.6,0,.72-.07,1.37-.13,2.16H341.35c.91,5.61,4.82,8.74,9.91,8.74"/><path class="cls-1" d="M264.87,82.53a24.33,24.33,0,0,1-14.71-5.19L253.71,72a19.47,19.47,0,0,0,11.36,4.27c3.41,0,5.38-1.45,5.38-3.74v-.13c0-2.69-3.68-3.62-7.75-4.86-5.12-1.45-10.83-3.55-10.83-10.18v-.13c0-6.56,5.45-10.57,12.34-10.57A24.05,24.05,0,0,1,277,50.56l-3.16,5.65c-3.34-2-6.89-3.28-9.78-3.28-3.08,0-4.85,1.44-4.85,3.47v.13c0,2.5,3.74,3.55,7.81,4.86,5,1.58,10.76,3.88,10.76,10.11v.13c0,7.29-5.64,10.9-12.86,10.9"/><path class="cls-1" d="M193.75,75.74a11.1,11.1,0,1,1,11.1-11.1,11.1,11.1,0,0,1-11.1,11.1m0-29.08a18,18,0,1,0,18,18,18,18,0,0,0-18-18"/><path class="cls-1" d="M299.23,75.74a11.1,11.1,0,1,1,11.11-11.1,11.1,11.1,0,0,1-11.11,11.1m0-29.08a18,18,0,1,0,18,18,18,18,0,0,0-18-18"/></g></svg>