<?xml version="1.0" encoding="utf-8"?>
<!-- Generator: Adobe Illustrator 27.8.1, SVG Export Plug-In . SVG Version: 6.00 Build 0)  -->
<svg version="1.1" id="Layer_1" xmlns="http://www.w3.org/2000/svg" xmlns:xlink="http://www.w3.org/1999/xlink" x="0px" y="0px"
	 viewBox="0 0 863.2 326.5" style="enable-background:new 0 0 863.2 326.5;" xml:space="preserve">
<style type="text/css">
	.st0{fill:#2AB299;}
	.st1{fill:#ffffff;}
</style>
<g id="_x23_ffffffff">
</g>
<g id="_x23_2ab299ff">
	<path class="st0" d="M87.4,0.2c2.5-1.1,5.6,1.9,4.4,4.4c-0.7,2-3.2,2.1-4.8,3.3c-31.9,23.2-57.7,55.2-71.3,92.4
		c-1.1,2.8-2.1,5.7-2.7,8.7c12.3-34.7,35.6-65.1,65-87.1c3.3-2.7,7.5-4.4,9.6-8.4c2.1-2.6,6.5,0.2,5.6,3.3c-0.7,3.1-4.5,2.1-6.4,3.9
		C54.5,43.5,28.1,76,16,114c10.7-27.8,28.5-52.7,51.5-71.6c6.5-5.5,13.6-10.4,20.7-15c0.8-1.1,1.2-2.9,2.8-3.1
		c2.6-0.9,5.3,2,4.2,4.5c-1.1,2.6-4.4,1.8-6.3,3.2C56.5,53.1,30,84.6,18.1,121.8c12.5-32.9,36.3-61.2,66.2-79.6
		c2.2-1.4,4.9-2.4,6.2-4.8c1.5-3.1,6.9-1.2,6.2,2.2c-0.3,3.3-4.3,2.5-6.4,3.8C58.8,62.5,33.1,92,20.9,127
		c13.2-31.8,37.4-59.1,67.9-75.2c2.1-0.9,3.6-2.7,5.1-4.2c2.8-1.4,6,2.1,4.4,4.7c-1.2,2.6-4.5,1.2-6.5,2.5
		C67.8,68.2,47,88,33.3,112.1c-4.1,7.3-7.9,14.8-10.3,22.8c13.1-32,38.5-58.8,70-73.1c0.5-0.8,1-1.7,1.4-2.6
		c1.7-0.7,3.9-0.9,5.1,0.9c1.7,1.9,0.1,5.3-2.5,5.2c-3.6,0.3-6.6,2.5-9.6,4.1c-25.3,14-46.2,36.1-58.3,62.5
		c-1.6,3.6-3.3,7.2-4.2,11.1c12.9-31.4,38.6-57.2,70.2-70c0.9-1.1,1.4-2.7,3-2.9c2.6-0.7,5.1,2.2,4,4.6c-1.1,2.6-4.4,1.6-6.5,2.7
		c-25.9,11-47.9,31-61.2,55.8C31,139.5,27.7,146,26,153c10.3-26.1,29.9-48.5,54.8-61.6C87,88,93.7,85.7,100.2,83
		c3.1-1.4,5.9,3.3,3.4,5.4c-1.5,1.8-3.9,0.9-5.5-0.1c-28.1,9.8-51.7,31.3-64.6,58c-13.5,27.1-15.5,59-8.5,88.3
		c7.2,30.1,23.4,57.3,43.3,80.6c2.3,2.8,4.9,5.4,7.1,8.4c-0.3,0.7-0.9,2.1-1.2,2.8c-2.4,0.2-3.8-2.1-5.3-3.6
		c-26.1-26.4-46.9-58.4-58.5-93.7C-1,195-3.2,157.8,4.8,122.7c7.9-35.5,26.5-68.2,51.9-94c8.6-8.9,18.1-16.9,28-24.3
		C85.3,2.9,85.5,0.8,87.4,0.2z"/>
</g>
<g id="_x23_111313ff">
	<path class="st1" d="M345.1,143.2c4.4,0,8.7,0,13.1,0c0,26.1,0,52.1,0,78.2c-17.5-15.5-34.7-31.4-52.3-46.8
		c0.4,15.5,0.1,31.1,0.2,46.6c-4.3,0-8.7,0-13,0c0.1-26,0-52.1,0.1-78.1c17.3,15.7,34.7,31.2,52.1,46.9
		C345.1,174.4,345.2,158.8,345.1,143.2z"/>
	<path class="st1" d="M85.3,172.9c4.1-16.4,19.7-29.2,36.6-29.5c10.8-0.6,21.4,3.9,29,11.4c-3.1,3.1-6.1,6.1-9.2,9.2
		c-6.2-6.1-15.4-9-24-7c-11.4,2.3-20.6,13.1-20.6,24.9c-0.5,11.8,8.2,23.1,19.6,25.8c8.8,2.3,18.5-0.4,25-6.7c3,3,6,6.1,9.2,9
		c-7.9,8.2-19.7,12.5-31,11.4c-13.4-1.1-25.8-9.7-31.8-21.7C84,191.4,83.1,181.7,85.3,172.9z"/>
	<path class="st1" d="M206.4,144.5c10.6-2.6,22.6-1.2,31.7,5.1c8.2,5.7,14.8,14.1,16.8,23.9c2,9.9,0.8,20.8-4.9,29.4
		c-3.3,4.9-7.6,9.2-12.5,12.5c-9.3,6.1-21.3,7.4-31.9,4.5c-8.5-2.4-15.7-8-20.9-15c-8.1-10.8-9.4-26.1-4-38.3
		C185.6,156.1,195.1,147.5,206.4,144.5 M209.2,157.4c-12,3.4-20.4,16.1-18.4,28.5c1.4,12.7,13.3,23.1,26.1,22.5
		c13.3,0.3,25.4-11.3,25.7-24.5c0.7-8.6-3.6-17.3-10.5-22.3C225.7,156.5,216.9,155.1,209.2,157.4z"/>
	<path class="st1" d="M395.2,143.3c4.9,0,9.8,0,14.6,0c8.2,16.3,16.2,32.6,24.6,48.8c8.1-16.3,16.4-32.5,24.5-48.8
		c4.9,0,9.7,0,14.6,0c-10.3,20.4-20.5,40.9-30.7,61.3c-2.9,5.5-5.3,11.3-8.6,16.5C421.2,195.2,408.3,169.2,395.2,143.3z"/>
	<path class="st1" d="M510.6,143.3c17.3,0,34.7,0.1,52-0.1c0.1,4.4,0,8.7,0.1,13.1c-13,0-26.1,0-39.1,0c0,6.5,0,13.1,0,19.6
		c13,0,26,0,39.1,0c0,4.3,0,8.6,0,12.9c-13,0.1-26,0-39.1,0c0,6.4,0,12.9,0,19.4c13,0.1,26.1,0,39.1,0c-0.1,4.4-0.1,8.7,0,13.1
		c-17.4,0-34.7,0-52.1,0C510.6,195.4,510.6,169.3,510.6,143.3z"/>
	<path class="st1" d="M599.8,143.3c13.3,0,26.7-0.1,40,0c12.6,0,24.1,10.9,25,23.4c1.3,11.1-5.6,22.5-15.9,26.6
		c5.3,9.4,10.7,18.7,16.1,28c-5,0.1-10,0-15,0.1c-5.1-8.6-10.1-17.4-15.2-26c-7.4,0-14.8,0-22.1,0c0,8.7,0,17.3,0,26
		c-4.3,0-8.6,0-13,0C599.8,195.4,599.9,169.4,599.8,143.3 M612.8,156.4c0,8.6,0,17.2,0,25.8c8.7,0.1,17.4,0.1,26.1,0.1
		c6.7,0.3,13-5.7,12.9-12.4c0.7-7.1-5.9-13.8-13-13.5C630.2,156.4,621.5,156.4,612.8,156.4z"/>
	<path class="st1" d="M707.2,163.1c6.4-10.9,18-19,30.8-19.6c11.4-1.1,23,3.3,31.1,11.3c-3.2,3-6.2,6.3-9.5,9.2
		c-4.9-4.9-11.7-7.8-18.6-7.6c-10.3-0.1-20.1,6.8-23.9,16.3c-4.2,10.6-0.8,23.7,8.5,30.5c10.4,8.2,26.6,6.5,35.3-3.4
		c-0.1-3.6,0-7.2,0-10.8c-6.5,0-13,0-19.6,0c0-4.3,0-8.6,0-13c10.9,0,21.8-0.1,32.8,0c0,9.3,0,18.5,0,27.8
		c-4.8,6.9-11.6,12.5-19.6,15.3c-11.3,4.1-24.7,2.8-34.7-4.1c-7.7-5.4-14-13.2-16.3-22.4C700.9,182.8,702,171.9,707.2,163.1z"/>
	<path class="st1" d="M811,143.3c17.4-0.1,34.7,0,52.1,0c0,4.3,0,8.7,0,13c-13.1,0.1-26.1,0-39.2,0c0.1,6.5,0,13,0.1,19.6
		c13,0,26.1,0,39.1,0c0,4.3,0,8.7,0,13c-13,0-26.1,0-39.1,0c0,6.4,0,12.9,0,19.4c13.1,0,26.1,0,39.2,0c0,4.4,0,8.7,0,13.1
		c-17.4,0-34.8,0-52.1,0C811.1,195.4,811.1,169.4,811,143.3z"/>
</g>
</svg>
