<svg xmlns="http://www.w3.org/2000/svg" xml:space="preserve" id="Layer_1" x="0" y="0" version="1.0" viewBox="0 0 470.84 175.51"><style>.st0{fill:#fff}</style><path d="m80.7 175.18-.27-.28h-2.46l-.27-.27h-1.91l-.28-.27c-1.09-.01-2.19-.1-3.27-.27l-.27-.28h-1.1l-.27-.27h-1.09l-.27-.27h-1.09l-.28-.28c-.75-.06-1.49-.25-2.18-.54h-.82c-2.48-1.03-5.03-1.85-7.64-2.46-.27-.4-3.51-1.35-4.1-1.63s-1.33-.85-1.91-1.1h-.54c-2.37-1.44-5.81-2.94-8.19-4.36-1.31-.78-2.54-1.61-3.83-2.46-.87-.58-1.84-1.55-2.72-2.18-.07-.05-1-.47-1.09-.55-2.39-2-4.83-3.91-7.1-6s-4.28-4.44-6.42-6.68c-1.56-1.73-3.01-3.56-4.36-5.46-1.5-2.07-2.94-4.39-4.37-6.55-.21-.45-.39-.9-.55-1.37-.52-.54-.9-1.2-1.09-1.93-.2-.15-.39-.34-.54-.54-.73-1.31-1.5-3-2.19-4.37v-.55c-.41-.61-.77-1.25-1.09-1.91v-.54c-.33-.42-.6-.88-.82-1.37-.28-.87-.59-1.41-.82-2.18-.66-2.18-1.59-5.67-2.45-7.64-.05-.27-.05-.55 0-.82l-.28-.28c-.1-.71-.17-1.19-.27-1.91l-.27-.27c-.14-1.39-.42-2.76-.82-4.09-.03-.46-.03-.91 0-1.37l-.27-.27v-1.36l-.28-.28C.63 98.34.54 96.7.59 95.06l-.27-.27v-4.64l-.27-.28c-.19-3.15.27-6.29.27-9.55l.27-.27v-2.46l.27-.27c-.01-1.28.09-2.56.28-3.83l.27-.27c.12-1 .19-1.71.27-2.73l.27-.27v-1.09l.28-.27c0-1.32.82-3.13 1.09-4.37-.02-.27-.02-.55 0-.82.78-1.95 1.42-3.96 1.91-6 .4-.26 1.37-3.49 1.64-4.09s.53-.89.82-1.36v-.5c1.54-2.53 2.95-5.8 4.36-8.46 0-.06.5-.45.55-.55.07-.28.16-.55.27-.82 1.13-1.17 2.73-4.35 3.82-5.73 1.87-2.35 3.7-4.89 5.74-7.1s4.4-4.52 6.68-6.68c2.55-2.4 5.29-4.59 8.19-6.55 1.42-.91 2.63-1.79 4.09-2.73.51-.32 1.65-.76 2.19-1.09.1-.07.41-.47.54-.55 1.87-1.08 4.32-2.3 6.28-3.28h.55c.6-.43 1.24-.79 1.91-1.09 1.13-.34 2.17-.94 3.27-1.36 1.55-.59 3-1 4.65-1.64h.81c.87-.4 1.79-.67 2.73-.82.15 0 .88-.52 1.1-.54.75-.1 1.48-.28 2.18-.55.36-.04.73-.04 1.09 0l.27-.27h1.09l.28-.28h1.11l.27-.27h1.09l.28-.27c1.29-.07 2.57-.26 3.82-.55.72-.07 1.46 0 2.18 0l.28-.27h3.27L82.9 0h9.83l.27.27h3.55l.28.27c1.37-.02 2.74.08 4.09.28l.27.27 3 .27.28.27h1.09l.27.28h1.09l.28.27c1.12.15 2.22.42 3.27.82.27-.02.55-.02.82 0 2.21.9 4.49 1.63 6.82 2.18.27.4 3.5 1.37 4.1 1.64s.88.53 1.36.82h.55c2.45 1.54 5.48 2.57 7.91 4.09 1.14 1.14 4.62 2.71 6 3.82 2.44 2 5.49 3.82 7.64 6 2.72 2.76 5.68 5.53 8.33 8.33 1.84 2.08 3.57 4.27 5.18 6.54.77 1 1.75 2.4 2.46 3.55.11.26.2.54.27.82.57.65 1.03 1.39 1.37 2.19 0 0 .49.46.54.54 1.53 2.43 2.56 5.47 4.1 7.92v.54l.81 1.37v.54c.51.84.89 1.77 1.1 2.73.26.21.45.5.54.82.76 2.25 1.34 4.61 2.19 6.83.04.27.04.54 0 .81l.27.28.27 1.91.28.27c0 1.57.84 3.89 1.09 5.46.03.46.03.91 0 1.37l.27.27c.11 1.54.19 2.8.27 4.36l.28.28v3.27l.27.28v9.55l-.27.27c.07 2-.03 4.01-.28 6l-.27.27v1.64l-.27.27v1.36l-.28.28v1.36l-.27.28-.27 2.45-.27.27c0 1.32-.83 3.13-1.1 4.37-.02.27-.02.55 0 .82l-.27.27c-.18.85-.46 1.67-.82 2.46-.03.27-.03.55 0 .82-.18.12-2.61 6.49-2.73 7.1l-.27.27-1.09 2.18v.55c-1.01 1.67-1.92 3.4-2.73 5.18 0 0-.52.48-.55.55-.45.96-1 1.88-1.63 2.73-.11.17-.16.65-.28.82-1 1.34-2.06 3.09-3 4.37-1.79 2.46-3.7 4.82-5.73 7.09-2 2.22-4.18 4.39-6.42 6.42-1.95 1.77-4.18 3.51-6.28 5.18-2.62 1.97-5.35 3.8-8.18 5.46-2.56 1.53-5.76 3-8.46 4.37h-.55c-.43.32-.89.6-1.37.82-1.68.58-3.29 1.34-4.91 1.91s-3.4 1-5.19 1.64c-.27.04-.54.04-.81 0l-.28.27h-.81l-.28.27-1.91.27-.27.28c-1.39.16-2.76.44-4.1.82-.45.04-.91.04-1.36 0l-.27.27h-1.37l-.27.27h-1.91l-.27.27c-2.41-.17-5.52.28-8.19.28l-.28.27c-2.7.15-5.83-.3-8.74-.3zm-38.1-24.61 4.27 1.15c.21-.18.35-.42.4-.69-.02-1.37.07-2.74.27-4.09l-.27-.28c.05-1.46-.04-2.92-.28-4.36l-.82-3.28-1.09-3-2.18-4.37-2.46-3.83-2.18-2.73-4-3.95-4.82-3.55-3.55-1.64-.28-.27c-1.23-.34-2.12-.71-3.27-1.1-.9-.15-1.81-.24-2.73-.27l-.27-.27h-2.41c.29 1.54.4 3.11.31 4.68l3.41.24.28.27h.81l2.46.82 4.09 2.19 4.1 3.27 4.23 4.78 2.18 3.27 1.64 3.54.27.28c.33 1.06.78 2 1.1 3 .14.63.23 1.27.27 1.91l.27.27v1.09l.27.27v2.19l.28.27c.02 1.4-.08 2.81-.3 4.19zm113.16-36.8c.91.06 1.82.06 2.73 0l2.18-.82c.5-.47 1.4-.86 1.64-1.1 1.63-1.31 2.99-2.93 4-4.77.82-1.5 1.55-3.05 2.18-4.64.5-1.24.61-2.32 1.09-3.55.11-.25 0-.55 0-.82l.28-.27c.15-.9.24-1.82.27-2.73l.27-.27v-1.91l.28-.28v-9.55l-.28-.27v-1.92l-.27-.27v-1.36l-.27-.28c.05-.36.05-.73 0-1.09-.35-.88-.31-1.44-.55-2.18-.42-1.3-.87-2.59-1.36-3.82-.69-1.61-1.51-3.17-2.46-4.64-.88-1.28-1.93-2.43-3.14-3.41-.53-.39-1.08-.76-1.64-1.1-.69-.36-1.42-.63-2.18-.81-.9-.17-1.83-.17-2.73 0l-.27.27c-.27-.04-.55-.04-.82 0-.87.36-1.69.82-2.46 1.36-1.15.94-2.2 1.99-3.14 3.14-.5.63-.64 1-1.09 1.64-.64 1.04-1.19 2.14-1.63 3.28-.52 1.29-.85 2.53-1.37 3.82v.81c-.3.7-.48 1.44-.55 2.19l-.27.27v1.37l-.27.27c-.24 1.53-.33 3.09-.27 4.64l-.28.27v5.19l.28.27v2.73l.27.27c.03 1.1.12 2.19.27 3.28.27 1.23.5 2.09.82 3.28s.94 2.57 1.37 3.82c.59 1.43 1.32 2.8 2.18 4.09.89 1.26 4 3.8 4.5 4.5.87.37 1.77.74 2.69 1.1zm-68-96.9.13.2c.79-.39 1.85-1 2.6-1.29 1.47-.53 2.65-.81 4.09-1.37.62-.17 1.26-.26 1.91-.27l.28-.27h1.09l.27-.28h1.09l.27-.27h1.09l.28-.27c1.26-.19 2.54-.28 3.82-.28l.27-.27h2.49l.27-.27c2.93.18 5.83-.27 8.87-.27v-1.87c-1.38-.34-2.71-.81-4-1.41h-.83c-.87-.38-1.78-.66-2.72-.82l-.28-.27-1.91-.27-.27-.28h-1.03l-.27-.27h-1.1l-.27-.27h-1.09l-.27-.27-3-.28-.27-.27c-1.54-.22-3.09-.31-4.64-.28l-.27-.27H81.52l-.27.27h-2.73l-.28.28h-1.63l-.28.27c-1.2.09-2.1.16-3.27.28l-.28.27c-.9.1-1.55.11-2.45.27-1.39.31-4.06 1.36-5.46 1.36l-.27.28c-1.39.37-2.76.82-4.1 1.36-.29.13-.63 0-1 0V11l-.28.27c0 .14-.13.41 0 .41h2l.27.28h5.73l.28.27h2.45l.28.27c1.38.09 2.46.16 3.82.27l.27.28c.91.1 1.56.12 2.46.27 1.55.32 2.73.78 4.37 1.09 1.36.26 2.69 1.13 4.09 1.37l.27.27h.55l.27.27h.55c.36.08.68.27.92.55h-.04zm-66.6 39c.91.13 1.82.13 2.73 0 1.35-.34 2.79-.94 4.09-1.36 1.14-.55 2.24-1.19 3.28-1.92 1.34-.92 2.59-2 3.82-3 1.64-1.44 3.13-3.03 4.46-4.75 1.75 1.12 4.93 2.08 7 3.12h.55l6.55 3.27.27.27h.53c.14-.19 1.15-1.79 1.3-2 .52-1 1.07-1.8 1.63-2.73-2.56-1.11-5-2.73-7.5-3.69l-.27-.27h-.56c-.66-.32-1.3-.68-1.91-1.09h-.55c-.89-.42-1.8-.78-2.73-1.09-.33-.21-.65-.44-.95-.69.72-1.14 1.35-2.32 1.91-3.55.39-1.08.85-2.31 1.09-3.27.04-.36.04-.73 0-1.09l.27-.28v-3.54c-.24-.5-.39-1.44-.54-1.64-.55-.63-1.18-1.19-1.78-1.77-.34-.17-.71-.26-1.09-.28l-.27-.27h-3l-.28.27c-.27-.03-.55-.03-.82 0-.61.21-1.27.37-1.63.55-.9.43-2.53 1.16-3.28 1.63-1.42.91-2.77 1.92-4.04 3.02-1.67 1.51-3.27 3.1-4.78 4.77-1.33 1.53-2.51 3.18-3.55 4.92-.73 1.35-1.5 2.71-2.18 4.09-.23.46-.39 1.9-.82 2.19-.1.71-.17 1.19-.28 1.9l-.27.28c0 1.01-.09 2.01-.27 3l.27.27v1.1l.27.27c-.01.38.09.76.28 1.09.54.64 1.13 1.23 1.77 1.77.34.16.72.26 1.1.28l.18.22zm96.89-26.75.44.15c-.23-4.25-1-8.89-1.41-13.25h-6.4l-.27.27h-3.55l-.27.28h-2.15l-.28.27c-1.19-.01-2.38.08-3.55.27l-.27.28h-1.09l-.27.27c-.36-.04-.73-.04-1.09 0l-3.28.82c-1.09.27-2.71 1.09-3.82 1.36-.33.08-.62.27-.82.55h-.53c-.32.09-.6.28-.81.54h-1.1c-.58-.29-1.6-.88-2.18-1.09-1.34-.48-2.85-1-4.09-1.36s-2.92-.84-4.1-1.09c-.81-.14-1.64-.24-2.46-.28l-.27-.27c-1.08-.18-2.17-.27-3.27-.27l-.28-.28h-2.44l-.27-.27c-3.2.1-5.92-.37-9.12-.27-.26 1.48-.36 2.99-.3 4.5l-.27.27v2.73l-.28.28v2.72l-.27.28v2.73l.41-.41c1.94-.33 3.85-.79 5.73-1.37.81-.18 1.63-.27 2.46-.27l.27-.27h1.09l.28-.28h1.07l.27-.27h1.36l.28-.27h1.36l.27-.27h1.66l.27-.28c1.63-.21 3.28-.3 4.92-.27l.27-.27H84l.27-.27h6.82l.28.27h4.07l.27.27h2.73l.27.27c.64-.04 1.27-.04 1.91 0 1.26.3 2.54.48 3.83.55l.27.27h1.36l.28.27c.45-.03.91-.03 1.36 0 1.56.31 3.82 1.1 5.46 1.1l.27.27c1.57.27 3.12.64 4.64 1.12l-.04-.03zm-27.56 95c2.45 0 4.89.09 7.37 0 1.38-.2 2.74-.47 4.09-.82.8-.34 1.62-.61 2.46-.82.87-.52 1.79-.98 2.73-1.36.57-.33 1.11-.7 1.63-1.1 1.44-1.1 2.78-2.33 4-3.68.81-.94 1.54-1.94 2.19-3 .42-.76 1.13-2.24 1.63-3v-.54c.3-.44.58-.9.82-1.37.53-1.24.99-2.52 1.37-3.82.25-1.22.83-2.91 1.09-4.09.13-.81.23-1.64.27-2.46l.27-.27c.1-1.09.18-1.91.28-3l.27-.28V92.6l.27-.27v-2.18l.28-.28c0-.91-.08-1.82 0-2.73.29-1.62.47-3.26.54-4.91l.27-.27v-1.91l.28-.28v-1.91l.27-.27c.09-1.38.16-2.46.27-3.82l.28-.28c0-.63-.06-1.27 0-1.9.28-1.44.46-2.9.54-4.37l.27-.27c.31-.31 0-.46-.4-.41-.83-.02-1.65-.11-2.46-.28l-.27.28c-.65 0-1.3.09-1.92.27-.22.18-.72.45-.81.54-.72.64-1.41 1.33-2.05 2.05-.73.94-1.24 2-1.91 3s-1.23 2.75-1.91 3.82c-.5.77-1.05 1.5-1.64 2.19-.96.96-2.01 1.83-3.14 2.59-.62.19-1.26.28-1.91.27-.6-.27-1.15-.64-1.64-1.09-1.78-1.86-3.7-3.59-5.73-5.18-1.36-1.17-2.49-2.63-3.82-3.82-5.83-5.24-11.68-10.93-17.47-16.38-1.29-1.26-2.66-2.45-4.09-3.55-.2-.19-.46-.3-.73-.33-.37.29-.71.63-1 1-.16.35-.25.72-.27 1.1l-.27.27c-.27 1.53-.36 3.09-.27 4.64.14.6.42 1.16.81 1.64.87 1.18 1.85 2.72 2.73 3.82 1.87 2.32 3.82 4.6 5.73 6.82.58.67 1.37 1.22 1.92 1.91.87 1.12 1.84 2.4 2.73 3.55.43.69.79 1.42 1.09 2.18.04.27.04.55 0 .82l.27.27v2.19c-.09.09-.18.36-.27.27-.36-.37-.78-.69-1.23-.95-.77-.69-1.5-1.42-2.19-2.19-4.54-4-9.83-8-14.19-12.28-2.07-1.87-4.26-3.6-6.55-5.19-.32-.23-.65-.44-1-.63-.44.36-.81.81-1.07 1.32-.23.79-.33 1.62-.27 2.45l-.27.28c.23.8.32 1.62.27 2.45l.27.28c0 .38.1.75.28 1.09.23.39.51.76.82 1.09 3.27 3.26 6.57 6.86 10 10 2.73 2.51 5.5 5.25 8.32 7.78.36.48.61 1.03.72 1.62.12.81.12 1.64 0 2.45-.18.18-.35.71-.54.54-5.08-4.47-9.81-9.55-14.88-14-1.54-1.36-3.09-2.6-4.64-4.09-.85-.71-1.77-1.35-2.73-1.91-.35.18-.67.41-.95.68-.28.31-.47.68-.55 1.09-.01.27-.01.55 0 .82l-.27.28v3c.1.7.38 1.36.82 1.91 1.16 1.52 2.37 3.09 3.54 4.64 3.69 3.78 8.46 9 12.29 12.28.52.78.97 1.61 1.36 2.46.19 1.1.11 2.23-.24 3.29-3.91-3.71-7.42-7.83-11.36-11.62-.74-.63-1.51-1.2-2.32-1.73-.2.14-.38.31-.54.5-.27.32-.46.69-.55 1.1-.05.45-.05.91 0 1.36-.1.1-.22.21-.32.32.41 1.08.29 2 .59 3 .3.76.66 1.49 1.09 2.18.61.94 1.11 1.51 1.64 2.45.15.27.66.6.82.83 1 1.4 2.22 3.6 3.28 4.91 1.76 2.19 3.38 4.68 5.18 6.82 1.37 1.71 2.87 3.31 4.5 4.78 1.21 1 2.53 2.09 3.83 3 1.47.96 3.02 1.78 4.64 2.46 1.08.4 2.19.74 3.31 1 .27.04.55.04.82 0l.27.27c.9.15 1.82.24 2.73.28l.23.25zm59.77-68.51c1.53.25 3.09.34 4.64.27.57-.21 1.12-.49 1.64-.82.05 0 .93-.91 1-1 .34-.61.61-1.25.82-1.91.13-.72.22-1.46.28-2.19l-.28-.27v-1.91l-.27-.28c.03-.27.03-.54 0-.81-.32-1-.51-1.55-.82-2.46-.61-1.51-1.34-2.97-2.18-4.37-.67-1.13-1.4-2.22-2.19-3.27-.7-1-1.74-2.22-2.45-3-1-1.09-2.05-2.15-3.14-3.14-1.61-1.43-3.35-2.71-5.19-3.83-1.06-.61-2.15-1.15-3.27-1.63-.45-.14-.9-.23-1.37-.27l-.27-.28h-1.09l-.27-.27h-1.91l-.28.27c-.27-.01-.55-.01-.82 0-.4.1-.77.29-1.09.55-.46.35-.87.76-1.23 1.22-.33.61-.6 1.26-.82 1.92-.1 1.27 0 2.54 0 3.82l.28.27c-.04.36-.04.73 0 1.09.3 1 .55 1.45.82 2.46.2.49.48.95.81 1.36v.59l3.28 5.46 2.18 2.73 4.51 4.5 4.09 3 3.55 1.63.27.27h.55l.22.3zm-19.92-3.28c.36.02.73.02 1.09 0 .3 0 .58-.09.82-.27.71-.57 1.3-1.27 1.77-2.05.05-.73.05-1.45 0-2.18-.21-.66-.49-1.3-.82-1.91-.85-.97-1.81-1.84-2.86-2.59-.62-.19-1.26-.28-1.91-.28-.09-.09-.19-.36-.28-.27s-.14.27-.27.27c-.47-.02-.94.08-1.37.28-.59.51-1.09 1.11-1.5 1.77 0 .34-.06 2.29 0 2.45l.28.28c.02.38.11.75.27 1.09l2.59 2.59 1.09.55h.82l.28.27zM27.75 144.06c.9.08.63.17 1.23-.41.04-.73.04-1.45 0-2.18l-1.1-2.46-1.09-1.63-2.59-2.87-1.37-.79h-.54l-.27-.27c-.37 0-.13.49-.56.27-.2.18-.34.42-.4.68.05.64.14 1.28.27 1.91.43 1.15.98 2.25 1.64 3.28 1.08 1.46 2.32 2.8 3.69 4 .3.26.68.43 1.09.47zm94.44-89h.25c.6-.16 1.13-.51 1.5-1 .32-.32.27-1.68.27-2.19-.4-.66-.91-1.26-1.49-1.77-.62-.2-1.27-.29-1.92-.28-.47.25-.89.59-1.23 1-.14.54-.23 1.09-.27 1.64l.27.27v.55c.38.44.79.85 1.23 1.23.25.09 1.36.57 1.39.57v-.02zm-84.34 93.91c.13.14.41.61.41.41v-4.66l-.28-.28c.04-.36.04-.73 0-1.09-.28-.7-.46-1.43-.54-2.18l-.27-.28v-.54c-.09-.32-.29-.61-.55-.82v-.55c-.51-.88-.97-1.79-1.37-2.73-.64-.95-1.25-2.17-1.91-3-1.21-1.59-2.53-3.09-3.95-4.5-1.35-1.23-2.81-2.33-4.37-3.28-.88-.51-1.79-.96-2.73-1.36-.44-.15-.9-.24-1.36-.27l-.28-.28c-.81-.16-1.63-.25-2.45-.27l-.41.41.54.54v1.37l.28.27c.01.68.12 1.35.33 2 1.24.35 2.46.82 3.62 1.38.9.71 1.9 1.26 2.73 1.91 1.16.95 2.22 2.02 3.15 3.2.8.94 1.53 1.95 2.18 3 .54.93 1.19 2 1.64 3 .32.71.59 1.44.82 2.18.15.63.24 1.27.27 1.91l.28.28v2.79c1.35.63 2.76 1.11 4.22 1.44zm91.16 8.75c.61.24 1.26.33 1.91.27.88-.26 1.9-.54 2.73-.82 1.25-.61 2.44-1.34 3.55-2.18 1.3-1.15 2.46-2.45 3.69-3.69.34-.31.61-.68.81-1.09.43-1 .92-1.78 1.37-2.72.27-.97.37-1.99.27-3 1.82-1.82 3.68-3.59 5.46-5.46 1.5-1.66 2.88-3.56 4.23-5.32.46-.05.92-.14 1.37-.27.88-.55 1.67-1.24 2.32-2.05.3-.34.57-.7.81-1.09.52-.97.97-1.97 1.37-3 .14-.9.14-1.83 0-2.73l-1-1h-.81c-.48.22-.94.5-1.37.82-.64.53-1.17 1.18-1.58 1.91h-2l-.27-.27c-.73 0-1.46.06-2.18 0-1.44-.29-2.9-.47-4.37-.55l-.27-.27h-1c.04-.77.04-1.55 0-2.32-.3-.83-.71-1.61-1.23-2.32-.37-.39-.84-.68-1.36-.82-.89-.28-1.84-.28-2.73 0-.96.35-1.88.81-2.73 1.37-.93.79-1.8 1.66-2.59 2.59-.58.84-1.04 1.76-1.37 2.73-.25 1.17-.34 2.36-.27 3.55l.27.27c0 .38.09.76.27 1.09.43.57.94 1.07 1.51 1.5.71.37 1.5.56 2.3.55.2 2.47-.26 5.14-.26 7.78l-.27.27v2.45c-.58.51-2 1.35-2.59 1.78-1.04.87-2 1.83-2.87 2.87-.49.61-.95 1.24-1.36 1.91-.15.22-1.36 3.17-1.37 3.27-.14.92-.05 1.86.27 2.73l1.34 1.26zm-98.94-50.1c1.74 1.85 4 3.57 5.59 5.33.06-.13.11-.27.14-.41 0-.09-.08-.23.14-.14l-.41-.41v-1.09l-.28-.27c-.09-1.09-.17-1.92-.27-3l-.27-.27v-1.64l-.27-.27v-1.64l-.28-.27v-1.92l-.27-.27c-.23-1.72-.32-3.46-.27-5.19l-.28-.27v-5.17l-.27-.27c0-3.82.46-7.47.27-11.19l.28-.28v-3l.27-.27c0-.73-.06-1.46 0-2.19.28-1.44.47-2.9.55-4.36l.27-.27c0-.66-.17-1.18.27-1.64 0-.14.14-.41 0-.41h-10l-.27.27h-6.79l-.27.27h-3.82l-.27.28c-1.92-.06-3.84.03-5.74.27-.26.31-.49.65-.68 1-.14.72-.23 1.45-.27 2.18l-.28.27v1.09l-.27.28v1.09l-.27.27c-.19 1.17-.28 2.36-.27 3.55l-.28.27v2.19l-.27.27v3.27l-.27.28v7.91l.27.28v3.27l.27.27v2.19l.28.27v1.91l.27.28c-.03.78.09 1.57.35 2.31h4.43l.27.28c5 0 10.18.45 15 .27 1.34 1.39 2.68 3.03 3.97 4.44zm55 63.19h5.46l.27-.27h4.09l.28-.28c.81 0 1.64.08 2.45 0 1.26-.28 2.53-.46 3.82-.54l.28-.27 2.45-.28.28-.27c.36.03.73.03 1.09 0 1.52-.32 2.78-.74 4.37-1.09 1.13-.25 3.27-1.16 4.47-1.39.21-1.21.31-2.43.3-3.66l.28-.27v-2.19l.27-.27v-2.73l.27-.27v-3.31l.27-.27c-.17-3.49.28-7.25.28-10.92l.27-.27v-1.34l-.41.41-1.91.28-.27.27h-.82l-.27.27h-.83l-.27.28h-.82l-.28.29c-.36-.03-.73-.03-1.09 0-1.17.37-2.37.64-3.59.82-1.21-2.05-2.53-3.94-3.73-6-1.82.26-3.67.35-5.51.28l-.27.28c-2.55 0-6.16-.24-8.46.27l-.28-.27h-7.07l-.28-.28c-2 .08-4.01-.02-6-.28-.9 1.41-2.6 5.05-3.78 6-.28-.09-2.4-.23-2.73-.28-1.89-.35-4.9-1.36-6.82-1.36l-.28-.27h-1v3.95l.27.28v4.86l.27.27c-.09 2.55.38 4.58.28 7.1l.27.27c0 .91-.08 1.82 0 2.73.31 1.73.49 3.49.54 5.25 1.55.31 3.06.8 4.51 1.44.27.02.55.02.82 0 1.06.4 2.15.67 3.27.82l.27.27 2.46.27.27.28h1.37l.29.3h1.37l.27.27c1.45.21 2.91.3 4.37.27l.27.28h4.09l.26.27zM441.26 124.14l-.27-.27c-.75-.07-1.49-.25-2.18-.55-.27-.03-.55-.03-.82 0-.29-.43-1.72-.6-2.19-.82-.93-.4-1.85-.86-2.73-1.36-.87-.54-1.57-1.07-2.45-1.64-1.46-1.09-2.8-2.32-4-3.69-.69-.78-1.33-1.59-1.91-2.45-1.09-1.63-2-3.37-2.73-5.19-.31-.93-.52-1.48-.82-2.46-.12-.63-.22-1.27-.27-1.91l-.27-.27c-.12-1.18-.19-2.08-.28-3.27l-.27-.28c0-3 .08-5.61.27-8.46l.28-.27v-1.09l.27-.28c.04-.73.13-1.46.27-2.18l.27-.27c.13-.74.31-1.48.55-2.19.55-.95 1.01-1.96 1.37-3 .62-.86 1.16-1.78 1.63-2.73.59-.83 1.53-2 2.19-2.73.92-1.08 1.98-2.04 3.13-2.86.93-.56 1.47-1.1 2.46-1.64s1.76-.91 2.73-1.37c.61-.28 1.42-.52 2.18-.82.63-.13 1.27-.22 1.92-.27l.27-.27c1.44-.25 2.91-.34 4.37-.27l.27-.28c2.11.2 4.18.38 6.28.55l.27.27c.27-.03.55-.03.82 0 1 .28 2.15.69 3.27 1.09 1.52.71 2.98 1.53 4.37 2.46 1.83 1.43 3.53 3.03 5.05 4.78.5.6.95 1.24 1.36 1.91 1 1.81 1.83 3.62 2.73 5.46.17.34.35 1 .55 1.63.03.27.03.55 0 .82l.27.27v.82l.28.28v1.09l.27.27c.24 1.81.33 3.64.27 5.46l.55.55-.55.54v3.69h-39.02c.14.58.24 1.17.3 1.77l.28.28c.19.76.29 1.43.54 2.18.54 1.15 1.18 2.24 1.91 3.27 1 1 2.34 2.56 3.41 3.41 1.14.72 2.33 1.36 3.55 1.92.54.21 1.08.39 1.64.54.36.04.73.04 1.09 0l.28.27h1.63l.28.28c1.37.02 2.74-.08 4.09-.28l.27-.27c.55-.04 1.1-.13 1.64-.27 1.09-.58 2.45-1.09 3.55-1.64 1.31-.85 2.54-1.81 3.69-2.86l6.68 6.68h.41c.14 0 0 .28 0 .41-.72.55-1.4 1.14-2.05 1.78-1.13.89-2.31 1.71-3.55 2.45-1.47.89-3.02 1.62-4.64 2.18-1.06.31-1.6.56-2.73.83-.99.25-1.99.43-3 .54-2.9.02-6.62.24-9.28-.27zm-10.13-33h28c.06-.31.06-.64 0-.95-.35-.79-.62-1.62-.82-2.46-.18-.59-.46-1.14-.82-1.64-.32-.48-1.07-1.57-1.36-1.91-.7-.85-1.47-1.62-2.32-2.32-.64-.49-1-.61-1.64-1.09-.33-.25-2.29-.84-2.46-1.09-.72-.14-1.45-.23-2.18-.27l-.27-.28c-1.82-.07-3.65.02-5.46.28-.83.23-1.65.5-2.46.81-.68.39-1.36.75-1.91 1.09-1.54 1-2.6 2.88-3.68 3.69-.29.87-1 1.6-1.37 2.46-.33 1.25-.75 2.47-1.25 3.65v.03zM280.63 123.59V50.72h10.92v72.87h-10.92zM380.94 124.14l-.27-.27h-1.09l-.28-.28-1.86-.27c-.19-.28-.48-.47-.81-.55-.46-.05-.92-.14-1.37-.27-.93-.4-1.84-.86-2.73-1.36-.95-.58-1.86-1.22-2.73-1.92-1.25-1.02-2.39-2.16-3.41-3.41-.69-.87-1.32-1.79-1.91-2.73-.4-.94-.85-1.85-1.37-2.73v-.54c-.28-.19-.48-.49-.54-.82-.2-.84-.47-1.67-.82-2.46-.04-.27-.04-.55 0-.82l-.27-.27c-.13-1-.19-1.71-.28-2.73l-.27-.27v-1.91l-.27-.27V50.72h10.92v23.06c.54-.59 1.23-1.01 2-1.23l.55-.54c.93-.22 1.55-.8 2.46-1.1s1.47-.52 2.45-.82c.71-.16 1.2-.17 1.91-.27l.28-.27h1.36l.27-.27c1.46.06 2.93-.04 4.37-.28l.27.28h3.28l.27.27h1.39l.27.27 1.91.27.27.28c.47.03.93.12 1.37.27.89.39 2.07 1 3 1.37 1.54.87 3 1.87 4.37 3 1 .91 2 1.86 2.86 2.86.18.2 1.44 1.87 1.64 2.19.44.97.99 1.89 1.64 2.73.28.85.64 1.67 1.09 2.45.42 1.07.79 2.17 1.09 3.28.15.72.24 1.45.27 2.18l.28.27v1.64l.27.28v7.91l-.27.27v1.65l-.28.28c.06.36.06.73 0 1.09-.29.89-.54 2.05-.82 3-.54 1.5-1.18 2.96-1.91 4.37-.87 1.54-1.87 3-3 4.36-1.28 1.47-2.69 2.81-4.23 4-.86.65-2.06 1.29-3 1.91-1.24.61-2.51 1.14-3.82 1.59-.27-.02-.55-.02-.82 0-.35.21-.71.4-1.09.55-1.2.1-1.91.5-3 .54-3.01.03-6.86.25-9.59-.27zm3.82-9.56h3.82l.28-.27h1.36l.27-.27c1.12-.28 2.21-.65 3.28-1.09.58-.31 1.13-.68 1.64-1.1 1.07-1 2.14-2.05 3.14-3.13.73-1.03 1.37-2.13 1.91-3.28.38-1 .78-2.25 1.09-3.28.22-1.08.31-2.17.27-3.27l.28-.27v-3.55l-.28-.27c.02-1.1-.07-2.2-.27-3.28-.34-1-.71-2.31-1.09-3.28-.54-1.14-1.18-2.24-1.91-3.27-.75-.84-1.27-1.5-2.05-2.32-.67-.62-1.4-1.17-2.18-1.64-.97-.51-1.98-.96-3-1.36-.72-.14-1.45-.23-2.18-.27l-.27-.28h-4.37l-.27.28c-.37-.04-.73-.04-1.1 0-1 .3-1.5.51-2.45.81-.98.42-1.9.97-2.73 1.64-1.05.86-2.01 1.82-2.87 2.87-.49.62-.59 1-1.09 1.63-.29.39-1.13 2.85-1.36 3-.19.93-.36 1.77-.55 2.73l-.27.27c-.19 2.41-.27 4.56-.27 7.09l.27.28v1.64l.54 2.18 1.64 3.82 1.09 1.64 2.87 2.86 3.55 1.92h.54l.28.27c.72.14 1.45.23 2.18.27l.26.28zM322.53 124.41l-.27-.27h-1.37l-.27-.27c-.64-.04-1.28-.13-1.91-.28-1.02-.31-2.02-.67-3-1.09-.94-.39-1.85-.85-2.73-1.36-.95-.58-1.87-1.22-2.73-1.92-1.52-1.29-2.94-2.71-4.23-4.23-.8-1.04-1.53-2.14-2.19-3.27-.67-1.12-1.21-2.31-1.63-3.55-.25-1-.52-1.48-.82-2.46-.12-.63-.22-1.27-.27-1.91l-.28-.27v-1.37l-.27-.27c.15-2.1-.27-5.46-.27-7.91l.27-.28c-.01-1.19.08-2.37.27-3.54l.28-.28c.03-.64.12-1.28.27-1.91.37-1.3.82-2.58 1.36-3.82 1.67-3.8 4.25-7.12 7.51-9.69.81-.66 1.78-1.27 2.73-1.91 1.03-.66 2.13-1.21 3.27-1.64 1-.27 1.47-.51 2.46-.82.7-.16 1.2-.17 1.91-.27l.27-.27h1.37l.27-.27c1.55.05 3.11-.04 4.64-.28l.27.28c1.55-.08 3.11.01 4.64.27l.28.27c.64.03 1.28.12 1.91.27 1.03.28 2.03.65 3 1.1 1.6.81 3.15 1.72 4.64 2.73 1.55 1.17 2.97 2.52 4.23 4 1.13 1.37 2.13 2.83 3 4.37.51.97.97 1.98 1.37 3 .39 1.17.72 2.07 1.09 3.28.15.72.24 1.45.27 2.18l.28.27v1.64l.27.28v7.91l-.27.27c-.01 1.01-.1 2.01-.28 3l-.27.27c-.04.67-.23 1.32-.55 1.91-.04.27-.04.55 0 .82-.35.23-.85 2.29-1.09 2.73-.84 1.57-1.75 3.17-2.73 4.64-1.18 1.55-2.52 2.97-4 4.23-1.35 1.14-2.81 2.14-4.36 3-1.22.66-2.5 1.21-3.82 1.64-1.06.21-2.28.53-3.28.82-.45.04-.91.04-1.36 0l-.28.27-7.6-.04zm2.18-9.83h3.55l.27-.27c1.73-.02 3.43-.49 4.92-1.36 1.15-.75 2.24-1.57 3.28-2.46.63-.76.82-1 1.5-1.77.73-1.04 1.37-2.14 1.91-3.28.23-.74.5-1.47.81-2.18.15-.72.24-1.45.28-2.19l.27-.27v-1.64l.27-.27v-3.82l-.27-.27c.02-1.1-.07-2.2-.27-3.28-.34-1-.7-2.32-1.09-3.28-.54-1.14-1.18-2.24-1.91-3.27-.61-.84-1.29-1.61-2.05-2.32-.7-.59-1.43-1.14-2.19-1.64-.95-.55-1.96-1-3-1.36-.63-.16-1.27-.25-1.91-.27l-.27-.28h-4.64l-.27.28c-.37-.04-.73-.04-1.1 0-1 .3-1.5.51-2.45.81-.98.42-1.9.97-2.73 1.64-1.05.85-2.02 1.82-2.87 2.87-.49.62-.6 1-1.09 1.63-.29.39-1.13 2.85-1.37 3-.18.93-.35 1.77-.54 2.73l-.27.27c-.19 2.41-.28 4.56-.28 7.09l.28.28c-.06.55-.06 1.1 0 1.64.3.88.32 1.38.54 2.18.42 1.32.97 2.6 1.64 3.82.4.67.85 1.31 1.36 1.91.72.82 1.55 1.55 2.32 2.32.31.34.68.62 1.1.82 1.12.46 2.46 1.09 3.55 1.64.8.18 1.63.27 2.45.27l.27.28zM241.74 124.72l-.27-.27c-1.73.07-3.47-.02-5.19-.27l-.27-.27h-1.09l-.28-.28h-.82l-.27-.27h-.82l-.27-.28h-.82l-.27-.27-1.37-.27c-.23-.36-2.28-.89-2.73-1.09-1.24-.52-2.43-1.16-3.55-1.91-1.93-1.21-3.76-2.59-5.46-4.1-1.73-1.74-3.32-3.61-4.77-5.59-.52-.72-.84-1.32-1.37-2.19-.71-1.24-1.35-2.51-1.91-3.82-.52-1.17-.84-2.56-1.36-3.82-.04-.27-.04-.55 0-.82l-.27-.27c-.11-.71-.17-1.2-.28-1.91l-.27-.27c-.18-.99-.27-1.99-.27-3l-.28-.27v-2.46l-.27-.27c0-2.89.43-6.42.27-9l.28-.27v-1.64l.27-.27v-1.15l.27-.27c.07-.75.25-1.49.55-2.19v-.82c.52-1.28 1-2.49 1.36-3.82l.28-.27 1.91-4.09 2.45-3.55 4.23-4.51 4.92-3.55 3.82-1.9 3.82-1.37 2.18-.55h1.1l.27-.27h1.09l.27-.27h2.19l.27-.27c2.76 0 6.46-.21 9 .27l.27.27h1.36l.28.27c.73.04 1.46.13 2.18.28 1.32.58 2.69 1.04 4.1 1.36l.27.28 4.64 2.18 2.18 1.36 5.61 4.83c-2.84 2.17-5.13 5.09-7.94 7.3-1.47-1.45-3.06-2.77-4.76-3.94-.86-.37-1.69-.83-2.46-1.36h-.55c-.41-.34-.87-.62-1.36-.82-1-.27-1.47-.52-2.46-.82-.72-.15-1.45-.24-2.18-.27l-.28-.28h-1.63l-.28-.27h-5.18l-.28.27h-1.63l-.27.28-2.46.27-.27.27c-.74.13-1.47.32-2.19.55-1.13.45-2.23 1-3.27 1.63-.85.5-1.67 1.05-2.46 1.64-1.53 1.38-2.95 2.89-4.23 4.51-.39.52-.75 1.07-1.09 1.63-.62 1.06-1.16 2.17-1.63 3.31-.4 1-.73 2.16-1.09 3.27-.03.27-.03.55 0 .82l-.28.28c-.12 1-.18 1.71-.27 2.73l-.27.27v3.27l-.27.28c.02 2.28.2 4.56.54 6.82l.27.27v1.1l.28.27c-.03.27-.03.55 0 .82.3 1.11.67 2.2 1.09 3.27.44 1.14.99 2.24 1.64 3.28.49.85 1.04 1.67 1.63 2.45 1.42 1.76 3.02 3.36 4.78 4.78 1.48 1.02 3.03 1.93 4.64 2.73.98.42 1.98.79 3 1.09.71.13 1.2.17 1.92.28l.27.27c1.26.2 2.54.29 3.82.27l.27.27c2.17 0 4.62-.43 6.55-.27l.28-.27h1.6l.28-.27h1.09l.27-.28h.82l.27-.27 1.91-.27.27-.28 2.6-.64v-17.4h-12.51v-9.83h23.2v33.81c-.99.39-1.95.86-2.86 1.4-.84.4-1.73.68-2.73 1.1-1.58.64-3.54 1.06-5.19 1.63-.7.25-1.3.2-2.18.55-.36.05-.73.05-1.09 0l-.28.27h-1.09l-.27.28-3.82.27-.27.27h-3.55l-.28.27-3.29.04z" class="st0"/><path d="M138.93 142.43c.26-1.03.37-2.08.32-3.14l.27-.28v-2.45l.27-.28c-.06-1.46.03-2.92.28-4.36.84-.8 1.62-1.67 2.32-2.6 3.18.36 6.44.68 9.64 1.11.04.5.04.99 0 1.49-.46.64-.94 1.3-1.37 1.91-1.33 1.87-3.36 4-4.91 5.73-.89 1-1.91 1.92-2.87 2.87-.16.13-.34.22-.54.27-1.12-.25-2.27-.34-3.41-.27zM150.85 50.99l-.28-.27c-.55-.05-1.1-.14-1.63-.28-1.14-.56-2.23-1.2-3.28-1.91-2.11-1.69-4.07-3.56-5.87-5.59-.7-.77-1.34-1.59-1.91-2.46-.44-.74-.87-1.41-1.36-2.18s-.81-1.83-1.37-2.73c-.25-.46-.22-1-.54-1.64-.03-.92-.12-1.83-.28-2.73l.28-.27c-.02-.47.08-.94.27-1.37.31-.36.64-.69 1-1 1.13-.42 2.36-.52 3.54-.28 1.15.43 2.25.98 3.28 1.64.83.63 1.4 1 2.18 1.64 1.49 1.33 2.9 2.74 4.23 4.23.43.46 1.77 2.11 2.19 2.73.58.87 1.27 2.15 1.91 3 .09.12.94 1.87 1.09 2.18.21.54.4 1.08.55 1.64.03.36.03.73 0 1.09l.27.28v1.36l-.27.28c-.03.38-.12.75-.28 1.09-.34.47-.76.89-1.23 1.23-.24.15-.52.25-.81.27-.54.05-1.22.1-1.68.05zM22.29 50.44s-1-.94-1-.95c-.15-.35-.24-.71-.27-1.09l-.27-.28c-.11-2 .36-3.99 1.36-5.73.48-.76.63-1 1.09-1.91.59-.96 1.24-1.88 1.95-2.76 1.01-1.34 2.11-2.6 3.29-3.79 1.32-1.32 2.74-2.56 4.23-3.69.77-.39 1.5-.85 2.19-1.36h.58c.19-.28.49-.48.82-.55h.82l.27-.27c.83-.13 1.68-.04 2.46.27.63.47 1.15 1.08 1.5 1.78.18.62.27 1.26.27 1.91l-.27.27c-.02.83-.11 1.65-.27 2.46l-.28.27-.32 1.09-1.64 3-3.55 4.61-3.13 3.14-3.28 2.46-3 1.37c-1.19.05-2.38-.03-3.55-.25zM155.9 99.72c.6-6.67.27-14 .27-20.75l-.27-.27v-3.41c0-.14.27 0 .41 0 1.86 1.87 3.82 3.64 5.59 5.59 1.41 1.57 3 3.71 4.37 5.46.12.16.78 1.3.91 1.54-1.5 1.66-2.87 4.1-4.46 5.83-2.1 2.29-4.42 4.42-6.62 6.63-.15.14-.22-.42-.2-.62zM82.88 167.81l-.27-.28c-.54-.12-1.09-.21-1.64-.27-.16-.25-2.12-.85-2.45-1.09-.66-.48-1-.61-1.64-1.09-.76-.58-1.44-1.27-2-2.05-.5-.65-.87-1.39-1.09-2.18-.08-1.11 0-2.18 0-3.28l.27-.27c.02-.47.12-.92.28-1.36.29-.68.66-1.32 1.09-1.92 1.05-1.31 2.29-2.46 3.68-3.41.85-.49 1.81-.8 2.73-1.36.51-.23 1.05-.41 1.6-.53 1.26-.25 2.54-.34 3.82-.27l.55-.54.54.54c1.28-.04 2.56.05 3.82.27l.28.27c.74.11 1.47.29 2.18.55 1.23.66 2.41 1.38 3.55 2.18.88.77 1.65 1.64 2.32 2.6.42.7.79 1.42 1.09 2.18.03.27.03.55 0 .82l.27.27c.14 1.28.04 2.57-.27 3.82-.28.68-.65 1.33-1.09 1.92-.59.74-1.26 1.41-2 2-.96.61-1.96 1.16-3 1.64-1.21.51-2.51.79-3.82.82l-.27.27h-2.73l-.28.28-5.52-.53zm2.73-2.73h4.37l.27-.27c.55-.05 1.1-.14 1.64-.28.61-.13 1.17-.41 1.64-.82.66-.66 1.62-1.65 2.32-2.32.29-.3.48-.68.54-1.09.04-.36.04-.73 0-1.09l.29-.29c-.3-.32-.38-1.84-.56-2.17-.55-.86-1.23-1.64-2-2.32-.95-.64-1.95-1.18-3-1.63-1.17-.27-2.35-.46-3.55-.55l-.27.28h-1.64c-.7.35-1.43.62-2.18.81-.53.39-1.07.76-1.64 1.09-.75.7-1.42 1.48-2 2.32v.55c-.09.32-.28.61-.54.82-.03.55-.03 1.09 0 1.64l.27.27c.08.52 0 .65.27 1.09.69.86 1.46 1.63 2.32 2.32.6.43 1.24.8 1.92 1.09.44.15.9.24 1.36.28l.17.27z" class="st0"/></svg>