<svg xmlns="http://www.w3.org/2000/svg" xmlns:xlink="http://www.w3.org/1999/xlink" width="100.418" height="76.047" viewBox="0 0 100.418 76.047">
  <defs>
    <linearGradient id="linear-gradient" x1="0.5" y1="8.395" x2="0.5" y2="-4.966" gradientUnits="objectBoundingBox">
      <stop offset="0" stop-color="#0078d2"/>
      <stop offset="1" stop-color="#20c4f4"/>
    </linearGradient>
    <linearGradient id="linear-gradient-2" x1="0.5" y1="1.042" x2="0.5" y2="-7.866" xlink:href="#linear-gradient"/>
    <linearGradient id="linear-gradient-3" x1="0.5" y1="1.954" x2="0.5" y2="-7.728" xlink:href="#linear-gradient"/>
    <linearGradient id="linear-gradient-4" x1="0.5" y1="3.306" x2="0.5" y2="-7.215" xlink:href="#linear-gradient"/>
    <linearGradient id="linear-gradient-5" x1="0.5" y1="4.941" x2="0.5" y2="-6.479" xlink:href="#linear-gradient"/>
    <linearGradient id="linear-gradient-6" x1="0.5" y1="6.687" x2="0.5" y2="-5.684" xlink:href="#linear-gradient"/>
    <linearGradient id="linear-gradient-7" x1="0.5" y1="10.262" x2="0.5" y2="-3.099" xlink:href="#linear-gradient"/>
    <linearGradient id="linear-gradient-8" x1="0.5" y1="12.676" x2="0.5" y2="-2.86" xlink:href="#linear-gradient"/>
    <linearGradient id="linear-gradient-9" x1="0.5" y1="15.145" x2="0.5" y2="-2.91" xlink:href="#linear-gradient"/>
    <linearGradient id="linear-gradient-10" x1="0.5" y1="8.895" x2="0.5" y2="-4.466" xlink:href="#linear-gradient"/>
    <linearGradient id="linear-gradient-11" x1="0.5" y1="9.757" x2="0.5" y2="-5.779" xlink:href="#linear-gradient"/>
    <linearGradient id="linear-gradient-12" x1="0.5" y1="10.428" x2="0.5" y2="-7.628" xlink:href="#linear-gradient"/>
    <linearGradient id="linear-gradient-13" x1="0.5" y1="8.065" x2="0.5" y2="-5.297" xlink:href="#linear-gradient"/>
    <linearGradient id="linear-gradient-14" x1="0.5" y1="7.841" x2="0.5" y2="-7.695" xlink:href="#linear-gradient"/>
    <linearGradient id="linear-gradient-15" x1="0.5" y1="7.501" x2="0.5" y2="-10.554" xlink:href="#linear-gradient"/>
    <linearGradient id="linear-gradient-16" x1="0.5" y1="11.135" x2="0.5" y2="-2.226" xlink:href="#linear-gradient"/>
    <linearGradient id="linear-gradient-17" x1="0.5" y1="14.3" x2="0.5" y2="-1.237" xlink:href="#linear-gradient"/>
    <linearGradient id="linear-gradient-18" x1="0.5" y1="18.06" x2="0.5" y2="0.004" xlink:href="#linear-gradient"/>
    <linearGradient id="linear-gradient-19" x1="0.5" y1="10.857" x2="0.5" y2="-2.504" xlink:href="#linear-gradient"/>
    <linearGradient id="linear-gradient-20" x1="0.5" y1="13.884" x2="0.5" y2="-1.652" xlink:href="#linear-gradient"/>
    <linearGradient id="linear-gradient-21" x1="0.5" y1="17.175" x2="0.5" y2="-0.881" xlink:href="#linear-gradient"/>
    <linearGradient id="linear-gradient-22" x1="0.5" y1="9.638" x2="0.5" y2="-3.723" xlink:href="#linear-gradient"/>
    <linearGradient id="linear-gradient-23" x1="0.5" y1="11.364" x2="0.5" y2="-4.172" xlink:href="#linear-gradient"/>
    <linearGradient id="linear-gradient-24" x1="0.5" y1="13" x2="0.5" y2="-5.055" xlink:href="#linear-gradient"/>
  </defs>
  <g id="GTA_logo" transform="translate(-641.463 -108.453)">
    <g id="Group_128" data-name="Group 128" transform="translate(641.463 108.454)">
      <g id="Group_114" data-name="Group 114" transform="translate(9.599 26.887)">
        <ellipse id="Ellipse_1127" data-name="Ellipse 1127" cx="2.705" cy="2.705" rx="2.705" ry="2.705" transform="translate(6.006)" fill="url(#linear-gradient)"/>
        <ellipse id="Ellipse_1128" data-name="Ellipse 1128" cx="4.058" cy="4.058" rx="4.058" ry="4.058" transform="translate(13.033 36.968)" fill="url(#linear-gradient-2)"/>
        <ellipse id="Ellipse_1129" data-name="Ellipse 1129" cx="3.733" cy="3.733" rx="3.733" ry="3.733" transform="translate(5.139 30.834)" fill="url(#linear-gradient-3)"/>
        <ellipse id="Ellipse_1130" data-name="Ellipse 1130" cx="3.436" cy="3.436" rx="3.436" ry="3.436" transform="translate(0.828 22.703)" fill="url(#linear-gradient-4)"/>
        <ellipse id="Ellipse_1131" data-name="Ellipse 1131" cx="3.165" cy="3.165" rx="3.165" ry="3.165" transform="translate(0 14.146)" fill="url(#linear-gradient-5)"/>
        <ellipse id="Ellipse_1132" data-name="Ellipse 1132" cx="2.922" cy="2.922" rx="2.922" ry="2.922" transform="translate(1.947 6.346)" fill="url(#linear-gradient-6)"/>
      </g>
      <g id="Group_127" data-name="Group 127" transform="translate(0 0)">
        <g id="Group_116" data-name="Group 116" transform="translate(28.799 11.669)">
          <ellipse id="Ellipse_1133" data-name="Ellipse 1133" cx="2.705" cy="2.705" rx="2.705" ry="2.705" transform="translate(0 5.117)" fill="url(#linear-gradient-7)"/>
          <g id="Group_115" data-name="Group 115" transform="translate(6.447)">
            <ellipse id="Ellipse_1134" data-name="Ellipse 1134" cx="2.327" cy="2.327" rx="2.327" ry="2.327" transform="translate(0 1.656)" fill="url(#linear-gradient-8)"/>
            <ellipse id="Ellipse_1135" data-name="Ellipse 1135" cx="2.002" cy="2.002" rx="2.002" ry="2.002" transform="translate(6.156)" fill="url(#linear-gradient-9)"/>
          </g>
        </g>
        <g id="Group_118" data-name="Group 118" transform="translate(28.652 24.179)">
          <ellipse id="Ellipse_1136" data-name="Ellipse 1136" cx="2.705" cy="2.705" rx="2.705" ry="2.705" fill="url(#linear-gradient-10)"/>
          <g id="Group_117" data-name="Group 117" transform="translate(7.164 2.729)">
            <ellipse id="Ellipse_1137" data-name="Ellipse 1137" cx="2.327" cy="2.327" rx="2.327" ry="2.327" fill="url(#linear-gradient-11)"/>
            <ellipse id="Ellipse_1138" data-name="Ellipse 1138" cx="2.002" cy="2.002" rx="2.002" ry="2.002" transform="translate(5.509 3.649)" fill="url(#linear-gradient-12)"/>
          </g>
        </g>
        <g id="Group_120" data-name="Group 120" transform="translate(22.781 28.675)">
          <ellipse id="Ellipse_1139" data-name="Ellipse 1139" cx="2.705" cy="2.705" rx="2.705" ry="2.705" fill="url(#linear-gradient-13)"/>
          <g id="Group_119" data-name="Group 119" transform="translate(2.772 7.149)">
            <ellipse id="Ellipse_1140" data-name="Ellipse 1140" cx="2.327" cy="2.327" rx="2.327" ry="2.327" fill="url(#linear-gradient-14)"/>
            <ellipse id="Ellipse_1141" data-name="Ellipse 1141" cx="2.002" cy="2.002" rx="2.002" ry="2.002" transform="translate(0.958 6.45)" fill="url(#linear-gradient-15)"/>
          </g>
        </g>
        <g id="Group_122" data-name="Group 122" transform="translate(23.11)">
          <ellipse id="Ellipse_1142" data-name="Ellipse 1142" cx="2.705" cy="2.705" rx="2.705" ry="2.705" transform="translate(0 12.062)" fill="url(#linear-gradient-16)"/>
          <g id="Group_121" data-name="Group 121" transform="translate(3.04)">
            <ellipse id="Ellipse_1143" data-name="Ellipse 1143" cx="2.327" cy="2.327" rx="2.327" ry="2.327" transform="translate(0 5.771)" fill="url(#linear-gradient-17)"/>
            <ellipse id="Ellipse_1144" data-name="Ellipse 1144" cx="2.002" cy="2.002" rx="2.002" ry="2.002" transform="translate(1.202)" fill="url(#linear-gradient-18)"/>
          </g>
        </g>
        <g id="Group_124" data-name="Group 124" transform="translate(8.798 3.543)">
          <ellipse id="Ellipse_1145" data-name="Ellipse 1145" cx="2.705" cy="2.705" rx="2.705" ry="2.705" transform="translate(7.071 10.022)" fill="url(#linear-gradient-19)"/>
          <g id="Group_123" data-name="Group 123">
            <ellipse id="Ellipse_1146" data-name="Ellipse 1146" cx="2.327" cy="2.327" rx="2.327" ry="2.327" transform="translate(3.894 4.162)" fill="url(#linear-gradient-20)"/>
            <ellipse id="Ellipse_1147" data-name="Ellipse 1147" cx="2.002" cy="2.002" rx="2.002" ry="2.002" fill="url(#linear-gradient-21)"/>
          </g>
        </g>
        <g id="Group_126" data-name="Group 126" transform="translate(0 19.431)">
          <ellipse id="Ellipse_1148" data-name="Ellipse 1148" cx="2.705" cy="2.705" rx="2.705" ry="2.705" transform="translate(12.529 0.731)" fill="url(#linear-gradient-22)"/>
          <g id="Group_125" data-name="Group 125">
            <ellipse id="Ellipse_1149" data-name="Ellipse 1149" cx="2.327" cy="2.327" rx="2.327" ry="2.327" transform="translate(5.813)" fill="url(#linear-gradient-23)"/>
            <ellipse id="Ellipse_1150" data-name="Ellipse 1150" cx="2.002" cy="2.002" rx="2.002" ry="2.002" transform="translate(0 0.826)" fill="url(#linear-gradient-24)"/>
          </g>
        </g>
      </g>
    </g>
    <g id="Group_130" data-name="Group 130" transform="translate(679.184 145.631)">
      <path id="Path_2871" data-name="Path 2871" d="M796.284,283.656q0,5.769-2.929,8.565t-9.058,2.8a24.667,24.667,0,0,1-4.293-.38,26.82,26.82,0,0,1-3.981-1.006l1.163-5.591a19.592,19.592,0,0,0,3.287.984,19.371,19.371,0,0,0,3.914.358q2.861,0,4.048-1.253a4.5,4.5,0,0,0,1.185-3.22v-.849a10.642,10.642,0,0,1-2.214.738,11.8,11.8,0,0,1-2.483.246q-4.875,0-7.469-2.885t-2.594-8.073a13.214,13.214,0,0,1,.805-4.719,10.052,10.052,0,0,1,2.348-3.645,10.491,10.491,0,0,1,3.78-2.348,14.507,14.507,0,0,1,5.054-.827q1.208,0,2.483.112t2.527.29q1.253.18,2.393.425t2.035.515Zm-14.625-9.572q0,5.592,4.518,5.591a6.66,6.66,0,0,0,1.923-.268,7.308,7.308,0,0,0,1.521-.626V268.136q-.493-.089-1.163-.157t-1.566-.067a4.585,4.585,0,0,0-3.935,1.744A7.214,7.214,0,0,0,781.659,274.085Z" transform="translate(-774.86 -256.149)" fill="#000"/>
      <path id="Path_2872" data-name="Path 2872" d="M864.365,241l6.664-1.074v6.933h8.006v5.546h-8.006v8.274a6.576,6.576,0,0,0,.738,3.355q.738,1.253,2.975,1.252a12.7,12.7,0,0,0,2.214-.2,11.327,11.327,0,0,0,2.08-.559l.94,5.188a18.907,18.907,0,0,1-2.684.85,15.668,15.668,0,0,1-3.623.357,11.926,11.926,0,0,1-4.517-.737,7.083,7.083,0,0,1-2.863-2.058,7.648,7.648,0,0,1-1.5-3.2,18.819,18.819,0,0,1-.425-4.159Z" transform="translate(-839.055 -239.926)" fill="#000"/>
      <path id="Path_2873" data-name="Path 2873" d="M934.956,262.23a15.445,15.445,0,0,1,4.92.67,7.638,7.638,0,0,1,3.153,1.924,7.081,7.081,0,0,1,1.678,3.041,15.01,15.01,0,0,1,.491,3.981v13.865q-1.431.313-3.981.738a38.2,38.2,0,0,1-6.172.425,19.525,19.525,0,0,1-4.137-.4,8.966,8.966,0,0,1-3.2-1.319,6.037,6.037,0,0,1-2.058-2.393,8.262,8.262,0,0,1-.715-3.624,6.86,6.86,0,0,1,.827-3.488,6.367,6.367,0,0,1,2.214-2.281,10.034,10.034,0,0,1,3.175-1.231,17.873,17.873,0,0,1,3.713-.379,21.332,21.332,0,0,1,2.3.111,10.292,10.292,0,0,1,1.633.291v-.627a3.688,3.688,0,0,0-1.029-2.728,4.98,4.98,0,0,0-3.578-1.028,22.866,22.866,0,0,0-3.355.246,14.5,14.5,0,0,0-2.862.693l-.85-5.367q.581-.177,1.453-.38t1.9-.357q1.028-.157,2.169-.269T934.956,262.23Zm.537,19.5q.983,0,1.878-.044a12.839,12.839,0,0,0,1.431-.134V276.5q-.4-.089-1.208-.179a13.559,13.559,0,0,0-1.476-.089,13.386,13.386,0,0,0-1.767.111,4.623,4.623,0,0,0-1.453.426,2.488,2.488,0,0,0-.984.849,2.365,2.365,0,0,0-.358,1.342,2.285,2.285,0,0,0,1.051,2.169A5.812,5.812,0,0,0,935.493,281.73Z" transform="translate(-882.499 -255.923)" fill="#000"/>
    </g>
  </g>
</svg>
