<?xml version="1.0" encoding="utf-8"?>
<!-- Generator: Adobe Illustrator 23.0.1, SVG Export Plug-In . SVG Version: 6.00 Build 0)  -->
<svg version="1.1" id="Layer_1" xmlns="http://www.w3.org/2000/svg" xmlns:xlink="http://www.w3.org/1999/xlink" x="0px" y="0px"
	 viewBox="0 0 110 83.7" style="enable-background:new 0 0 110 83.7;" xml:space="preserve">
<style type="text/css">
	.st0{fill:#003D69;}
	.st1{fill:#F36F21;}
</style>
<title>hkbn_logo</title>
<g id="layer1">
	<g id="g3624">
		<path class="st0" d="M35.3,51.8c0-2.3,2.5-4.1,2.5-4.1s-4.7,1.8-13.2,1.8s-12.7-1.7-12.7-1.7C15.4,48.6,19,49,22.7,49
			c4.4,0.1,8.9-0.5,13.1-1.8c2.7-1,3.5-1.7,3.6-2.9s-1.4-2-1.4-2c2,0.7,3.2,1.7,3.2,2.6c0,0.5-0.2,1-0.6,1.3
			c3.1-1.4,6.4-2.2,9.8-2.5V4.6H5.1v51.9h33.3C36.6,55.6,35.4,53.8,35.3,51.8z"/>
		<path class="st0" d="M46.7,45.9c-5.5,1.4-9.1,4.2-9.3,6.7c-0.1,1.4,0.4,2.9,1.5,3.9h11.4V45.1C48.7,45.4,46.7,45.9,46.7,45.9z"/>
		<g id="g282">
			<path id="path284" class="st1" d="M10.1,46.4c0,0.7-0.6,1.3-1.3,1.3s-1.3-0.6-1.3-1.3s0.6-1.3,1.3-1.3l0,0
				C9.5,45.1,10.1,45.7,10.1,46.4L10.1,46.4"/>
		</g>
		<circle class="st0" cx="73.1" cy="52.8" r="1.1"/>
		<polygon class="st0" points="77.1,34.3 54.1,34.3 54.1,39.5 55.9,39.5 55.9,36 75.3,36 75.3,39.5 77.1,39.5 		"/>
		<path class="st0" d="M75.5,56.5v-1.8h-7.3v-4h5.1v-10h-4.9v-1.2h4.9v-1.7h-4.9v-1.2h-1.8v4.2h-2.1v-4.2h-1.8v1.2h-5v1.7h5v1.3
			h-5.1v10h5.1v4h-7.3v1.8h9.2v-5.7h1.7v5.7L75.5,56.5L75.5,56.5z M59.3,42.5h12.2v0.9H59.3V42.5z M59.3,45.1h12.2v1H59.3V45.1z
			 M59.3,49.1v-1.3h12.2v1.3H59.3z"/>
		<rect x="62.8" y="31.8" class="st0" width="5.2" height="1.7"/>
		<path class="st0" d="M92.6,34.6h4.8v2.3h-3.6v14.9h3l-4.2,4.7h2.6l4.2-4.7h0.3v4.7h4.9v-1.7h-3v-2.9h1.9v-15h-4.1v-2.3h5.5v-1.8
			H92.6V34.6z M101.6,50.2h-6v-2.9h6V50.2z M101.6,45.5h-6v-2.4h6V45.5z M101.6,38.6v2.8h-6v-2.8H101.6z"/>
		<polygon class="st0" points="86.3,31.8 86.3,40.7 84.5,40.7 84.5,34.2 82.7,34.2 82.7,40.7 80.4,40.7 80.3,42.4 86.2,42.4 
			86.2,50.8 88.1,50.8 88.1,42.4 93.2,42.4 93.2,40.7 88.1,40.7 88.1,37.4 92.2,37.4 92.2,35.7 88.1,35.7 88.1,31.8 		"/>
		<rect x="82.6" y="43.3" class="st0" width="1.8" height="6.2"/>
		<polygon class="st0" points="81.3,56.5 86.1,56.5 92,49.3 92,43.3 90.2,43.3 90.2,48.7 85.1,54.7 81.3,54.7 		"/>
		<path class="st0" d="M76.5,62.1c-0.6,0-1.2,0.2-1.8,0.4c-1.3,0.9-2,2.5-1.9,4.1c0,1.1,0.3,2.3,1,3.2c0.6,0.9,1.7,1.3,2.7,1.2
			c0.6,0,1.2-0.1,1.7-0.4c1.2-0.7,1.9-2.2,1.9-4.1C80.1,63.8,78.7,62.1,76.5,62.1z M76.5,69.7c-0.4,0-0.7-0.1-1-0.3
			c-0.5-0.4-0.8-1.3-0.8-2.8c0-0.8,0.1-1.6,0.4-2.4c0.3-0.5,0.8-0.8,1.3-0.8c0.7,0,1.3,0.4,1.5,1.1c0.2,0.7,0.2,1.3,0.2,2
			C78.1,68.8,77.6,69.7,76.5,69.7z"/>
		<path class="st0" d="M87.5,64.7c0.3,1,0.7,1.9,1.2,2.8l1.4,3.3h1.8v-8.7h-1.6v3.6c0,0.6,0.1,1.7,0.1,2.4c-0.2-0.8-0.6-1.7-0.9-2.5
			l-1.6-3.5H86v8.7h1.6v-3.7C87.6,66.5,87.6,65.4,87.5,64.7z"/>
		<path class="st0" d="M101.4,67.5h1.3v2c-0.3,0.2-0.7,0.2-1,0.2c-0.5,0-1-0.1-1.3-0.5c-0.5-0.7-0.7-1.6-0.6-2.5
			c-0.1-1,0.1-2,0.7-2.8c0.3-0.3,0.8-0.5,1.2-0.4c0.7,0,1.3,0.2,1.8,0.7l0.9-1.1c-0.7-0.7-1.7-1-2.7-1c-0.7,0-1.5,0.2-2.1,0.6
			c-1.2,0.9-1.9,2.4-1.7,3.9c-0.1,1.1,0.3,2.1,0.9,3c0.7,0.9,1.8,1.4,2.9,1.3c1,0,1.9-0.3,2.8-0.8V66h-3.3L101.4,67.5z"/>
		<polygon class="st0" points="66.6,70.9 63.6,66.2 66.3,62.2 64.2,62.2 61.8,66.2 61.8,62.2 60.1,62.2 60.1,70.9 61.8,70.9 
			61.8,66.4 64.4,70.9 		"/>
		<polygon class="st0" points="9.2,65.6 6.8,65.6 6.8,62.2 5.1,62.2 5.1,70.9 6.8,70.9 6.8,67 9.2,67 9.2,70.9 10.9,70.9 10.9,62.2 
			9.2,62.2 		"/>
		<path class="st0" d="M24.2,66.5c0-2.7-1.4-4.4-3.6-4.4c-0.6,0-1.2,0.2-1.8,0.4c-1.3,0.9-2,2.5-1.9,4.1c0,1.1,0.3,2.3,1,3.2
			c0.6,0.9,1.7,1.3,2.7,1.2c0.6,0,1.2-0.1,1.7-0.4C23.5,69.9,24.2,68.5,24.2,66.5z M20.6,69.7c-0.4,0-0.7-0.1-1-0.3
			c-0.5-0.4-0.8-1.3-0.8-2.8c0-0.8,0.1-1.6,0.4-2.4c0.3-0.5,0.8-0.8,1.3-0.8c0.7,0,1.3,0.4,1.5,1.1c0.2,0.7,0.2,1.3,0.2,2
			C22.2,68.8,21.7,69.7,20.6,69.7z"/>
		<path class="st0" d="M35.8,62.2h-1.6v3.6c0,0.6,0.1,1.7,0.1,2.4c-0.2-0.8-0.6-1.7-0.9-2.5l-1.6-3.5H30v8.7h1.6v-3.7
			c0-0.7,0-1.8-0.1-2.5c0.2,0.5,0.7,1.8,1.2,2.8l1.4,3.3h1.8L35.8,62.2z"/>
		<path class="st0" d="M45.5,71c1,0,1.9-0.3,2.8-0.8v-4.1H45l0.2,1.4h1.3v2c-0.3,0.2-0.7,0.2-1,0.2c-0.5,0-1-0.1-1.3-0.5
			c-0.5-0.7-0.7-1.6-0.6-2.5c-0.1-1,0.2-2,0.8-2.8c0.3-0.3,0.8-0.5,1.2-0.4c0.6,0,1.3,0.2,1.8,0.7l0.9-1.1c-0.7-0.7-1.7-1-2.7-1
			c-0.7,0-1.5,0.2-2.1,0.6c-1.2,0.9-1.9,2.4-1.7,3.9c-0.1,1.1,0.3,2.1,0.9,3C43.3,70.6,44.3,71.1,45.5,71z"/>
		<path class="st0" d="M7.8,76.2c0.2,0,0.4-0.1,0.5-0.3c0.2-0.2,0.4-0.6,0.4-0.9c0-0.4-0.1-0.8-0.4-1c-0.4-0.3-0.8-0.5-1.3-0.4H5.1
			v5.5h2.4c0.8,0,1.4-0.7,1.4-1.5l0,0C9,76.9,8.5,76.3,7.8,76.2z M6.2,74.5h0.6c0.1,0,0.3,0,0.4,0.1c0.2,0.1,0.3,0.3,0.3,0.6
			c0,0.2-0.1,0.4-0.3,0.6c-0.1,0.1-0.3,0.1-0.5,0.1H6.2V74.5z M7.4,78.1c-0.2,0.1-0.3,0.1-0.5,0.1H6.2v-1.5h0.7c0.1,0,0.3,0,0.4,0
			c0.3,0.1,0.4,0.4,0.4,0.7C7.7,77.6,7.6,77.9,7.4,78.1L7.4,78.1z"/>
		<path class="st0" d="M13.6,76.7c0.7-0.1,1.3-0.8,1.2-1.5c0.1-0.8-0.6-1.6-1.4-1.6c-0.1,0-0.1,0-0.2,0h-2v5.5h1.1v-2.3h0.2
			c0.2,0.1,0.4,0.4,0.9,1.3c0.2,0.4,0.3,0.5,0.5,0.9h1.3c0,0-1-1.8-1.3-2.1C13.7,76.8,13.7,76.8,13.6,76.7z M12.6,76h-0.4v-1.5h0.4
			c0.2,0,0.4,0,0.6,0.1c0.3,0.1,0.4,0.4,0.4,0.7c0,0.2-0.1,0.4-0.2,0.6C13.3,75.9,13.1,76,12.6,76L12.6,76z"/>
		<path class="st0" d="M19.2,73.5c-0.4,0-0.8,0.1-1.1,0.3c-0.8,0.6-1.3,1.6-1.2,2.6c0,0.7,0.2,1.4,0.6,2s1.1,0.9,1.8,0.8
			c0.4,0,0.7-0.1,1.1-0.3c0.9-0.6,1.3-1.6,1.2-2.6C21.6,74.6,20.7,73.5,19.2,73.5z M19.2,78.3c-0.2,0-0.5-0.1-0.6-0.2
			c-0.3-0.2-0.5-0.8-0.5-1.8c0-0.5,0.1-1,0.3-1.5c0.2-0.3,0.5-0.5,0.8-0.5c0.4,0,0.8,0.3,0.9,0.7c0.1,0.4,0.1,0.8,0.1,1.3
			C20.3,77.7,20,78.3,19.2,78.3z"/>
		<path class="st0" d="M24.8,73.6L23,79.1h1.1l0.4-1.3h1.6l0.4,1.3h1.2L26,73.6H24.8z M24.8,76.9c0.1-0.4,0.2-0.6,0.3-1
			s0.2-1.1,0.2-1.1s0.2,0.7,0.2,1c0.1,0.5,0.3,1.1,0.3,1.1H24.8z"/>
		<path class="st0" d="M31.5,73.6c-0.2,0-0.6,0-0.9,0h-1.1v5.5h1.3c0.3,0,0.5,0,0.8,0c0.5-0.1,1-0.4,1.3-0.8
			c0.4-0.6,0.6-1.2,0.5-1.9c0.1-0.8-0.2-1.6-0.7-2.2C32.4,73.9,32,73.6,31.5,73.6z M31.2,78.2h-0.6v-3.7h0.5c0.4,0,0.7,0.1,0.9,0.5
			c0.2,0.5,0.3,1,0.3,1.5C32.2,77.6,31.9,78.2,31.2,78.2L31.2,78.2z"/>
		<path class="st0" d="M38.4,76.2c0.2,0,0.4-0.1,0.5-0.3c0.3-0.2,0.4-0.6,0.4-0.9c0-0.4-0.2-0.7-0.4-1c-0.4-0.3-0.9-0.4-1.3-0.4
			h-1.8v5.5H38c0.8,0,1.4-0.7,1.4-1.5l0,0C39.4,76.9,39,76.3,38.4,76.2z M36.7,74.5h0.6c0.2,0,0.3,0,0.5,0.1s0.3,0.3,0.3,0.6
			c0,0.2-0.1,0.4-0.3,0.6c-0.1,0.1-0.3,0.1-0.5,0.1h-0.6V74.5z M38,78.1c-0.1,0.1-0.3,0.1-0.5,0.1h-0.7v-1.5h0.7c0.1,0,0.3,0,0.4,0
			c0.3,0.1,0.4,0.4,0.4,0.7C38.3,77.6,38.2,77.9,38,78.1z"/>
		<path class="st0" d="M43.1,73.6l-1.8,5.5h1.1l0.4-1.3h1.6l0.4,1.3H46l-1.7-5.5H43.1z M43.1,76.9c0.1-0.4,0.2-0.6,0.3-1l0.2-1.1
			c0,0,0.2,0.7,0.2,1c0.1,0.5,0.3,1.1,0.3,1.1H43.1z"/>
		<path class="st0" d="M50.6,75.8c0,0.4,0,1.1,0.1,1.5c-0.2-0.5-0.3-1.1-0.6-1.6l-1-2.2h-1.2V79h1v-2.3c0-0.5,0-1.1,0-1.6
			c0.2,0.6,0.4,1.2,0.7,1.8l0.9,2.1h1.1v-5.5h-1V75.8z"/>
		<path class="st0" d="M55.9,73.6c-0.2,0-0.6,0-0.9,0h-1.1v5.5h1.3c0.3,0,0.5,0,0.8,0c0.5-0.1,1-0.3,1.3-0.8
			c0.4-0.6,0.6-1.2,0.5-1.9c0.1-0.8-0.2-1.6-0.7-2.2C56.8,73.9,56.4,73.6,55.9,73.6z M55.6,78.2H55v-3.7h0.5c0.4,0,0.7,0.1,0.8,0.5
			c0.2,0.5,0.3,1,0.3,1.5C56.6,77.6,56.3,78.2,55.6,78.2L55.6,78.2z"/>
		<path class="st0" d="M66.3,75.8c0,0.4,0,1.1,0.1,1.5c-0.2-0.5-0.4-1.1-0.6-1.6l-1-2.2h-1.2V79h1v-2.3c0-0.5,0-1.1-0.1-1.6
			c0.1,0.3,0.4,1.1,0.7,1.8l0.9,2.1h1.1v-5.5h-1L66.3,75.8z"/>
		<polygon class="st0" points="70.6,76.7 72.1,76.7 72.1,75.8 70.6,75.8 70.6,74.5 72.4,74.5 72.6,73.6 69.5,73.6 69.5,79.1 
			72.6,79.1 72.6,78.2 70.6,78.2 		"/>
		<polygon class="st0" points="74.5,74.5 75.8,74.5 75.8,79.1 76.9,79.1 76.9,74.5 78.2,74.5 78.3,73.6 74.5,73.6 		"/>
		<path class="st0" d="M84.8,75.6c-0.1,0.5-0.3,1.7-0.3,1.8c0,0-0.1-1-0.2-1.5l-0.5-2.5h-1.2l-0.5,2.2c-0.2,0.8-0.2,1.6-0.3,1.8
			c0,0-0.1-0.8-0.3-1.8L81,73.4h-1l1.3,5.6h1.2l0.4-2.3c0.2-0.8,0.2-1.6,0.2-1.6c0,0.2,0.1,0.9,0.2,1.6l0.5,2.3H85l1.3-5.6h-1.1
			L84.8,75.6z"/>
		<path class="st0" d="M90.1,73.5c-0.4,0-0.8,0.1-1.1,0.3c-0.8,0.6-1.3,1.6-1.2,2.6c0,0.7,0.2,1.4,0.6,2s1.1,0.9,1.8,0.8
			c0.4,0,0.7-0.1,1.1-0.3c0.9-0.6,1.3-1.6,1.2-2.6C92.4,74.6,91.6,73.5,90.1,73.5z M90.1,78.3c-0.2,0-0.5-0.1-0.6-0.2
			c-0.3-0.2-0.5-0.8-0.5-1.8c0-0.5,0.1-1,0.3-1.5c0.2-0.3,0.5-0.5,0.8-0.5c0.5,0,0.9,0.3,1,0.7c0.1,0.4,0.1,0.8,0.1,1.3
			C91.2,77.7,90.9,78.3,90.1,78.3z"/>
		<path class="st0" d="M96.8,76.7c0.8-0.1,1.3-0.8,1.2-1.5c0.1-0.8-0.6-1.6-1.4-1.6c-0.1,0-0.1,0-0.2,0h-2v5.5h1v-2.3h0.2
			c0.2,0.1,0.4,0.4,0.9,1.3c0.2,0.4,0.3,0.5,0.5,0.9h1.3c0,0-1-1.8-1.3-2.1C96.9,76.8,96.8,76.8,96.8,76.7z M95.8,76h-0.4v-1.5h0.4
			c0.2,0,0.4,0,0.6,0.1c0.3,0.1,0.4,0.4,0.4,0.7c0,0.2-0.1,0.4-0.2,0.6C96.5,75.9,96.3,76,95.8,76L95.8,76z"/>
		<polygon class="st0" points="104.2,73.6 102.9,73.6 101.3,76.1 101.3,73.6 100.2,73.6 100.2,79.1 101.3,79.1 101.3,76.2 103,79.1 
			104.4,79.1 102.5,76.1 		"/>
		<path class="st0" d="M99.6,13.3V9.7h4.1V7.9h-4.1V4.6h-1.9V8h-3.4V4.6h-1.9V8h-4.2v1.7h4.2v3.6h-5.3V15H90v7.4h1.9V15h8.4v7.4h1.9
			V15h2.8v-1.7H99.6z M97.7,13.3h-3.4V9.7h3.4V13.3z"/>
		<rect x="80.9" y="6.3" class="st0" width="6.2" height="1.7"/>
		<rect x="80.9" y="10.6" class="st0" width="6.2" height="1.7"/>
		<path class="st0" d="M99.6,22.4v-6.5h-7v12.8h11V27h-9.2v-4.5L99.6,22.4z M94.4,17.5h3.3v3.1h-3.3V17.5z"/>
		<polygon class="st0" points="86.9,18.7 86.9,15.4 80.9,15.4 80.9,17.2 85,17.2 85,18.2 80,29.2 81.9,29.2 		"/>
		<path class="st0" d="M54.7,17.1h2.9l7.1-5.3v6.3h-6.8v11h15.4v-11h-6.8v-6.3l7.1,5.3h2.9l-7.9-5.9h8.5V9.5H66.5V6.3h7V4.6H57.8
			v1.7h6.9v3.2H54v1.7h8.5L54.7,17.1z M71.5,27.4H59.8v-3h11.7V27.4z M71.5,19.8v2.8H59.8v-2.8H71.5z"/>
	</g>
</g>
</svg>
