<?xml version="1.0" encoding="utf-8"?>
<!-- Generator: Adobe Illustrator 26.0.1, SVG Export Plug-In . SVG Version: 6.00 Build 0)  -->
<svg version="1.1" xmlns="http://www.w3.org/2000/svg" xmlns:xlink="http://www.w3.org/1999/xlink" x="0px" y="0px"
	 viewBox="0 0 298.1 131.3" style="enable-background:new 0 0 298.1 131.3;" xml:space="preserve">
<style type="text/css">
	.st0{fill:#006EB5;}
</style>
<g id="Layer_2">
</g>
<g id="Layer_1">
	<g>
		<path class="st0" d="M54.2,68.7L49,69.6l-4.4,0.8L41,71.1l-2.7,0.5l-1.5,0.3l-3.4,0.4l-0.5,4.6c-0.2,1.9-0.4,3.8-0.6,5.7
			c-0.2,1.7-0.4,3.4-0.6,5.1c-0.2,1.5-0.3,3-0.5,4.5c-0.1,1.2-0.3,2.5-0.4,3.7c-0.1,0.9-0.2,1.8-0.3,2.8c-0.1,0.5-0.1,1.1-0.2,1.7
			c-0.1,0.8,0.5,1.6,1.3,1.8c1.2,0.3,2-0.9,2.7-1.7l1.8-2.1l2.4-2.9c1-1.2,2-2.3,3-3.5l3.5-4l3.9-4.5l4.1-4.8l4.2-4.9l4.3-5l1.3-1.5
			l-3,0.5L54.2,68.7z"/>
		<path class="st0" d="M73.5,54.6c1.1-1.4,2.3-2.7,3.4-4l3-3.5l2.3-2.8l1.7-1.9c0.3-0.3,0.6-0.7,0.9-1l1.4-1.6l-5-2.2l-5.8-2.5
			c-1.9-0.8-3.8-1.7-5.8-2.5L64,30.2c-1.7-0.8-3.5-1.5-5.2-2.3l-4.8-2.1h0l-4.2-1.9l-3.5-1.5l-2.7-1.2l-1.8-0.8L41,20.1l25.1,43
			l3.6-4.2L73.5,54.6z"/>
		<path class="st0" d="M39,21.9l-0.2,1.8c-0.1,1-0.2,1.9-0.3,2.9c-0.1,1.3-0.3,2.5-0.4,3.8l-0.5,4.6L37,40.3
			c-0.2,1.9-0.4,3.7-0.6,5.7c-0.2,2.1-0.4,4-0.7,6.1c-0.2,2.1-0.4,4.2-0.7,6.3c-0.2,2.1-0.5,4.2-0.7,6.3l0,0l-0.6,5.2l3-0.4l1.9-0.3
			l3-0.5l4-0.7l4.8-0.9l5.4-1l5.9-1.1l2.5-0.4L39,21.3C39,21.5,39,21.7,39,21.9z"/>
		<path class="st0" d="M114.3,52.2l-1.6-0.7l-2.6-1.1l-3.5-1.4l-4.2-1.8L97.6,45l-5.2-2.3l-4-1.8l-2.1,2.6L85,45l-2,2.3l-2.6,3.1
			l-3.1,3.7l-3.6,4.2c-1.3,1.5-2.6,3-3.9,4.5c-0.3,0.3-0.5,0.6-0.8,0.9l5.3-1l6.4-1.1l6.3-1.1l6-1.1l5.5-1l4.9-0.9l4.2-0.8l3.3-0.6
			l2.2-0.4c0.9-0.2,1.9-0.4,2.2-1.4h0c0.2-0.7,0-1.4-0.6-1.8C114.6,52.3,114.5,52.3,114.3,52.2z"/>
		<path class="st0" d="M99.5,8.8C67.8-9.4,27.2,1.4,8.9,32.8c-0.1,0.2-0.3,0.5-0.4,0.7c-17.7,31.4-6.7,71.2,24.7,88.9
			c31.7,18.2,72.3,7.4,90.6-24c0.1-0.3,0.3-0.5,0.4-0.8C142,66.3,130.9,26.5,99.5,8.8z M117.8,54.4c-0.2,1.4-1.2,2.6-2.5,3.1
			c-0.4,0.2-0.7,0.3-1.1,0.3l-1.6,0.3l-2.8,0.5l-3.7,0.7l-4.5,0.8l-5.2,0.9l-5.7,1l-6,1.1l-6.3,1.1c-2.1,0.4-4.2,0.8-6.3,1.1
			L68,66.2L94.2,111c0,0,0,0,0,0c0.3,0.6,0.1,1.3-0.4,1.6c0,0,0,0,0,0c-0.6,0.3-1.3,0.1-1.7-0.4l-26.2-45l-0.2,0.2l-4.2,4.9l-4.2,5
			l-4.2,4.9l-4,4.6c-1.2,1.4-2.5,2.9-3.7,4.3L42.1,95c-0.9,1.1-1.9,2.2-2.8,3.3l-2.2,2.6l-1.5,1.9c-0.1,0.2-0.3,0.3-0.4,0.5
			c-0.1,0.1-0.2,0.3-0.4,0.4c-1.2,0.9-2.8,1.2-4.2,0.7c-1.4-0.5-2.4-1.8-2.6-3.2c0-0.4,0-0.7,0.1-1.1c0.1-0.5,0.2-0.9,0.2-1.4
			c0.1-0.8,0.2-1.7,0.3-2.5c0.1-1.1,0.3-2.3,0.4-3.4c0.1-1.4,0.3-2.8,0.5-4.3l0.5-5c0.2-1.8,0.4-3.6,0.6-5.5
			c0.2-1.9,0.4-3.8,0.6-5.9c0.2-2,0.4-4.1,0.7-6.1l0.7-6.3c0.3-2.1,0.5-4.2,0.7-6.2c0.2-2.1,0.5-4.1,0.7-6.1l0.6-5.8
			c0.2-1.8,0.4-3.5,0.6-5.3c0.2-1.6,0.4-3.2,0.5-4.8c0-0.2,0.1-0.4,0.1-0.7l0.9-9.2c0.1-1.4,0.9-2.6,2-3.4c1.1-0.6,2.3-0.7,3.5-0.4
			l0.6,0.2h0.1l5.3,2.4l2.8,1.2l4.4,1.9l5,2.2l5.4,2.4l5.8,2.5l5.9,2.6l6,2.6l5.9,2.6l5.6,2.5l5.2,2.3l4.7,2.1l4.1,1.8l3.3,1.4
			l2.4,1c0.8,0.3,1.5,0.7,2.2,1.2l0,0C117.5,51.8,117.9,53.1,117.8,54.4z"/>
	</g>
	<path class="st0" d="M153.2,42.5c-0.4,0-0.7-0.1-1-0.3c-0.3-0.1-0.5-0.4-0.5-0.8V18.7c0-0.3,0.2-0.6,0.5-0.7c0.6-0.3,1.4-0.3,2,0
		c0.3,0.1,0.5,0.4,0.4,0.7v22.7c0,0.3-0.2,0.6-0.4,0.8C153.9,42.4,153.5,42.5,153.2,42.5"/>
	<path class="st0" d="M160.4,42.5c-0.4,0-0.7-0.1-1-0.3c-0.2-0.2-0.4-0.4-0.4-0.7v-14c0-0.3,0.2-0.6,0.4-0.7c0.3-0.2,0.6-0.3,1-0.3
		c0.3,0,0.7,0.1,0.9,0.3c0.2,0.2,0.4,0.4,0.4,0.7v1.4c0.4-0.7,1-1.3,1.7-1.8c0.9-0.5,1.9-0.8,2.9-0.8c1.1,0,2.1,0.3,3,0.9
		c0.9,0.6,1.7,1.4,2.2,2.4c0.6,1,0.8,2.1,0.8,3.2v8.7c0,0.3-0.2,0.6-0.4,0.8c-0.6,0.3-1.3,0.3-1.9,0c-0.3-0.1-0.5-0.4-0.4-0.8v-8.8
		c0-0.7-0.2-1.3-0.5-1.9c-0.3-0.6-0.8-1.1-1.4-1.5c-0.6-0.4-1.3-0.6-1.9-0.6c-0.6,0-1.2,0.2-1.8,0.5c-0.6,0.3-1.1,0.8-1.4,1.4
		c-0.4,0.6-0.6,1.4-0.5,2.1v8.7c0,0.3-0.2,0.5-0.4,0.7C161.1,42.4,160.7,42.5,160.4,42.5"/>
	<path class="st0" d="M181.7,42.5c-1.5,0.1-3-0.3-4.2-1.2c-1-1-1.6-2.4-1.4-3.9V19.9c0-0.3,0.2-0.6,0.4-0.7c0.6-0.4,1.3-0.4,1.9,0
		c0.3,0.1,0.4,0.4,0.4,0.7v6.5h4.3c0.3,0,0.5,0.1,0.6,0.3c0.1,0.2,0.2,0.5,0.2,0.8c0,0.3-0.1,0.5-0.2,0.8c-0.1,0.2-0.4,0.3-0.6,0.3
		h-4.3v8.7c-0.1,0.7,0.2,1.5,0.6,2c0.6,0.5,1.4,0.7,2.2,0.6h1.1c0.3,0,0.7,0.1,0.9,0.4c0.2,0.2,0.3,0.5,0.3,0.8
		c0,0.3-0.1,0.6-0.3,0.9c-0.2,0.3-0.6,0.4-0.9,0.4L181.7,42.5z"/>
	<path class="st0" d="M188.6,33.4h6.3c0.4,0,0.8,0,1.2-0.2c0.2-0.2,0.3-0.5,0.3-0.9c0-0.7-0.2-1.3-0.5-1.9c-0.3-0.6-0.8-1.1-1.4-1.4
		c-0.6-0.4-1.3-0.5-2-0.5c-1.4,0-2.6,0.7-3.4,1.8c-0.4,0.6-0.5,1.2-0.6,1.9L188.6,33.4z M193.4,42.7c-1.4,0-2.7-0.3-3.9-0.8
		c-1.1-0.5-2-1.3-2.7-2.3c-0.7-1-1-2.2-1-3.4v-3.5c0-1.1,0.3-2.2,0.9-3.2c0.6-1,1.5-1.8,2.5-2.3c2.1-1.1,4.6-1.2,6.6-0.1
		c1,0.5,1.8,1.3,2.4,2.2c0.6,1,0.9,2.1,0.9,3.2c0.1,0.7-0.1,1.4-0.4,1.9c-0.3,0.4-0.7,0.6-1.1,0.7c-0.5,0.1-1,0.1-1.4,0.1h-7.5v1
		c0,1.2,0.5,2.3,1.4,3c1,0.8,2.3,1.2,3.5,1.1c0.7,0,1.4-0.1,2-0.3c0.4-0.2,0.8-0.4,1.2-0.7c0.2-0.2,0.5-0.3,0.9-0.3
		c0.2,0,0.5,0.1,0.6,0.2c0.2,0.1,0.3,0.3,0.4,0.5c0.1,0.2,0.1,0.4,0.1,0.5c-0.1,0.4-0.3,0.8-0.6,1c-0.6,0.4-1.2,0.8-1.9,1
		C195.3,42.7,194.3,42.8,193.4,42.7"/>
	<path class="st0" d="M203.6,42.5c-0.4,0-0.7-0.1-1-0.3c-0.2-0.2-0.4-0.4-0.4-0.7v-14c0-0.3,0.2-0.6,0.4-0.7c0.3-0.2,0.6-0.3,1-0.3
		c0.4,0,0.7,0.1,1,0.3c0.2,0.2,0.4,0.4,0.4,0.7V29c0.3-0.5,0.6-0.9,1-1.3c0.4-0.4,1-0.8,1.5-1c0.6-0.3,1.3-0.4,1.9-0.4h1.2
		c0.3,0,0.6,0.1,0.8,0.4c0.2,0.3,0.3,0.6,0.3,0.9c0,0.3-0.1,0.6-0.3,0.9c-0.2,0.2-0.5,0.4-0.8,0.4h-1.2c-0.7,0-1.5,0.2-2.1,0.6
		c-0.7,0.4-1.2,1-1.6,1.7c-0.4,0.8-0.7,1.7-0.7,2.6v7.7c0,0.3-0.2,0.5-0.4,0.7C204.3,42.4,204,42.5,203.6,42.5"/>
	<path class="st0" d="M215.3,42.5c-0.4,0-0.7-0.1-1-0.3c-0.2-0.2-0.4-0.4-0.4-0.7v-14c0-0.3,0.1-0.6,0.4-0.7c0.3-0.2,0.6-0.3,1-0.3
		c0.3,0,0.7,0.1,0.9,0.3c0.2,0.2,0.4,0.4,0.4,0.7v1.4c0.4-0.7,1-1.3,1.7-1.8c0.9-0.5,1.9-0.8,2.9-0.8c1.1,0,2.1,0.3,3,0.9
		c0.9,0.6,1.7,1.4,2.2,2.4c0.6,1,0.8,2.1,0.8,3.2v8.7c0,0.3-0.2,0.6-0.4,0.8c-0.6,0.4-1.4,0.4-2,0c-0.3-0.1-0.5-0.4-0.4-0.8v-8.8
		c0-0.7-0.2-1.3-0.5-1.9c-0.3-0.6-0.8-1.1-1.4-1.5c-0.6-0.4-1.3-0.6-2-0.6c-0.6,0-1.2,0.2-1.8,0.5c-0.5,0.4-1,0.8-1.3,1.4
		c-0.4,0.6-0.6,1.4-0.5,2.1v8.7c0,0.3-0.2,0.5-0.4,0.7C216.1,42.4,215.7,42.5,215.3,42.5"/>
	<path class="st0" d="M233.3,33.4h6.3c0.4,0,0.8,0,1.2-0.2c0.2-0.2,0.3-0.5,0.3-0.9c0-0.7-0.2-1.3-0.5-1.9c-0.3-0.6-0.8-1.1-1.4-1.4
		c-0.6-0.4-1.3-0.5-2-0.5c-0.7,0-1.4,0.2-1.9,0.5c-0.6,0.3-1.1,0.8-1.4,1.3c-0.4,0.6-0.6,1.2-0.6,1.9L233.3,33.4z M238.1,42.7
		c-1.4,0-2.7-0.3-3.9-0.8c-1.1-0.5-2-1.3-2.7-2.3c-0.7-1-1-2.2-1-3.4v-3.5c0-1.1,0.3-2.2,0.9-3.2c0.6-1,1.5-1.8,2.5-2.3
		c1-0.6,2.2-0.9,3.4-0.9c1.1,0,2.3,0.3,3.3,0.8c1,0.5,1.8,1.3,2.4,2.2c0.6,1,0.9,2.1,0.9,3.2c0.1,0.7-0.1,1.4-0.4,1.9
		c-0.3,0.4-0.7,0.6-1.1,0.7c-0.5,0.1-0.9,0.1-1.4,0.1h-7.5v1c-0.1,1.2,0.5,2.3,1.4,3c1,0.8,2.3,1.2,3.5,1.1c0.7,0,1.4-0.1,2-0.3
		c0.4-0.2,0.8-0.4,1.2-0.7c0.3-0.2,0.5-0.3,0.9-0.3c0.2,0,0.5,0.1,0.6,0.2c0.2,0.1,0.3,0.3,0.4,0.5c0.1,0.2,0.1,0.4,0.1,0.5
		c0,0.3-0.2,0.6-0.6,1c-0.6,0.4-1.2,0.8-1.9,1C240,42.7,239.1,42.8,238.1,42.7"/>
	<path class="st0" d="M252.6,42.5c-1.5,0.1-3-0.3-4.2-1.2c-1-1-1.6-2.4-1.4-3.9V19.9c0-0.3,0.2-0.6,0.4-0.7c0.3-0.2,0.6-0.3,1-0.3
		c0.4,0,0.7,0.1,1,0.3c0.3,0.1,0.4,0.4,0.4,0.7v6.5h4.2c0.3,0,0.5,0.1,0.6,0.3c0.1,0.2,0.2,0.5,0.2,0.8c0,0.3-0.1,0.5-0.2,0.8
		c-0.1,0.2-0.4,0.3-0.6,0.3h-4.3v8.7c-0.1,0.7,0.2,1.5,0.6,2c0.6,0.5,1.4,0.7,2.2,0.6h1.1c0.4,0,0.7,0.1,0.9,0.4
		c0.2,0.2,0.3,0.5,0.3,0.8c0,0.3-0.1,0.6-0.3,0.9c-0.2,0.3-0.6,0.4-0.9,0.4L252.6,42.5z"/>
	<path class="st0" d="M156.2,69.2h7.7l-3.8-12.7L156.2,69.2z M152.9,77.2c-0.3,0-0.5-0.1-0.8-0.2c-0.3-0.1-0.5-0.2-0.7-0.4
		c-0.2-0.2-0.3-0.4-0.3-0.6c0-0.1,0-0.2,0-0.3l7-22.5c0.1-0.3,0.3-0.6,0.6-0.7c0.3-0.2,0.7-0.2,1.1-0.2c0.4,0,0.8,0.1,1.1,0.3
		c0.3,0.1,0.5,0.4,0.6,0.7l7,22.5c0,0.1,0.1,0.2,0.1,0.2c0,0.2-0.1,0.5-0.3,0.6c-0.2,0.2-0.4,0.3-0.7,0.4c-0.2,0.1-0.5,0.2-0.8,0.2
		c-0.2,0-0.4,0-0.6-0.2c-0.2-0.1-0.3-0.3-0.4-0.5l-1.5-5h-9l-1.5,5c-0.1,0.2-0.2,0.4-0.4,0.5C153.4,77.1,153.2,77.2,152.9,77.2"/>
	<path class="st0" d="M176.1,77.5c-1,0-2-0.1-2.9-0.4c-0.7-0.2-1.4-0.5-2-1c-0.4-0.2-0.7-0.7-0.7-1.1c0-0.2,0.1-0.4,0.1-0.6
		c0.1-0.2,0.2-0.4,0.4-0.5c0.1-0.1,0.3-0.2,0.5-0.2c0.3,0,0.6,0.2,0.9,0.4c0.4,0.3,0.8,0.6,1.3,0.8c0.7,0.3,1.6,0.4,2.4,0.4
		c0.9,0.1,1.8-0.1,2.5-0.7c0.4-0.4,0.7-0.9,0.7-1.5c0-0.6-0.2-1.2-0.6-1.6c-0.5-0.4-1-0.7-1.5-0.8c-0.6-0.2-1.3-0.4-2-0.6
		c-0.7-0.2-1.4-0.5-2-0.8c-0.6-0.3-1.1-0.7-1.6-1.3c-0.4-0.7-0.6-1.4-0.6-2.2c0-0.8,0.2-1.5,0.6-2.2c0.4-0.8,1-1.4,1.8-1.8
		c1-0.5,2.1-0.8,3.3-0.7c0.8,0,1.5,0.1,2.3,0.3c0.6,0.1,1.2,0.4,1.8,0.7c0.5,0.3,0.7,0.6,0.7,0.9c0,0.2-0.1,0.4-0.1,0.5
		c-0.1,0.2-0.2,0.4-0.4,0.6c-0.2,0.2-0.4,0.3-0.6,0.3c-0.3,0-0.5-0.1-0.8-0.2c-0.4-0.2-0.8-0.4-1.2-0.5c-0.5-0.2-1.1-0.3-1.7-0.2
		c-0.6,0-1.3,0.1-1.8,0.4c-0.4,0.2-0.8,0.5-1,0.9c-0.2,0.3-0.3,0.7-0.3,1.1c0,0.5,0.2,1,0.6,1.3c0.5,0.4,1,0.6,1.6,0.8
		c0.6,0.2,1.3,0.4,2,0.6c0.7,0.2,1.4,0.5,2,0.8c0.6,0.3,1.2,0.8,1.6,1.4c0.4,0.7,0.7,1.6,0.6,2.4c0.1,1.3-0.5,2.5-1.5,3.3
		C179,77.2,177.6,77.6,176.1,77.5"/>
	<path class="st0" d="M189.6,77.5c-1,0-2-0.1-2.9-0.4c-0.7-0.2-1.4-0.5-2-1c-0.4-0.2-0.7-0.7-0.7-1.1c0-0.2,0.1-0.4,0.1-0.6
		c0.1-0.2,0.2-0.4,0.4-0.5c0.1-0.1,0.3-0.2,0.5-0.2c0.3,0,0.6,0.2,0.9,0.4c0.4,0.3,0.8,0.6,1.3,0.8c0.7,0.3,1.6,0.4,2.4,0.4
		c0.9,0.1,1.8-0.1,2.5-0.7c0.4-0.4,0.7-0.9,0.7-1.5c0-0.6-0.2-1.2-0.6-1.6c-0.5-0.4-1-0.7-1.6-0.8c-0.6-0.2-1.3-0.4-2-0.6
		c-0.7-0.2-1.4-0.5-2-0.8c-0.6-0.3-1.1-0.7-1.6-1.3c-0.4-0.7-0.6-1.4-0.6-2.2c0-0.8,0.2-1.5,0.6-2.2c0.4-0.8,1-1.4,1.8-1.8
		c1-0.5,2.1-0.8,3.3-0.7c0.8,0,1.6,0.1,2.3,0.3c0.6,0.1,1.2,0.4,1.8,0.7c0.5,0.3,0.7,0.6,0.7,0.9c0,0.2-0.1,0.4-0.1,0.5
		c-0.1,0.2-0.2,0.4-0.4,0.6c-0.2,0.2-0.4,0.3-0.6,0.3c-0.3,0-0.5-0.1-0.8-0.2c-0.4-0.2-0.8-0.4-1.2-0.5c-0.5-0.2-1.1-0.3-1.7-0.3
		c-0.6,0-1.3,0.1-1.8,0.4c-0.4,0.2-0.8,0.5-1,0.9c-0.2,0.3-0.3,0.7-0.3,1.1c0,0.5,0.2,1,0.6,1.3c0.5,0.3,1,0.6,1.5,0.7
		c0.6,0.2,1.3,0.4,2,0.6c0.7,0.2,1.4,0.5,2,0.8c0.6,0.3,1.2,0.8,1.6,1.4c0.4,0.7,0.7,1.6,0.6,2.4c0.1,1.3-0.5,2.5-1.5,3.3
		C192.5,77.1,191,77.5,189.6,77.5"/>
	<path class="st0" d="M204.5,74.9c0.7,0,1.4-0.2,2-0.6c0.6-0.4,1.1-0.9,1.4-1.5c0.4-0.6,0.5-1.3,0.5-2v-3.4c0-0.7-0.2-1.3-0.5-1.9
		c-0.4-0.6-0.8-1.1-1.4-1.5c-1.2-0.8-2.8-0.8-4,0c-0.6,0.4-1.1,0.9-1.4,1.5c-0.3,0.6-0.5,1.2-0.5,1.9v3.4c0,0.7,0.2,1.4,0.5,2
		c0.3,0.6,0.8,1.1,1.4,1.5C203.1,74.8,203.8,75,204.5,74.9 M204.5,77.5c-1.2,0-2.3-0.3-3.3-0.9c-1-0.6-1.9-1.4-2.5-2.4
		c-0.6-1-0.9-2.1-0.9-3.2v-3.5c0-1.1,0.3-2.2,0.9-3.2c0.6-1,1.4-1.8,2.4-2.4c2.1-1.2,4.7-1.2,6.7,0c1,0.6,1.9,1.4,2.5,2.4
		c0.6,1,1,2.1,0.9,3.2v3.4c0,1.1-0.3,2.2-0.9,3.2c-0.6,1-1.5,1.8-2.5,2.4C206.9,77.2,205.7,77.5,204.5,77.5"/>
	<path class="st0" d="M221.1,77.5c-1.3,0.1-2.7-0.2-3.9-0.9c-1-0.5-1.8-1.4-2.3-2.4c-0.5-1-0.8-2.2-0.7-3.3v-3.4
		c0-1.1,0.2-2.3,0.7-3.3c0.5-1,1.3-1.8,2.3-2.4c1.2-0.6,2.5-0.9,3.8-0.9c0.9,0,1.8,0.1,2.6,0.4c0.6,0.2,1.2,0.5,1.7,0.9
		c0.3,0.2,0.6,0.6,0.6,1.1c0,0.2-0.1,0.4-0.1,0.6c-0.1,0.2-0.2,0.4-0.4,0.6c-0.2,0.1-0.4,0.2-0.6,0.2c-0.3,0-0.5-0.1-0.7-0.3
		c-0.3-0.2-0.7-0.4-1.1-0.6c-0.6-0.2-1.2-0.3-1.9-0.3c-1.2-0.1-2.3,0.3-3.1,1.1c-0.7,0.8-1.1,1.9-1.1,2.9V71c-0.1,1.1,0.3,2.2,1.1,3
		c0.9,0.8,2,1.2,3.2,1.1c0.6,0,1.3-0.1,1.8-0.4c0.4-0.2,0.7-0.4,1.1-0.6c0.2-0.2,0.5-0.3,0.8-0.3c0.2,0,0.5,0.1,0.6,0.2
		c0.2,0.1,0.3,0.3,0.4,0.5c0.1,0.2,0.2,0.4,0.2,0.6c-0.1,0.4-0.3,0.8-0.6,1.1c-0.5,0.4-1.2,0.7-1.8,0.9
		C222.8,77.4,221.9,77.5,221.1,77.5"/>
	<path class="st0" d="M230.4,77.2c-0.4,0-0.7-0.1-1-0.3c-0.2-0.2-0.4-0.4-0.4-0.7v-14c0-0.3,0.2-0.6,0.4-0.7c0.3-0.2,0.6-0.3,1-0.3
		c0.4,0,0.7,0.1,1,0.3c0.3,0.1,0.4,0.4,0.4,0.7v14c0,0.3-0.2,0.5-0.4,0.7C231.1,77.1,230.8,77.2,230.4,77.2 M230.4,56.8
		c-0.5,0-0.9-0.2-1.3-0.5c-0.3-0.3-0.5-0.7-0.5-1.1c0-0.4,0.2-0.8,0.5-1.1c0.7-0.6,1.8-0.6,2.5,0c0.3,0.3,0.5,0.7,0.5,1.1
		c0,0.4-0.2,0.8-0.5,1.1C231.3,56.6,230.9,56.8,230.4,56.8"/>
	<path class="st0" d="M240.3,75.2c0.7,0,1.3-0.2,1.9-0.5c0.6-0.3,1.1-0.8,1.6-1.4c0.4-0.4,0.6-1,0.6-1.6V70h-1.2
		c-0.9,0-1.8,0.1-2.7,0.2c-0.7,0.1-1.4,0.3-2.1,0.7c-0.6,0.4-0.8,1.1-0.8,1.8c-0.1,0.7,0.2,1.4,0.8,1.9
		C238.9,75,239.6,75.2,240.3,75.2 M239.4,77.5c-1.2,0-2.3-0.4-3.3-1.1c-1-0.9-1.5-2.1-1.4-3.4c-0.1-1.1,0.3-2.1,1-2.9
		c0.8-0.8,1.8-1.3,2.8-1.5c1.4-0.3,2.8-0.4,4.2-0.4h1.6v-0.7c0-0.7-0.1-1.4-0.4-2c-0.2-0.6-0.6-1.2-1.2-1.6
		c-0.6-0.5-1.4-0.7-2.2-0.6c-0.6,0-1.3,0.1-1.9,0.2c-0.4,0.1-0.8,0.3-1.1,0.5c-0.2,0.1-0.5,0.2-0.7,0.2c-0.3,0-0.6-0.2-0.8-0.5
		c-0.2-0.3-0.3-0.6-0.3-0.9c0-0.4,0.3-0.7,0.8-1c0.6-0.3,1.2-0.6,1.9-0.7c0.7-0.2,1.5-0.3,2.2-0.3c1.3,0,2.7,0.3,3.8,1
		c0.9,0.6,1.6,1.4,2.1,2.4c0.4,1,0.6,2.1,0.6,3.2v8.7c0,0.3-0.2,0.6-0.4,0.7c-0.3,0.2-0.6,0.3-1,0.3c-0.3,0-0.7-0.1-0.9-0.3
		c-0.2-0.2-0.4-0.4-0.4-0.7v-1.3c-0.6,0.7-1.4,1.3-2.2,1.8C241.5,77.2,240.4,77.5,239.4,77.5"/>
	<path class="st0" d="M256.7,77.2c-1.5,0.1-3-0.3-4.2-1.2c-1-1-1.6-2.4-1.4-3.9V54.6c0-0.3,0.2-0.6,0.4-0.7c0.3-0.2,0.6-0.3,1-0.3
		c0.4,0,0.7,0.1,1,0.3c0.3,0.1,0.4,0.4,0.4,0.7v6.5h4.3c0.3,0,0.5,0.1,0.6,0.3c0.2,0.2,0.2,0.5,0.2,0.8c0,0.3-0.1,0.5-0.2,0.8
		c-0.1,0.2-0.4,0.3-0.6,0.3h-4.3v8.7c-0.1,0.7,0.2,1.4,0.6,2c0.6,0.5,1.4,0.7,2.2,0.6h1.1c0.3,0,0.7,0.1,0.9,0.4
		c0.2,0.2,0.3,0.5,0.3,0.8c0,0.3-0.1,0.6-0.3,0.9c-0.2,0.3-0.6,0.4-0.9,0.4L256.7,77.2z"/>
	<path class="st0" d="M263,77.2c-0.4,0-0.7-0.1-1-0.3c-0.2-0.2-0.4-0.4-0.4-0.7v-14c0-0.3,0.1-0.6,0.4-0.7c0.3-0.2,0.6-0.3,1-0.3
		c0.4,0,0.7,0.1,1,0.3c0.3,0.1,0.4,0.4,0.4,0.7v14c0,0.3-0.2,0.5-0.4,0.7C263.8,77.1,263.4,77.2,263,77.2 M263,56.8
		c-0.5,0-0.9-0.2-1.3-0.5c-0.3-0.3-0.5-0.7-0.5-1.1c0-0.4,0.2-0.8,0.5-1.1c0.3-0.3,0.8-0.5,1.3-0.5c0.5,0,0.9,0.2,1.2,0.5
		c0.3,0.3,0.5,0.7,0.5,1.1c0,0.4-0.2,0.8-0.5,1.1C264,56.6,263.5,56.8,263,56.8"/>
	<path class="st0" d="M274.6,74.9c0.7,0,1.4-0.2,2-0.6c0.6-0.4,1.1-0.9,1.4-1.5c0.4-0.6,0.6-1.3,0.5-2v-3.4c0-0.7-0.2-1.3-0.5-1.9
		c-0.3-0.6-0.8-1.1-1.4-1.5c-1.2-0.8-2.8-0.8-4,0c-0.6,0.4-1.1,0.9-1.4,1.5c-0.3,0.6-0.5,1.2-0.5,1.9v3.4c0,0.7,0.2,1.4,0.5,2
		c0.3,0.6,0.8,1.1,1.4,1.5C273.2,74.8,273.9,75,274.6,74.9 M274.6,77.5c-1.2,0-2.3-0.3-3.4-0.9c-1-0.6-1.8-1.4-2.5-2.4
		c-0.6-1-0.9-2.1-0.9-3.2v-3.5c0-1.1,0.3-2.2,0.9-3.2c0.6-1,1.5-1.8,2.5-2.4c2.1-1.2,4.7-1.2,6.7,0c1,0.6,1.8,1.4,2.5,2.4
		c0.6,1,1,2.1,0.9,3.2v3.4c0,1.1-0.3,2.2-0.9,3.2c-0.6,1-1.5,1.8-2.5,2.4C277,77.2,275.8,77.5,274.6,77.5"/>
	<path class="st0" d="M286.2,77.2c-0.4,0-0.7-0.1-1-0.3c-0.2-0.2-0.4-0.4-0.4-0.7v-14c0-0.3,0.1-0.6,0.4-0.7c0.3-0.2,0.6-0.3,1-0.3
		c0.3,0,0.7,0.1,0.9,0.3c0.2,0.2,0.4,0.4,0.4,0.7v1.4c0.4-0.7,1-1.3,1.7-1.8c0.9-0.6,1.9-0.8,2.9-0.8c1.1,0,2.1,0.3,3,0.9
		c0.9,0.6,1.7,1.4,2.2,2.3c0.6,1,0.8,2.1,0.8,3.2v8.7c0,0.3-0.2,0.6-0.5,0.8c-0.3,0.2-0.7,0.3-1,0.2c-0.3,0-0.7-0.1-1-0.2
		c-0.3-0.1-0.5-0.4-0.5-0.8v-8.7c0-0.7-0.2-1.3-0.5-1.9c-0.3-0.6-0.8-1.1-1.4-1.5c-1.1-0.7-2.6-0.8-3.7-0.1
		c-0.6,0.3-1.1,0.8-1.4,1.3c-0.4,0.6-0.6,1.4-0.5,2.1v8.7c0,0.3-0.2,0.5-0.4,0.7C286.9,77.1,286.6,77.2,286.2,77.2"/>
	<path class="st0" d="M158.4,109.6c0.7,0,1.4-0.2,2-0.6c0.6-0.4,1.1-0.9,1.4-1.5c0.4-0.6,0.5-1.3,0.6-1.9v-3.4
		c0-0.7-0.2-1.3-0.5-1.9c-0.3-0.6-0.8-1.1-1.4-1.5c-1.2-0.8-2.8-0.8-4,0c-0.6,0.4-1.1,0.9-1.4,1.5c-0.3,0.6-0.5,1.2-0.5,1.9v3.5
		c0,0.7,0.2,1.4,0.5,1.9c0.3,0.6,0.8,1.1,1.4,1.5C157,109.5,157.7,109.7,158.4,109.6 M158.4,112.2c-1.2,0-2.3-0.3-3.4-0.9
		c-1-0.6-1.9-1.4-2.5-2.4c-0.6-1-0.9-2.1-0.9-3.2v-3.4c0-1.1,0.3-2.2,0.9-3.2c0.6-1,1.4-1.8,2.4-2.4c2.1-1.2,4.7-1.2,6.7,0
		c1,0.6,1.8,1.4,2.5,2.3c0.6,1,1,2.1,0.9,3.2v3.4c0,1.1-0.3,2.2-0.9,3.2c-0.6,1-1.5,1.8-2.5,2.4
		C160.7,111.9,159.5,112.2,158.4,112.2"/>
	<path class="st0" d="M169.9,111.9c-0.4,0-0.7-0.1-1-0.3c-0.2-0.2-0.4-0.4-0.4-0.7V92.6c0-1.1,0.3-2.2,0.8-3.2
		c0.5-0.9,1.3-1.7,2.2-2.3c0.9-0.6,1.9-0.9,3-0.8h1.2c0.3,0,0.6,0.1,0.9,0.4c0.2,0.2,0.3,0.6,0.3,0.9c0,0.3-0.1,0.6-0.3,0.8
		c-0.2,0.3-0.5,0.4-0.9,0.4h-0.7c-0.7,0-1.3,0.2-1.9,0.5c-0.5,0.3-1,0.8-1.3,1.3c-0.3,0.5-0.5,1.2-0.5,1.8v3.6h4.7
		c0.3,0,0.5,0.1,0.6,0.3c0.2,0.2,0.2,0.5,0.2,0.8c0,0.3-0.1,0.5-0.2,0.7c-0.1,0.2-0.4,0.3-0.6,0.3h-4.7V111c0,0.3-0.2,0.6-0.4,0.7
		C170.6,111.9,170.3,111.9,169.9,111.9"/>
	<path class="st0" d="M189.7,103.9h7.6l-3.8-12.7L189.7,103.9z M186.4,111.9c-0.3,0-0.5-0.1-0.8-0.2c-0.3-0.1-0.5-0.2-0.7-0.4
		c-0.2-0.2-0.3-0.4-0.3-0.6c0-0.1,0-0.2,0-0.3l7-22.5c0.1-0.3,0.3-0.6,0.6-0.7c0.3-0.2,0.7-0.2,1.1-0.2c0.4,0,0.8,0.1,1.1,0.2
		c0.3,0.1,0.6,0.4,0.6,0.7l7,22.5c0,0.1,0.1,0.1,0.1,0.2c0,0.2-0.1,0.5-0.3,0.6c-0.2,0.2-0.4,0.3-0.7,0.4c-0.2,0.1-0.5,0.2-0.8,0.2
		c-0.2,0-0.4,0-0.6-0.2c-0.2-0.1-0.3-0.3-0.4-0.5l-1.5-5h-9l-1.5,5c-0.1,0.2-0.2,0.4-0.4,0.5C186.9,111.9,186.6,111.9,186.4,111.9"
		/>
	<path class="st0" d="M211.3,112.2c-1.2,0-2.4-0.3-3.4-0.9c-1-0.6-1.8-1.4-2.5-2.4c-0.6-0.9-0.9-2.1-0.9-3.2v-8.8
		c0-0.3,0.2-0.5,0.4-0.7c0.3-0.2,0.6-0.3,1-0.3c0.4,0,0.7,0.1,1,0.3c0.2,0.2,0.4,0.4,0.4,0.7v8.8c0,0.7,0.2,1.3,0.5,1.9
		c0.3,0.6,0.8,1.1,1.4,1.5c1.2,0.8,2.8,0.8,4,0c0.6-0.4,1.1-0.9,1.4-1.5c0.3-0.6,0.5-1.2,0.5-1.9v-8.8c0-0.3,0.2-0.6,0.4-0.7
		c0.3-0.2,0.6-0.3,1-0.3c0.4,0,0.7,0.1,1,0.3c0.2,0.2,0.4,0.4,0.4,0.7v8.8c0,1.1-0.3,2.2-0.9,3.2c-0.6,1-1.5,1.8-2.4,2.4
		C213.7,111.9,212.5,112.2,211.3,112.2"/>
	<path class="st0" d="M226.6,112.2c-1,0-2-0.1-2.9-0.4c-0.7-0.2-1.4-0.6-2-1c-0.4-0.3-0.7-0.7-0.7-1.2c0-0.2,0.1-0.4,0.1-0.6
		c0.1-0.2,0.2-0.4,0.4-0.5c0.1-0.1,0.3-0.2,0.5-0.2c0.3,0,0.6,0.2,0.9,0.4c0.4,0.3,0.8,0.6,1.3,0.8c0.7,0.3,1.6,0.4,2.4,0.4
		c0.9,0.1,1.8-0.1,2.5-0.7c0.4-0.4,0.7-0.9,0.7-1.5c0-0.6-0.2-1.2-0.6-1.6c-0.5-0.4-1-0.7-1.6-0.9c-0.6-0.2-1.3-0.4-2-0.6
		c-0.7-0.2-1.4-0.4-2-0.8c-0.6-0.3-1.2-0.7-1.6-1.3c-0.4-0.7-0.6-1.4-0.6-2.2c0-0.8,0.2-1.5,0.6-2.2c0.4-0.8,1-1.4,1.8-1.8
		c1-0.5,2.1-0.8,3.3-0.7c0.8,0,1.5,0.1,2.3,0.2c0.6,0.1,1.3,0.4,1.8,0.7c0.5,0.3,0.7,0.6,0.7,0.9c0,0.2-0.1,0.4-0.1,0.5
		c-0.1,0.2-0.2,0.4-0.4,0.6c-0.2,0.2-0.4,0.3-0.6,0.3c-0.3,0-0.5-0.1-0.8-0.3c-0.4-0.2-0.8-0.4-1.2-0.5c-0.5-0.2-1.1-0.2-1.7-0.2
		c-0.6,0-1.2,0.1-1.8,0.4c-0.4,0.2-0.8,0.5-1,0.9c-0.2,0.3-0.3,0.7-0.3,1.1c0,0.5,0.2,1,0.6,1.3c0.5,0.4,1,0.6,1.6,0.8
		c0.6,0.2,1.3,0.4,2,0.6c0.7,0.2,1.4,0.5,2,0.8c0.6,0.3,1.2,0.8,1.6,1.4c0.4,0.7,0.7,1.6,0.6,2.4c0,1.3-0.5,2.5-1.5,3.3
		C229.5,111.9,228,112.3,226.6,112.2"/>
	<path class="st0" d="M241.1,111.9c-1.5,0.1-3-0.3-4.2-1.2c-1.1-1-1.6-2.4-1.4-3.9V89.4c0-0.3,0.2-0.6,0.4-0.7
		c0.3-0.2,0.6-0.3,0.9-0.3c0.4,0,0.7,0.1,1,0.3c0.3,0.1,0.4,0.4,0.4,0.7v6.5h4.3c0.3,0,0.5,0.1,0.6,0.3c0.1,0.2,0.2,0.5,0.2,0.8
		c0,0.3-0.1,0.5-0.2,0.8c-0.1,0.2-0.4,0.3-0.6,0.3h-4.3v8.7c-0.1,0.7,0.2,1.4,0.6,2c0.6,0.5,1.4,0.7,2.2,0.6h1
		c0.3,0,0.7,0.1,0.9,0.4c0.2,0.2,0.3,0.5,0.3,0.8c0,0.3-0.1,0.6-0.3,0.9c-0.2,0.3-0.6,0.4-0.9,0.4L241.1,111.9z"/>
	<path class="st0" d="M247.4,111.9c-0.4,0-0.7-0.1-1-0.3c-0.2-0.2-0.4-0.4-0.4-0.7v-14c0-0.3,0.1-0.6,0.4-0.7c0.3-0.2,0.6-0.3,1-0.3
		c0.3,0,0.7,0.1,0.9,0.3c0.2,0.2,0.4,0.4,0.4,0.7v1.6c0.3-0.5,0.6-0.9,1-1.3c0.5-0.4,1-0.8,1.5-1c0.6-0.3,1.3-0.4,1.9-0.4h1.2
		c0.3,0,0.6,0.1,0.8,0.4c0.2,0.3,0.3,0.6,0.3,0.9c0,0.3-0.1,0.6-0.3,0.9c-0.2,0.2-0.5,0.4-0.8,0.4h-1.2c-0.7,0-1.5,0.2-2.1,0.6
		c-0.7,0.4-1.2,1-1.6,1.7c-0.4,0.8-0.7,1.7-0.6,2.7v7.7c0,0.3-0.2,0.5-0.4,0.7C248.1,111.9,247.7,112,247.4,111.9"/>
	<path class="st0" d="M261.5,109.9c0.7,0,1.3-0.2,1.9-0.5c0.6-0.3,1.1-0.8,1.6-1.3c0.4-0.4,0.6-1,0.6-1.6v-1.8h-1.2
		c-0.9,0-1.8,0.1-2.7,0.2c-0.7,0.1-1.4,0.3-2.1,0.7c-0.5,0.4-0.8,1.1-0.8,1.8c-0.1,0.7,0.2,1.4,0.8,1.9
		C260.2,109.8,260.9,110,261.5,109.9 M260.6,112.2c-1.2,0-2.3-0.4-3.3-1.1c-1-0.9-1.5-2.1-1.4-3.4c-0.1-1.1,0.3-2.1,1-2.9
		c0.8-0.7,1.8-1.2,2.8-1.4c1.4-0.3,2.8-0.4,4.2-0.4h1.6v-0.7c0-0.7-0.1-1.4-0.4-2c-0.2-0.6-0.6-1.2-1.2-1.6
		c-0.6-0.5-1.4-0.7-2.2-0.6c-0.6,0-1.3,0.1-1.9,0.2c-0.4,0.1-0.8,0.3-1.1,0.5c-0.2,0.1-0.5,0.2-0.7,0.2c-0.3,0-0.6-0.2-0.8-0.5
		c-0.2-0.3-0.3-0.6-0.3-0.9c0-0.4,0.2-0.7,0.8-1c0.6-0.3,1.2-0.6,1.9-0.7c0.7-0.2,1.5-0.3,2.2-0.3c1.3-0.1,2.7,0.3,3.8,1
		c0.9,0.6,1.6,1.4,2.1,2.4c0.4,1,0.6,2.1,0.6,3.2v8.7c0,0.3-0.2,0.5-0.4,0.7c-0.3,0.2-0.6,0.3-1,0.3c-0.3,0-0.7-0.1-0.9-0.3
		c-0.2-0.2-0.4-0.4-0.4-0.7v-1.4c-0.6,0.7-1.3,1.3-2.1,1.8C262.7,112,261.7,112.2,260.6,112.2"/>
	<path class="st0" d="M274,111.9c-0.4,0-0.7-0.1-1-0.3c-0.2-0.2-0.4-0.4-0.4-0.7V87.2c0-0.3,0.1-0.6,0.4-0.7c0.3-0.2,0.6-0.3,1-0.3
		c0.4,0,0.7,0.1,1,0.3c0.3,0.1,0.4,0.4,0.4,0.7v23.7c0,0.3-0.2,0.5-0.4,0.7C274.8,111.8,274.4,111.9,274,111.9"/>
	<path class="st0" d="M281.2,111.9c-0.4,0-0.7-0.1-1-0.3c-0.2-0.2-0.4-0.4-0.4-0.7v-14c0-0.3,0.1-0.6,0.4-0.7c0.3-0.2,0.6-0.3,1-0.3
		c0.4,0,0.7,0.1,1,0.3c0.3,0.1,0.4,0.4,0.4,0.7v14c0,0.3-0.2,0.5-0.4,0.7C282,111.8,281.6,111.9,281.2,111.9 M281.2,91.5
		c-0.5,0-0.9-0.2-1.3-0.5c-0.3-0.3-0.5-0.7-0.5-1.1c0-0.4,0.2-0.8,0.5-1.1c0.3-0.3,0.8-0.5,1.3-0.5c0.5,0,0.9,0.2,1.2,0.5
		c0.3,0.3,0.5,0.7,0.5,1.1c0,0.4-0.2,0.8-0.5,1.1C282.2,91.3,281.7,91.5,281.2,91.5"/>
	<path class="st0" d="M291.1,109.9c0.7,0,1.3-0.2,1.9-0.5c0.6-0.3,1.1-0.8,1.6-1.3c0.4-0.4,0.6-1,0.6-1.6v-1.8H294
		c-0.9,0-1.8,0.1-2.7,0.2c-0.7,0.1-1.4,0.3-2.1,0.7c-0.5,0.4-0.8,1.1-0.8,1.8c-0.1,0.7,0.2,1.4,0.8,1.9
		C289.8,109.8,290.4,110,291.1,109.9 M290.2,112.2c-1.2,0-2.3-0.4-3.3-1.1c-1-0.9-1.5-2.1-1.4-3.4c-0.1-1.1,0.3-2.1,1-2.9
		c0.8-0.7,1.8-1.2,2.8-1.4c1.4-0.3,2.8-0.4,4.1-0.4h1.6v-0.7c0-0.7-0.1-1.4-0.4-2c-0.2-0.6-0.6-1.2-1.2-1.6
		c-0.6-0.5-1.4-0.7-2.2-0.6c-0.6,0-1.3,0.1-1.9,0.2c-0.4,0.1-0.8,0.3-1.1,0.5c-0.2,0.1-0.5,0.2-0.7,0.2c-0.3,0-0.6-0.2-0.8-0.5
		c-0.2-0.3-0.3-0.6-0.3-0.9c0-0.4,0.2-0.7,0.8-1c0.6-0.3,1.2-0.6,1.9-0.7c0.7-0.2,1.5-0.3,2.2-0.3c1.3,0,2.7,0.3,3.8,1
		c0.9,0.6,1.6,1.4,2.1,2.4c0.4,1,0.6,2.1,0.6,3.2v8.7c0,0.3-0.2,0.5-0.4,0.7c-0.3,0.2-0.6,0.3-1,0.3c-0.3,0-0.7-0.1-0.9-0.3
		c-0.2-0.2-0.4-0.4-0.4-0.7v-1.4c-0.6,0.7-1.3,1.3-2.1,1.8C292.3,112,291.3,112.2,290.2,112.2"/>
</g>
</svg>
