<svg xmlns="http://www.w3.org/2000/svg" xml:space="preserve" style="enable-background:new 0 0 298.1 131.3" viewBox="0 0 298.1 131.3"><style>.st0{fill:#006eb5}</style><g id="Layer_1"><path d="m54.2 68.7-5.2.9-4.4.8-3.6.7-2.7.5-1.5.3-3.4.4-.5 4.6-.6 5.7-.6 5.1c-.2 1.5-.3 3-.5 4.5-.1 1.2-.3 2.5-.4 3.7-.1.9-.2 1.8-.3 2.8-.1.5-.1 1.1-.2 1.7-.1.8.5 1.6 1.3 1.8 1.2.3 2-.9 2.7-1.7l1.8-2.1 2.4-2.9c1-1.2 2-2.3 3-3.5l3.5-4 3.9-4.5 4.1-4.8 4.2-4.9 4.3-5 1.3-1.5-3 .5-5.6.9zM73.5 54.6c1.1-1.4 2.3-2.7 3.4-4l3-3.5 2.3-2.8 1.7-1.9c.3-.3.6-.7.9-1l1.4-1.6-5-2.2-5.8-2.5c-1.9-.8-3.8-1.7-5.8-2.5L64 30.2c-1.7-.8-3.5-1.5-5.2-2.3L54 25.8l-4.2-1.9-3.5-1.5-2.7-1.2-1.8-.8-.8-.3 25.1 43 3.6-4.2 3.8-4.3zM39 21.9l-.2 1.8c-.1 1-.2 1.9-.3 2.9-.1 1.3-.3 2.5-.4 3.8l-.5 4.6-.6 5.3c-.2 1.9-.4 3.7-.6 5.7-.2 2.1-.4 4-.7 6.1-.2 2.1-.4 4.2-.7 6.3-.2 2.1-.5 4.2-.7 6.3l-.6 5.2 3-.4 1.9-.3 3-.5 4-.7 4.8-.9 5.4-1 5.9-1.1 2.5-.4L39 21.3v.6zM114.3 52.2l-1.6-.7-2.6-1.1-3.5-1.4-4.2-1.8-4.8-2.2-5.2-2.3-4-1.8-2.1 2.6L85 45l-2 2.3-2.6 3.1-3.1 3.7-3.6 4.2-3.9 4.5c-.3.3-.5.6-.8.9l5.3-1 6.4-1.1 6.3-1.1 6-1.1 5.5-1 4.9-.9 4.2-.8 3.3-.6 2.2-.4c.9-.2 1.9-.4 2.2-1.4.2-.7 0-1.4-.6-1.8-.1-.2-.2-.2-.4-.3z" class="st0"/><path d="M99.5 8.8C67.8-9.4 27.2 1.4 8.9 32.8c-.1.2-.3.5-.4.7-17.7 31.4-6.7 71.2 24.7 88.9 31.7 18.2 72.3 7.4 90.6-24 .1-.3.3-.5.4-.8 17.8-31.3 6.7-71.1-24.7-88.8zm18.3 45.6c-.2 1.4-1.2 2.6-2.5 3.1-.4.2-.7.3-1.1.3l-1.6.3-2.8.5-3.7.7-4.5.8-5.2.9-5.7 1-6 1.1-6.3 1.1c-2.1.4-4.2.8-6.3 1.1l-4.1.9L94.2 111c.3.6.1 1.3-.4 1.6-.6.3-1.3.1-1.7-.4l-26.2-45-.2.2-4.2 4.9-4.2 5-4.2 4.9-4 4.6c-1.2 1.4-2.5 2.9-3.7 4.3L42.1 95c-.9 1.1-1.9 2.2-2.8 3.3l-2.2 2.6-1.5 1.9c-.1.2-.3.3-.4.5-.1.1-.2.3-.4.4-1.2.9-2.8 1.2-4.2.7-1.4-.5-2.4-1.8-2.6-3.2 0-.4 0-.7.1-1.1.1-.5.2-.9.2-1.4.1-.8.2-1.7.3-2.5.1-1.1.3-2.3.4-3.4.1-1.4.3-2.8.5-4.3l.5-5c.2-1.8.4-3.6.6-5.5.2-1.9.4-3.8.6-5.9.2-2 .4-4.1.7-6.1l.7-6.3c.3-2.1.5-4.2.7-6.2.2-2.1.5-4.1.7-6.1l.6-5.8c.2-1.8.4-3.5.6-5.3.2-1.6.4-3.2.5-4.8 0-.2.1-.4.1-.7l.9-9.2c.1-1.4.9-2.6 2-3.4 1.1-.6 2.3-.7 3.5-.4l.6.2h.1l5.3 2.4 2.8 1.2 4.4 1.9 5 2.2 5.4 2.4 5.8 2.5 5.9 2.6 6 2.6 5.9 2.6 5.6 2.5 5.2 2.3 4.7 2.1 4.1 1.8 3.3 1.4 2.4 1c.8.3 1.5.7 2.2 1.2.6 1.1 1 2.4.9 3.7zM153.2 42.5c-.4 0-.7-.1-1-.3-.3-.1-.5-.4-.5-.8V18.7c0-.3.2-.6.5-.7.6-.3 1.4-.3 2 0 .3.1.5.4.4.7v22.7c0 .3-.2.6-.4.8-.3.2-.7.3-1 .3M160.4 42.5c-.4 0-.7-.1-1-.3-.2-.2-.4-.4-.4-.7v-14c0-.3.2-.6.4-.7.3-.2.6-.3 1-.3.3 0 .7.1.9.3.2.2.4.4.4.7v1.4c.4-.7 1-1.3 1.7-1.8.9-.5 1.9-.8 2.9-.8 1.1 0 2.1.3 3 .9.9.6 1.7 1.4 2.2 2.4.6 1 .8 2.1.8 3.2v8.7c0 .3-.2.6-.4.8-.6.3-1.3.3-1.9 0-.3-.1-.5-.4-.4-.8v-8.8c0-.7-.2-1.3-.5-1.9-.3-.6-.8-1.1-1.4-1.5-.6-.4-1.3-.6-1.9-.6-.6 0-1.2.2-1.8.5-.6.3-1.1.8-1.4 1.4-.4.6-.6 1.4-.5 2.1v8.7c0 .3-.2.5-.4.7-.6.3-1 .4-1.3.4M181.7 42.5c-1.5.1-3-.3-4.2-1.2-1-1-1.6-2.4-1.4-3.9V19.9c0-.3.2-.6.4-.7.6-.4 1.3-.4 1.9 0 .3.1.4.4.4.7v6.5h4.3c.3 0 .5.1.6.3.1.2.2.5.2.8 0 .3-.1.5-.2.8-.1.2-.4.3-.6.3h-4.3v8.7c-.1.7.2 1.5.6 2 .6.5 1.4.7 2.2.6h1.1c.3 0 .7.1.9.4.2.2.3.5.3.8 0 .3-.1.6-.3.9-.2.3-.6.4-.9.4l-1 .1zM188.6 33.4h6.3c.4 0 .8 0 1.2-.2.2-.2.3-.5.3-.9 0-.7-.2-1.3-.5-1.9-.3-.6-.8-1.1-1.4-1.4-.6-.4-1.3-.5-2-.5-1.4 0-2.6.7-3.4 1.8-.4.6-.5 1.2-.6 1.9l.1 1.2zm4.8 9.3c-1.4 0-2.7-.3-3.9-.8-1.1-.5-2-1.3-2.7-2.3-.7-1-1-2.2-1-3.4v-3.5c0-1.1.3-2.2.9-3.2.6-1 1.5-1.8 2.5-2.3 2.1-1.1 4.6-1.2 6.6-.1 1 .5 1.8 1.3 2.4 2.2.6 1 .9 2.1.9 3.2.1.7-.1 1.4-.4 1.9-.3.4-.7.6-1.1.7-.5.1-1 .1-1.4.1h-7.5v1c0 1.2.5 2.3 1.4 3 1 .8 2.3 1.2 3.5 1.1.7 0 1.4-.1 2-.3.4-.2.8-.4 1.2-.7.2-.2.5-.3.9-.3.2 0 .5.1.6.2.2.1.3.3.4.5.1.2.1.4.1.5-.1.4-.3.8-.6 1-.6.4-1.2.8-1.9 1-1 .5-2 .6-2.9.5M203.6 42.5c-.4 0-.7-.1-1-.3-.2-.2-.4-.4-.4-.7v-14c0-.3.2-.6.4-.7.3-.2.6-.3 1-.3s.7.1 1 .3c.2.2.4.4.4.7V29c.3-.5.6-.9 1-1.3s1-.8 1.5-1c.6-.3 1.3-.4 1.9-.4h1.2c.3 0 .6.1.8.4.2.3.3.6.3.9 0 .3-.1.6-.3.9-.2.2-.5.4-.8.4h-1.2c-.7 0-1.5.2-2.1.6-.7.4-1.2 1-1.6 1.7-.4.8-.7 1.7-.7 2.6v7.7c0 .3-.2.5-.4.7-.3.2-.6.3-1 .3M215.3 42.5c-.4 0-.7-.1-1-.3-.2-.2-.4-.4-.4-.7v-14c0-.3.1-.6.4-.7.3-.2.6-.3 1-.3.3 0 .7.1.9.3.2.2.4.4.4.7v1.4c.4-.7 1-1.3 1.7-1.8.9-.5 1.9-.8 2.9-.8 1.1 0 2.1.3 3 .9.9.6 1.7 1.4 2.2 2.4.6 1 .8 2.1.8 3.2v8.7c0 .3-.2.6-.4.8-.6.4-1.4.4-2 0-.3-.1-.5-.4-.4-.8v-8.8c0-.7-.2-1.3-.5-1.9-.3-.6-.8-1.1-1.4-1.5-.6-.4-1.3-.6-2-.6-.6 0-1.2.2-1.8.5-.5.4-1 .8-1.3 1.4-.4.6-.6 1.4-.5 2.1v8.7c0 .3-.2.5-.4.7-.4.3-.8.4-1.2.4M233.3 33.4h6.3c.4 0 .8 0 1.2-.2.2-.2.3-.5.3-.9 0-.7-.2-1.3-.5-1.9-.3-.6-.8-1.1-1.4-1.4-.6-.4-1.3-.5-2-.5s-1.4.2-1.9.5c-.6.3-1.1.8-1.4 1.3-.4.6-.6 1.2-.6 1.9v1.2zm4.8 9.3c-1.4 0-2.7-.3-3.9-.8-1.1-.5-2-1.3-2.7-2.3-.7-1-1-2.2-1-3.4v-3.5c0-1.1.3-2.2.9-3.2.6-1 1.5-1.8 2.5-2.3 1-.6 2.2-.9 3.4-.9 1.1 0 2.3.3 3.3.8s1.8 1.3 2.4 2.2c.6 1 .9 2.1.9 3.2.1.7-.1 1.4-.4 1.9-.3.4-.7.6-1.1.7-.5.1-.9.1-1.4.1h-7.5v1c-.1 1.2.5 2.3 1.4 3 1 .8 2.3 1.2 3.5 1.1.7 0 1.4-.1 2-.3.4-.2.8-.4 1.2-.7.3-.2.5-.3.9-.3.2 0 .5.1.6.2.2.1.3.3.4.5.1.2.1.4.1.5 0 .3-.2.6-.6 1-.6.4-1.2.8-1.9 1-1.1.5-2 .6-3 .5M252.6 42.5c-1.5.1-3-.3-4.2-1.2-1-1-1.6-2.4-1.4-3.9V19.9c0-.3.2-.6.4-.7.3-.2.6-.3 1-.3s.7.1 1 .3c.3.1.4.4.4.7v6.5h4.2c.3 0 .5.1.6.3.1.2.2.5.2.8 0 .3-.1.5-.2.8-.1.2-.4.3-.6.3h-4.3v8.7c-.1.7.2 1.5.6 2 .6.5 1.4.7 2.2.6h1.1c.4 0 .7.1.9.4.2.2.3.5.3.8 0 .3-.1.6-.3.9-.2.3-.6.4-.9.4l-1 .1zM156.2 69.2h7.7l-3.8-12.7-3.9 12.7zm-3.3 8c-.3 0-.5-.1-.8-.2-.3-.1-.5-.2-.7-.4-.2-.2-.3-.4-.3-.6v-.3l7-22.5c.1-.3.3-.6.6-.7.3-.2.7-.2 1.1-.2.4 0 .8.1 1.1.3.3.1.5.4.6.7l7 22.5c0 .1.1.2.1.2 0 .2-.1.5-.3.6-.2.2-.4.3-.7.4-.2.1-.5.2-.8.2-.2 0-.4 0-.6-.2-.2-.1-.3-.3-.4-.5l-1.5-5h-9l-1.5 5c-.1.2-.2.4-.4.5 0 .1-.2.2-.5.2M176.1 77.5c-1 0-2-.1-2.9-.4-.7-.2-1.4-.5-2-1-.4-.2-.7-.7-.7-1.1 0-.2.1-.4.1-.6.1-.2.2-.4.4-.5.1-.1.3-.2.5-.2.3 0 .6.2.9.4.4.3.8.6 1.3.8.7.3 1.6.4 2.4.4.9.1 1.8-.1 2.5-.7.4-.4.7-.9.7-1.5s-.2-1.2-.6-1.6c-.5-.4-1-.7-1.5-.8-.6-.2-1.3-.4-2-.6-.7-.2-1.4-.5-2-.8-.6-.3-1.1-.7-1.6-1.3-.4-.7-.6-1.4-.6-2.2 0-.8.2-1.5.6-2.2.4-.8 1-1.4 1.8-1.8 1-.5 2.1-.8 3.3-.7.8 0 1.5.1 2.3.3.6.1 1.2.4 1.8.7.5.3.7.6.7.9 0 .2-.1.4-.1.5-.1.2-.2.4-.4.6-.2.2-.4.3-.6.3-.3 0-.5-.1-.8-.2-.4-.2-.8-.4-1.2-.5-.5-.2-1.1-.3-1.7-.2-.6 0-1.3.1-1.8.4-.4.2-.8.5-1 .9-.2.3-.3.7-.3 1.1 0 .5.2 1 .6 1.3.5.4 1 .6 1.6.8.6.2 1.3.4 2 .6.7.2 1.4.5 2 .8.6.3 1.2.8 1.6 1.4.4.7.7 1.6.6 2.4.1 1.3-.5 2.5-1.5 3.3-1.5.7-2.9 1.1-4.4 1M189.6 77.5c-1 0-2-.1-2.9-.4-.7-.2-1.4-.5-2-1-.4-.2-.7-.7-.7-1.1 0-.2.1-.4.1-.6.1-.2.2-.4.4-.5.1-.1.3-.2.5-.2.3 0 .6.2.9.4.4.3.8.6 1.3.8.7.3 1.6.4 2.4.4.9.1 1.8-.1 2.5-.7.4-.4.7-.9.7-1.5s-.2-1.2-.6-1.6c-.5-.4-1-.7-1.6-.8-.6-.2-1.3-.4-2-.6-.7-.2-1.4-.5-2-.8-.6-.3-1.1-.7-1.6-1.3-.4-.7-.6-1.4-.6-2.2 0-.8.2-1.5.6-2.2.4-.8 1-1.4 1.8-1.8 1-.5 2.1-.8 3.3-.7.8 0 1.6.1 2.3.3.6.1 1.2.4 1.8.7.5.3.7.6.7.9 0 .2-.1.4-.1.5-.1.2-.2.4-.4.6-.2.2-.4.3-.6.3-.3 0-.5-.1-.8-.2-.4-.2-.8-.4-1.2-.5-.5-.2-1.1-.3-1.7-.3-.6 0-1.3.1-1.8.4-.4.2-.8.5-1 .9-.2.3-.3.7-.3 1.1 0 .5.2 1 .6 1.3.5.3 1 .6 1.5.7.6.2 1.3.4 2 .6.7.2 1.4.5 2 .8.6.3 1.2.8 1.6 1.4.4.7.7 1.6.6 2.4.1 1.3-.5 2.5-1.5 3.3-1.3.8-2.8 1.2-4.2 1.2M204.5 74.9c.7 0 1.4-.2 2-.6.6-.4 1.1-.9 1.4-1.5.4-.6.5-1.3.5-2v-3.4c0-.7-.2-1.3-.5-1.9-.4-.6-.8-1.1-1.4-1.5-1.2-.8-2.8-.8-4 0-.6.4-1.1.9-1.4 1.5-.3.6-.5 1.2-.5 1.9v3.4c0 .7.2 1.4.5 2 .3.6.8 1.1 1.4 1.5.6.5 1.3.7 2 .6m0 2.6c-1.2 0-2.3-.3-3.3-.9-1-.6-1.9-1.4-2.5-2.4-.6-1-.9-2.1-.9-3.2v-3.5c0-1.1.3-2.2.9-3.2.6-1 1.4-1.8 2.4-2.4 2.1-1.2 4.7-1.2 6.7 0 1 .6 1.9 1.4 2.5 2.4.6 1 1 2.1.9 3.2v3.4c0 1.1-.3 2.2-.9 3.2-.6 1-1.5 1.8-2.5 2.4-.9.7-2.1 1-3.3 1M221.1 77.5c-1.3.1-2.7-.2-3.9-.9-1-.5-1.8-1.4-2.3-2.4-.5-1-.8-2.2-.7-3.3v-3.4c0-1.1.2-2.3.7-3.3.5-1 1.3-1.8 2.3-2.4 1.2-.6 2.5-.9 3.8-.9.9 0 1.8.1 2.6.4.6.2 1.2.5 1.7.9.3.2.6.6.6 1.1 0 .2-.1.4-.1.6-.1.2-.2.4-.4.6-.2.1-.4.2-.6.2-.3 0-.5-.1-.7-.3-.3-.2-.7-.4-1.1-.6-.6-.2-1.2-.3-1.9-.3-1.2-.1-2.3.3-3.1 1.1-.7.8-1.1 1.9-1.1 2.9V71c-.1 1.1.3 2.2 1.1 3 .9.8 2 1.2 3.2 1.1.6 0 1.3-.1 1.8-.4.4-.2.7-.4 1.1-.6.2-.2.5-.3.8-.3.2 0 .5.1.6.2.2.1.3.3.4.5.1.2.2.4.2.6-.1.4-.3.8-.6 1.1-.5.4-1.2.7-1.8.9-.9.3-1.8.4-2.6.4M230.4 77.2c-.4 0-.7-.1-1-.3-.2-.2-.4-.4-.4-.7v-14c0-.3.2-.6.4-.7.3-.2.6-.3 1-.3s.7.1 1 .3c.3.1.4.4.4.7v14c0 .3-.2.5-.4.7-.3.2-.6.3-1 .3m0-20.4c-.5 0-.9-.2-1.3-.5-.3-.3-.5-.7-.5-1.1 0-.4.2-.8.5-1.1.7-.6 1.8-.6 2.5 0 .3.3.5.7.5 1.1 0 .4-.2.8-.5 1.1-.3.3-.7.5-1.2.5M240.3 75.2c.7 0 1.3-.2 1.9-.5.6-.3 1.1-.8 1.6-1.4.4-.4.6-1 .6-1.6V70h-1.2c-.9 0-1.8.1-2.7.2-.7.1-1.4.3-2.1.7-.6.4-.8 1.1-.8 1.8-.1.7.2 1.4.8 1.9.5.4 1.2.6 1.9.6m-.9 2.3c-1.2 0-2.3-.4-3.3-1.1-1-.9-1.5-2.1-1.4-3.4-.1-1.1.3-2.1 1-2.9.8-.8 1.8-1.3 2.8-1.5 1.4-.3 2.8-.4 4.2-.4h1.6v-.7c0-.7-.1-1.4-.4-2-.2-.6-.6-1.2-1.2-1.6-.6-.5-1.4-.7-2.2-.6-.6 0-1.3.1-1.9.2-.4.1-.8.3-1.1.5-.2.1-.5.2-.7.2-.3 0-.6-.2-.8-.5-.2-.3-.3-.6-.3-.9 0-.4.3-.7.8-1 .6-.3 1.2-.6 1.9-.7.7-.2 1.5-.3 2.2-.3 1.3 0 2.7.3 3.8 1 .9.6 1.6 1.4 2.1 2.4.4 1 .6 2.1.6 3.2v8.7c0 .3-.2.6-.4.7-.3.2-.6.3-1 .3-.3 0-.7-.1-.9-.3-.2-.2-.4-.4-.4-.7v-1.3c-.6.7-1.4 1.3-2.2 1.8-.7.6-1.8.9-2.8.9M256.7 77.2c-1.5.1-3-.3-4.2-1.2-1-1-1.6-2.4-1.4-3.9V54.6c0-.3.2-.6.4-.7.3-.2.6-.3 1-.3s.7.1 1 .3c.3.1.4.4.4.7v6.5h4.3c.3 0 .5.1.6.3.2.2.2.5.2.8 0 .3-.1.5-.2.8-.1.2-.4.3-.6.3h-4.3V72c-.1.7.2 1.4.6 2 .6.5 1.4.7 2.2.6h1.1c.3 0 .7.1.9.4.2.2.3.5.3.8 0 .3-.1.6-.3.9-.2.3-.6.4-.9.4l-1.1.1zM263 77.2c-.4 0-.7-.1-1-.3-.2-.2-.4-.4-.4-.7v-14c0-.3.1-.6.4-.7.3-.2.6-.3 1-.3s.7.1 1 .3c.3.1.4.4.4.7v14c0 .3-.2.5-.4.7-.2.2-.6.3-1 .3m0-20.4c-.5 0-.9-.2-1.3-.5-.3-.3-.5-.7-.5-1.1 0-.4.2-.8.5-1.1.3-.3.8-.5 1.3-.5s.9.2 1.2.5c.3.3.5.7.5 1.1 0 .4-.2.8-.5 1.1-.2.3-.7.5-1.2.5M274.6 74.9c.7 0 1.4-.2 2-.6.6-.4 1.1-.9 1.4-1.5.4-.6.6-1.3.5-2v-3.4c0-.7-.2-1.3-.5-1.9-.3-.6-.8-1.1-1.4-1.5-1.2-.8-2.8-.8-4 0-.6.4-1.1.9-1.4 1.5-.3.6-.5 1.2-.5 1.9v3.4c0 .7.2 1.4.5 2 .3.6.8 1.1 1.4 1.5.6.5 1.3.7 2 .6m0 2.6c-1.2 0-2.3-.3-3.4-.9-1-.6-1.8-1.4-2.5-2.4-.6-1-.9-2.1-.9-3.2v-3.5c0-1.1.3-2.2.9-3.2.6-1 1.5-1.8 2.5-2.4 2.1-1.2 4.7-1.2 6.7 0 1 .6 1.8 1.4 2.5 2.4.6 1 1 2.1.9 3.2v3.4c0 1.1-.3 2.2-.9 3.2-.6 1-1.5 1.8-2.5 2.4-.9.7-2.1 1-3.3 1M286.2 77.2c-.4 0-.7-.1-1-.3-.2-.2-.4-.4-.4-.7v-14c0-.3.1-.6.4-.7.3-.2.6-.3 1-.3.3 0 .7.1.9.3.2.2.4.4.4.7v1.4c.4-.7 1-1.3 1.7-1.8.9-.6 1.9-.8 2.9-.8 1.1 0 2.1.3 3 .9.9.6 1.7 1.4 2.2 2.3.6 1 .8 2.1.8 3.2v8.7c0 .3-.2.6-.5.8-.3.2-.7.3-1 .2-.3 0-.7-.1-1-.2-.3-.1-.5-.4-.5-.8v-8.7c0-.7-.2-1.3-.5-1.9-.3-.6-.8-1.1-1.4-1.5-1.1-.7-2.6-.8-3.7-.1-.6.3-1.1.8-1.4 1.3-.4.6-.6 1.4-.5 2.1V76c0 .3-.2.5-.4.7-.3.4-.6.5-1 .5M158.4 109.6c.7 0 1.4-.2 2-.6.6-.4 1.1-.9 1.4-1.5.4-.6.5-1.3.6-1.9v-3.4c0-.7-.2-1.3-.5-1.9-.3-.6-.8-1.1-1.4-1.5-1.2-.8-2.8-.8-4 0-.6.4-1.1.9-1.4 1.5-.3.6-.5 1.2-.5 1.9v3.5c0 .7.2 1.4.5 1.9.3.6.8 1.1 1.4 1.5.5.4 1.2.6 1.9.5m0 2.6c-1.2 0-2.3-.3-3.4-.9-1-.6-1.9-1.4-2.5-2.4-.6-1-.9-2.1-.9-3.2v-3.4c0-1.1.3-2.2.9-3.2.6-1 1.4-1.8 2.4-2.4 2.1-1.2 4.7-1.2 6.7 0 1 .6 1.8 1.4 2.5 2.3.6 1 1 2.1.9 3.2v3.4c0 1.1-.3 2.2-.9 3.2-.6 1-1.5 1.8-2.5 2.4-.9.7-2.1 1-3.2 1M169.9 111.9c-.4 0-.7-.1-1-.3-.2-.2-.4-.4-.4-.7V92.6c0-1.1.3-2.2.8-3.2.5-.9 1.3-1.7 2.2-2.3.9-.6 1.9-.9 3-.8h1.2c.3 0 .6.1.9.4.2.2.3.6.3.9 0 .3-.1.6-.3.8-.2.3-.5.4-.9.4h-.7c-.7 0-1.3.2-1.9.5-.5.3-1 .8-1.3 1.3-.3.5-.5 1.2-.5 1.8V96h4.7c.3 0 .5.1.6.3.2.2.2.5.2.8 0 .3-.1.5-.2.7-.1.2-.4.3-.6.3h-4.7V111c0 .3-.2.6-.4.7-.3.2-.6.2-1 .2M189.7 103.9h7.6l-3.8-12.7-3.8 12.7zm-3.3 8c-.3 0-.5-.1-.8-.2-.3-.1-.5-.2-.7-.4-.2-.2-.3-.4-.3-.6v-.3l7-22.5c.1-.3.3-.6.6-.7.3-.2.7-.2 1.1-.2.4 0 .8.1 1.1.2.3.1.6.4.6.7l7 22.5c0 .1.1.1.1.2 0 .2-.1.5-.3.6-.2.2-.4.3-.7.4-.2.1-.5.2-.8.2-.2 0-.4 0-.6-.2-.2-.1-.3-.3-.4-.5l-1.5-5h-9l-1.5 5c-.1.2-.2.4-.4.5 0 .3-.3.3-.5.3M211.3 112.2c-1.2 0-2.4-.3-3.4-.9-1-.6-1.8-1.4-2.5-2.4-.6-.9-.9-2.1-.9-3.2v-8.8c0-.3.2-.5.4-.7.3-.2.6-.3 1-.3s.7.1 1 .3c.2.2.4.4.4.7v8.8c0 .7.2 1.3.5 1.9.3.6.8 1.1 1.4 1.5 1.2.8 2.8.8 4 0 .6-.4 1.1-.9 1.4-1.5.3-.6.5-1.2.5-1.9v-8.8c0-.3.2-.6.4-.7.3-.2.6-.3 1-.3s.7.1 1 .3c.2.2.4.4.4.7v8.8c0 1.1-.3 2.2-.9 3.2-.6 1-1.5 1.8-2.4 2.4-.9.6-2.1.9-3.3.9M226.6 112.2c-1 0-2-.1-2.9-.4-.7-.2-1.4-.6-2-1-.4-.3-.7-.7-.7-1.2 0-.2.1-.4.1-.6.1-.2.2-.4.4-.5.1-.1.3-.2.5-.2.3 0 .6.2.9.4.4.3.8.6 1.3.8.7.3 1.6.4 2.4.4.9.1 1.8-.1 2.5-.7.4-.4.7-.9.7-1.5s-.2-1.2-.6-1.6c-.5-.4-1-.7-1.6-.9-.6-.2-1.3-.4-2-.6-.7-.2-1.4-.4-2-.8-.6-.3-1.2-.7-1.6-1.3-.4-.7-.6-1.4-.6-2.2 0-.8.2-1.5.6-2.2.4-.8 1-1.4 1.8-1.8 1-.5 2.1-.8 3.3-.7.8 0 1.5.1 2.3.2.6.1 1.3.4 1.8.7.5.3.7.6.7.9 0 .2-.1.4-.1.5-.1.2-.2.4-.4.6-.2.2-.4.3-.6.3-.3 0-.5-.1-.8-.3-.4-.2-.8-.4-1.2-.5-.5-.2-1.1-.2-1.7-.2-.6 0-1.2.1-1.8.4-.4.2-.8.5-1 .9-.2.3-.3.7-.3 1.1 0 .5.2 1 .6 1.3.5.4 1 .6 1.6.8.6.2 1.3.4 2 .6.7.2 1.4.5 2 .8.6.3 1.2.8 1.6 1.4.4.7.7 1.6.6 2.4 0 1.3-.5 2.5-1.5 3.3-1.4 1.1-2.9 1.5-4.3 1.4M241.1 111.9c-1.5.1-3-.3-4.2-1.2-1.1-1-1.6-2.4-1.4-3.9V89.4c0-.3.2-.6.4-.7.3-.2.6-.3.9-.3.4 0 .7.1 1 .3.3.1.4.4.4.7v6.5h4.3c.3 0 .5.1.6.3.1.2.2.5.2.8 0 .3-.1.5-.2.8-.1.2-.4.3-.6.3h-4.3v8.7c-.1.7.2 1.4.6 2 .6.5 1.4.7 2.2.6h1c.3 0 .7.1.9.4.2.2.3.5.3.8 0 .3-.1.6-.3.9-.2.3-.6.4-.9.4h-.9zM247.4 111.9c-.4 0-.7-.1-1-.3-.2-.2-.4-.4-.4-.7v-14c0-.3.1-.6.4-.7.3-.2.6-.3 1-.3.3 0 .7.1.9.3.2.2.4.4.4.7v1.6c.3-.5.6-.9 1-1.3.5-.4 1-.8 1.5-1 .6-.3 1.3-.4 1.9-.4h1.2c.3 0 .6.1.8.4.2.3.3.6.3.9 0 .3-.1.6-.3.9-.2.2-.5.4-.8.4h-1.2c-.7 0-1.5.2-2.1.6-.7.4-1.2 1-1.6 1.7-.4.8-.7 1.7-.6 2.7v7.7c0 .3-.2.5-.4.7-.3.1-.7.2-1 .1M261.5 109.9c.7 0 1.3-.2 1.9-.5.6-.3 1.1-.8 1.6-1.3.4-.4.6-1 .6-1.6v-1.8h-1.2c-.9 0-1.8.1-2.7.2-.7.1-1.4.3-2.1.7-.5.4-.8 1.1-.8 1.8-.1.7.2 1.4.8 1.9.6.5 1.3.7 1.9.6m-.9 2.3c-1.2 0-2.3-.4-3.3-1.1-1-.9-1.5-2.1-1.4-3.4-.1-1.1.3-2.1 1-2.9.8-.7 1.8-1.2 2.8-1.4 1.4-.3 2.8-.4 4.2-.4h1.6v-.7c0-.7-.1-1.4-.4-2-.2-.6-.6-1.2-1.2-1.6-.6-.5-1.4-.7-2.2-.6-.6 0-1.3.1-1.9.2-.4.1-.8.3-1.1.5-.2.1-.5.2-.7.2-.3 0-.6-.2-.8-.5-.2-.3-.3-.6-.3-.9 0-.4.2-.7.8-1 .6-.3 1.2-.6 1.9-.7.7-.2 1.5-.3 2.2-.3 1.3-.1 2.7.3 3.8 1 .9.6 1.6 1.4 2.1 2.4.4 1 .6 2.1.6 3.2v8.7c0 .3-.2.5-.4.7-.3.2-.6.3-1 .3-.3 0-.7-.1-.9-.3-.2-.2-.4-.4-.4-.7v-1.4c-.6.7-1.3 1.3-2.1 1.8-.8.7-1.8.9-2.9.9M274 111.9c-.4 0-.7-.1-1-.3-.2-.2-.4-.4-.4-.7V87.2c0-.3.1-.6.4-.7.3-.2.6-.3 1-.3s.7.1 1 .3c.3.1.4.4.4.7v23.7c0 .3-.2.5-.4.7-.2.2-.6.3-1 .3M281.2 111.9c-.4 0-.7-.1-1-.3-.2-.2-.4-.4-.4-.7v-14c0-.3.1-.6.4-.7.3-.2.6-.3 1-.3s.7.1 1 .3c.3.1.4.4.4.7v14c0 .3-.2.5-.4.7-.2.2-.6.3-1 .3m0-20.4c-.5 0-.9-.2-1.3-.5-.3-.3-.5-.7-.5-1.1 0-.4.2-.8.5-1.1.3-.3.8-.5 1.3-.5s.9.2 1.2.5c.3.3.5.7.5 1.1 0 .4-.2.8-.5 1.1-.2.3-.7.5-1.2.5M291.1 109.9c.7 0 1.3-.2 1.9-.5.6-.3 1.1-.8 1.6-1.3.4-.4.6-1 .6-1.6v-1.8H294c-.9 0-1.8.1-2.7.2-.7.1-1.4.3-2.1.7-.5.4-.8 1.1-.8 1.8-.1.7.2 1.4.8 1.9.6.5 1.2.7 1.9.6m-.9 2.3c-1.2 0-2.3-.4-3.3-1.1-1-.9-1.5-2.1-1.4-3.4-.1-1.1.3-2.1 1-2.9.8-.7 1.8-1.2 2.8-1.4 1.4-.3 2.8-.4 4.1-.4h1.6v-.7c0-.7-.1-1.4-.4-2-.2-.6-.6-1.2-1.2-1.6-.6-.5-1.4-.7-2.2-.6-.6 0-1.3.1-1.9.2-.4.1-.8.3-1.1.5-.2.1-.5.2-.7.2-.3 0-.6-.2-.8-.5-.2-.3-.3-.6-.3-.9 0-.4.2-.7.8-1 .6-.3 1.2-.6 1.9-.7.7-.2 1.5-.3 2.2-.3 1.3 0 2.7.3 3.8 1 .9.6 1.6 1.4 2.1 2.4.4 1 .6 2.1.6 3.2v8.7c0 .3-.2.5-.4.7-.3.2-.6.3-1 .3-.3 0-.7-.1-.9-.3-.2-.2-.4-.4-.4-.7v-1.4c-.6.7-1.3 1.3-2.1 1.8-.7.7-1.7.9-2.8.9" class="st0"/></g></svg>