<svg id="Layer_2" data-name="Layer 2" xmlns="http://www.w3.org/2000/svg" viewBox="0 0 1080 624">
  <defs>
    <style>
      .cls-1 {
        fill: #d1d2d4;
      }

      .cls-2 {
        fill: #005cb9;
      }
    </style>
  </defs>
  <g>
    <path class="cls-1" d="M559.75,416.6q-7.53-8.53-18-21.25-10.8,6.25-16.16,12.51a22.09,22.09,0,0,0-5.35,14.83,23,23,0,0,0,2,9.32,27.62,27.62,0,0,0,5.73,8.27,25.73,25.73,0,0,0,8.74,5.83,27.74,27.74,0,0,0,10.49,2,33,33,0,0,0,10.49-1.7,38.33,38.33,0,0,0,9.64-4.82,77,77,0,0,0,9.43-7.78A235,235,0,0,1,559.75,416.6Z" transform="translate(0)"/>
    <path class="cls-1" d="M545.33,357.21q2.76,3.6,7.21,9.11,10.82-6.88,15.63-11.6A15.36,15.36,0,0,0,573,343.33a14.4,14.4,0,0,0-4.82-11,18.75,18.75,0,0,0-24.37.1,14.14,14.14,0,0,0-4.93,10.71,15.16,15.16,0,0,0,1.86,6.83A46.68,46.68,0,0,0,545.33,357.21Z" transform="translate(0)"/>
    <path class="cls-1" d="M540,0C241.77,0,0,139.69,0,312S241.77,624,540,624s540-139.69,540-312S838.23,0,540,0ZM279.58,435.07q0,18.62-8.49,27.82t-22.2,9.2a27.93,27.93,0,0,1-21.58-9.3q-8.49-9.32-8.49-27.72V198.79q0-18.4,8.39-27.62t21.68-9.2q13.71,0,22.2,9.1t8.49,27.72Zm181.3,0q0,18.82-8.38,27.92t-21.69,9.1q-13.5,0-22-9.2t-8.49-27.82V217.2H334.05q-15.56,0-23.12-6.85t-7.57-18.11q0-11.66,7.88-18.41t22.81-6.75H527.16q15.75,0,23.43,7t7.67,18.2q0,11.25-7.78,18.11t-23.32,6.85H460.88Zm172.56,30.8a12.62,12.62,0,0,1-8.85,3.76,16.89,16.89,0,0,1-9.64-3.18q-4.66-3.18-19.82-15.58a73.5,73.5,0,0,1-14.25,10.6,61.63,61.63,0,0,1-15.78,6.15,81.22,81.22,0,0,1-18.81,2,68.7,68.7,0,0,1-23.79-3.87A50.57,50.57,0,0,1,505,455.32a42.72,42.72,0,0,1-10.39-14.57,41.3,41.3,0,0,1-3.39-16.26,39.43,39.43,0,0,1,9.7-26.54,64,64,0,0,1,11.33-10.17,123.6,123.6,0,0,1,15.63-9.38,114.31,114.31,0,0,1-12-17.75,34.17,34.17,0,0,1-4.08-16,32.82,32.82,0,0,1,5.14-18A35.29,35.29,0,0,1,532,313.77q10-4.77,23.42-4.77t23.1,5q9.75,5,14.57,13a32.19,32.19,0,0,1,4.82,16.74,30,30,0,0,1-7.84,20.66q-7.84,8.8-23.1,17.91,5.29,6.26,9.85,11.76t8.8,10.28q4.23,4.77,7.73,8.16,1.59-3,4.93-11.13t6.25-11.76a10,10,0,0,1,8.21-3.6,12.54,12.54,0,0,1,8.8,3.55,11.36,11.36,0,0,1,3.81,8.63q0,4.67-3.28,13.2a123.27,123.27,0,0,1-9.54,18.91q3.91,3.39,12.45,10.28T635.45,450a10.4,10.4,0,0,1,2,6.63A12.26,12.26,0,0,1,633.44,465.87Zm251-5.54Q877.21,467,862.89,467H697.8q-19.84,0-28.54-8.8t-8.69-28.43V204.31q0-13.08,3.89-21.37a24,24,0,0,1,12.17-12.07q8.28-3.8,21.17-3.79H858.18q14.54,0,21.58,6.44t7.06,16.88q0,10.64-7.06,17.08t-21.58,6.45H721.33v73.64h126q13.9,0,20.76,6.24T875,310.28q0,10.23-6.75,16.67t-20.87,6.45h-126v85.3H862.89q14.31,0,21.58,6.65T891.73,443Q891.73,453.69,884.47,460.33Z" transform="translate(0)"/>
  </g>
  <g>
    <path class="cls-2" d="M540,37C295.34,37,97,160.12,97,312S295.34,587,540,587,983,463.88,983,312,784.66,37,540,37ZM279.58,435.07q0,18.62-8.49,27.82t-22.2,9.2a27.93,27.93,0,0,1-21.58-9.3q-8.49-9.32-8.49-27.72V198.79q0-18.4,8.39-27.62t21.68-9.2q13.71,0,22.2,9.1t8.49,27.72Zm181.3,0q0,18.82-8.38,27.92t-21.69,9.1q-13.5,0-22-9.2t-8.49-27.82V217.2H334.05q-15.56,0-23.12-6.85t-7.57-18.11q0-11.66,7.88-18.41t22.81-6.75H527.16q15.75,0,23.43,7t7.67,18.2q0,11.25-7.78,18.11t-23.32,6.85H460.88Zm172.56,30.8a12.62,12.62,0,0,1-8.85,3.76,16.89,16.89,0,0,1-9.64-3.18q-4.66-3.18-19.82-15.58a73.5,73.5,0,0,1-14.25,10.6,61.63,61.63,0,0,1-15.78,6.15,81.22,81.22,0,0,1-18.81,2,68.7,68.7,0,0,1-23.79-3.87A50.57,50.57,0,0,1,505,455.32a42.72,42.72,0,0,1-10.39-14.57,41.3,41.3,0,0,1-3.39-16.26,39.43,39.43,0,0,1,9.7-26.54,64,64,0,0,1,11.33-10.17,123.6,123.6,0,0,1,15.63-9.38,114.31,114.31,0,0,1-12-17.75,34.17,34.17,0,0,1-4.08-16,32.82,32.82,0,0,1,5.14-18A35.29,35.29,0,0,1,532,313.77q10-4.77,23.42-4.77t23.1,5q9.75,5,14.57,13a32.19,32.19,0,0,1,4.82,16.74,30,30,0,0,1-7.84,20.66q-7.84,8.8-23.1,17.91,5.29,6.26,9.85,11.76t8.8,10.28q4.23,4.77,7.73,8.16,1.59-3,4.93-11.13t6.25-11.76a10,10,0,0,1,8.21-3.6,12.54,12.54,0,0,1,8.8,3.55,11.36,11.36,0,0,1,3.81,8.63q0,4.67-3.28,13.2a123.27,123.27,0,0,1-9.54,18.91q3.91,3.39,12.45,10.28T635.45,450a10.4,10.4,0,0,1,2,6.63A12.26,12.26,0,0,1,633.44,465.87Zm251-5.54Q877.21,467,862.89,467H697.8q-19.84,0-28.54-8.8t-8.69-28.43V204.31q0-13.08,3.89-21.37a24,24,0,0,1,12.17-12.07q8.28-3.8,21.17-3.79H858.18q14.54,0,21.58,6.44t7.06,16.88q0,10.64-7.06,17.08t-21.58,6.45H721.33v73.64h126q13.9,0,20.76,6.24T875,310.28q0,10.23-6.75,16.67t-20.87,6.45h-126v85.3H862.89q14.31,0,21.58,6.65T891.73,443Q891.73,453.69,884.47,460.33Z" transform="translate(0)"/>
    <path class="cls-2" d="M545.33,357.21q2.76,3.6,7.21,9.11,10.82-6.88,15.63-11.6A15.36,15.36,0,0,0,573,343.33a14.4,14.4,0,0,0-4.82-11,18.75,18.75,0,0,0-24.37.1,14.14,14.14,0,0,0-4.93,10.71,15.16,15.16,0,0,0,1.86,6.83A46.68,46.68,0,0,0,545.33,357.21Z" transform="translate(0)"/>
    <path class="cls-2" d="M559.75,416.6q-7.53-8.53-18-21.25-10.8,6.25-16.16,12.51a22.09,22.09,0,0,0-5.35,14.83,23,23,0,0,0,2,9.32,27.62,27.62,0,0,0,5.73,8.27,25.73,25.73,0,0,0,8.74,5.83,27.74,27.74,0,0,0,10.49,2,33,33,0,0,0,10.49-1.7,38.33,38.33,0,0,0,9.64-4.82,77,77,0,0,0,9.43-7.78A235,235,0,0,1,559.75,416.6Z" transform="translate(0)"/>
  </g>
</svg>
