<svg viewBox="0 0 94.4 53.5" class="jpnap-logo" xmlns:xlink="http://www.w3.org/1999/xlink" xmlns="http://www.w3.org/2000/svg"><defs><style>.color1{fill:#e50000}.color2{fill:#000}</style></defs><g class="color1"><path d="M31.2,3.8c.4-2-1.5-3.4-2.9-3.7H26.6A26.6,26.6,0,0,0,9.1,46.6a1.7,1.7,0,0,1-.1-.7,2.9,2.9,0,0,1,3.2-3.2,2.7,2.7,0,0,1,2.9,2.4h0c.1,1.5.3,2.6,1.1,2.5,2.6,0,3-4.5,5.6-13.1S31.2,3.9,31.2,3.8Z"></path></g><g class="color2"><path d="M44.7,42.5a22.2,22.2,0,0,1-5.1.6.7.7,0,0,1-.1-1h0a8.4,8.4,0,0,0,7.4-8.5c0-3.2-1.8-4.8-4.8-4.8-1.1,0-1.2.2-1.6,1.4L34.7,48.7a14.5,14.5,0,0,1-.6,1.9c0,.3-.1.6-.1.9s0,.7.6.5h.1A26.7,26.7,0,0,0,49.9,39.4,10.3,10.3,0,0,1,44.7,42.5Z"></path><path d="M27.8,53c.9-.4,1.3-1.3,2.2-4.3l5.2-16.3c.8-2.6.7-3.2-.7-3.4l-1.8-.3c-.3-.2-.1-.9.3-1a60,60,0,0,1,7.4-.5c3.8,0,6.6.6,8.5,1.9a6.4,6.4,0,0,1,2.8,5.6v.9a26.5,26.5,0,0,0-10.2-31,3.1,3.1,0,0,0-3.9,1.6c0,.2-5.8,18.1-5.8,18.1C29.4,32,26,49.9,14.5,50.3a27,27,0,0,0,12.1,2.9A2.5,2.5,0,0,0,27.8,53Z"></path></g><g class="color2"><path d="M52.3,40.8c.5-1.5.7-2.3.5-2.7s-.4-.5-.7-.5l-.9-.2c-.2-.1-.1-.5.2-.6h4.7a14.5,14.5,0,0,0,1.6,4.7l1.8,4.4,1.4,3.2a5.6,5.6,0,0,0,.4-1.2l1.6-5c.5-1.7.9-3.5,1-4s-.1-1.2-1.1-1.3h-.7a.5.5,0,0,1,.1-.7H68a.9.9,0,0,1,0,.7h-.7a1.8,1.8,0,0,0-1.7,1.1,35.2,35.2,0,0,0-1.5,4.2l-1.8,5.9c-.7,2.2-1,3.4-1.4,4.5a2.2,2.2,0,0,1-1.2.2,37.2,37.2,0,0,0-1.8-4.6l-2.3-5.5c-.6-1.3-1.3-3.1-1.6-3.9a17.2,17.2,0,0,0-.7,2.1l-1.7,5.6c-.5,1.7-1,3.5-1.1,4s.1,1.2,1.2,1.3h.6a.4.4,0,0,1-.1.7H46.5a.5.5,0,0,1,0-.7h.6a2,2,0,0,0,1.8-1.1c.5-1.3,1-2.7,1.4-4.1Z"></path><path d="M70.3,46c-.7,0-.7-.1-.5-.4l2.7-4.1a12.7,12.7,0,0,0,1.2-1.8h.1c-.1.6,0,1-.1,1.5l-.2,4.2c0,.5-.1.6-.6.6Zm2.5,1.1c.6,0,.7.1.7.6V51c-.1,1.2-.2,1.3-1.2,1.5h-.7a.5.5,0,0,0-.1.6h6.5c.2-.1.2-.5.1-.7h-.6c-1.3-.1-1.4-.4-1.3-2.6s.1-6.4.2-9.6.1-3.2.1-3.6-.2-.3-.4-.3a6.2,6.2,0,0,1-2.2,1A10.1,10.1,0,0,1,72.2,40l-4,5.8c-.9,1.3-3.2,4.6-3.6,5s-1.3,1.6-2.3,1.7h-.6a.5.5,0,0,0,0,.7h5.5c.2-.1.2-.4.1-.7h-.8c-.5-.1-.7-.2-.7-.4a7.1,7.1,0,0,1,.8-1.5l1.7-2.8c.5-.7.5-.7,1.2-.7Z"></path><path d="M85.6,52.6c.1.3.1.6-.1.7H78.6a.4.4,0,0,1-.1-.6.1.1,0,0,1,.1-.1h.7c1.2-.1,1.4-.4,2.1-2.8l3.1-9.8c.5-1.6.5-1.9-.4-2.1h-1a.5.5,0,0,1,.1-.7l4.4-.2a8.2,8.2,0,0,1,5.1,1.1,3.5,3.5,0,0,1,1.7,3.3,4.9,4.9,0,0,1-4.2,4.7,10.3,10.3,0,0,1-3,.4.4.4,0,0,1-.1-.6h0a5.1,5.1,0,0,0,4.5-5.1,2.7,2.7,0,0,0-2.4-2.9h-.5c-.7,0-.7.2-1,.9L84.2,49.7c-.6,2.1-.7,2.7.6,2.8Z"></path></g></svg>