<?xml version="1.0" encoding="utf-8"?>
<!-- Generator: Adobe Illustrator 27.5.0, SVG Export Plug-In . SVG Version: 6.00 Build 0)  -->
<svg version="1.1"
	 id="svg4238" xmlns:sodipodi="http://sodipodi.sourceforge.net/DTD/sodipodi-0.dtd" xmlns:cc="http://creativecommons.org/ns#" xmlns:inkscape="http://www.inkscape.org/namespaces/inkscape" xmlns:svg="http://www.w3.org/2000/svg" xmlns:rdf="http://www.w3.org/1999/02/22-rdf-syntax-ns#" xmlns:dc="http://purl.org/dc/elements/1.1/" sodipodi:docname="KDDI.svg"
	 xmlns="http://www.w3.org/2000/svg" xmlns:xlink="http://www.w3.org/1999/xlink" x="0px" y="0px" viewBox="0 0 1039.4 326"
	 style="enable-background:new 0 0 1039.4 326;" xml:space="preserve">
<style type="text/css">
	.st0{fill-rule:evenodd;clip-rule:evenodd;fill:#2B449E;}
	.st1{fill:none;}
	.st2{fill:url(#SVGID_1_);}
	.st3{fill:url(#SVGID_00000110453972146961794580000010157602871694102664_);}
</style>
<path id="path4252" inkscape:connector-curvature="0" class="st0" d="M937.8,0l-16.2,102.8c0,0-2.2,2.4-2.8-0.4
	C904.4,31.3,839.5,1.6,754.2,1.6H635.1l-14.8,94.1c-1.8,0.6-4.7,0.4-4.7,0.4C598.7,29.5,535.1,1.6,452.4,1.6H224.9l-92.5,124.7
	L152.3,1.6H51L0,326h101.4l18.8-136l56.4,136h135.8l0,0h118.2c74.9,0,138.9-38.5,169.7-102.6L584.1,326h148.2
	c75.5,0,139.9-39.1,170.4-104.1l-16.2,102.3h101.7L1039.4,0L937.8,0L937.8,0z M285.7,304.9l-68.5-138.4L330,22.7L285.7,304.9z
	 M515.2,166.6c-7.9,50.4-46.7,71.7-92.8,71.7h-26.3l23.3-148.5h26.3C496.3,89.8,523.6,112.7,515.2,166.6z M822.3,166.6
	c-7.9,50.4-46.7,71.7-92.8,71.7h-26.3l23.1-147.9h26.3C803.2,90.4,830.7,112.7,822.3,166.6L822.3,166.6"/>
<g>
	<path class="st1" d="M822.3,166.6L822.3,166.6c8.5-53.9-19.1-76.2-69.7-76.2h-26.3l-23.1,147.9h26.3
		C775.6,238.3,814.4,217,822.3,166.6z"/>
	<path class="st1" d="M422.4,238.3c46.1,0,84.9-21.4,92.8-71.7c3.9-24.8,0.2-43-9.8-55.5c-11.8-14.6-32.3-21.3-59.6-21.3h-26.3
		l-6.6,42.2l-16.7,106.4H422.4z"/>
	<polygon class="st1" points="307.7,164.8 330,22.7 217.2,166.5 231.4,195.2 285.7,304.9 	"/>
	<path class="st1" d="M111.1,255.7l9.1-65.7l20.4,49.3c29.6-15.9,59.9-30.6,90.8-44.2l-14.2-28.7L330,22.7l-22.3,142.1
		c34.3-12.4,69.4-23.4,105-32.8l6.6-42.2h26.3c27.3,0,47.9,6.7,59.6,21.3c36.2-6.7,72.9-11.9,110.1-15.5
		C598.4,29.4,535,1.6,452.4,1.6H224.9l-92.5,124.7L152.3,1.6H51L0,326h1.6C36.8,300.8,73.3,277.3,111.1,255.7z"/>
	<path class="st1" d="M918.9,102.7c0-0.1-0.1-0.2-0.1-0.3C904.4,31.3,839.5,1.6,754.2,1.6H635.1l-14.7,93.6
		c38.6-3.6,77.8-5.4,117.3-5.4C799.2,89.8,859.7,94.2,918.9,102.7z"/>
	<path class="st1" d="M1039.4,0H937.8l0,0l-16.2,102.8c0,0-0.1,0.1-0.3,0.3c33.4,4.9,66.4,11,99,18.4L1039.4,0z"/>
	
		<radialGradient id="SVGID_1_" cx="737.686" cy="1354.3348" r="1264.5341" fx="1608.757" fy="709.4069" gradientUnits="userSpaceOnUse">
		<stop  offset="0.9136" style="stop-color:#7ECDE9;stop-opacity:0"/>
		<stop  offset="0.9789" style="stop-color:#7ECDE9;stop-opacity:0.5"/>
		<stop  offset="1" style="stop-color:#FFFFFF"/>
	</radialGradient>
	<path class="st2" d="M515.2,166.6c-7.9,50.4-46.7,71.7-92.8,71.7h-26.3l16.7-106.4c-35.7,9.5-70.7,20.4-105,32.8l-22,140.1
		l-54.3-109.7c-30.9,13.5-61.2,28.3-90.8,44.2l35.9,86.7h135.8l0,0h118.2c74.9,0,138.9-38.5,169.7-102.6L584.1,326h148.2
		c75.5,0,139.9-39.1,170.4-104.1l-16.2,102.3h101.7l32-202.7c-32.5-7.4-65.5-13.6-99-18.4c-0.6,0.5-1.9,1.4-2.4-0.4
		c-59.2-8.5-119.7-12.9-181.2-12.9c-39.6,0-78.7,1.8-117.3,5.4l-0.1,0.5c-1.8,0.6-4.7,0.4-4.7,0.4c0-0.1-0.1-0.3-0.1-0.4
		c-37.2,3.6-73.9,8.7-110.1,15.5C515.4,123.6,519.1,141.8,515.2,166.6z M726.2,90.4h26.3c50.7,0,78.2,22.2,69.7,76.2h0
		c-7.9,50.4-46.7,71.7-92.8,71.7h-26.3L726.2,90.4z"/>
	
		<radialGradient id="SVGID_00000127744288203207108320000004618894543529998464_" cx="737.686" cy="1354.3348" r="1264.5341" fx="1608.757" fy="709.4069" gradientUnits="userSpaceOnUse">
		<stop  offset="0.9136" style="stop-color:#7ECDE9;stop-opacity:0"/>
		<stop  offset="0.9789" style="stop-color:#7ECDE9;stop-opacity:0.5"/>
		<stop  offset="1" style="stop-color:#FFFFFF"/>
	</radialGradient>
	<path style="fill:url(#SVGID_00000127744288203207108320000004618894543529998464_);" d="M101.4,326l9.7-70.3
		C73.3,277.3,36.8,300.8,1.6,326H101.4z"/>
</g>
</svg>
