<?xml version="1.0" encoding="utf-8"?>
<!-- Generator: Adobe Illustrator 27.6.1, SVG Export Plug-In . SVG Version: 6.00 Build 0)  -->
<svg version="1.1" id="Layer_1" xmlns="http://www.w3.org/2000/svg" xmlns:xlink="http://www.w3.org/1999/xlink" x="0px" y="0px"
	 viewBox="0 0 1343.39 235.34" style="enable-background:new 0 0 1343.39 235.34;" xml:space="preserve">
<style type="text/css">
	.st0{clip-path:url(#SVGID_00000121255020254424277000000000650953387377855156_);}
	.st1{fill:#2ED88B;}
</style>
<g>
	<defs>
		<rect id="SVGID_1_" x="0" width="1343.38" height="235.34"/>
	</defs>
	<clipPath id="SVGID_00000081634491570650638830000012209183641988984511_">
		<use xlink:href="#SVGID_1_"  style="overflow:visible;"/>
	</clipPath>
	<g style="clip-path:url(#SVGID_00000081634491570650638830000012209183641988984511_);">
		<path class="st1" d="M410.78,54.28h37.17v20.31c0.6-0.12,0.94-0.1,1.01-0.22C457.3,58.5,471,52.18,488.15,52.65
			c24.72,0.68,43.14,16.3,49.12,41.86c4.61,19.68,3.74,39.03-5.82,57.31c-13.98,26.75-43.02,31.17-62.41,23.53
			c-8.71-3.44-13.07-7.51-20.8-19.36v79.2h-37.47L410.78,54.28L410.78,54.28z M501.63,115.56c-0.09-1.28-0.17-3.81-0.45-6.32
			c-1.49-13.41-10.66-22.36-24.06-23.56c-12.71-1.14-23.97,6.33-27.6,18.48c-1.9,6.34-2.02,12.82-0.86,19.33
			c2.2,12.34,12.12,21.37,24.2,21.99c13.58,0.69,23.78-6.27,27.33-18.66C501.12,123.55,501.42,120.19,501.63,115.56L501.63,115.56z"
			/>
		<path class="st1" d="M708.21,75.23V54.33h37.02v122.58h-37.16v-20.19c-3.54,5.53-7.47,10.4-12.7,14.13
			c-19.85,14.19-50.6,8.81-65.98-11.57c-7.52-9.97-11.41-21.37-12.53-33.7c-1.49-16.34-0.01-32.21,8.1-46.93
			c14.33-26.01,42.44-30.25,61.79-22.95C695.24,58.91,699.37,62.71,708.21,75.23L708.21,75.23z M708.06,115.97
			c0.05-3.39-0.18-6.5-0.86-9.58c-2.75-12.39-12.8-20.56-25.56-20.78c-12.88-0.22-22.73,7.23-25.94,19.63
			c-1.29,4.97-1.37,10.03-0.96,15.09c1.14,14.25,10.41,24.01,23.72,25.14c13.73,1.17,24.88-6.55,28.47-19.72
			C707.82,122.47,708.14,119.12,708.06,115.97L708.06,115.97z"/>
		<path class="st1" d="M821.67,235.31h-40.66c-0.61-1.22,0.34-2.06,0.74-2.93c8.54-18.94,17.1-37.88,25.79-56.75
			c1.05-2.29,1.07-4.09,0.07-6.39c-16.12-37-32.15-74.04-48.18-111.07c-0.51-1.18-1.39-2.27-1.15-3.88h41.38
			c9.65,24.73,19.27,49.4,29.27,75.04c9.34-25.65,18.34-50.38,27.33-75.09h41.47C872.33,114.74,847.04,174.92,821.67,235.31
			L821.67,235.31z"/>
		<path class="st1" d="M1342.26,122.43h-84.56c0.46,15.09,6.62,23.42,18.72,25.61c11.78,2.14,20.8-2.92,25.54-14.47h39.29
			c-0.23,4.4-1.74,8.41-3.6,12.24c-9.4,19.44-25.41,29.49-46.27,32.29c-11.59,1.55-23.06,0.51-33.94-3.92
			c-21.92-8.91-33.11-26.02-35.95-49.09c-1.48-12-0.65-23.91,3.7-35.25c8.75-22.8,26.08-34.38,49.73-36.84
			c13.32-1.39,26.41,0.07,38.46,6.47c19.32,10.26,28.83,26.82,29.78,48.49C1343.38,112.7,1343.82,117.55,1342.26,122.43
			L1342.26,122.43z M1305.47,106.4c0.44-14.82-8.68-24.08-23.24-23.96c-14.25,0.12-24.51,10.32-23.97,23.96H1305.47z"/>
		<path class="st1" d="M178.34,122.53H93.56c-0.28,13.21,5.89,22.61,16.36,25.13c12.73,3.08,21.52-1.38,27.86-14.14
			c13.05,0,26.09,0,39.36,0c-1.72,9.66-5.81,17.94-12.08,25.16c-22.62,26.02-68.66,26.98-92.28,1.89
			c-9.23-9.8-14.16-21.66-15.56-34.96c-1.7-16.15-0.25-31.88,8.57-45.99c12.29-19.65,30.99-27.03,53.24-26.99
			c14.93,0.02,28.83,3.71,40.33,13.67C176.45,81.1,181.01,100.35,178.34,122.53L178.34,122.53z M93.7,106.34h47.23
			c1.01-13.64-7.65-23.34-21.14-23.87C104.46,81.87,93.85,91.53,93.7,106.34L93.7,106.34z"/>
		<path class="st1" d="M1118.42,54.37c8.83,28.21,17.66,56.39,26.49,84.58l0.73,0.08c8.69-28.21,17.38-56.41,26.1-84.68h39.95
			c-14.49,41.04-28.87,81.78-43.29,122.63h-46.63c-14.35-40.64-28.76-81.46-43.29-122.61H1118.42L1118.42,54.37z"/>
		<path class="st1" d="M284.39,136.25h35.9c4.46,12.71,12.05,17.49,25.17,15.9c5.11-0.62,8.85-3.9,9.56-8.38
			c0.86-5.45-1.18-9.25-6.48-11.49c-8.88-3.75-18.4-5.23-27.66-7.66c-4.39-1.16-8.83-2.29-13.06-3.93
			c-11.69-4.55-20.16-12.18-21.76-25.41c-1.63-13.54,2.19-25.08,13.44-33.43c9.81-7.28,21.22-9.1,33.03-9.22
			c14.92-0.15,28.86,2.86,40.23,13.46c8.29,7.72,13.12,17.34,15.3,28.72h-35c-1.82-6.84-5.65-12.19-12.82-14.53
			c-4.2-1.37-8.45-1.68-12.76-0.59c-4.5,1.14-7.2,4.12-7.68,8.46c-0.48,4.33,1.21,7.57,5.4,9.68c7.58,3.81,15.93,5.1,24.03,7.2
			c6.38,1.65,12.79,3.23,18.86,5.82c12.07,5.13,20.32,13.43,21.55,27.29c1.33,15-4.43,26.25-17.48,33.69
			c-7.56,4.31-15.81,6.11-24.4,6.65c-10.75,0.67-21.33-0.2-31.56-3.79C298.12,168.36,287.79,155.47,284.39,136.25L284.39,136.25z"/>
		<path class="st1" d="M243.33,54.13h24.39v31.69h-23.73c-0.96,1.17-0.66,2.18-0.66,3.11c-0.02,13.87-0.03,27.74,0,41.61
			c0,2.16-0.03,4.32,0.46,6.47c0.95,4.11,3.46,6.41,7.55,7.2c5.36,1.03,10.77,0.19,16.4,0.64v32.29
			c-12.09-0.16-24.24,1.08-36.01-2.75c-14.75-4.79-22.72-15.26-25.06-30.44c-1.22-7.92-0.86-15.88-0.9-23.83
			c-0.06-11.2-0.01-22.4-0.01-34.07h-16.29V54.24h16.05V24.19h37.8V54.13z"/>
		<path class="st1" d="M559.52,176.96V14.19h37.14v162.77H559.52z"/>
		<path class="st1" d="M36.99,176.96H0V14.19h36.98V176.96z"/>
		<path class="st1" d="M999.37,176.96h-37.12V14.08h37.12V176.96z"/>
		<path class="st1" d="M1025.56,176.88V54.35h37.2v122.53H1025.56z"/>
		<path class="st1" d="M942.41,177.02h-38.42v-37.42h38.42V177.02z"/>
		<path class="st1" d="M1044.2,0.02c2.88-0.05,5.74-0.06,8.54,0.83c8.29,2.63,13.73,9.75,13.82,18.21
			c0.1,8.66-4.88,15.79-13.19,18.62c-5.96,2.03-12,2.07-18,0.1c-9.5-3.12-14.89-11.89-13.35-21.61c1.43-9.03,9.49-15.91,18.94-16.16
			C1042.03-0.01,1043.12,0.02,1044.2,0.02L1044.2,0.02z"/>
	</g>
</g>
</svg>
