<?xml version="1.0" encoding="UTF-8" standalone="no"?>
<!-- Created with Inkscape (http://www.inkscape.org/) -->

<svg
   xmlns:dc="http://purl.org/dc/elements/1.1/"
   xmlns:cc="http://creativecommons.org/ns#"
   xmlns:rdf="http://www.w3.org/1999/02/22-rdf-syntax-ns#"
   xmlns:svg="http://www.w3.org/2000/svg"
   xmlns="http://www.w3.org/2000/svg"
   xmlns:sodipodi="http://sodipodi.sourceforge.net/DTD/sodipodi-0.dtd"
   xmlns:inkscape="http://www.inkscape.org/namespaces/inkscape"
   version="1.1"
   id="svg2"
   width="326.73953"
   height="326.01077"
   viewBox="0 0 326.73953 326.01078"
   sodipodi:docname="M1 Singapore 2020.svg"
   inkscape:version="0.92.4 (5da689c313, 2019-01-14)">
  <metadata
     id="metadata8">
    <rdf:RDF>
      <cc:Work
         rdf:about="">
        <dc:format>image/svg+xml</dc:format>
        <dc:type
           rdf:resource="http://purl.org/dc/dcmitype/StillImage" />
        <dc:title></dc:title>
      </cc:Work>
    </rdf:RDF>
  </metadata>
  <defs
     id="defs6" />
  <sodipodi:namedview
     pagecolor="#ffffff"
     bordercolor="#666666"
     borderopacity="1"
     objecttolerance="10"
     gridtolerance="10"
     guidetolerance="10"
     inkscape:pageopacity="0"
     inkscape:pageshadow="2"
     inkscape:window-width="1366"
     inkscape:window-height="716"
     id="namedview4"
     showgrid="false"
     inkscape:zoom="0.55"
     inkscape:cx="-22.539349"
     inkscape:cy="262.09704"
     inkscape:window-x="-8"
     inkscape:window-y="22"
     inkscape:window-maximized="1"
     inkscape:current-layer="g12" />
  <g
     id="g12"
     transform="translate(-911.63026,-309.09203)">
    <path
       style="fill:#fbd09f"
       d="m 1051.8019,633.98029 c -47.3155,-7.2423 -87.5133,-32.923 -113.61505,-72.58385 -28.92232,-43.94664 -34.61543,-100.15619 -15.13603,-149.44189 8.45794,-21.39983 19.23984,-37.5345 36.76452,-55.0166 25.70503,-25.64258 51.70596,-39.20149 88.54826,-46.17602 11.8747,-2.24796 41.2962,-2.22113 53.6863,0.049 64.8222,11.87649 114.597,57.84427 131.2881,121.24644 9.6981,36.83881 5.2448,77.98798 -12.2132,112.85188 -22.7502,45.43247 -64.4825,77.35934 -114.6099,87.68131 -12.7621,2.62791 -41.8044,3.36561 -54.713,1.38977 z m -40.206,-65.77574 c 0.1277,-0.1375 0.4652,-30.36787 0.75,-67.1786 l 0.5177,-66.9286 29.8982,44.71256 c 16.4439,24.5919 30.2916,44.58139 30.7725,44.42108 0.4809,-0.16031 12.0766,-16.93809 25.7681,-37.28396 l 24.8937,-36.99248 -17.6662,-0.28155 c -20.3531,-0.32437 -17.2767,-1.81223 -26.4922,12.81265 -4.87,7.72879 -6.0386,9.0179 -7.1226,7.85729 -1.0796,-1.15601 -17.0488,-25.8679 -52.4412,-81.15176 l -5.6103,-8.76337 -17.49996,0.26337 -17.5,0.26337 -0.2551,94.25 -0.2551,94.25 h 16.0051 c 8.80276,0 16.10966,-0.1125 16.23736,-0.25 z m 169.7677,-13.20228 v -13.45229 l -6.25,-0.29771 -6.25,-0.29772 -0.2559,-80.75 -0.2559,-80.75 h -19.9861 -19.9861 l -4.4129,6.75 c -8.1721,12.50036 -21.6031,34.4938 -21.6031,35.37554 0,0.48095 7.425,0.87446 16.5,0.87446 h 16.5 v 58.89301 c 0,66.19648 0.8188,60.10699 -8.0818,60.10699 h -4.9182 v 12.83333 c 0,7.05834 0.3,13.13334 0.6667,13.5 0.3667,0.36667 13.6417,0.66667 29.5,0.66667 h 28.8333 z"
       id="path26"
       inkscape:connector-curvature="0"
       sodipodi:nodetypes="csssscsssccscccsccsccccccccsscccccccccsscsscscscc" />
    <path
       style="fill:#eaa15c"
       d="M 1051.9957,633.40939 C 997.97658,625.01018 953.65227,592.87951 929.334,544.49201 903.9974,494.0783 907.39756,431.6074 938.06618,384.05605 c 9.54706,-14.8026 25.63227,-31.97354 40.18095,-42.89309 14.89463,-11.17921 36.94087,-21.73666 55.03197,-26.35358 68.3122,-17.4335 137.7862,8.90756 177.0813,67.14034 10.9304,16.19821 19.9275,37.85171 24.2406,58.34083 1.9276,9.15667 2.2442,13.70298 2.2398,32.164 0,18.79881 -0.2958,22.80648 -2.3192,31.89887 -6.6258,29.77302 -18.4503,53.46858 -37.6288,75.40539 -23.5569,26.9449 -54.2368,44.49297 -91.5292,52.3522 -8.8086,1.8564 -44.2358,2.7183 -53.3679,1.29838 z m -39.3891,-131.08498 0.257,-67.13015 29.7965,44.698 c 16.388,24.58389 30.2884,44.53399 30.8898,44.33355 0.9855,-0.32851 51.8137,-75.17787 51.8137,-76.30064 0,-0.25884 -8.3321,-0.47062 -18.5157,-0.47062 h -18.5158 l -6.5904,10.25 c -3.6247,5.6375 -6.9343,10.61925 -7.3548,11.07056 -0.4204,0.45131 -13.7154,-19.34869 -29.5444,-44 -15.829,-24.65131 -29.2748,-45.15117 -29.8795,-45.55525 -0.6046,-0.40408 -8.8137,-0.74158 -18.24237,-0.75 -14.71894,-0.0131 -17.22884,0.20836 -17.75,1.56648 -0.79328,2.06725 -0.79328,185.76917 0,187.83642 0.51932,1.35334 2.97359,1.58179 16.99296,1.58179 h 16.38601 z m 169.257,52.63014 v -14 l -6.5,-0.5 -6.5,-0.5 -0.2559,-80.75 -0.2559,-80.75 h -19.8391 c -17.6447,0 -20.0084,0.19356 -21.3694,1.75 -3.5348,4.04219 -25.8477,41.33087 -25.2807,42.24831 0.3715,0.60114 6.9935,1.00169 16.5601,1.00169 h 15.9409 v 58.5 58.5 h -6 -6 v 14.51488 14.51488 l 29.75,-0.26488 29.75,-0.26488 z"
       id="path24"
       inkscape:connector-curvature="0"
       sodipodi:nodetypes="sssssccccscsccccsscccsccscsccccccccsccscccccccccc" />
    <path
       style="fill:#fd9c1a"
       d="m 1058.8636,633.44663 c -40.1353,-3.61472 -80.69098,-24.84629 -107.13435,-56.08652 -37.18292,-43.92798 -48.47495,-103.22572 -30.06986,-157.90556 16.51387,-49.06117 57.96409,-88.59217 107.82081,-102.82848 13.6643,-3.90178 20.9961,-5.1601 34.8834,-5.98687 48.4478,-2.88433 91.4923,13.38857 125.4736,47.43511 27.3255,27.37789 43.6097,62.98942 46.5924,101.89184 1.9863,25.90677 -2.2746,51.9233 -12.3515,75.41612 -8.916,20.78653 -19.2561,35.91241 -35.5968,52.07268 -34.4305,34.0502 -80.5417,50.41164 -129.6177,45.99168 z m -45.5,-129.99208 0.5,-65.5 29.3002,43.81662 c 16.1151,24.09914 29.7919,43.6527 30.3929,43.45236 1.2979,-0.43263 51.8069,-75.2533 51.8069,-76.74328 0,-0.66479 -6.6573,-1.0257 -18.9204,-1.0257 h -18.9204 l -6.3296,9.9902 c -3.4812,5.49462 -6.7796,9.98428 -7.3296,9.97704 -0.55,-0.007 -8.4099,-11.59034 -17.4665,-25.74021 -9.0566,-14.14987 -20.0942,-31.35203 -24.528,-38.22703 -4.4338,-6.875 -9.8489,-15.30856 -12.0335,-18.74125 l -3.972,-6.24126 -18.74996,-0.009 -18.75,-0.009 v 95.52361 95.52362 l 17.25,-0.27362 17.24996,-0.27361 z m 169,51 v -15 h -6.5 -6.5 v -80.5 -80.5 h -20.845 c -24.1104,0 -20.8406,-1.4765 -29.8962,13.5 -3.3255,5.5 -8.7942,14.48276 -12.1526,19.96169 -3.3584,5.47892 -6.1062,10.30554 -6.1062,10.72582 0,0.42027 7.5375,0.88751 16.75,1.03831 l 16.75,0.27418 v 57.5 57.5 l -6,0.5 -6,0.5 -0.2767,14.75 -0.2767,14.75 h 30.5267 30.5267 z"
       id="path22"
       inkscape:connector-curvature="0"
       sodipodi:nodetypes="ssscscsccsccscsscccsssccccccccccccccscssscccccccccc" />
  </g>
</svg>
