<?xml version="1.0" encoding="utf-8"?>
<!-- Generator: Adobe Illustrator 25.3.0, SVG Export Plug-In . SVG Version: 6.00 Build 0)  -->
<svg version="1.1" id="Layer_1" xmlns="http://www.w3.org/2000/svg" xmlns:xlink="http://www.w3.org/1999/xlink" x="0px" y="0px"
	 viewBox="0 0 361.1 85.5" style="enable-background:new 0 0 361.1 85.5;" xml:space="preserve">
<style type="text/css">
	.st0{fill:#FF0000;}
	.st1{fill:#EC0000;}
</style>
<polygon points="120.3,45.9 111,23 96.3,23 96.3,62.5 106.9,62.5 106.9,41 115.8,62.5 124.3,62.5 133.2,40.7 133.2,62.5 143.8,62.5 
	143.8,23 129.1,23 "/>
<path d="M202.7,39.8c0.5,0.8,0.8,1.7,1.1,2.7c0.2,1.1,0.3,2.2,0.3,3.4c0,1-0.1,2-0.4,2.9c-0.3,0.9-0.7,1.7-1.2,2.4
	c-0.5,0.7-1.1,1.2-1.9,1.6c-0.8,0.4-1.7,0.6-2.7,0.6c-1.1,0-2-0.2-2.8-0.7c-0.7-0.5-1.3-1.1-1.8-1.8c-0.5-0.8-0.8-1.7-1-2.6
	c-0.2-1-0.3-2.1-0.3-3.1c0-1.1,0.1-2.1,0.4-3.1c0.2-0.9,0.6-1.8,1.1-2.5c0.5-0.7,1.1-1.2,1.8-1.6c0.7-0.4,1.6-0.6,2.6-0.6
	c1.2,0,2.2,0.2,3,0.6C201.6,38.4,202.2,39,202.7,39.8 M204,32.3c-0.8-0.8-1.6-1.5-2.6-1.9c-1.6-0.8-3.6-1.2-5.7-1.2
	c-2.3,0-4.3,0.5-6.1,1.3c-1.8,0.9-3.2,2.1-4.4,3.6c-1.2,1.5-2.1,3.2-2.7,5.2c-0.6,1.9-0.9,3.9-0.9,6c0,2.2,0.3,4.2,0.8,6.2
	c0.5,2,1.4,3.8,2.5,5.2c1.1,1.5,2.6,2.7,4.4,3.6c1.8,0.9,3.9,1.3,6.3,1.3c2,0,3.9-0.4,5.7-1.2c1-0.5,1.9-1.1,2.7-1.8V60
	c0,1.9-0.4,3.6-1.4,4.8c-0.9,1.2-2.4,1.8-4.4,1.8c-1.3,0-2.5-0.3-3.5-0.8c-0.9-0.5-1.5-1.4-1.8-2.7l-0.2-0.7h-10.1l0.1,1
	c0.1,1.9,0.7,3.6,1.6,4.9c0.9,1.3,2.1,2.5,3.5,3.3c1.4,0.8,2.9,1.5,4.5,1.9c1.6,0.4,3.2,0.6,4.8,0.6c3.6,0,6.6-0.5,8.8-1.5
	c2.2-1,3.9-2.3,5.1-3.7c1.2-1.5,2-3.1,2.3-4.8c0.3-1.6,0.5-3.1,0.5-4.4V30H204V32.3z"/>
<path d="M273.4,46.3c0,1.2-0.1,2.3-0.3,3.4c-0.2,1.1-0.6,2-1.1,2.8c-0.5,0.8-1.1,1.4-1.9,1.9c-0.8,0.5-1.8,0.7-3,0.7
	c-1.2,0-2.2-0.2-3-0.7c-0.8-0.5-1.5-1.1-2-1.9c-0.5-0.8-0.9-1.7-1.1-2.8c-0.2-1.1-0.4-2.3-0.4-3.4c0-1.2,0.1-2.4,0.3-3.5
	c0.2-1.1,0.6-2,1.1-2.8c0.5-0.8,1.1-1.4,1.9-1.9c0.8-0.5,1.8-0.7,3-0.7c1.2,0,2.1,0.2,2.9,0.7c0.8,0.5,1.5,1.2,2,2
	c0.5,0.8,0.9,1.8,1.1,2.9C273.3,44,273.4,45.2,273.4,46.3 M280.1,34.5c-1.2-1.6-2.8-2.9-4.6-3.9c-1.9-1-4.1-1.5-6.7-1.5
	c-2,0-3.9,0.4-5.6,1.2c-1,0.5-1.9,1.1-2.7,1.9V30h-9.9v43.2h10.3V60.1c0.8,0.8,1.7,1.4,2.7,1.9c1.7,0.8,3.6,1.2,5.6,1.2
	c2.4,0,4.5-0.5,6.3-1.4c1.8-0.9,3.3-2.2,4.5-3.8c1.2-1.5,2.1-3.3,2.7-5.3c0.6-2,0.9-4.1,0.9-6.2c0-2.2-0.3-4.4-0.9-6.5
	C282.2,38,281.3,36.1,280.1,34.5"/>
<path d="M306,54.4c-0.8,0.5-1.9,0.7-3.1,0.7c-1.2,0-2.3-0.2-3.1-0.7c-0.8-0.5-1.5-1.1-2-1.9c-0.5-0.8-0.9-1.8-1.1-2.8
	c-0.2-1.1-0.3-2.2-0.3-3.4c0-1.2,0.1-2.3,0.3-3.4c0.2-1.1,0.6-2,1.1-2.8c0.5-0.8,1.1-1.4,2-1.9c0.8-0.5,1.8-0.7,3.1-0.7
	c1.2,0,2.3,0.2,3.1,0.7c0.8,0.5,1.5,1.1,2,1.9c0.5,0.8,0.9,1.8,1.1,2.8c0.2,1.1,0.3,2.3,0.3,3.4c0,1.2-0.1,2.3-0.3,3.4
	c-0.2,1-0.6,2-1.1,2.8C307.5,53.3,306.9,53.9,306,54.4 M315.1,33.8c-1.5-1.5-3.3-2.7-5.3-3.5c-2.1-0.8-4.4-1.2-6.9-1.2
	c-2.5,0-4.8,0.4-6.9,1.2c-2,0.8-3.8,2-5.3,3.5c-1.5,1.5-2.6,3.3-3.4,5.4c-0.8,2.1-1.2,4.4-1.2,7c0,2.6,0.4,4.9,1.2,7
	c0.8,2.1,1.9,3.9,3.4,5.4c1.5,1.5,3.3,2.6,5.3,3.4c2,0.8,4.3,1.2,6.9,1.2c2.5,0,4.8-0.4,6.9-1.2c2.1-0.8,3.9-2,5.3-3.4
	c1.5-1.5,2.6-3.3,3.4-5.4c0.8-2.1,1.2-4.4,1.2-7c0-2.5-0.4-4.9-1.2-7C317.8,37.2,316.6,35.3,315.1,33.8"/>
<path d="M361.1,38.6v-9.5h-6.2v-8.4h-10.3v33.8c0,1.7,0.3,3.1,0.9,4.2c0.6,1.1,1.4,2,2.5,2.6c1,0.6,2.1,1,3.4,1.2
	c1.2,0.2,2.5,0.3,3.8,0.3c0.8,0,1.7,0,2.6-0.1c0.9,0,1.7-0.1,2.5-0.2l0.8-0.1v-8.5l-1.1,0.2c-0.4,0.1-0.7,0.1-1.1,0.2
	c-0.4,0-0.8,0.1-1.3,0.1c-1.6,0-2.1-0.3-2.2-0.4c-0.1-0.1-0.4-0.6-0.4-2.2V38.6H361.1z"/>
<path d="M342.2,29.1c-1.2,0-3.5,0.2-4.6,0.5c-1.1,0.3-2.1,0.8-3,1.4c-0.9,0.6-1.8,1.4-2.5,2.3c0,0,0,0-0.1,0.1V30h-9.9v32.5h10.3
	V47.7c0-1.3,0.1-2.5,0.4-3.6c0.2-1.1,0.7-2,1.2-2.8c0.6-0.8,1.3-1.4,2.2-1.8c1.2-0.6,2.9-0.8,4.9-0.6l1,0.1v-8.9V29.1"/>
<path d="M160.2,37.9c0.8-0.4,1.7-0.6,2.9-0.6c1.8,0,3.1,0.5,3.9,1.4c0.7,0.8,1.3,1.9,1.6,3.3h-11.4c0.1-0.3,0.1-0.5,0.2-0.8
	c0.2-0.6,0.5-1.2,1-1.8C158.8,38.8,159.4,38.3,160.2,37.9 M175.7,35.1c-1.3-1.8-3-3.3-5.1-4.3c-2.1-1.1-4.5-1.6-7.2-1.6
	c-2.4,0-4.7,0.4-6.7,1.3c-2,0.9-3.8,2.1-5.2,3.6c-1.5,1.5-2.6,3.4-3.4,5.4c-0.8,2.1-1.2,4.3-1.2,6.7c0,2.5,0.4,4.8,1.2,6.8
	c0.8,2.1,1.9,3.9,3.3,5.4c1.4,1.5,3.2,2.7,5.3,3.5c2,0.8,4.3,1.2,6.9,1.2c3.6,0,6.8-0.8,9.4-2.5c2.1-1.3,3.7-3.4,4.9-6.1l0.6-1.3
	h-10l-0.3,0.2c-0.2,0.1-0.3,0.3-0.6,0.4c-1.1,0.7-2.3,1.1-3.8,1.1c-2.1,0-3.7-0.5-4.8-1.6c-0.9-0.9-1.5-2.4-1.7-4.3h22l0.1-0.9
	c0.2-2.5,0-4.8-0.6-7.1C177.9,38.9,177,36.9,175.7,35.1"/>
<path d="M236.7,48.1v1.5c0,0.4,0,1-0.1,1.8c-0.1,0.7-0.3,1.3-0.7,2c-0.4,0.6-0.9,1.2-1.7,1.6c-0.8,0.5-1.9,0.7-3.4,0.7
	c-0.6,0-1.2-0.1-1.8-0.2c-0.5-0.1-1-0.3-1.3-0.5c-0.3-0.2-0.6-0.5-0.8-0.9c-0.2-0.4-0.3-0.9-0.3-1.5c0-0.6,0.1-1.1,0.3-1.5
	c0.2-0.4,0.5-0.7,0.8-1c0.4-0.3,0.8-0.5,1.3-0.7c0.6-0.2,1.2-0.3,1.7-0.4c0.7-0.1,1.3-0.2,2-0.3c0.7-0.1,1.4-0.2,2-0.3
	c0.7-0.1,1.3-0.3,1.8-0.5C236.7,48.2,236.7,48.2,236.7,48.1 M247,54.7V38.8c0-2.1-0.5-3.7-1.4-5c-0.9-1.2-2.1-2.2-3.5-2.9
	c-1.4-0.7-2.9-1.1-4.6-1.4c-3.4-0.5-6.8-0.5-10.1,0.2c-1.8,0.4-3.4,1-4.8,1.8c-1.5,0.9-2.7,2-3.6,3.4c-1,1.4-1.5,3.2-1.6,5.4l-0.1,1
	h10.3l0.1-0.8c0.1-1.4,0.6-2.3,1.3-2.9c0.8-0.6,1.9-0.9,3.3-0.9c0.7,0,1.4,0,2,0.1c0.5,0.1,1,0.2,1.4,0.5c0.4,0.2,0.6,0.5,0.8,0.9
	c0.2,0.4,0.3,1,0.3,1.8c0,0.7-0.2,1.1-0.4,1.2c-0.4,0.4-1.1,0.6-1.9,0.9c-0.9,0.2-1.9,0.4-3.1,0.5c-1.3,0.1-2.5,0.3-3.8,0.5
	c-1.3,0.2-2.6,0.5-3.9,0.8c-1.3,0.4-2.6,0.9-3.6,1.6c-1.1,0.8-2,1.8-2.7,3c-0.7,1.3-1,2.9-1,4.7c0,1.7,0.3,3.2,0.9,4.5
	c0.6,1.3,1.4,2.3,2.5,3.2c1,0.8,2.3,1.4,3.6,1.8c1.3,0.4,2.8,0.6,4.3,0.6c2,0,3.9-0.3,5.8-0.9c1.4-0.4,2.7-1.1,3.8-1.9
	c0.1,0.5,0.2,0.9,0.4,1.4l0.2,0.6h9.2l0-5C247.1,56.4,247,55.6,247,54.7"/>
<g>
	<polygon class="st0" points="37,34.7 37,46.1 42.7,51.9 48.5,46.2 48.5,34.7 42.7,29 	"/>
	<path class="st1" d="M67.7,71.4l-4.5,3.3l-4.5-3.3V60.1L53,54.4l-5.8,5.8v11.3l-4.5,3.3l-4.5-3.3V60.1l-5.8-5.8l-5.8,5.8v11.3
		l-4.5,3.3l-4.5-3.3v-15L28,46.2V31l10.3-10.3v-13l4.5-3.3l4.5,3.3v13L57.5,31v15.1l10.3,10.3V71.4z M42.7,0C19.1,0,0,19.1,0,42.7
		c0,23.6,19.1,42.7,42.7,42.7s42.7-19.1,42.7-42.7C85.5,19.1,66.3,0,42.7,0"/>
</g>
</svg>
