<?xml version="1.0" encoding="utf-8"?>
<!-- Generator: Adobe Illustrator 26.3.0, SVG Export Plug-In . SVG Version: 6.00 Build 0)  -->
<svg version="1.1" id="Layer_1" xmlns="http://www.w3.org/2000/svg" xmlns:xlink="http://www.w3.org/1999/xlink" x="0px" y="0px"
	 viewBox="0 0 137.8 50.3" style="enable-background:new 0 0 137.8 50.3;" xml:space="preserve">
<style type="text/css">
	.st0{fill:#EA4624;}
	.st1{fill:#F79823;}
	.st2{fill:#FFFFFF;}
</style>
<g>
	<g>
		<path class="st0" d="M32.2,25.1c0,4-3.3,7.3-7.3,7.3s-7.3-3.3-7.3-7.3s3.3-7.3,7.3-7.3C28.9,17.8,32.2,21.1,32.2,25.1"/>
		<path class="st1" d="M38.4,36.6l11.4-11.4L38.4,13.7l-3.8,3.8l3.8,3.8h-5.5c0.5,1.1,0.9,2.4,0.9,3.8c0,1.3-0.3,2.6-0.8,3.8h5.4
			l-3.8,3.8L38.4,36.6z"/>
		<path class="st1" d="M21.1,33.2v5.4l-3.8-3.8l-3.8,3.8L24.9,50l11.4-11.4l-3.8-3.8l-3.8,3.8v-5.5c-1.1,0.5-2.4,0.9-3.8,0.9
			C23.6,34,22.3,33.7,21.1,33.2"/>
		<path class="st1" d="M16.9,21.4h-5.4l3.8-3.8l-3.8-3.8L0,25.1l11.4,11.4l3.8-3.8l-3.8-3.8h5.5c-0.5-1.1-0.8-2.4-0.8-3.8
			C16,23.8,16.3,22.5,16.9,21.4"/>
		<path class="st1" d="M28.7,17.1v-5.4l3.8,3.8l3.8-3.8L24.9,0.3L13.5,11.7l3.8,3.8l3.8-3.8v5.5c1.2-0.5,2.4-0.8,3.8-0.8
			C26.2,16.3,27.5,16.6,28.7,17.1"/>
	</g>
	<g>
		<g>
			<path class="st2" d="M90.5,41.7h3.1v-1.8v-5.6v-1.8h-2.7h-0.4h-2.3l-1.8,5.6l-1.9-5.6h-2.6h-0.6h-1.5v-2.8h-2.7l-0.3,2.8h-1.6
				v1.6c-0.1-0.2-0.3-0.4-0.4-0.6c-0.8-0.9-2-1.3-3.4-1.3c-2.3,0-4,1.4-4.6,3.4v-0.2c0-2.1-1.1-3.2-3-3.2c-1.2,0-2.3,0.5-3.2,1.4
				v-1.2h-3v9.2h3.1v-1.8v-4.1c0.5-0.7,1.2-1.1,1.9-1.1s1.1,0.5,1.1,1.4v3.8v1.8h3.1v-1.8v-1.1c0.6,2,2.3,3.2,4.7,3.2l0,0l0,0
				c1.4,0,2.5-0.4,3.4-1.3c0.5-0.5,0.8-1.1,1.1-1.8h-2.9c-0.4,1-1.6,1-1.6,1c-1.2,0-1.9-0.7-2-2.1h6.6v-0.1c0-1.1-0.2-2.1-0.6-2.9
				h1.1V39c0,2.1,0.9,3,3.1,3c0.9,0,1.6-0.1,2.1-0.4h0.1v-2.1l-0.2,0.1c-0.3,0.1-0.8,0.2-1.2,0.2c-0.6,0-0.8-0.2-0.8-0.9v-4.1h2.1
				v-0.4l2.8,7.4h2.9l2.9-8.1v0.7V40L90.5,41.7z M69.7,36c0.2-1.1,0.8-1.6,1.8-1.6s1.6,0.6,1.7,1.6H69.7z"/>
			<path class="st2" d="M133.4,32.3c-1.2,0-2.2,0.7-2.8,2v-1.8h-2.8v1.8v1.9c-0.4-2.3-2.4-3.9-4.9-3.9c-2,0-3.6,0.9-4.4,2.4v-2.1
				h-2.1v-2.8h-2.7l-0.3,2.8h-1.6V34c-0.6-1.1-1.9-1.7-3.9-1.7c-1.8,0-3.1,0.5-3.9,1.4v-2.2h-0.1c-0.2-0.1-0.4-0.1-0.6-0.1
				c-1,0-1.8,0.5-2.3,1.4c-0.7-0.4-1.7-0.5-2.7-0.5c-2.7,0-4.4,1.2-4.4,3c0,1,0.5,1.8,1.4,2.3c-0.8,0.3-1.5,0.9-1.5,1.9
				c0,0.7,0.4,1.3,1,1.7c-1,0.3-1.5,1-1.5,1.8c0,1.5,1.7,2.3,4.9,2.3c4.7,0,5.7-1.8,5.7-3.4c0-0.4-0.1-0.6-0.1-0.9
				c0.6,0.6,1.5,0.9,2.6,0.9c1.3,0,2.2-0.4,3-1.2c0,0.2,0.1,0.5,0.1,0.8v0.1h2.9v-0.2c-0.1-0.7-0.2-1.3-0.2-1.9v-3.9
				c0-0.4,0-0.7-0.1-1h1.2v4.3c0,2.1,0.9,3,3.1,3c0.9,0,1.6-0.1,2.1-0.4h0.1v-1.9c0.9,1.4,2.4,2.4,4.3,2.4c2.5,0,4.5-1.6,4.9-3.9V40
				v1.8h3.1V40v-2.1c0.1-1.4,1-2.8,2.3-2.8c0.2,0,0.4,0,0.6,0.1h0.2v-2.8h-0.1C133.7,32.3,133.6,32.3,133.4,32.3 M98.4,34.1
				c0.7,0,1.5,0.2,1.5,1.3c0,1-0.8,1.2-1.5,1.2s-1.5-0.2-1.5-1.2C96.9,34.3,97.7,34.1,98.4,34.1 M98.6,43.6c-1.2,0-2.7-0.2-2.7-1
				c0-0.4,0.2-0.6,0.7-0.8l3.3,0.1c0.6,0,1.3,0.2,1.3,0.7C101.3,43.4,99.8,43.6,98.6,43.6 M109.2,38c0,1.3-1.1,1.9-1.9,1.9
				c-0.7,0-1.1-0.3-1.1-0.9c0-1,1.5-1.4,3-1.5V38z M109.2,35.9c-3.9,0-6.1,1.3-6.1,3.4c0,0.3,0.1,0.7,0.2,1c-0.8-0.7-2-0.8-3-0.9
				l-2.4-0.1c-0.3,0-1.1-0.1-1.1-0.6c0-0.2,0.1-0.4,0.4-0.5c0.4,0.1,0.8,0.1,1.3,0.1c2.7,0,4.4-1.2,4.4-3.1c0-0.5-0.1-1-0.4-1.4
				c0.2-0.2,0.5-0.2,0.7-0.2s0.6,0.1,0.8,0.1h0.1c-0.2,0.2-0.3,0.5-0.4,0.7l-0.1,0.2l0,0c-0.2,0.4-0.1,0.7-0.1,0.7h2.7l0.1-0.1
				c0.4-0.7,0.8-1,1.7-1c1,0,1.4,0.4,1.4,1.4v0.3H109.2z M118.3,39.5c-0.3,0.1-0.8,0.2-1.2,0.2c-0.6,0-0.8-0.2-0.8-0.9v-4.1h2.1
				c-0.4,0.7-0.6,1.5-0.6,2.4C117.9,38,118.1,38.8,118.3,39.5L118.3,39.5z M122.9,39.9c-1.2,0-1.8-0.9-1.8-2.7s0.6-2.7,1.8-2.7
				c1.2,0,1.8,1,1.8,2.7C124.7,38.9,124,39.9,122.9,39.9"/>
		</g>
		<g>
			<rect x="57.8" y="19.1" class="st2" width="1.8" height="6.7"/>
			<rect x="63.8" y="19.1" class="st2" width="1.8" height="6.7"/>
			<rect x="121.5" y="5.6" class="st2" width="11.6" height="4"/>
			<path class="st2" d="M134,11.2h-13.6v0.4l-0.8-1l-7.8,5.6l2.2,3.4l1.6-1.1V26h3.6V16l1.2-0.9v0.4h6.3v6.2c0,0.5-0.2,0.7-0.7,0.7
				h-3.1l1.4,3.6h4.1c1.7-0.1,2.4-0.8,2.4-2.5v-8h3.1L134,11.2z"/>
			<polygon class="st2" points="120.8,7.9 118.6,5 112,9.7 114.2,12.6 			"/>
			<polygon class="st2" points="96.8,21.8 96.8,15.4 104.2,15.4 104.2,11.2 96.8,11.2 96.8,5.6 92.5,5.6 92.5,5.6 92.5,21.8 
				85.3,21.8 85.3,25.8 105.5,25.8 105.5,21.7 			"/>
			<path class="st2" d="M66.5,5.5v3.1l0,0v5.9l-2.1-2.6l1.9-3.4l-2-1.3l-1.9,3.3l-1-0.7l1.9-3.6l-2-1.3l-1.9,3.6L58.7,8l-1.4,2.5
				l3.7,2.4l-1.7,3h-1.6v2.2h2.7v7.6h2.4v-7.6h3.6v7.6h3.2V18h1.7v2.8c0,0.5,0.4,0.9,0.9,0.9h2.4v-1.9h-0.8V18h1.9v4.4
				c0,0.3,0,0.5-0.1,0.6s-0.3,0.2-0.6,0.2c0,0-3,0-3.8,0l1,2.5c0.6,0,4.1,0,4.5,0c1.1,0,2-1.2,2-1.9V5.5L66.5,5.5z M62.2,15.9l1-1.8
				l1.5,1.8H62.2z M71.4,15.9h-1.9v-2.6h1.9V15.9z M75.8,15.9h-1.9v-2.6h1.9V15.9z M75.8,11.2h-1.2l0.5-2h-1.6l-0.5,2h-1l-0.5-2H70
				l0.5,2h-1.1V8.4h6.4L75.8,11.2z"/>
		</g>
	</g>
</g>
</svg>
