<?xml version="1.0" encoding="utf-8"?>
<!-- Generator: Adobe Illustrator 26.0.1, SVG Export Plug-In . SVG Version: 6.00 Build 0)  -->
<svg version="1.1" id="svg9648" xmlns:svg="http://www.w3.org/2000/svg"
	 xmlns="http://www.w3.org/2000/svg" xmlns:xlink="http://www.w3.org/1999/xlink" x="0px" y="0px" viewBox="0 0 1010 211.3"
	 style="enable-background:new 0 0 1010 211.3;" xml:space="preserve">
<style type="text/css">
	.st0{fill:#CC0033;}
</style>
<path id="path8065" class="st0" d="M333,137.4c0,40.4,28.3,72.1,72.9,72.1h41.2v-38.3h-37.5c-24,0-37.2-14.7-37.2-33.9
	c0-19.2,13.2-33.9,37.2-33.9h37.5V65.3H406C361.3,65.3,333,97,333,137.4"/>
<path id="path8069" class="st0" d="M785.1,63.5c-15.1,0-29.2,3.2-47.4,15.9c-18.2-12.7-32.3-15.9-47.4-15.9c-33.6,0-57,23.9-57,58.2
	v87.9h39.4v-85.8c0-14.7,8.7-22,22.9-22c15,0,22.5,7.8,22.5,20.2v87.7h39.4v-87.7c0-12.4,7.4-20.2,22.5-20.2
	c14.2,0,22.9,7.3,22.9,22v85.8h39.4v-87.9C842.2,87.3,818.7,63.5,785.1,63.5"/>
<path id="path8073" class="st0" d="M936.8,173.1c-21.9,0-33.8-17.7-33.8-35.7c0-18,11.9-35.7,33.8-35.7c22,0,33.8,17.7,33.8,35.7
	C970.6,155.4,958.7,173.1,936.8,173.1 M936.8,63.5c-46.8,0-73.3,37.7-73.3,74c0,36.2,26.5,73.9,73.3,73.9
	c46.7,0,73.2-37.7,73.2-73.9C1010,101.2,983.6,63.5,936.8,63.5"/>
<path id="path8077" class="st0" d="M39.4,137.4c0-18,11.9-35.7,33.8-35.7c22,0,33.4,16.9,33.8,34.8v1.8
	c-0.4,17.9-11.9,34.8-33.8,34.8C51.3,173.1,39.4,155.4,39.4,137.4 M106.6,0v72.6c-9.5-5.7-20.9-9.1-34.1-9.1
	c-47.3,0-72.4,38-72.4,74c0,35.8,25.1,73.9,72.4,73.9c35.5,0,48.8-17.7,73.6-29.5V0H106.6z"/>
<path id="path8081" class="st0" d="M262.9,0l-0.1,9.9H249l0.1,35.8h-10.2V9.9H225V0H262.9z"/>
<path id="path8085" class="st0" d="M308.4,0v9.9h-13.9v35.8h-10.2V9.9h-13.8V0H308.4z"/>
<path id="path8089" class="st0" d="M186.4,0l20.1,29.3V0h9.8v45.7h-10.7l-20-29.2v29.2h-9.8V0H186.4z"/>
<path id="path8093" class="st0" d="M241.4,173.1c-21.9,0-33.8-17.7-33.8-35.7c0-18,11.9-35.7,33.8-35.7c22,0,33.9,17.7,33.9,35.7
	C275.3,155.4,263.4,173.1,241.4,173.1 M241.5,63.5c-46.8,0-73.3,37.7-73.3,74c0,36.2,26.5,73.9,73.3,73.9
	c46.7,0,73.2-37.7,73.2-73.9C314.7,101.2,288.2,63.5,241.5,63.5"/>
<path id="path8097" class="st0" d="M538.6,173.1c-21.9,0-33.8-17.7-33.8-35.7c0-18,11.9-35.7,33.8-35.7s33.8,17.7,33.8,35.7
	C572.5,155.4,560.6,173.1,538.6,173.1 M538.7,63.5c-46.8,0-73.3,37.7-73.3,74c0,36.2,26.5,73.9,73.3,73.9
	c46.7,0,73.2-37.7,73.2-73.9C611.9,101.2,585.4,63.5,538.7,63.5"/>
</svg>
