<?xml version="1.0" encoding="utf-8"?>
<!-- Generator: Adobe Illustrator 27.0.0, SVG Export Plug-In . SVG Version: 6.00 Build 0)  -->
<svg version="1.1" id="Layer_1" xmlns="http://www.w3.org/2000/svg" xmlns:xlink="http://www.w3.org/1999/xlink" x="0px" y="0px"
	 viewBox="0 0 99 13" style="enable-background:new 0 0 99 13;" xml:space="preserve">
<style type="text/css">
	.st0{fill:#C74634;}
</style>
<g>
	<path class="st0" d="M42.7,8.4h6.5l-3.4-5.6l-6.3,10.1h-2.9l7.7-12.1C44.6,0.3,45.2,0,45.8,0s1.2,0.3,1.5,0.8l7.8,12.1h-2.9
		l-1.4-2.2h-6.6L42.7,8.4 M72.8,10.7V0.2h-2.5v11.5c0,0.3,0.1,0.6,0.4,0.8c0.2,0.2,0.6,0.4,0.9,0.4h11.2l1.5-2.3H72.8 M32.2,8.8
		c2.4,0,4.3-1.9,4.3-4.3s-1.9-4.3-4.3-4.3H21.4V13h2.5V2.4H32c1.1,0,2.1,0.9,2.1,2.1c0,1.1-0.9,2.1-2.1,2.1h-6.9l7.3,6.4H36
		l-4.9-4.1L32.2,8.8 M6.3,12.9h7.5c3.5,0,6.4-2.9,6.4-6.4s-2.8-6.4-6.4-6.4H6.4C2.9,0.1,0,3,0,6.5C0,10.1,2.8,12.9,6.3,12.9
		 M13.6,10.7H6.5c-2.3,0-4.1-1.9-4.1-4.1c0-2.3,1.8-4.1,4.1-4.1h7.1c2.3,0,4.1,1.8,4.1,4.1C17.7,8.8,15.9,10.7,13.6,10.7 M60.2,12.9
		h7.6l1.4-2.2h-8.8c-2.3,0-4.1-1.9-4.1-4.1c0-2.3,1.8-4.1,4.1-4.1h7.2l1.5-2.3h-8.8c-3.5,0-6.4,2.9-6.4,6.4
		C53.8,10.1,56.7,12.9,60.2,12.9 M90.2,10.7c-1.9,0-3.5-1.3-4-3h10.5l1.4-2.3H86.2c0.5-1.7,2.1-3,4-3h7.2l1.4-2.3H90
		c-3.5,0-6.4,2.9-6.4,6.4s2.9,6.4,6.4,6.4h7.6l1.4-2.2H90.2"/>
</g>
</svg>
