<?xml version="1.0" encoding="utf-8"?>
<!-- Generator: Adobe Illustrator 27.8.0, SVG Export Plug-In . SVG Version: 6.00 Build 0)  -->
<svg version="1.1" id="Layer_1" xmlns="http://www.w3.org/2000/svg" xmlns:xlink="http://www.w3.org/1999/xlink" x="0px" y="0px"
	 viewBox="0 0 329.66 75.84" style="enable-background:new 0 0 329.66 75.84;" xml:space="preserve">
<style type="text/css">
	.st0{fill:#FFFFFF;}
	.st1{fill:#C74634;}
</style>
<g>
	<g>
		<rect x="199.29" class="st0" width="2.71" height="75.84"/>
	</g>
	<g id="Oracle_logo_band_282_">
		<g id="Oracle_Logo_282_">
			<path class="st1" d="M75.32,41.25h11.55l-6.08-9.83L69.58,49.18H64.5l13.59-21.31c0.6-0.87,1.59-1.38,2.69-1.38
				c1.04,0,2.02,0.5,2.62,1.33l13.65,21.35h-5.11l-2.4-3.97H77.86L75.32,41.25 M128.22,45.22V26.71h-4.31v20.31
				c0,0.57,0.22,1.1,0.63,1.52c0.43,0.4,1,0.64,1.58,0.64h19.71l2.56-3.96H128.22 M56.73,41.91c4.21,0,7.6-3.42,7.6-7.6
				c0-4.19-3.39-7.6-7.6-7.6h-18.9v22.48h4.32V30.66h14.3c1.99,0,3.63,1.64,3.63,3.64c0,2-1.64,3.64-3.63,3.64l-12.18-0.01
				l12.88,11.25h6.28l-8.67-7.27H56.73 M11.24,49.18C5.03,49.18,0,44.14,0,37.94c0-6.21,5.03-11.24,11.24-11.24h13.05
				c6.21,0,11.23,5.03,11.23,11.24c0,6.2-5.03,11.24-11.23,11.24H11.24 M24,45.22c4.02,0,7.29-3.25,7.29-7.27
				c0-4.01-3.27-7.28-7.29-7.28H11.52c-4.01,0-7.27,3.27-7.27,7.28c0,4.02,3.26,7.27,7.27,7.27H24 M106.06,49.18
				c-6.2,0-11.24-5.04-11.24-11.24c0-6.21,5.03-11.24,11.24-11.24h15.53l-2.54,3.96h-12.7c-4.01,0-7.27,3.27-7.27,7.28
				c0,4.02,3.26,7.27,7.27,7.27h15.59l-2.55,3.97H106.06 M158.93,45.22c-3.33,0-6.12-2.24-6.99-5.27h18.45l2.56-3.97h-21.01
				c0.84-3.05,3.67-5.31,6.99-5.31h12.7l2.54-3.96h-15.53c-6.22,0-11.24,5.03-11.24,11.24c0,6.2,5.03,11.24,11.24,11.24h13.33
				l2.53-3.97H158.93z"/>
		</g>
	</g>
	<g>
		<path class="st0" d="M229.28,49.03V26.55h7.36c5.21,0,7.82,2.38,7.82,7.14c0,4.76-2.61,7.14-7.82,7.14h-4.51v8.19H229.28z
			 M236.05,28.84h-3.93v9.71h3.93c1.94,0,3.35-0.39,4.22-1.18c0.87-0.78,1.31-2.01,1.31-3.68c0-1.67-0.44-2.9-1.31-3.68
			C239.4,29.23,237.99,28.84,236.05,28.84z"/>
		<path class="st0" d="M257.51,49.03l-0.46-2.6c-1.32,1.96-3.11,2.94-5.38,2.94c-1.63,0-2.93-0.46-3.91-1.38
			c-0.98-0.92-1.47-2.14-1.47-3.66c0-1.69,0.58-3,1.75-3.94s2.79-1.41,4.87-1.41h3.71v-1.02c0-1.15-0.25-1.97-0.76-2.44
			c-0.51-0.47-1.37-0.71-2.58-0.71c-0.78,0-1.62,0.09-2.5,0.26c-0.89,0.18-1.89,0.46-3,0.85v-2.26c0.78-0.35,1.68-0.62,2.69-0.82
			c1.01-0.19,1.96-0.29,2.84-0.29c4.06,0,6.09,1.8,6.09,5.41v11.07H257.51z M252.01,47.14c0.95,0,1.83-0.27,2.66-0.82
			c0.82-0.54,1.48-1.29,1.98-2.24v-3.06h-3.46c-1.4,0-2.44,0.25-3.11,0.76c-0.67,0.51-1.01,1.28-1.01,2.33
			c0,0.93,0.26,1.67,0.79,2.21C250.39,46.87,251.1,47.14,252.01,47.14z"/>
		<path class="st0" d="M263.88,49.03V32.89h1.89l0.56,3.03c1.05-2.04,2.56-3.06,4.51-3.06c0.41,0,0.77,0.03,1.08,0.09v2.44h-0.71
			c-1.18,0-2.16,0.33-2.94,0.99c-0.79,0.66-1.32,1.62-1.61,2.88v9.77H263.88z"/>
		<path class="st0" d="M276.77,44.11v-8.93h-2.78v-1.42l2.78-0.93l1.11-4.39h1.67v4.45h3.49v2.29h-3.49v8.9
			c0,1.77,0.76,2.66,2.29,2.66c0.25,0,0.49-0.01,0.73-0.04c0.24-0.03,0.46-0.06,0.66-0.08v2.41c-0.29,0.06-0.58,0.1-0.88,0.12
			c-0.3,0.02-0.61,0.03-0.94,0.03c-1.59,0-2.76-0.41-3.51-1.24C277.15,47.12,276.77,45.84,276.77,44.11z"/>
		<path class="st0" d="M286.69,49.03V32.89h1.89l0.49,2.75c0.68-0.99,1.52-1.75,2.5-2.29c0.99-0.54,2.1-0.8,3.34-0.8
			c1.85,0,3.28,0.56,4.27,1.67c0.99,1.11,1.48,2.72,1.48,4.82v9.98h-2.78v-9.89c0-2.8-1.22-4.2-3.65-4.2
			c-1.03,0-1.97,0.31-2.83,0.94c-0.86,0.63-1.5,1.48-1.93,2.55v10.6H286.69z"/>
		<path class="st0" d="M317.33,48.22c-0.58,0.35-1.34,0.63-2.3,0.84c-0.96,0.21-2.01,0.31-3.14,0.31c-2.56,0-4.49-0.73-5.8-2.18
			c-1.31-1.45-1.96-3.58-1.96-6.38c0-2.7,0.62-4.75,1.87-6.15c1.24-1.4,3.03-2.1,5.36-2.1c4.49,0,6.74,2.49,6.74,7.45v1.79h-11.16
			c0.12,1.81,0.61,3.14,1.45,3.97c0.84,0.83,2.1,1.25,3.77,1.25c0.93,0,1.8-0.09,2.63-0.28c0.82-0.18,1.67-0.47,2.53-0.86V48.22z
			 M311.36,34.84c-1.36,0-2.42,0.41-3.17,1.22c-0.75,0.81-1.17,1.99-1.25,3.54h8.47c0-1.69-0.32-2.91-0.94-3.65
			C313.84,35.21,312.8,34.84,311.36,34.84z"/>
		<path class="st0" d="M321.62,49.03V32.89h1.89l0.56,3.03c1.05-2.04,2.56-3.06,4.51-3.06c0.41,0,0.77,0.03,1.08,0.09v2.44h-0.71
			c-1.18,0-2.16,0.33-2.94,0.99c-0.79,0.66-1.32,1.62-1.61,2.88v9.77H321.62z"/>
	</g>
</g>
</svg>
