<?xml version="1.0" encoding="utf-8"?>
<!-- Generator: Adobe Illustrator 26.3.1, SVG Export Plug-In . SVG Version: 6.00 Build 0)  -->
<svg version="1.1" id="layer" xmlns="http://www.w3.org/2000/svg" xmlns:xlink="http://www.w3.org/1999/xlink" x="0px" y="0px"
	 viewBox="0 0 599.9 65.6" style="enable-background:new 0 0 599.9 65.6;" xml:space="preserve">
<style type="text/css">
	.st0{fill:#003399;}
</style>
<path class="st0" d="M180.9,63.3c-2.6,0.5-9.2,2.3-15,2.3c-21.9,0-33.7-12.4-33.7-28.2c0-19.6,15.9-37.4,46.7-37.4
	c2.5,0,16,0,24.8,5.8l-6.5,14.1c-2.5-2.7-7.3-6.4-17.1-6.4c-15.6,0-25.4,11.5-25.5,23c-0.1,7.4,4.5,16.1,20.8,16.1
	c6.4,0,13.8-2,19-3.6l-10.2,10.9L180.9,63.3z M51.7,1.9c11,0,24,6.4,23.6,18.8c-0.3,7.1-4.4,14.4-10.6,18.5
	C57,44.3,48,44.8,41.8,44.8c-4.6,0-9-0.5-12.7-1l-6.4,20.1H0l19.2-62H51.7 M52.2,23.8c1.5-5.3-3.2-8-7.1-8h-7.5l-4.4,14.8
	c2.5,0.8,6.3,1,9.2,0.6C48.5,30.6,51.5,26.2,52.2,23.8"/>
<path class="st0" d="M120.8,63.3c-2.7,0.5-9.2,2.3-15.1,2.3C83.8,65.6,72,53.2,72,37.4C72,17.8,87.9,0,118.7,0c2.5,0,16,0,24.8,5.8
	L137,19.9c-2.5-2.7-7.3-6.4-17.2-6.4c-15.6,0-25.4,11.5-25.5,23c0,7.4,4.6,16.1,20.8,16.1c6.4,0,13.8-2,19-3.6l-10.2,10.9
	L120.8,63.3z M302.5,1.8h-23.1L263,37.9l-2.4-36.1h-16.3l-21.7,35.9l2.5-35.9h-21.5l-1.5,62h26.5l15.5-29.5l0.6,29.5h23.7L302.5,1.8
	z M344.3,27.6c0,2,0,3.5-0.1,4.6s-0.1,2-0.1,2.6l-0.3,5.6h4.7c0.4,0,1.5,0,3.4,0.1l-0.5,9.9c-3.1,0.8-6,1.1-8.6,1.1
	c-3.1,0-6-0.6-8.6-1.9s-4.4-3.1-5.6-5.6c-1.2-2.4-1.8-5.2-1.8-8.3c0-3.1,0.5-6,1.5-8.7s2.6-5.1,4.7-7.1s4.6-3.4,7.4-4.4
	c2.9-1,5.9-1.4,9.2-1.4c1.2,0,2.6,0.1,4.2,0.2c1.6,0.2,3.2,0.4,5,0.7c1.8,0.3,3.3,0.7,4.6,1.1c1.3,0.4,3,0.9,5.1,1.7
	c-0.4-5.4-0.6-10.4-0.6-14.8c-7.8-1.6-14.9-2.4-21.4-2.4c-8.8,0-16,1.5-21.5,4.6c-5.6,3.1-9.8,7.3-12.8,12.5c-3,5.3-4.4,11-4.4,17.1
	c0,3.7,0.5,7.3,1.6,10.8s2.7,6.5,4.7,9.1c2,2.5,4.6,4.6,7.6,6.1s6.5,2.6,10.3,3.2c3.8,0.7,7.8,1,11.8,1c2.4,0,5.2-0.1,8.3-0.3
	c3.1-0.2,5.8-0.5,8-0.8s5-0.8,8.4-1.4c0.1-3.9,0.3-9.6,0.8-17.2c0.4-7.6,0.8-13.5,1.2-17.6c-3.5,0.1-8.4,0.1-14.6,0.1
	C352.2,27.7,348.3,27.6,344.3,27.6 M378.6,63.8l0.8-9.8l1.8-34l0.5-18.3c4.1,0.1,7.2,0.1,9.2,0.1c2.7,0,5.6,0,8.9-0.1l-1.1,14
	L397,50.1l-0.4,13.7c-3.1,0-6,0-8.5,0L378.6,63.8z M432.8,16.2c3.6,0,7.1,0.6,10.5,1.7c3.4,1.2,6.2,2.8,8.5,5s4,4.7,5.1,7.6
	s1.7,6,1.7,9.3c0,3.2-0.5,6.3-1.5,9.3c-1,2.9-2.6,5.7-5,8.2c-2.4,2.6-5.3,4.5-9,5.8c-3.6,1.3-7.5,1.9-11.5,1.9
	c-3.7,0-7.3-0.5-10.7-1.7c-3.4-1.1-6.3-2.7-8.6-4.9c-2.3-2.2-4-4.7-5.2-7.7s-1.7-6.2-1.7-9.5s0.6-6.5,1.7-9.5s2.9-5.7,5.4-8.1
	s5.5-4.2,9.1-5.5C425.2,16.8,428.9,16.2,432.8,16.2 M432.5,29.6c-1.9,0-3.5,0.5-5,1.5s-2.6,2.5-3.3,4.4c-0.7,1.9-1.1,4-1.1,6.3
	c0,3.3,0.8,5.9,2.4,7.7c1.6,1.8,3.6,2.7,6,2.7c1.8,0,3.5-0.5,5-1.5s2.6-2.5,3.3-4.5c0.8-2,1.1-4.1,1.1-6.4c0-1.9-0.3-3.6-0.9-5.1
	s-1.5-2.7-2.9-3.6C435.9,30,434.3,29.6,432.5,29.6 M465,63.8c0.8-9.5,1.6-20.7,2.2-33.4c0.6-12.7,0.9-22.3,0.9-28.7
	c3.4,0.1,6.6,0.1,9.6,0.1c2.9,0,5.8,0,8.6-0.1c-0.6,4.7-1.1,9.9-1.4,15.5c2.7-0.5,4.7-0.7,6.2-0.9c1.4-0.2,2.9-0.2,4.3-0.2
	c4.5,0,8.4,0.7,11.6,2.2c3.2,1.5,5.8,3.9,7.8,7.4s3,7.7,3,12.8c0,5-0.9,9.7-2.9,13.9c-1.9,4.2-4.5,7.4-7.7,9.4s-6.9,3.1-11.2,3.1
	c-1.6,0-3.1-0.2-4.5-0.5s-2.7-0.8-3.9-1.5c-1.2-0.6-2.2-1.3-3-2.1c-0.8-0.7-1.7-1.7-2.7-3l-0.2,5.9c-3.1-0.1-5.8-0.1-7.9-0.1
	C472,63.7,469.1,63.8,465,63.8 M483.6,30c-0.3,5.1-0.4,8.2-0.4,9.4c0,2.8,0.2,5.1,0.7,6.7c0.5,1.7,1.4,3,2.8,4s2.9,1.5,4.6,1.5
	c1.8,0,3.3-0.5,4.6-1.5s2.3-2.5,3-4.4s1-4,1-6.1c0-3.2-0.8-5.8-2.5-7.7c-1.7-1.9-4-2.9-7.2-2.9C488.4,29,486.1,29.3,483.6,30
	 M528.4,30.6c0.5-3,0.9-5,1-6.2c0.2-1.1,0.4-2.9,0.7-5.3c8.4-1.9,15.7-2.9,21.8-2.9c3.5,0,6.7,0.4,9.6,1.2c2.9,0.8,5.2,2.1,6.8,3.9
	s2.4,4.4,2.4,7.7c0,1.7-0.2,5.5-0.7,11.5c-0.5,5.9-0.8,13.7-1.1,23.4c-2.9-0.1-5.7-0.1-8.6-0.1c-2.8,0-5.7,0-8.8,0.1
	c0.5-3.4,1-10.3,1.5-20.7c-1.1,0.6-2,1-2.6,1.2s-1.8,0.6-3.3,1.1c-1.6,0.5-2.9,0.9-3.7,1.2c-0.9,0.3-1.7,0.8-2.3,1.3
	c-0.7,0.5-1.1,1.1-1.4,1.6c-0.3,0.5-0.4,1.2-0.4,1.8c0,1,0.4,1.9,1.2,2.7c0.8,0.7,2,1.1,3.7,1.1c0.6,0,1.3,0,2-0.2
	c0.7-0.1,1.6-0.4,2.9-0.8c-0.9,2.3-1.9,5.7-3,10.2c-2.5,0.4-4.9,0.6-7.2,0.6c-3.6,0-6.7-0.5-9.1-1.6c-2.4-1-4.3-2.7-5.6-5.1
	c-1.3-2.3-2-4.7-2-7c0-1.4,0.2-2.8,0.7-4.2c0.5-1.4,1.2-2.7,2.3-4c1-1.3,2.2-2.4,3.6-3.3c1.4-0.9,3.3-1.8,5.7-2.6
	c2.4-0.8,5.4-1.6,9.1-2.3c1.5-0.3,2.9-0.6,4.2-1s2.2-0.6,2.7-0.9s1-0.6,1.3-0.9s0.6-0.7,0.7-1.1c0.1-0.4,0.2-0.8,0.2-1.2
	c0-1.2-0.5-2.1-1.4-2.7s-2.3-0.9-4.2-0.9C542.1,26.2,535.9,27.6,528.4,30.6 M578.7,63.8l0.8-9.8l1.8-34l0.5-18.3
	c4.1,0.1,7.2,0.1,9.2,0.1c2.7,0,5.6,0,8.9-0.1l-1.1,14l-1.7,34.4l-0.4,13.7c-3.1,0-6,0-8.5,0L578.7,63.8z"/>
</svg>
