<?xml version="1.0" encoding="UTF-8"?>
<svg id="Layer_1" data-name="Layer 1" xmlns="http://www.w3.org/2000/svg" viewBox="0 0 449.91 133.19">
  <defs>
    <style>
      .cls-1 {
        fill: #fff;
        stroke-width: 0px;
      }
    </style>
  </defs>
  <path class="cls-1" d="M98.04,12.25c9.37,8.17,14.06,19.67,14.06,34.48,0,15.71-4.69,27.9-14.06,36.58-9.38,8.68-22.55,13.02-39.52,13.02h-23.75v36.86H0V0h58.52c16.97,0,30.14,4.08,39.52,12.25ZM73.25,63.27c3.86-3.54,5.79-8.67,5.79-15.39s-1.93-11.43-5.79-14.92c-3.87-3.48-9.34-5.23-16.44-5.23h-22.04v40.85h22.04c7.09,0,12.57-1.77,16.44-5.32Z"/>
  <path class="cls-1" d="M130.91,23.18h32.49v43.7h39.71V23.18h32.49v110.01h-32.49l.19-40.85h-39.9v40.85h-32.49V23.18Z"/>
  <path class="cls-1" d="M263.15,0h34.77v133.19h-34.77V0Z"/>
  <path class="cls-1" d="M314.63,0h40.47l24.89,37.81L405.07,0h41.04l-43.89,63.65,47.69,69.54h-41.61l-28.31-41.23-27.74,41.23h-40.66l47.31-67.83L314.63,0Z"/>
</svg>