<?xml version="1.0" encoding="utf-8"?>
<!-- Generator: Adobe Illustrator 27.2.0, SVG Export Plug-In . SVG Version: 6.00 Build 0)  -->
<svg version="1.1" id="Layer_1" xmlns="http://www.w3.org/2000/svg" xmlns:xlink="http://www.w3.org/1999/xlink" x="0px" y="0px"
	 viewBox="0 0 923.1 261.6" style="enable-background:new 0 0 923.1 261.6;" xml:space="preserve">
<style type="text/css">
	.st0{fill:#939495;}
	.st1{fill:#CE2035;}
	.st2{fill:#951B28;}
	.st3{fill:#E42F31;}
	.st4{fill:#B3B5B5;}
	.st5{fill:#5C0E1F;}
	.st6{fill-rule:evenodd;clip-rule:evenodd;fill:#D12030;}
</style>
<path class="st0" d="M94,170.8c-12.3,27.4-20.1,56-22.4,85.1c2.2,0,3.9,0.6,6.1,1.1c17.3,2.8,34.7,4.5,51.5,4.5
	c20.1-0.6,39.2-2.8,58.2-7.3c25.7-6.2,49.8-15.7,71.6-28.6c-26.3,0-52.6-3.4-78.9-11.2c-7.8-2.8-15.7-5.6-23.5-8.4l-11.7-5
	C126.4,192.7,109.7,182.6,94,170.8L94,170.8z"/>
<path class="st1" d="M129.2,0c17.3,24.1,29.1,50.4,35.3,77.8c2.2,8.4,3.3,17.4,4.5,25.8c2.2,23,1.1,45.9-3.4,68.9
	c28.5-3.4,56.5-11.2,81.7-23c-5.6-16.8-12.3-33.1-21.3-49.3c-8.4-15.7-19-30.8-31.3-44.8c-0.6-0.6-1.1-1.1-1.7-1.7
	C174.6,31.9,152.7,14,129.2,0z"/>
<path class="st2" d="M129.2,114.2c-22.4,7.8-43.6,19.1-62.1,33c-5.6,3.9-11.2,8.4-16.2,13.5c-21.3,19-38.6,42.6-50.9,69.5
	C21.8,242,45.9,250.4,71.6,256c2.2-29.1,10.1-57.7,22.4-85.1C103.7,150.8,115.5,131.8,129.2,114.2L129.2,114.2z M77.6,167.8
	c3,0.7,6.1,1.3,9.1,1.9c1.4,0.3,2.7,0.4,3.8,0.6c-1.2-0.1-2.4-0.3-3.8-0.6C83.7,169.1,80.6,168.5,77.6,167.8L77.6,167.8z"/>
<path class="st3" d="M129.2,0C106.3,14,84.5,31.9,66,53.8c-0.6,0.6-1.1,1.1-1.7,1.7c21.3,13.4,40.8,30.2,58.7,50.4
	c2.2,2.8,4.5,5.6,6.1,8.4c15.1,17.9,26.9,37.5,36.4,58.3c4.5-23,5.6-45.9,3.4-68.9c-1.1-8.4-2.2-17.4-4.5-25.8
	C158.3,50.4,146.6,24.1,129.2,0z"/>
<path class="st4" d="M247.3,149.5c-25.2,11.8-53.2,19.6-81.7,23c-22.9,2.2-47,2.2-71.6-1.7c15.7,11.8,32.5,21.8,50.9,30.2l11.7,5
	c7.8,2.8,15.7,5.6,23.5,8.4c26.3,7.8,52.6,11.2,78.9,11.2C259,199.9,255.1,174.2,247.3,149.5L247.3,149.5z"/>
<path class="st5" d="M64.3,55.4c-12.9,15.1-24,31.4-33,47.6c-7.3,14-13.4,28-17.9,42c-6.2,18.5-10.1,37.5-12.3,56.6
	c11.7-16.8,25.7-31.4,40.8-44.3c6.7-5,13.4-10.1,20.7-14.6c20.1-12.9,43.1-22.4,66.6-28.6c-1.7-2.8-3.9-5.6-6.1-8.4
	C105.2,85.7,85.6,68.9,64.3,55.4z"/>
<path class="st6" d="M747.4,69.4c-21.8-19-54.3-24.1-73.8-24.1h-67.1v179.8h67.1c19.6,0,52-5,73.8-24.1
	c26.8-24.1,26.3-65.5,26.3-65.5C773.7,135,774.3,93.5,747.4,69.4L747.4,69.4z M719.4,173.6c-11.2,11.2-30.8,16.8-49.8,16.8h-21.8
	V80.1h21.8c19,0,38.6,5.6,49.8,17.4c13.4,14,12.3,37.5,12.3,37.5S732.9,159.1,719.4,173.6L719.4,173.6z M432.4,58.8
	c-18.4-13.4-47.5-13.4-64.3-13.4h-58.2v179.8h40.8v-49.8h17.4c16.8,0,45.9,0,64.3-14c23.5-17.4,23.5-51,23.5-51S456,76.7,432.4,58.8
	L432.4,58.8z M403.9,133.8c-7.8,6.2-20.1,6.2-28,6.2h-25.2V80.1H376c7.8,0,20.1,0.6,28,6.7c10.6,7.8,9.5,23.5,9.5,23.5
	S414.5,125.5,403.9,133.8L403.9,133.8z M775.4,44.8v35.3h52v145.1h41.4V80.1h15.1c31.9,0,39.2-35.3,39.2-35.3L775.4,44.8z
	 M511.9,45.4h-40.3v179.8h119.2v-36.4h-78.9V45.4z"/>
</svg>
