<?xml version="1.0" encoding="utf-8"?>
<!-- Generator: Adobe Illustrator 22.0.1, SVG Export Plug-In . SVG Version: 6.00 Build 0)  -->
<svg version="1.1" id="a" xmlns="http://www.w3.org/2000/svg" xmlns:xlink="http://www.w3.org/1999/xlink" x="0px" y="0px"
	 viewBox="0 0 423 144.1" style="enable-background:new 0 0 423 144.1;" xml:space="preserve">
<style type="text/css">
	.st0{fill:#FFFFFF;stroke:#FFFFFF;stroke-miterlimit:10;}
</style>
<path class="st0" d="M201.6,43.6c-0.8-0.3-1.7-0.6-2.6-0.8c-1-0.2-2-0.4-3-0.5s-2-0.3-3-0.4s-1.9-0.1-2.6-0.1
	c-3.7,0-7.3,0.3-10.9,1.1c-2.9,0.6-5.7,1.4-8.4,2.4v44.5h13.3V53.9c0.9-0.2,1.7-0.4,2.6-0.5c1-0.1,2-0.2,3-0.2
	c1.7,0,3.5,0.2,5.2,0.5c1.6,0.3,3,0.6,4.2,0.9L201.6,43.6C201.6,43.6,201.6,43.6,201.6,43.6z M220,79.3c-1.4-0.8-2.1-2.2-2.1-4.3
	c0-0.9,0.2-1.9,0.7-2.7c0.5-0.7,1.2-1.3,2-1.7c0.9-0.4,1.9-0.7,2.9-0.9c1.2-0.2,2.3-0.2,3.5-0.2c1,0,2,0.1,3,0.2
	c1.1,0.1,1.9,0.2,2.4,0.4v10.1c-0.9,0.1-1.9,0.2-2.9,0.3c-1.2,0.1-2.5,0.1-3.8,0.1C223.8,80.6,221.8,80.2,220,79.3L220,79.3
	L220,79.3z M220.1,41.8c-1.5,0.1-3,0.3-4.3,0.5s-2.6,0.4-3.8,0.7s-2.1,0.5-2.9,0.8l1.7,10.7c1.9-0.7,3.8-1.1,5.7-1.4
	c2.2-0.3,4.5-0.5,6.7-0.5c3.4,0,5.8,0.7,7.1,2.1c1.4,1.5,2.1,3.4,2,5.4v1.2c-1.1-0.3-2.2-0.5-3.3-0.6c-1.5-0.2-3.1-0.2-4.6-0.2
	c-2.5,0-5,0.3-7.4,0.8c-2.2,0.4-4.4,1.3-6.3,2.4c-1.8,1.1-3.4,2.7-4.4,4.6c-1.2,2.1-1.7,4.6-1.6,7c-0.1,2.5,0.4,5,1.4,7.2
	c0.9,1.9,2.3,3.6,4.1,4.8c1.9,1.3,4.1,2.2,6.4,2.6c2.7,0.6,5.5,0.8,8.3,0.8c4.1,0.1,8.2-0.2,12.3-0.9c3.4-0.6,6-1.1,8-1.5V60.8
	c0-2.7-0.3-5.4-1-8c-0.6-2.3-1.8-4.4-3.4-6.1c-1.8-1.8-3.9-3.1-6.3-3.8c-3.2-1-6.5-1.4-9.8-1.3C223.1,41.6,221.6,41.6,220.1,41.8
	L220.1,41.8L220.1,41.8z M278,53.1c1.4,0,2.7,0.2,4.1,0.5c1.2,0.3,2.3,0.7,3.3,1.3v24.2c-0.7,0.1-1.5,0.2-2.5,0.3s-2.1,0.1-3.3,0.1
	c-3.6,0-6.4-1.2-8.2-3.8c-1.9-2.5-2.8-5.8-2.8-9.9C268.5,57.4,271.7,53.1,278,53.1z M298.6,20.6l-13.3,2.1v21.1
	c-1.4-0.6-2.9-1.1-4.4-1.5c-1.6-0.4-3.3-0.6-5-0.5c-3-0.1-6.1,0.5-8.9,1.7c-2.5,1.1-4.8,2.8-6.6,4.9c-1.9,2.3-3.3,5-4.1,7.8
	c-1,3.4-1.4,6.8-1.4,10.3c-0.1,3.5,0.5,6.9,1.7,10.1c1,2.9,2.6,5.5,4.8,7.7c2.2,2.2,4.8,3.8,7.7,4.9c3.3,1.2,6.8,1.8,10.4,1.7
	c1.6,0,3.3-0.1,5-0.2s3.5-0.3,5.2-0.6s3.3-0.5,4.9-0.9s2.9-0.7,4.1-1L298.6,20.6L298.6,20.6L298.6,20.6z M324.5,42.8h-13.3v47h13.3
	V42.8C324.5,42.8,324.5,42.8,324.5,42.8z M323.3,23.5c-3.2-2.8-8-2.8-11.2,0c-3.2,3.2-3.2,8.3,0,11.5c3.2,2.8,8,2.8,11.2,0
	C326.5,31.8,326.5,26.7,323.3,23.5z M377.1,42.8h-13.3v36.3c-0.8,0.1-1.8,0.2-2.9,0.3s-2.1,0.1-3,0.1c-3.1,0-5.2-1-6.3-2.9
	c-1.1-1.9-1.7-5-1.7-9.3V42.8h-13.4V69c0,3,0.3,6,1,8.9c0.6,2.5,1.7,4.9,3.3,6.9c1.7,2,3.8,3.6,6.3,4.5c3.2,1.2,6.6,1.7,10,1.6
	c3.8,0,7.5-0.3,11.2-0.9c3-0.4,5.9-1,8.8-1.8V42.8C377.1,42.8,377.1,42.8,377.1,42.8z M396,79.5c-2.4-0.5-4.7-1.2-7-2.1l-2.2,10.8
	c5.2,2,10.7,3,16.2,2.9c6.4,0,11.3-1.2,14.8-3.6S423,81.6,423,77c0-1.7-0.2-3.5-0.7-5.2c-0.5-1.5-1.3-2.9-2.3-4.1
	c-1.3-1.4-2.8-2.5-4.5-3.4c-2.3-1.2-4.8-2.3-7.2-3.2c-1.4-0.5-2.6-1-3.5-1.5c-0.8-0.4-1.5-0.8-2.2-1.2c-0.5-0.3-0.8-0.7-1.1-1.2
	c-0.2-0.5-0.3-0.9-0.3-1.4c0-2.3,2.1-3.5,6.2-3.5c2.1,0,4.1,0.2,6.1,0.6c1.7,0.4,3.4,0.9,5,1.4l2.4-10.4c-2-0.7-4.1-1.3-6.2-1.6
	c-2.7-0.5-5.5-0.8-8.2-0.8c-5.7,0-10.2,1.3-13.5,3.8c-3.2,2.5-5.1,6.4-4.9,10.4c0,2,0.3,4,1,5.8c0.6,1.6,1.6,3,2.8,4.1
	c1.3,1.2,2.7,2.2,4.3,3c1.7,0.8,3.6,1.6,5.7,2.4c2.1,0.7,4.1,1.6,6,2.7c1.1,0.5,1.9,1.6,2,2.8c0.1,1.2-0.5,2.3-1.5,2.8
	c-1.7,0.6-3.4,0.8-5.2,0.7c-2.4,0-4.7-0.3-7.1-0.8L396,79.5L396,79.5z"/>
<path class="st0" d="M144,72.1c0-14.3-4.3-28.4-12.3-40.3c-7.8-11.6-18.8-20.6-31.7-26.1c-22.4-9.5-48.1-7-68.3,6.6
	c-11.6,7.9-20.6,18.9-26,31.8c-9.5,22.4-7,48.1,6.6,68.3c7.8,11.6,18.8,20.6,31.7,26c22.4,9.5,48.1,7,68.3-6.6
	c11.6-7.8,20.6-18.8,26-31.7C142.1,91.2,144,81.7,144,72.1z M140.1,72.1c0,37.6-30.4,68.1-68,68.1S4,109.8,4,72.2S34.4,4.1,72,4.1
	l0,0C109.5,4.1,140,34.6,140.1,72.1z M113.9,82.1c2-7.4,2-15.1,0-22.5c-0.1-1.1-1.1-1.9-2.2-1.8c-1.1,0.1-1.9,1.1-1.8,2.2
	c0,0.2,0.1,0.4,0.2,0.6c1.8,6.7,1.8,13.8,0,20.5c-0.3,1.1,0.3,2.1,1.4,2.4c0.2,0,0.3,0.1,0.5,0.1C112.9,83.5,113.6,82.9,113.9,82.1
	L113.9,82.1z M34,82.4c-0.9-3.4-1.4-6.8-1.4-10.3c0-4.6,0.6-9.1,1.9-13.5c0.5-1,0-2.2-1-2.7s-2.2,0-2.7,1c-0.1,0.2-0.1,0.4-0.2,0.6
	c-1.3,4.7-2,9.7-2,14.6c0,3.8,0.5,7.6,1.5,11.3c0.2,0.9,1,1.4,1.9,1.5c0.2,0,0.3,0,0.5-0.1C33.7,84.5,34.3,83.4,34,82.4L34,82.4z
	 M42.3,111.1V62.4C42.3,46,55.7,32.7,72,32.8c16.4,0,29.7,13.4,29.6,29.7c0,5.7-1.7,11.3-4.8,16.1l-0.1,0.2v0.1
	c-0.5,0.7-0.4,1.7,0.1,2.4l0.2,0.2l0.4,0.4l1.2,1.2c0.9,0.9,2.1,2.1,3.7,3.6c2.6,2.6,5.3,5.2,5.3,5.3c0.8,0.8,2,0.8,2.8,0
	s0.8-2,0-2.8c-2.9-2.9-7.2-7.1-9.3-9.2l0,0c-0.1-0.1-0.1-0.2-0.1-0.2v-0.2c9.4-16,4.1-36.6-11.9-46.1c-16-9.4-36.6-4.1-46.1,11.9
	c-3,5.1-4.6,10.8-4.6,16.7l0,0v0.3l0,0V108h-0.1c-0.2-0.5-0.6-1-0.9-1.4c-19-19.2-19-50.1,0.2-69.2s50.1-19,69.2,0.2
	c15.1,15.2,18.6,38.5,8.5,57.5c-0.7,0.9-0.5,2.1,0.4,2.8c0.9,0.7,2.1,0.5,2.8-0.4c0.1-0.2,0.2-0.3,0.3-0.5c2-3.8,3.5-7.7,4.6-11.9
	c1.1-4.3,1.6-8.6,1.6-13c0-29.2-23.7-52.9-52.9-52.9s-53,23.6-53,52.8c0,12.5,4.4,24.5,12.4,34.1c2.3,2.8,4.9,5.3,7.8,7.5l0,0
	c0.3,0.3,0.7,0.4,1.2,0.4c1,0,1.9-0.9,1.9-1.9l0,0L42.3,111.1C42.3,111.1,42.3,111.1,42.3,111.1z M134.4,72.1
	c0-20.8-10.3-40.2-27.5-51.8c-3.3-2.3-6.9-4.2-10.6-5.8C80.8,8,63.2,8,47.7,14.5C36.5,19.3,27,27.2,20.2,37.2
	C0.9,65.8,8.5,104.6,37.1,123.9c3.3,2.2,6.9,4.2,10.5,5.7c0.5,0.2,1.1,0.5,1.6,0.7c0.2,0.1,0.4,0.1,0.7,0.1c1,0,1.9-0.9,1.9-1.9l0,0
	V62.4c0-11.1,9-20.1,20.1-20.1S92,51.3,92,62.4c0,5.9-2.5,11.4-7,15.3c-0.3,0.3-1,0.8-1.2,1c-0.4,0.3-0.7,0.9-0.8,1.4
	c0,0.6,0.2,1.1,0.6,1.5l24.4,24.6c0.6,0.9,1.9,1.1,2.8,0.4c0.9-0.6,1.1-1.9,0.4-2.8c-0.1-0.2-0.3-0.3-0.4-0.4L88.7,81
	c-0.3-0.4-0.3-0.9,0-1.3l0,0c9.5-9.3,9.8-24.5,0.5-34.1s-24.5-9.8-34.1-0.5c-4.7,4.5-7.3,10.8-7.3,17.3v63l0,0v0.5h-0.1
	c0,0,0-0.5-1-1C17.6,111,5.2,76.1,19.1,47S68,5.5,97.1,19.4s41.5,48.8,27.6,78c-3.3,6.9-7.9,13-13.5,18.2c-0.2,0.2-0.4,0.2-0.6,0.2
	c-0.3,0-0.5-0.1-0.7-0.3c-7.8-6.8-15.1-14.2-21.9-22c-1.4-1.6-2.8-3.1-4.1-4.5c-3.3-3.5-6.3-7.3-9-11.3c-0.5-0.7-1-1.4-1.2-1.8l0,0
	c-1.7-2.7-3-5.6-3.9-8.6c0-0.1-0.1-0.4-0.1-0.4h0.1l0.1,0.2c0.2,0.3,0.5,0.5,0.8,0.6c0.4,0.1,0.9,0.2,1.3,0.2c2.8,0,5.2-2.3,5.2-5.1
	l0,0c0,0,0.3-4.9-4.8-5.2h-0.5c-1,0-2,0.2-2.9,0.7c-2.1,1.4-3.3,3.8-3.2,6.3v0.2c0,1.1,0.1,2.2,0.4,3.3c0.6,2.7,1.5,5.3,2.9,7.7
	c3.3,5.9,7.3,11.3,12,16.1c1.2,1.3,2.6,2.8,4,4.4c6.2,6.8,13.9,15.4,23.9,23.6l0.3,0.2c0.4,0.4,0.9,0.6,1.4,0.6s0.9-0.2,1.3-0.5h0.1
	c3.5-2.9,6.7-6.2,9.5-9.8C129.9,99.4,134.5,86,134.4,72.1L134.4,72.1L134.4,72.1z M69.5,63.2v-1c0-1,0.8-1.9,1.8-1.9h1.1
	c1,0,1.9,0.8,1.9,1.8v1.1c0,1-0.8,1.9-1.8,1.9h-1.1C70.4,65.1,69.6,64.3,69.5,63.2C69.5,63.2,69.5,63.2,69.5,63.2z M58.7,57
	c-0.7,1.8-1.2,3.7-1.2,5.6v68.7c0,0.9,0.6,1.6,1.5,1.9l0,0c14.9,3.2,30.5,0.8,43.8-6.7l0.1-0.1c0.1-0.1,0.2-0.2,0.4-0.3h0.1
	c0.8-0.7,0.9-2,0.1-2.8L69.9,85.7c-0.7-0.8-2-0.9-2.8-0.1l-0.2,0.2c-0.3,0.4-0.5,0.9-0.5,1.4V123c0,1.1,0.8,1.9,1.9,2
	c0.1,0,2,0.1,3.1,0.1c4.7,0,9.3-0.6,13.8-1.8c0.6-0.2,1.1-0.7,1.4-1.3c0.2-0.6,0.1-1.3-0.3-1.9l-7-9c-0.5-1-1.8-1.3-2.7-0.8
	c-1,0.5-1.3,1.8-0.8,2.7c0.1,0.2,0.2,0.3,0.4,0.5l5.1,6.5l0,0l0.2,0.2l0,0c-0.1-0.1-0.3,0-0.3,0c-3.1,0.6-6.3,0.9-9.5,0.9h-0.1
	c-0.5,0-1-0.4-1-0.9V93.1l0,0c0-0.1,0-0.2-0.1-0.2l0,0l-0.1-0.2l0,0l-0.1-0.2l0,0c0-0.1,0-0.1-0.1-0.2l0,0L70,92.1l0,0
	c0-0.1,0-0.1-0.1-0.2l-0.2-0.4l0.1,0.1l0,0l2.2,2.6l0,0l26.5,29.6c0.1,0.1,0.1,0.2,0.1,0.3c0,0.2-0.1,0.3-0.2,0.4
	c-11.3,5.7-24.1,7.6-36.6,5.4c-0.2-0.1-0.4-0.2-0.4-0.5v-67l0,0c0.2-5.9,5.1-10.6,11-10.4c5.9,0.2,10.6,5.1,10.4,11
	c-0.1,2.7-1.2,5.3-3.1,7.3c-0.3,0.3-0.5,0.5-0.8,0.7c-0.4,0.3-1.1,0.7-1.5,1l-0.2,0.1c-0.8,0.7-0.9,1.8-0.3,2.6
	c0.4,0.4,0.9,0.7,1.4,0.7c0.4,0,0.7-0.1,1-0.3l0.2-0.1c0.6-0.4,1.3-1,1.8-1.4c0.9-0.8,1.7-1.6,2.4-2.5c2-2.4,3-5.4,3-8.5
	c0-2-0.4-3.9-1.2-5.7c-0.8-1.8-1.9-3.4-3.2-4.7c-1.3-1.3-2.9-2.4-4.6-3.1C76,48.4,74.1,48,72.3,48c-2,0-4,0.4-5.8,1.2
	s-3.3,1.9-4.7,3.2C60.5,53.6,59.4,55.2,58.7,57L58.7,57L58.7,57z"/>
<path class="st0" d="M178.3,113.5H174l-0.7,2.6h-3l4.2-12.6h3.3l4.2,12.6h-3L178.3,113.5z M176.2,105.7c0,0.1,0,0.2-0.1,0.3
	c0,0.1-0.1,0.2-0.1,0.4l-1.4,5.1h3.1l-1.3-5c0-0.1-0.1-0.3-0.1-0.4S176.3,105.8,176.2,105.7L176.2,105.7L176.2,105.7z M191.5,114.5
	c0,0.8-0.1,1.4-0.3,2c-0.2,0.5-0.5,1-0.9,1.3s-0.9,0.6-1.4,0.7c-0.5,0.2-1.1,0.2-1.8,0.2c-0.5,0-1-0.1-1.5-0.2s-1-0.2-1.4-0.4
	l0.2-1.9c0.8,0.3,1.5,0.5,2.2,0.5c0.8,0,1.3-0.2,1.8-0.5c0.4-0.3,0.7-0.9,0.7-1.8l0,0c-0.3,0.3-0.6,0.6-1,0.7
	c-0.4,0.2-0.8,0.2-1.3,0.2c-0.4,0-0.8-0.1-1.2-0.2s-0.7-0.3-1-0.6s-0.5-0.6-0.7-1s-0.3-0.9-0.4-1.6c-0.1-0.9-0.1-1.8,0-2.5
	s0.4-1.4,0.8-2c0.4-0.6,0.9-1,1.6-1.3c0.6-0.3,1.4-0.5,2.3-0.5c0.5,0,1,0,1.4,0.1s0.9,0.1,1.4,0.1h0.7L191.5,114.5L191.5,114.5z
	 M187.3,113.4c0.5,0,0.9-0.2,1.2-0.6s0.5-1,0.4-1.7v-3.2h-0.8c-0.4,0-0.8,0.1-1.1,0.3s-0.6,0.5-0.8,0.8s-0.3,0.8-0.4,1.3
	c-0.1,0.5-0.1,1.1,0,1.7s0.2,1,0.5,1.2C186.6,113.2,187,113.4,187.3,113.4L187.3,113.4z M195.5,102.6c0.5,0,0.8,0.1,1,0.2
	c0.2,0.2,0.4,0.4,0.4,0.7c0.1,0.9-0.4,1.3-1.4,1.3c-0.5,0-0.8-0.1-1-0.2s-0.4-0.4-0.4-0.7c-0.1-0.4,0-0.7,0.3-1
	C194.6,102.7,195,102.6,195.5,102.6L195.5,102.6z M194.2,116.1V106l2.6-0.1v10.2H194.2z M199.5,116.1v-13l2.6-0.2v13.2H199.5z
	 M206.1,102.6c0.5,0,0.8,0.1,1,0.2c0.2,0.2,0.4,0.4,0.4,0.7c0.1,0.9-0.4,1.3-1.4,1.3c-0.5,0-0.8-0.1-1-0.2s-0.4-0.4-0.4-0.7
	c-0.1-0.4,0-0.7,0.3-1C205.2,102.7,205.6,102.6,206.1,102.6L206.1,102.6z M204.8,116.1V106l2.6-0.1v10.2H204.8z M209.3,106.1h1.3
	l0.3-2.5l2-0.2v2.7h2.4l-0.1,2H213v5c0,0.4,0.2,0.6,0.3,0.8c0.2,0.2,0.4,0.2,0.7,0.2c0.2,0,0.4,0,0.5-0.1c0.2-0.1,0.4-0.1,0.5-0.2
	l0.2,1.9c-0.2,0.2-0.5,0.3-0.9,0.4s-0.7,0.2-1.1,0.2c-1.7,0-2.6-0.9-2.9-2.6v-5.5h-1.2C209.1,108.2,209.3,106.1,209.3,106.1z
	 M225.6,105.9c-0.1,1.5-0.4,2.8-0.7,4.1s-0.8,2.5-1.3,3.6s-1.2,2.1-1.9,2.9c-0.8,0.8-1.6,1.5-2.5,2.1l-1.1-1.9
	c0.4-0.3,0.8-0.6,1.2-1c0.4-0.3,0.7-0.7,1-1.1l-3.4-8.5l2.8-0.2l1.9,5.6l0.1,0.3c0,0.1,0.1,0.2,0.1,0.3l0,0c0.3-0.9,0.6-1.8,0.8-2.9
	c0.2-1,0.4-2.1,0.5-3.3H225.6L225.6,105.9z M228,113.5c0.5,0,0.8,0.1,1,0.3s0.4,0.5,0.4,0.8c0.1,0.5,0,0.9-0.3,1.2
	c-0.2,0.3-0.6,0.5-1.2,0.5c-0.5,0-0.8-0.1-1-0.2c-0.2-0.2-0.4-0.4-0.4-0.8c-0.1-0.6,0-1,0.2-1.3C227,113.6,227.4,113.5,228,113.5z
	 M247.2,103.5l-4.1,12.6H240l-4.1-12.6h3.1l2.5,9.1c0,0.1,0.1,0.2,0.1,0.3s0.1,0.2,0.1,0.3l0,0c0-0.1,0-0.2,0.1-0.3
	c0-0.1,0.1-0.2,0.1-0.3l2.5-9.2L247.2,103.5L247.2,103.5L247.2,103.5z M252,105.7c1,0,1.7,0.2,2.3,0.7c0.6,0.4,0.9,1,1,1.7
	c0.1,0.5,0,1-0.1,1.5c-0.2,0.4-0.4,0.8-0.8,1.1c-0.4,0.3-0.9,0.6-1.6,0.8c-0.7,0.2-1.5,0.4-2.5,0.5c0.1,0.4,0.1,0.7,0.2,1
	c0.1,0.3,0.2,0.5,0.4,0.6s0.4,0.3,0.6,0.3c0.2,0.1,0.5,0.1,0.8,0.1c0.5,0,0.9-0.1,1.2-0.2c0.4-0.1,0.7-0.3,1-0.6l0.9,1.6
	c-0.4,0.4-0.8,0.7-1.4,0.9c-0.6,0.3-1.3,0.4-2.1,0.4c-0.5,0-1-0.1-1.5-0.2c-0.5-0.2-0.9-0.4-1.2-0.7c-0.4-0.3-0.7-0.7-0.9-1.2
	s-0.4-1.1-0.5-1.8c-0.1-0.4-0.1-0.9-0.1-1.4c0-1.7,0.4-3,1.1-3.9S250.5,105.7,252,105.7L252,105.7z M252,107.7c-0.6,0-1,0.2-1.3,0.6
	s-0.4,1.1-0.5,2c0.6-0.1,1-0.2,1.4-0.3c0.4-0.1,0.7-0.3,0.9-0.4c0.2-0.2,0.4-0.3,0.4-0.5c0.1-0.2,0.1-0.4,0.1-0.6s-0.1-0.4-0.3-0.5
	C252.5,107.8,252.3,107.7,252,107.7L252,107.7z M262.2,105.8c0.2,0,0.5,0,0.7,0.1s0.4,0.1,0.6,0.2l-0.4,2.5c-0.3-0.2-0.6-0.3-1-0.3
	c-0.3,0-0.6,0.1-0.9,0.2s-0.5,0.3-0.7,0.6c-0.2,0.3-0.4,0.6-0.5,1s-0.2,0.9-0.2,1.4v4.5h-2.6v-10.1l2-0.1l0.2,0.9
	c0,0.1,0,0.2,0.1,0.3c0,0.1,0,0.2,0.1,0.3l0,0C260.2,106.3,261.1,105.8,262.2,105.8L262.2,105.8z M268.7,105.7c0.5,0,1,0.1,1.4,0.2
	c0.5,0.1,0.9,0.3,1.3,0.5l-0.7,1.9c-0.3-0.1-0.6-0.2-1-0.3s-0.7-0.1-1.1-0.1s-0.7,0.1-0.9,0.3c-0.2,0.2-0.3,0.4-0.3,0.7
	c0,0.2,0.1,0.4,0.3,0.6s0.4,0.3,0.7,0.4s0.6,0.2,0.9,0.4c0.3,0.1,0.7,0.3,1,0.5s0.6,0.4,0.8,0.7c0.2,0.3,0.4,0.7,0.4,1.1v0.4
	c0,0.5-0.1,0.9-0.2,1.3s-0.3,0.7-0.6,1s-0.6,0.5-1.1,0.7c-0.4,0.2-1,0.2-1.6,0.2s-1.2-0.1-1.8-0.3s-1.1-0.4-1.5-0.7l0.5-1.9
	c0.4,0.3,0.8,0.5,1.2,0.6c0.4,0.1,0.9,0.2,1.3,0.2c0.5,0,0.8-0.1,1-0.3c0.2-0.2,0.3-0.5,0.3-0.8c0-0.2-0.2-0.4-0.4-0.6
	s-0.5-0.3-0.7-0.4c-0.3-0.1-0.6-0.3-0.9-0.4s-0.7-0.3-1-0.5s-0.6-0.4-0.8-0.7c-0.2-0.3-0.4-0.7-0.4-1.1c-0.1-0.5,0-1,0.1-1.4
	s0.4-0.8,0.7-1.1c0.3-0.3,0.7-0.5,1.2-0.7C267.5,105.8,268.1,105.7,268.7,105.7L268.7,105.7z M278.5,105.8h0.8c0.2,0,0.5,0,0.7,0.1
	c0.2,0,0.4,0.1,0.7,0.1h1.2v10.1h-2l-0.1-0.3c-0.1-0.2-0.1-0.4-0.1-0.7l0,0c-0.4,0.4-0.8,0.7-1.2,0.9c-0.5,0.2-1,0.3-1.5,0.3
	c-1,0-1.7-0.3-2.3-0.8c-0.6-0.5-0.9-1.4-1.1-2.6c-0.1-1-0.1-2,0-2.9c0.2-0.9,0.5-1.6,0.9-2.2s1-1.1,1.7-1.5
	C276.7,105.9,277.5,105.8,278.5,105.8z M277.4,114.2c0.5,0,1-0.2,1.3-0.6s0.5-1,0.5-1.8V108h-0.8c-0.8,0-1.4,0.3-1.8,0.8
	c-0.5,0.6-0.7,1.5-0.7,2.7c0,0.5,0,0.8,0.1,1.2c0.1,0.6,0.2,1,0.5,1.2C276.7,114.1,277,114.2,277.4,114.2z M283.6,106.1h1.3l0.3-2.5
	l2-0.2v2.7h2.4l-0.1,2h-2.3v5c0,0.4,0.2,0.6,0.3,0.8c0.2,0.2,0.4,0.2,0.7,0.2c0.2,0,0.4,0,0.5-0.1c0.2-0.1,0.4-0.1,0.5-0.2l0.2,1.9
	c-0.2,0.2-0.5,0.3-0.9,0.4s-0.7,0.2-1.1,0.2c-1.7,0-2.6-0.9-2.9-2.6v-5.5h-1.2L283.6,106.1L283.6,106.1z M293.1,102.6
	c0.5,0,0.8,0.1,1,0.2c0.2,0.2,0.4,0.4,0.4,0.7c0.1,0.9-0.4,1.3-1.4,1.3c-0.5,0-0.8-0.1-1-0.2s-0.4-0.4-0.4-0.7c-0.1-0.4,0-0.7,0.3-1
	C292.2,102.7,292.6,102.6,293.1,102.6z M291.9,116.1V106l2.6-0.1v10.2H291.9z M297.2,116.1v-13l2.6-0.2v13.2H297.2z M303.7,102.6
	c0.5,0,0.8,0.1,1,0.2c0.2,0.2,0.4,0.4,0.4,0.7c0.1,0.9-0.4,1.3-1.4,1.3c-0.5,0-0.8-0.1-1-0.2s-0.4-0.4-0.4-0.7c-0.1-0.4,0-0.7,0.3-1
	C302.8,102.7,303.2,102.6,303.7,102.6z M302.5,116.1V106l2.6-0.1v10.2H302.5z M307,106.1h1.3l0.3-2.5l2-0.2v2.7h2.4l-0.1,2h-2.3v5
	c0,0.4,0.2,0.6,0.3,0.8c0.2,0.2,0.4,0.2,0.7,0.2c0.2,0,0.4,0,0.5-0.1c0.2-0.1,0.4-0.1,0.5-0.2l0.2,1.9c-0.2,0.2-0.5,0.3-0.9,0.4
	s-0.7,0.2-1.1,0.2c-1.7,0-2.6-0.9-2.9-2.6v-5.5h-1.2L307,106.1L307,106.1z M323.2,105.9c-0.1,1.5-0.4,2.8-0.7,4.1s-0.8,2.5-1.3,3.6
	s-1.2,2.1-1.9,2.9c-0.8,0.8-1.6,1.5-2.5,2.1l-1.1-1.9c0.4-0.3,0.8-0.6,1.2-1c0.4-0.3,0.7-0.7,1-1.1l-3.4-8.5l2.8-0.2l1.9,5.6
	l0.1,0.3c0,0.1,0.1,0.2,0.1,0.3l0,0c0.3-0.9,0.6-1.8,0.8-2.9c0.2-1,0.4-2.1,0.5-3.3H323.2z M325.6,113.5c0.5,0,0.8,0.1,1,0.3
	s0.4,0.5,0.4,0.8c0.1,0.5,0,0.9-0.3,1.2c-0.2,0.3-0.6,0.5-1.2,0.5c-0.5,0-0.8-0.1-1-0.2c-0.2-0.2-0.4-0.4-0.4-0.8
	c-0.1-0.6,0-1,0.2-1.3C324.6,113.6,325,113.5,325.6,113.5z M339,103.5c1.4,0,2.4,0.2,3.2,0.7c0.7,0.5,1.2,1.3,1.3,2.3
	c0.2,1.1,0,2-0.3,2.8c-0.4,0.7-0.9,1.2-1.6,1.4l2.8,5.3h-3.3l-2.1-4.8h-1.6v4.8h-2.8v-12.6L339,103.5C339,103.4,339,103.5,339,103.5
	z M337.3,109.3h1.6c0.3,0,0.6,0,0.8-0.1c0.2-0.1,0.4-0.2,0.6-0.4c0.1-0.2,0.2-0.4,0.3-0.7v-1.2c0-0.5-0.2-0.8-0.5-1
	s-0.6-0.3-1.1-0.3h-1.7L337.3,109.3L337.3,109.3z M349.7,105.7c1,0,1.7,0.2,2.3,0.7c0.6,0.4,0.9,1,1,1.7c0.1,0.5,0,1-0.1,1.5
	s-0.4,0.8-0.8,1.1c-0.4,0.3-0.9,0.6-1.6,0.8c-0.7,0.2-1.5,0.4-2.5,0.5c0.1,0.4,0.1,0.7,0.2,1s0.2,0.5,0.4,0.6s0.4,0.3,0.6,0.3
	c0.2,0.1,0.5,0.1,0.8,0.1c0.5,0,0.9-0.1,1.2-0.2s0.7-0.3,1-0.6l0.9,1.6c-0.4,0.4-0.8,0.7-1.4,0.9c-0.6,0.3-1.3,0.4-2.1,0.4
	c-0.5,0-1-0.1-1.5-0.2c-0.5-0.2-0.9-0.4-1.2-0.7c-0.4-0.3-0.7-0.7-0.9-1.2c-0.2-0.5-0.4-1.1-0.5-1.8c-0.1-0.4-0.1-0.9-0.1-1.4
	c0-1.7,0.4-3,1.1-3.9S348.2,105.7,349.7,105.7z M349.7,107.7c-0.6,0-1,0.2-1.3,0.6s-0.4,1.1-0.5,2c0.6-0.1,1-0.2,1.4-0.3
	c0.4-0.1,0.7-0.3,0.9-0.4c0.2-0.2,0.4-0.3,0.4-0.5c0.1-0.2,0.1-0.4,0.1-0.6s-0.1-0.4-0.3-0.5C350.2,107.8,350,107.7,349.7,107.7z
	 M355.1,116.1v-13l2.6-0.2v13.2H355.1z M361.6,102.6c0.5,0,0.8,0.1,1,0.2c0.2,0.2,0.4,0.4,0.4,0.7c0.1,0.9-0.4,1.3-1.4,1.3
	c-0.5,0-0.8-0.1-1-0.2s-0.4-0.4-0.4-0.7c-0.1-0.4,0-0.7,0.3-1C360.7,102.7,361.1,102.6,361.6,102.6z M360.4,116.1V106l2.6-0.1v10.2
	H360.4z M370.3,105.8h0.8c0.2,0,0.5,0,0.7,0.1c0.2,0,0.4,0.1,0.7,0.1h1.2v10.1h-2l-0.1-0.3c-0.1-0.2-0.1-0.4-0.1-0.7l0,0
	c-0.4,0.4-0.8,0.7-1.2,0.9c-0.5,0.2-1,0.3-1.5,0.3c-1,0-1.7-0.3-2.3-0.8c-0.6-0.5-0.9-1.4-1.1-2.6c-0.1-1-0.1-2,0-2.9
	c0.2-0.9,0.5-1.6,0.9-2.2s1-1.1,1.7-1.5C368.6,105.9,369.4,105.8,370.3,105.8z M369.3,114.2c0.5,0,1-0.2,1.3-0.6s0.5-1,0.5-1.8V108
	h-0.8c-0.8,0-1.4,0.3-1.8,0.8c-0.5,0.6-0.7,1.5-0.7,2.7c0,0.5,0,0.8,0.1,1.2c0.1,0.6,0.2,1,0.5,1.2
	C368.6,114.1,368.9,114.2,369.3,114.2z M381.3,105.8c0.9,0,1.7,0.3,2.2,0.8c0.6,0.5,0.9,1.4,1.1,2.7c0.2,1.2,0.2,2.2,0.1,3.1
	s-0.4,1.6-0.8,2.2s-0.9,1-1.5,1.3s-1.3,0.4-2.1,0.4s-1.5-0.1-2.2-0.3c-0.7-0.2-1.3-0.5-2-0.9V103l2.6-0.1v3.7l0,0
	c0.3-0.3,0.7-0.5,1.1-0.7C380.4,105.8,380.9,105.8,381.3,105.8L381.3,105.8z M380.6,107.9c-0.5,0-1,0.2-1.3,0.6s-0.5,1-0.5,1.7v3.5
	c0.2,0.1,0.4,0.2,0.7,0.3c0.2,0.1,0.5,0.1,0.8,0.1s0.6-0.1,0.8-0.2c0.2-0.1,0.4-0.3,0.6-0.5s0.3-0.6,0.3-1c0.1-0.4,0.1-0.9,0.1-1.5
	v-0.8c0-0.2,0-0.5-0.1-0.7c-0.1-0.6-0.2-1.1-0.5-1.3C381.3,108,381,107.9,380.6,107.9z M388.3,102.6c0.5,0,0.8,0.1,1,0.2
	c0.2,0.2,0.4,0.4,0.4,0.7c0.1,0.9-0.4,1.3-1.4,1.3c-0.5,0-0.8-0.1-1-0.2s-0.4-0.4-0.4-0.7c-0.1-0.4,0-0.7,0.3-1
	C387.4,102.7,387.8,102.6,388.3,102.6z M387,116.1V106l2.6-0.1v10.2H387z M392.3,116.1v-13l2.6-0.2v13.2H392.3z M398.9,102.6
	c0.5,0,0.8,0.1,1,0.2c0.2,0.2,0.4,0.4,0.4,0.7c0.1,0.9-0.4,1.3-1.4,1.3c-0.5,0-0.8-0.1-1-0.2s-0.4-0.4-0.4-0.7c-0.1-0.4,0-0.7,0.3-1
	C398,102.7,398.4,102.6,398.9,102.6z M397.6,116.1V106l2.6-0.1v10.2H397.6z M402.2,106.1h1.3l0.3-2.5l2-0.2v2.7h2.4l-0.1,2h-2.3v5
	c0,0.4,0.2,0.6,0.3,0.8c0.2,0.2,0.4,0.2,0.7,0.2c0.2,0,0.4,0,0.5-0.1c0.2-0.1,0.4-0.1,0.5-0.2l0.2,1.9c-0.2,0.2-0.5,0.3-0.9,0.4
	s-0.7,0.2-1.1,0.2c-1.7,0-2.6-0.9-2.9-2.6v-5.5h-1.2L402.2,106.1L402.2,106.1z M418.4,105.9c-0.1,1.5-0.4,2.8-0.7,4.1
	s-0.8,2.5-1.3,3.6s-1.2,2.1-1.9,2.9c-0.8,0.8-1.6,1.5-2.5,2.1l-1.1-1.9c0.4-0.3,0.8-0.6,1.2-1c0.4-0.3,0.7-0.7,1-1.1l-3.4-8.5
	l2.8-0.2l1.9,5.6l0.1,0.3c0,0.1,0.1,0.2,0.1,0.3l0,0c0.3-0.9,0.6-1.8,0.8-2.9c0.2-1,0.4-2.1,0.5-3.3H418.4z M420.8,113.5
	c0.5,0,0.8,0.1,1,0.3s0.4,0.5,0.4,0.8c0.1,0.5,0,0.9-0.3,1.2c-0.2,0.3-0.6,0.5-1.2,0.5c-0.5,0-0.8-0.1-1-0.2
	c-0.2-0.2-0.4-0.4-0.4-0.8c-0.1-0.6,0-1,0.2-1.3C419.8,113.6,420.2,113.5,420.8,113.5z"/>
</svg>
