<?xml version="1.0" encoding="utf-8"?>
<!-- Generator: Adobe Illustrator 27.5.0, SVG Export Plug-In . SVG Version: 6.00 Build 0)  -->
<svg version="1.1"
	 id="svg10353" xmlns:svg="http://www.w3.org/2000/svg" xmlns:sodipodi="http://sodipodi.sourceforge.net/DTD/sodipodi-0.dtd" xmlns:inkscape="http://www.inkscape.org/namespaces/inkscape" xmlns:cc="http://creativecommons.org/ns#" xmlns:dc="http://purl.org/dc/elements/1.1/" xmlns:rdf="http://www.w3.org/1999/02/22-rdf-syntax-ns#" inkscape:version="0.48.5 r10040" sodipodi:docname="New document 5"
	 xmlns="http://www.w3.org/2000/svg" xmlns:xlink="http://www.w3.org/1999/xlink" x="0px" y="0px" viewBox="0 0 200 109.8"
	 style="enable-background:new 0 0 200 109.8;" xml:space="preserve">
<style type="text/css">
	.st0{fill:#ED1A3D;}
	.st1{fill:#231F20;}
</style>
<sodipodi:namedview  bordercolor="#666666" borderopacity="1.0" fit-margin-bottom="0.5" fit-margin-left="0.5" fit-margin-right="0.5" fit-margin-top="0.5" id="base" inkscape:current-layer="layer1" inkscape:cx="130.28402" inkscape:cy="-40.159833" inkscape:document-units="px" inkscape:pageopacity="0.0" inkscape:pageshadow="2" inkscape:window-height="1033" inkscape:window-maximized="0" inkscape:window-width="1037" inkscape:window-x="877" inkscape:window-y="-17" inkscape:zoom="1.1429688" pagecolor="#ffffff" showgrid="false">
	</sodipodi:namedview>
<g id="layer1" transform="translate(-244.71598,-382.39245)" inkscape:groupmode="layer" inkscape:label="Layer 1">
	<path id="path7463" inkscape:connector-curvature="0" class="st0" d="M288.9,425.4c-3.6,0.4-6.8-2.2-7.2-5.7
		c-0.4-3.6,2.2-6.8,5.7-7.2c3.6-0.4,6.8,2.2,7.2,5.7C295,421.8,292.4,425,288.9,425.4"/>
	<path id="path7467" inkscape:connector-curvature="0" class="st0" d="M313.6,408.2c-4.3-1.4-6.7-6.1-5.3-10.4
		c1.4-4.3,6.1-6.7,10.4-5.3c4.3,1.4,6.7,6,5.3,10.4C322.5,407.2,317.9,409.6,313.6,408.2"/>
	<path id="path7471" inkscape:connector-curvature="0" class="st0" d="M342.2,400c-3.9-3.8-4-10.2-0.2-14.1c3.8-3.9,10.2-4,14.1-0.2
		c3.9,3.8,4,10.2,0.2,14.1C352.4,403.8,346.1,403.8,342.2,400"/>
	<path id="path7475" inkscape:connector-curvature="0" class="st0" d="M370.1,401.7c-2.3-6,0.7-12.8,6.7-15.1
		c6-2.3,12.8,0.7,15.1,6.7c2.3,6-0.7,12.8-6.7,15.1C379.2,410.7,372.4,407.7,370.1,401.7"/>
	<path id="path7479" inkscape:connector-curvature="0" class="st0" d="M397.6,413.3c0-7.8,6.3-14,14-14c7.8,0,14,6.3,14,14
		c0,7.7-6.3,14-14,14C403.9,427.4,397.6,421.1,397.6,413.3"/>
	<path id="path7483" inkscape:connector-curvature="0" class="st1" d="M354,438.4c-11.1,0-19.2,8.1-19.2,19.2
		c0,8.8,5,17.6,16.1,17.6c2.9,0,5.5-0.6,7.8-1.9v1.6c0,4.3-1,8.2-8,8.2c-1.6,0-3.2-0.3-4.6-0.6c-1.8-0.5-3.4-1.4-5-2.2l-0.2-0.1
		c-0.4-0.2-0.8-0.2-1.3,0c-0.3,0.1-0.5,0.3-0.7,0.6c-0.2,0.3-2.5,3.9-2.7,4.2l-0.2,0.6l0,0.2c0,0.5,0.2,0.9,0.6,1.3
		c0.7,0.7,1.6,1.2,2.5,1.7c0.3,0.1,0.5,0.3,0.8,0.4c2.7,1.3,6.7,2.6,11.9,2.6c5.6,0,10.1-1.6,13.2-4.7c3.9-3.9,3.9-7.8,3.9-12.7
		v-32.1l-0.3-0.1C363.9,439.7,358.7,438.4,354,438.4L354,438.4z M358.8,465.1c-0.5,0.4-2.9,1.6-5.6,1.6c-4,0-8-3-8-9.7
		c0-6,3.6-10.3,8.7-10.3c2.3,0,4.3,0.7,4.9,1V465.1"/>
	<path id="path7487" inkscape:connector-curvature="0" class="st1" d="M293.2,441l0-0.2c-0.1-0.8-0.8-1.4-1.6-1.4h-7
		c-0.9,0-1.7,0.7-1.7,1.7v32.4c0,0.9,0.7,1.7,1.7,1.7h7c0.8,0,1.5-0.6,1.6-1.4l0-0.2L293.2,441"/>
	<path id="path7491" inkscape:connector-curvature="0" class="st1" d="M444.2,430.4c-0.1-0.9-0.8-1.6-1.6-1.6h-7
		c-0.9,0-1.6,0.7-1.6,1.6v43.1c0.1,0.9,0.8,1.5,1.6,1.5h7c0.9,0,1.6-0.7,1.6-1.6V430.4"/>
	<path id="path7495" inkscape:connector-curvature="0" class="st1" d="M413.9,438.4c-9.9,0-17.2,8-17.2,19.1
		c0,11.3,7,18.7,17.8,18.7c6.1,0,10.7-2.2,12.4-3.2c0.3-0.2,1.3-1,0.5-2.6l-1.7-3.3c-0.5-0.9-1.1-1.1-1.6-1.1c-0.2,0-0.5,0-0.8,0.2
		l-0.2,0.1c-2.7,1.2-5.2,1.8-7.8,1.8c-2.7,0-5-0.9-6.6-2.5c-1.4-1.5-2-3.3-2-4.7H430c0,0,0-2.4,0-3.3
		C430,445.5,424,438.4,413.9,438.4L413.9,438.4z M406.8,453.1c0.8-4.3,3.6-6.9,7.3-6.9c5.5,0,6.2,5.2,6.3,6.9H406.8"/>
	<path id="path7499" inkscape:connector-curvature="0" class="st1" d="M394.2,468.1c-0.4-1.1-1.2-1.3-1.7-1.3l-0.7,0.1
		c-1,0.3-1.9,0.4-2.9,0.4c-3.8,0-4.1-2.7-4.1-5.6V448h9.1c0.9,0,1.7-0.7,1.7-1.7V441c0-0.9-0.7-1.6-1.5-1.6l-0.1,0h0l0,0l-9.1,0
		v-8.9c0-0.9-0.7-1.7-1.7-1.7h-7c-0.3,0-0.5,0.1-0.7,0.2c-0.7,0.3-0.9,0.9-0.9,1.4v30.9c0,4.9,0,8.4,3.1,11.5c2.8,2.8,7,3.2,9.3,3.2
		c3.5,0,6-0.8,7.6-1.6c0.4-0.2,1.6-1,0.9-2.8L394.2,468.1"/>
	<path id="path7503" inkscape:connector-curvature="0" class="st1" d="M260,443.2c-0.6-0.3-1.3-0.6-1.8-1.1c-0.4-0.3-0.7-0.6-1-1
		l-0.2-0.4l-0.1-0.3c-0.1-0.4-0.2-0.7-0.2-1.1c0-0.7,0.2-1.3,0.5-1.8c0.6-1.1,1.8-2,3.1-2.3c3.7-1.2,7.7-0.1,10.9,1.8l0.6,0.3
		c0.4,0.2,0.8,0.4,1.1,0.4c0.5,0,1-0.2,1.4-0.6l0,0c1.2-1.4,3.1-4.3,3.1-4.4c0.3-0.6,0.4-1.3,0-1.9l-0.3-0.4l-0.5-0.4
		c-5.1-3.5-11.6-4.7-17.6-3.7c-3.5,0.6-6.9,2.2-9.4,4.8c-3.9,4.2-4.7,11-1.7,15.9c2.1,3.4,5.8,5.6,9.4,7.2c2.7,1.3,5.6,2.1,8.1,3.7
		c1.3,0.8,2.2,2.3,2.2,4c0,1.8-1.1,3.4-2.6,4.2c-0.8,0.4-1.5,0.7-2.4,0.9c-0.9,0.2-1.8,0.2-2.6,0.2c-0.5,0-1-0.1-1.5-0.1
		c-2.9-0.3-5.4-1.6-8-2.9l-0.2-0.1c-0.4-0.2-0.9-0.2-1.3,0c-0.3,0.1-0.6,0.4-0.8,0.6c-0.2,0.3-2.7,4.2-2.9,4.5l-0.2,0.7l0,0.3
		c0,0.5,0.2,1,0.6,1.4c2.5,2.1,5.8,3.3,8.9,4.1c5.3,1.1,11,1,15.9-1.4c8.2-3.7,10.9-15.9,4.7-22.5
		C271.2,447.4,265.3,445.7,260,443.2"/>
	<path id="path7507" inkscape:connector-curvature="0" class="st1" d="M330.9,465.3v-10.1c0-4.4,0-9.4-3.9-13.3
		c-2.3-2.3-5.5-3.5-9.4-3.5c-4.2,0-6.8,2.1-8.1,3.3V441c0-0.2,0-0.3-0.1-0.4v0l0,0l0,0l0-0.1l0-0.1l-0.4-0.6l-0.1-0.1l0,0l0,0l0,0
		c-0.3-0.2-0.6-0.3-1-0.3h-7c-0.9,0-1.7,0.7-1.7,1.7v32.4c0,0.9,0.7,1.7,1.7,1.7h7c0.8,0,1.5-0.6,1.6-1.4l0-0.3l0-6.5h0v-17.6
		c0.9-0.6,3.5-2,6.1-2c1.5,0,2.8,0.4,3.5,1.2c1.2,1.2,1.4,3.4,1.4,7.9l0,0.7v16.4c0,0.9,0.7,1.7,1.7,1.7h7c0.8,0,1.5-0.6,1.6-1.4
		l0-0.3l0-6.5l0,0L330.9,465.3L330.9,465.3"/>
</g>
</svg>
