<svg xmlns="http://www.w3.org/2000/svg" width="135.196" height="24" viewBox="0 0 135.196 24">
  <g id="Group_2368" data-name="Group 2368" transform="translate(-59.161 -78.391)">
    <path id="Path_671" data-name="Path 671" d="M71.707,89.012,67.58,87.873c-2.277-.638-3.338-1.624-3.338-3.094,0-2.106,1.992-3.051,3.966-3.051a4.913,4.913,0,0,1,4.822,2.7l.145.3,3.3-1.323-.115-.322C75.286,80.107,72.336,78.4,68.27,78.4c-4.574,0-7.769,2.73-7.769,6.636,0,3.268,1.658,5.184,5.37,6.2l4.1,1.1c2.168.648,3.085,1.629,3.085,3.286,0,2.455-2.526,3.334-4.69,3.334a5.585,5.585,0,0,1-5.628-3.582l-.121-.339-3.454,1.317.1.32c1.053,3.575,4.413,5.71,8.982,5.71,5.038,0,8.557-2.884,8.557-7.011,0-3.346-1.71-5.484-5.088-6.366" transform="translate(0 0.003)" fill="red"/>
    <path id="Path_672" data-name="Path 672" d="M125.6,89.882a3.2,3.2,0,0,1,3.516-3.444c2.237,0,3.576,1.235,3.576,3.327v4.127a3.142,3.142,0,0,1-3.486,3.478c-2.224,0-3.606-1.3-3.606-3.387Zm3.516-6.737c-3.493,0-7.244,2.169-7.244,6.929v3.947c0,4.03,2.882,6.64,7.334,6.64,3.49,0,7.244-2.176,7.244-6.968V90.007c0-4.1-2.948-6.862-7.334-6.862" transform="translate(22.79 1.728)" fill="red"/>
    <path id="Path_673" data-name="Path 673" d="M92.26,83.145A7.53,7.53,0,0,0,86.941,85.2a7.532,7.532,0,0,0-5.325-2.057,10.818,10.818,0,0,0-7.334,3.032v14.275l3.629,0,.025-12.771a5.968,5.968,0,0,1,3.68-1.248,3.193,3.193,0,0,1,3.512,3.436l-.005,10.579h3.629V90l0-.12a3.2,3.2,0,0,1,3.512-3.444c2.24,0,3.58,1.235,3.58,3.327v10.682H99.6V90.007c0-4.1-2.944-6.862-7.338-6.862" transform="translate(5.495 1.728)" fill="red"/>
    <path id="Path_674" data-name="Path 674" d="M115.115,83.145a10.733,10.733,0,0,0-7.332,3.032v14.275l3.659,0,0-12.771a6.042,6.042,0,0,1,3.749-1.248h.082V83.221l-.078-.076Z" transform="translate(17.669 1.728)" fill="red"/>
    <path id="Path_675" data-name="Path 675" d="M143.817,83.31a2.866,2.866,0,0,0-.375-.06l-.333-.05q-.266-.025-.54-.033l-.4-.022a10.817,10.817,0,0,0-7.332,3.032V100.47h3.644l.015-12.785a5.84,5.84,0,0,1,3.623-1.248c2.21.015,3.531,1.257,3.531,3.323v10.71h3.76V90.007a6.516,6.516,0,0,0-5.6-6.7" transform="translate(27.502 1.728)" fill="red"/>
    <path id="Path_676" data-name="Path 676" d="M105.61,96.13a5.214,5.214,0,0,1-1.441.819,6.125,6.125,0,0,1-2.181.4,4.175,4.175,0,0,1-3.109-1.168,2.041,2.041,0,0,1-.495-1.636c.057-.413.495-1,2.265-1.384,1.126-.256,2.341-.489,3.456-.691.524-.1,1.077-.22,1.515-.305Zm-3.665-13a7.186,7.186,0,0,0-6.2,3.141l-.09.135,3.074,1.7.1-.034L98.873,88a3.252,3.252,0,0,1,3.072-1.582c1.9,0,3.17.9,3.49,2.479-1.342.277-3.41.7-5.417,1.1-2.307.447-3.872,1.363-4.651,2.716a4.491,4.491,0,0,0-.339,3.5l.031.112a6.237,6.237,0,0,0,4.15,3.891,8.24,8.24,0,0,0,2.727.461,10.775,10.775,0,0,0,7.334-3.028l.005-7.649c0-4.108-2.938-6.867-7.331-6.867" transform="translate(12.959 1.721)" fill="red"/>
    <path id="Path_677" data-name="Path 677" d="M152.9,91.324c-.532.1-1.023.192-1.46.28l0-.286V89.888a3.116,3.116,0,0,1,2.693-3.379,7.1,7.1,0,0,1,.883-.065,4.155,4.155,0,0,1,3.1,1.171,2.028,2.028,0,0,1,.5,1.628c-.057.421-.5,1-2.274,1.392-1.119.255-2.334.483-3.445.689m8.737-.239a4.562,4.562,0,0,0,.339-3.493l-.038-.112a6.191,6.191,0,0,0-4.15-3.891,8.137,8.137,0,0,0-2.725-.464h-.093c-3.486,0-7.261,2.2-7.261,6.955v3.737h0c0,4.108,2.965,6.852,7.35,6.852a7.194,7.194,0,0,0,6.2-3.144l.089-.132-3.077-1.7-.1.029-.046.065a3.222,3.222,0,0,1-3.065,1.586c-1.9,0-3.171-.9-3.492-2.472,1.346-.282,3.413-.7,5.415-1.1,2.31-.451,3.876-1.366,4.656-2.719" transform="translate(32.178 1.721)" fill="red"/>
    <path id="Path_678" data-name="Path 678" d="M127.2,78.391H112.185v3.515h5.623v20.269l3.76.01V81.906H127.2Z" transform="translate(19.269)" fill="red"/>
  </g>
</svg>
