<?xml version="1.0" encoding="utf-8"?>
<!-- Generator: Adobe Illustrator 27.5.0, SVG Export Plug-In . SVG Version: 6.00 Build 0)  -->
<svg version="1.1"
	 id="svg3296" xmlns:cc="http://creativecommons.org/ns#" xmlns:rdf="http://www.w3.org/1999/02/22-rdf-syntax-ns#" xmlns:svg="http://www.w3.org/2000/svg" xmlns:dc="http://purl.org/dc/elements/1.1/"
	 xmlns="http://www.w3.org/2000/svg" xmlns:xlink="http://www.w3.org/1999/xlink" x="0px" y="0px" viewBox="0 0 1048.4 153.5"
	 style="enable-background:new 0 0 1048.4 153.5;" xml:space="preserve">
<style type="text/css">
	.st0{fill:#BBBCBE;}
	.st1{fill:#212121;}
</style>
<path id="path3081" class="st0" d="M0,0v51.3h208.3V0H0z M0,102.2v51.3h208.3v-51.3H0z"/>
<path id="path3087" class="st1" d="M321.9,0c-16.2,0-27.4,4-34.9,9.8c-8.8,6.7-12.5,15.7-12.5,24.7c0,7.7,2.5,14.6,6.3,20
	c6,8.5,23.3,17.8,36,24.3c12.1,6,23.5,10.9,30.2,18.8c4.4,5.2,6.7,10.5,6.7,18.8c0,9.4-4.1,16.5-10.6,21.5c-6.5,5-15.5,7.8-25.1,7.8
	c-22.1,0-33.7-6.5-40.3-32.1l-7.4,2c2.7,9.1,5.2,18,7,30.9c12,4.4,26.7,7,38.8,7c18.5,0,32.4-5.4,41.1-13.3
	c7.9-7.1,11.7-16.6,11.7-27.4c0-10.2-4.6-19.7-9-24.7c-9-10.2-21-15.2-37.2-23.5c-13.1-6.7-21.2-11.2-26.6-16.4
	c-3.9-3.7-7-10.6-7-16.4c0-6.5,2.4-11.9,7.4-16.1c5.8-5,14.3-7.8,24.7-7.8c24.6,0,28.9,7.6,33.3,29l7.4-2c-1.9-9.4-3.9-20.4-5.1-29
	C346.1,1.7,335.2,0,321.9,0z M619.5,2.7V9c15.6,0,16.8,1.1,16.8,16.1v103.8c0,14.8-1.3,15.7-16.8,15.7v5.9h67.7
	c21.6,0,33.8-5,41.9-12.9c8.3-7.9,11.7-18.2,11.7-28.6c0-11.5-5.8-19.6-13.3-25.5c-8.9-6.9-20.9-10.5-34.5-11v-0.4
	c13.1-1.9,22-6.1,28.2-11.7c7.7-6.9,10.2-16,10.2-23.9c0-10.6-5.4-18.9-13.3-24.3c-11.2-7.5-23.5-9.4-42.7-9.4L619.5,2.7L619.5,2.7z
	 M533,6.3c-9.2,0-16.2,3.4-21.1,8.2c-6.9,7.1-10.2,16.7-10.2,29.4v12.9h-15.3v6.7h15.3v67.7c0,12.7-1.1,14.1-15.7,14.1v5.1h46.6
	v-5.1c-15.6,0-16.4-1.2-16.4-13.7V63.4h26.2v-6.7h-26.2V44.6c0-14.8,2.5-22.4,6.7-27.4c2.9-3.1,6-4.7,10.2-4.7c6.5,0,9.1,4.4,11.4,9
	c2.3,4.6,4.4,9,9.4,9c3.8,0,5.9-2.1,5.9-6.3c0-3.7-3-9-9-12.9C546.4,8.6,541.5,6.3,533,6.3z M977.1,6.3c-7.7,4.8-14.9,7.1-25.1,8.6
	v4.3c11.2,0,12.5,1.6,12.5,13.7v98.7c0,12.1-0.5,13.7-12.5,13.7v5.1h38.8v-5.1c-11.5,0-11.7-1.6-11.7-13.7v-21.9l11.4-11.7
	l34.1,52.5h23.9v-5.1c-6.2,0.2-11.1-0.5-15.7-7.8L1001,89.3l21.9-21.1c4.8-4.6,8.1-6.1,14.1-6.3v-5.1h-30.9v5.1
	c10,0,8.7,3.4,3.1,8.6l-29.8,29H979v-92L977.1,6.3L977.1,6.3z M657.9,11h20c14.6,0,23.9,3,29.8,7.8c4.6,3.7,7.8,12.1,7.8,19.2
	c0,10-3.4,17.3-9.4,22.3c-7.5,6.3-19.3,9-33.7,9h-20.8V18C651.7,12.4,652.5,11,657.9,11z M576.1,30.5c-2.7,21.8-11.5,26.9-24.7,28.2
	v4.7h15.7v68.1c0,16.2,9.8,21.1,20.4,21.1c8.5,0,15-2.7,20.4-7.4l-3.1-4.7c-4.2,3.1-8.1,5.1-12.9,5.1c-7.3,0-10.2-5.1-10.2-14.9
	V63.4h21.9v-6.7h-21.9V30.5C581.6,30.5,576.1,30.5,576.1,30.5z M429.6,54.4c-13.3,0-23.2,3.8-31.3,11.4
	c-8.3,8.1-12.5,21.2-12.5,37.6c0,19,4.8,31.5,12.9,39.2c8.3,7.3,18.5,10.2,30.9,10.2c13.1,0,23-3.1,31.3-10.6
	c7.9-7.7,12.9-20,12.9-38.8c0-16.4-4.8-29.1-12.9-37.2C452.8,58.5,443.5,54.4,429.6,54.4z M792.6,54.4c-11,0-18.1,2.7-23.5,5.9
	c-6.7,3.9-11,9.5-11,14.5c0,3.1,1.9,6.3,5.9,6.3c4.4,0,6.4-2.2,7.4-5.1c1.9-4.6,3.6-8.1,6.3-10.2c3.7-2.9,7.8-4.7,14.1-4.7
	c6.9,0,11.8,2.1,14.9,6.3c2.7,3.5,3.5,9.7,3.5,14.5v9l-12.1,2.7c-13.3,2.9-23.8,7.3-30.9,12.1c-9.1,6-12.9,13.5-12.9,23.1
	c0,7.9,3.2,13.7,8.2,17.6c5.4,4.4,12.5,6.3,19.2,6.3c13.7,0,21.9-4.7,29-11.4h0.8c1.9,6.8,6.5,10.6,13.7,10.6c5.4,0,9-1.1,12.5-2.7
	l-1.2-5.1c-1.7,1-3.4,1.6-5.5,1.6c-4.2,0-6.3-3.9-6.3-13.3v-49c0-9.1-1.7-14.7-7-20.8C812.5,56.8,805.1,54.4,792.6,54.4L792.6,54.4z
	 M869.4,54.4c-6.9,5-14,7.2-23.1,8.6v4.7c11-0.2,12.1,1.3,12.1,13.3v50.5c0,12.5-0.9,13.7-12.1,13.7v5.1h36.4v-5.1
	c-9.8,0-10.2-1.2-10.2-13.7V81.5c8.3-11.5,17.9-19.6,26.6-19.6c5.6,0,9.4,1.6,12.1,4.3c3.9,4.2,4.7,10.7,4.7,18.8v46.6
	c0,12.5-0.6,13.7-10.6,13.7v5.1h35.2v-5.1c-9.4,0-10.2-1.7-10.2-13.3V84.2c0-11-2.6-18.5-7.4-23.1c-4.6-4.4-11-6.7-20-6.7
	c-11.5,0-22.2,6.6-30.5,17.2h-0.4l-0.8-16.1L869.4,54.4L869.4,54.4z M429.2,61.1c8.8,0,16,2.8,20.8,8.6c5.6,7.3,8.6,17.6,8.6,33.7
	c0,16.9-3.8,27.4-9,34.1c-4.8,5.4-11.2,9-20,9c-8.7,0-15.6-3.6-20.4-9c-5.2-6.7-8.6-17.2-8.6-34.1c0-16,3-26.4,8.6-33.7
	C414.2,63.9,420.9,61.1,429.2,61.1z M651.7,77.1h25.8c17,0,28.7,3,36,8.6c7.5,5.6,11.4,13.5,11.4,22.7c0,10.8-3.2,18.7-8.2,23.9
	c-7.1,7.3-16.5,10.2-31.3,10.2h-25.8c-6.5,0-7.8-1.5-7.8-10.2C651.7,132.4,651.7,77.1,651.7,77.1z M810.3,97.1v36.8
	c-5.2,5.2-12.1,11-22.3,11c-6.2,0-11-2.1-14.1-5.1c-3.1-3.1-4.3-7.5-4.3-12.9c0-9.6,5.6-15.2,13.7-19.6
	C790.9,102.5,801.3,99.6,810.3,97.1L810.3,97.1z"/>
</svg>
