<?xml version="1.0" encoding="utf-8"?>
<!-- Generator: Adobe Illustrator 27.5.0, SVG Export Plug-In . SVG Version: 6.00 Build 0)  -->
<svg version="1.1" id="Layer_1" xmlns="http://www.w3.org/2000/svg" xmlns:xlink="http://www.w3.org/1999/xlink" x="0px" y="0px"
	 viewBox="0 0 175.8 61.9" style="enable-background:new 0 0 175.8 61.9;" xml:space="preserve">
<style type="text/css">
	.st0{fill-rule:evenodd;clip-rule:evenodd;fill:#0C0E0F;}
</style>
<g>
	<path class="st0" d="M48.5,46.5l0.1-3.1c2.1,1.7,4.6,2.6,7.8,2.5c1.3,0,1.9-0.1,2.9-0.3c1-0.3,1.7-0.7,2.1-1.1c0.6-0.6,0.8-1,1-1.5
		c0-0.7-0.3-1.1-0.8-1.7c-0.6-0.6-1.8-1.3-3.5-2L54.5,38c-3.1-1.4-4.6-3.1-4.5-5c0.1-1.4,1-2.6,2.5-3.6c1.5-1,3.9-1.4,7-1.4
		c2.1,0,5,0.4,6.8,0.8l-0.1,2.4c-1.3-0.7-4-1.4-6-1.4c-1.5,0-2.8,0-3.8,0.6c-1.1,0.6-1.5,1.3-1.7,2c0,0.8,0.3,1.4,1,1.9
		c0.7,0.4,7.2,3.2,7.2,3.2c2.8,1.1,4.5,3.2,4.2,5.2c-0.3,1.5-1.4,2.9-3.1,3.8c-1.8,0.8-4.5,1.4-7.4,1.5c-1.7,0-3.3-0.1-4.3-0.3
		C50.7,47.2,49.8,46.9,48.5,46.5z M100.7,47.4l1.1-13.5h3.9l-0.3,2.9c1.1-1.5,2.5-2.5,4.6-3.2c1-0.4,2.8-0.6,2.8-0.6l-0.4,2.6
		c0,0-1.1,0.3-1.8,0.4c-2.4,0.7-4,2.1-5.3,3.3l-0.7,7.9L100.7,47.4C100.7,47.4,100.7,47.4,100.7,47.4z M154.5,33.9l-1.3,13.5h-4
		l0.3-2.9c-1.1,1.1-2.5,1.9-3.8,2.5c-1.4,0.6-3.5,0.8-4.7,0.8s-2.2-0.3-3.2-0.7c-1-0.4-1.7-1-1.9-1.7c-0.3-0.7-0.4-2.1-0.1-4
		l0.6-7.5h4l-0.7,7.8c-0.1,1.3-0.1,2.1,0,2.5c0.3,0.4,0.6,0.8,1,1.1c0.6,0.3,1,0.4,1.7,0.4c1.1,0,2.4-0.4,3.9-1.1
		c1.4-0.8,2.6-1.7,3.6-2.9l0.7-7.8L154.5,33.9L154.5,33.9z M161.2,36.9c1.3-1.3,2.6-2.2,4.2-2.8c1.4-0.6,2.8-0.8,4-0.8
		c1.8,0,3.3,0.4,4.6,1.5c1.3,1,2,2.5,1.7,4.5c-0.1,1.7-0.7,3.1-1.7,4.3c-1.1,1.3-2.4,2.4-4,3.1c-1.5,0.7-3.5,1.1-5.9,1.1
		c-0.6,0-0.6-0.1-1.9-0.1c-0.1-0.1-1.8-0.3-2.9-0.3h-2.9l1.7-18.8h4C162,28.6,161.2,36.9,161.2,36.9z M161.1,39.6l-0.6,5.7
		c1.3,0.3,2.4,0.4,3.3,0.4c2.1,0,3.8-0.6,5.3-1.7c1.5-1,2.4-2.5,2.5-4.3c0.1-1.4-0.1-2.4-0.8-3.1c-0.7-0.7-1.5-1-2.5-1
		c-1.1,0-2.2,0.3-3.6,1C163.3,37.4,162.1,38.4,161.1,39.6L161.1,39.6z M113.7,47.4l1.7-18.8h4.2l-0.7,8.1h9.9l0.7-8.1h4.2L132,47.4
		h-4.2l0.8-8.9h-9.9l-0.8,8.9C117.9,47.4,113.7,47.4,113.7,47.4z M93.5,44.3c-1.1,1.1-2.5,2.2-4,2.8c-1.4,0.6-2.8,0.8-4,0.8
		c-1.8,0-3.2-0.4-4.6-1.4c-1.3-1.1-1.8-2.5-1.7-4.6c0.1-1.7,0.8-3.1,1.8-4.3s2.4-2.2,3.9-2.9c1.5-0.7,3.6-1.1,5.8-1.1
		c0.7,0,1.7,0.1,2.9,0.1c0.1,0,0.4,0.1,0.8,0.1h4l-1.1,13.5h-4l0.3-2.9L93.5,44.3z M93.8,41.7l0.6-5.8c-1.3-0.1-2.4-0.3-3.3-0.3
		c-2.1,0-3.9,0.6-5.3,1.5c-1.5,1.1-2.4,2.6-2.5,4.5c-0.1,1.4,0.1,2.4,0.8,3.1c0.7,0.7,1.5,1,2.5,1c1.1,0,2.2-0.3,3.6-1.1
		C91.4,43.7,92.7,42.8,93.8,41.7z"/>
	<path class="st0" d="M82.1,46.8c-1.7,0.4-2.8,0.7-3.5,0.8c-0.8,0-1.5,0.1-2.1,0.1c-1.5,0-3.3-0.3-4.5-0.6c-1.1-0.4-1.9-1-2.5-1.7
		c-0.6-0.7-0.7-1.8-0.6-3.3l1.1-13.7H74l-0.4,5.3h5.6L79,35.7h-5.6l-0.6,6.5c-0.1,1.1,0,1.9,0.4,2.4c0.3,0.4,0.8,0.7,1.4,1
		c0.7,0.1,1.4,0.3,2.2,0.3c1.7,0,3.5-0.3,5.3-1L82.1,46.8L82.1,46.8z M36,18.1c2.1,0,4.2,0,5.7,0.3c0.8,0.1,1.7,0.4,2.2,0.7
		c0.7,0.3,1.4,0.7,1.7,1.5c0.6,1.8-0.8,3.2-1.8,4c-1.3,1-2.9,1.9-4.6,2.8c-2.1,1-4.3,1.8-5.6,2.4c0.7,2,2.2,6.4,3.5,10.9
		c1,3.2,1.8,6.3,2.2,8.8c0.1,1.3,0.3,2.4,0.3,3.3c-0.1,0.7-0.3,2-1.4,2.5c-0.4,0.2-1,0.2-1.4,0c-0.4-0.1-0.8-0.3-1.1-0.6
		c-0.6-0.4-1.3-1.1-2-1.8c-1.4-1.5-3.1-3.8-4.5-5.9c-1-1.4-2-2.6-2.6-3.9l-0.8,12.1l-7.4,6.5l-1.3-16.3c-7.2,7-15.9,14.2-17,12.4
		C-1.9,55,15.9,29.7,15.9,29.7c-1.5,0.1-15.3-0.1-15-3.2c0.1-2.1,8.8-4.6,14.3-5.6L13.5,0l15.9,3.3l-1.1,15
		C30.5,18.3,33.9,18.1,36,18.1z M28.2,19.4c-0.3-1.4-2.6-11-4.6-10.3C21.1,9.8,19,20.3,19,20.3c-1,0-2.2,0.1-3.8,0.6l1.9,24.7
		c2.8-2.9,5.4-5.7,7.4-7.8c0,0,0.8,1.4,2.2,3.3C30,46.3,36,54.9,37.6,54.2c2.9-1.4-5.7-25.2-5.7-25.2s13.5-4.6,12.5-7.9
		c-1-2.8-16.2-1.4-16.2-1.4S28.2,19.4,28.2,19.4z"/>
</g>
</svg>
