<?xml version="1.0" encoding="utf-8"?>
<!-- Generator: Adobe Illustrator 26.0.1, SVG Export Plug-In . SVG Version: 6.00 Build 0)  -->
<svg version="1.1" id="layer" xmlns="http://www.w3.org/2000/svg" xmlns:xlink="http://www.w3.org/1999/xlink" x="0px" y="0px"
	 viewBox="0 0 599.9 231.2" style="enable-background:new 0 0 599.9 231.2;" xml:space="preserve">
<style type="text/css">
	.st0{fill:#9909E3;}
</style>
<path class="st0" d="M273.1,86.2c-3,0-6.1-2.2-9.1-6.7c-2-3.1-3-5.5-3-7.1c0-2.8,1.8-5.3,5.5-7.7c3.6-2.3,7.7-3.6,12-3.5h71.4
	c4.5,0,6.8,2.1,6.8,6.2c0,4.6-1.3,9.1-3.8,13c-2.6,3.9-5.3,5.9-8.4,5.9h-23.2v78c0,4.7-1.3,9-3.8,12.9c-2.6,3.9-5.4,5.9-8.4,5.9
	s-6.1-2.2-9.1-6.7c-2-3.1-3-5.5-3-7.1v-83L273.1,86.2L273.1,86.2z M383.9,112.1c-5.6,0-10.4,1.6-14.3,4.7c-4,3.2-6.4,7.4-7.3,12.7
	h41.2c-0.2-4.8-2.3-9.3-5.9-12.4C393.8,113.7,389.3,112.1,383.9,112.1L383.9,112.1z M362.3,146.9c1.3,5.4,4.1,9.7,8.4,13
	s9.5,4.9,15.5,4.9c5.1,0,11.2-1.7,18.3-5.2c3.3-1.6,6.3-2.4,9.1-2.4c3.7,0,5.6,1.7,5.6,5c0,3-0.7,5.9-2,8.6c-1.3,2.8-3,4.8-5.1,6
	c-4.1,2.5-8.5,4.4-13.2,5.6c-4.7,1.3-9.5,2-14.4,2c-8.4,0-16-2.2-22.9-6.6c-6.7-4.2-12.3-10-16.2-16.9c-3.8-6.7-5.8-14.3-5.8-22.1
	c0-8.7,2.1-16.7,6.3-23.7c4.2-7.1,9.7-12.5,16.4-16.4s14.4-5.8,22.2-5.8c7.8,0,14.8,1.8,21,5.4s11,8.4,14.4,14.4
	c3.4,6,5.1,12.8,5.1,19.7c0,3.5-1,7-2.9,9.9c-1.9,2.9-4,4.4-6.4,4.4L362.3,146.9L362.3,146.9z M457.3,183c-5.2,0-9.8-2-13.6-6.1
	c-3.8-3.8-5.8-9-5.8-14.4V70.9c0-2.5,1.8-4.9,5.3-7.2c3.4-2.2,7.4-3.4,11.4-3.4c4.3,0,6.5,2,6.5,5.9v89c0,1.5,0.3,2.7,1,3.7
	c0.6,1,1.8,1.8,3.4,2.5c1.9,0.8,2.8,2.4,2.8,4.8c0,4.3-1.2,8.1-3.5,11.6C462.4,181.2,459.9,183,457.3,183 M492.5,183
	c-2.7,0-5.6-2.2-8.7-6.6c-1.9-3-2.8-5.2-2.8-6.7v-64.4c0-2.5,1.8-4.9,5.3-7.2c3.4-2.2,7.4-3.4,11.4-3.4c4.3,0,6.5,1.9,6.5,5.9v64.3
	c0,3.1-0.6,6.1-1.8,9s-2.7,5.1-4.5,6.7C496.1,182.2,494.3,183,492.5,183 M492.5,83.6c-3,0-6.2-2.4-9.4-7.1c-2.2-3.3-3.3-5.9-3.3-7.8
	c0-2.9,2-5.6,5.9-8.1c3.8-2.5,8.2-3.8,12.7-3.8c4.9,0,7.3,2.2,7.3,6.6c0,3.4-0.7,6.8-2,9.9c-1.3,3.2-3,5.7-5.1,7.5
	C496.7,82.7,494.6,83.6,492.5,83.6 M562,161.6c5.2,0,10.3-1.5,14.7-4.3v-39.2c-4.3-2.4-9.1-3.6-14.5-3.6c-6.6,0-12.2,2.2-16.7,6.7
	c-4.5,4.4-6.7,10-6.7,16.6c0,6.7,2.2,12.3,6.7,16.9C550,159.3,555.5,161.6,562,161.6 M560.4,183c-8.4,0-16-2.1-22.8-6.2
	c-6.6-4-12.1-9.6-15.9-16.3c-3.8-6.7-5.7-14.3-5.7-22c0-8.5,2.2-16.3,6.5-23.3s9.9-12.5,16.8-16.3c6.8-3.8,14.4-5.8,22.2-5.8
	c6.8,0,13.3,1.8,19.7,5.5c4.1-2.7,8.1-4,12.2-4c4.3,0,6.5,2,6.5,5.9v64.4c0,3.1-0.6,6.1-1.8,9s-2.7,5.1-4.5,6.7s-3.6,2.4-5.3,2.4
	c-2.7,0-5.6-2.2-8.7-6.6c-1-1.5-1.8-3.1-2.4-4.8c-0.9,2.4-2.1,4.6-3.8,6.6c-1.6,1.8-3.2,3-5,3.6C565.9,182.6,563.2,183,560.4,183
	 M154.1,172c30.3-17.4,52-39.2,62-62.5c4.3-17.6,6.5-35.6,6.5-53.8c0-2.7-0.1-5.2-0.4-7.6c-1.8,28.1-38.6,63.5-87.2,86.6
	c-58.7,27.9-102.7,35.4-122.4,14.1c6.8,13.3,16,26.8,26.3,38.8C63.2,208.8,103,201.2,154.1,172"/>
<path class="st0" d="M128.2,114.8c55.4-26.4,93.9-63.9,87.2-88.8C204.3,7.2,182,0,158.1,0C87.1,0,0,46.3,0,105.3
	c0,7.6,1.7,16.1,4.7,25C20.8,151.4,70.3,142.3,128.2,114.8 M123.5,198.4C84.6,214,62.3,209,50,199.3l-0.2-0.1
	c19.1,18.8,40.8,32,59.9,32c33.4,0,79-40,100.7-102.1C198.1,151.5,172,179,123.5,198.4"/>
</svg>
