<?xml version="1.0" encoding="UTF-8" standalone="no"?>
<!-- Generator: Adobe Illustrator 15.1.0, SVG Export Plug-In  -->

<svg
   xmlns:dc="http://purl.org/dc/elements/1.1/"
   xmlns:cc="http://creativecommons.org/ns#"
   xmlns:rdf="http://www.w3.org/1999/02/22-rdf-syntax-ns#"
   xmlns:svg="http://www.w3.org/2000/svg"
   xmlns="http://www.w3.org/2000/svg"
   xmlns:sodipodi="http://sodipodi.sourceforge.net/DTD/sodipodi-0.dtd"
   xmlns:inkscape="http://www.inkscape.org/namespaces/inkscape"
   version="1.1"
   x="0px"
   y="0px"
   width="872.85498"
   height="1000"
   viewBox="-1.1 -0.8 872.85498 1000"
   enable-background="new -1.1 -0.8 127 144"
   xml:space="preserve"
   id="svg3146"
   sodipodi:docname="Telstra (2011) (Print).svg"
   inkscape:version="0.92.3 (2405546, 2018-03-11)"><metadata
   id="metadata3150"><rdf:RDF><cc:Work
       rdf:about=""><dc:format>image/svg+xml</dc:format><dc:type
         rdf:resource="http://purl.org/dc/dcmitype/StillImage" /><dc:title></dc:title></cc:Work></rdf:RDF></metadata><sodipodi:namedview
   pagecolor="#ffffff"
   bordercolor="#666666"
   borderopacity="1"
   objecttolerance="10"
   gridtolerance="10"
   guidetolerance="10"
   inkscape:pageopacity="0"
   inkscape:pageshadow="2"
   inkscape:window-width="1360"
   inkscape:window-height="706"
   id="namedview3148"
   showgrid="false"
   inkscape:zoom="0.40972222"
   inkscape:cx="273.29963"
   inkscape:cy="411.74442"
   inkscape:window-x="-8"
   inkscape:window-y="-8"
   inkscape:window-maximized="1"
   inkscape:current-layer="svg3146" />
<defs
   id="defs3140">
</defs>
<path
   d="m 710.14066,0.07454 c 24.48702,-1.39927 48.9741,-0.69964 73.46119,-0.69964 h 88.15343 c -8.3956,45.47599 -16.79113,91.65161 -25.18673,137.12759 -3.49809,16.79113 -13.99259,33.58226 -29.38445,41.97783 -11.19413,6.29667 -25.18672,7.69593 -37.78005,6.99631 H 626.88457 c -14.69224,83.95566 -28.68486,168.61096 -43.37709,252.56662 -11.89373,69.26342 -23.78745,137.82721 -34.98153,207.09064 -2.79852,13.29298 -3.49816,27.28559 -9.0952,39.87894 -5.59704,11.89371 -14.69224,23.08776 -26.58596,27.98519 -11.19409,4.89743 -23.78743,6.2967 -35.68116,5.59707 l -170.95429,0 c 27.98522,-139.22648 45.0208,-279.15258 73.00602,-418.37906 7.69594,-38.47967 15.39187,-76.25972 23.0878,-114.7394 H 177.02213 C 186.11733,140.00064 194.5129,94.52466 203.60809,49.04867 207.10625,34.35643 214.80218,21.06345 226.6959,11.96825 237.88999,4.27232 251.18297,0.07454 265.17558,0.77417 h 160.91503 152.51945 c 44.07672,-0.69963 87.45382,-0.69963 131.5306,-0.69963 z"
   id="path3142"
   inkscape:connector-curvature="0"
   style="fill-opacity:1;stroke-width:6.99630547"
   sodipodi:nodetypes="cscccccccccccccccccccc" />
<path
   d="m 138.54245,247.04411 c 12.59336,-0.69963 24.48707,-2.09888 37.08042,-1.39926 61.98449,2.45484 122.89229,19.44477 179.41786,44.35869 L 271.28417,751.6337 h 207.62795 c 67.885,0 88.78785,-34.73947 98.97543,-96.75976 L 611.09006,464.8124 c 67.67762,64.40172 127.96899,137.24256 170.41289,220.90006 16.0915,31.48336 29.38445,64.36598 37.78005,98.64786 6.29663,26.58599 9.7948,54.57117 6.99626,81.85679 -2.79846,25.88636 -11.19406,51.07301 -25.88628,72.76157 -6.99633,11.89376 -18.89003,20.28929 -29.38452,27.98525 -37.78005,26.58592 -85.35493,34.98157 -130.13128,31.48335 C 594.00193,994.94912 548.52595,980.95652 504.44923,964.86503 399.50465,925.68572 302.95563,863.41858 221.09886,787.15885 148.33728,720.69399 83.971273,643.035 40.594183,554.18192 21.004529,512.20409 4.2133957,468.12736 0.01561248,421.95175 -2.0832795,400.2632 -1.3836492,378.57465 3.5137652,357.58574 9.81044,332.39904 21.704159,307.91197 40.594183,290.42121 66.480513,264.53488 102.8613,250.54227 138.54245,247.04411 Z"
   id="path3144"
   inkscape:connector-curvature="0"
   style="fill-opacity:1;stroke-width:6.99630547"
   sodipodi:nodetypes="cccccccccccccccccccc" />
</svg>