<?xml version="1.0" encoding="UTF-8"?><svg id="a" xmlns="http://www.w3.org/2000/svg" viewBox="0 0 623.62 307.25"><path d="M283.91,152.88l-65.6-14.26c-5.98-1.38-10.48-6.61-10.74-12.94-.03-.18-.03-70.47,0-70.65,.26-6.33,4.76-11.57,10.74-12.95l65.6-14.26,7.04-27.81h-76.44c-26.81,0-48.56,21.67-48.67,48.45v83.77c.11,26.78,21.86,48.46,48.67,48.46h76.44l-7.04-27.81Z" style="fill:#373c41;"/><path d="M339.73,152.88l65.59-14.26c5.98-1.38,10.48-6.61,10.74-12.94,.03-.18,.03-70.47,0-70.65-.26-6.33-4.76-11.57-10.74-12.95l-65.59-14.26-7.04-27.81h76.44c26.81,0,48.56,21.67,48.66,48.45v83.77c-.1,26.78-21.85,48.46-48.66,48.46h-76.44l7.04-27.81Z" style="fill:#373c41;"/><rect x="283.91" y="86.86" width="55.83" height="6.96" style="fill:#373c41;"/><path d="M496.6,307.25h-8.3c-10.42,0-18.88-8.47-18.88-18.88v-24.4c0-10.41,8.46-18.87,18.88-18.87h8.3c10.42,0,18.89,8.46,18.89,18.87v24.4c0,10.41-8.47,18.88-18.89,18.88m-8.3-51.34c-4.44,0-8.06,3.61-8.06,8.05v24.4c0,4.44,3.61,8.05,8.06,8.05h8.3c4.45,0,8.06-3.61,8.06-8.05v-24.4c0-4.44-3.6-8.05-8.06-8.05h-8.3Z" style="fill:#373c41;"/><rect x="81.12" y="224.53" width="10.82" height="81.31" style="fill:#373c41;"/><rect x="104.62" y="246.49" width="10.83" height="59.35" style="fill:#373c41;"/><path d="M110.03,224.53c-4.02,0-7.26,3.26-7.26,7.26s3.25,7.27,7.26,7.27,7.26-3.25,7.26-7.27-3.25-7.26-7.26-7.26" style="fill:#373c41;"/><path d="M42.3,224.53h-13.19c-4.99,8.82-16.89,33.03-29.11,81.31H11.27c1.91-7.37,3.78-14.13,5.64-20.34H56.43c1.84,6.2,3.72,12.97,5.63,20.34h11.27c-12.22-48.28-24.12-72.49-29.12-81.31h-1.91Zm-21.99,50.05c6.13-18.93,11.63-31.5,15.32-38.97h2.09c3.7,7.44,9.17,19.98,15.32,38.97H20.31Z" style="fill:#373c41;"/><rect x="448.59" y="224.45" width="10.81" height="81.39" style="fill:#373c41;"/><rect x="128.13" y="224.53" width="10.82" height="81.31" style="fill:#373c41;"/><path d="M152.92,307.25c-5.22,0-13.02-.86-20.14-2.58l2.54-10.52c16.86,4.07,24.65,1.84,26.8,.14,2.16-1.71,2.33-4.57,2.32-7.88v-18.4h10.83v18.38c0,3.67,.02,11.29-6.45,16.39-3.78,2.99-9.04,4.48-15.9,4.48" style="fill:#373c41;"/><path d="M175.27,283.38h-10.83v-18.4c0-3.12-.14-5.63-2.02-7.11-1.69-1.33-7.52-3.94-25.45,.39l-2.54-10.52c16.8-4.06,28.15-3.52,34.69,1.63,6.16,4.86,6.15,12.14,6.15,15.63v18.37Z" style="fill:#373c41;"/><path d="M435.62,292.83c-7.61,3-22.33,5.24-34.82,2.15-6.9-1.71-7.41-7.08-7.43-8.06v-42.14c.02-.99,.53-6.35,7.43-8.06,12.67-3.12,27.6-.78,35.11,2.28l2.67-10.56c-6.81-2.53-15.72-3.99-24.54-3.99-5.51,0-10.97,.56-15.84,1.77-12.43,3.07-15.67,13.51-15.66,18.59v42.08c-.01,5.09,3.23,15.52,15.66,18.59,4.87,1.2,10.32,1.77,15.84,1.77,8.69,0,17.49-1.41,24.25-3.87l-2.67-10.56Z" style="fill:#373c41;"/><rect x="558.84" y="246.49" width="10.83" height="59.35" style="fill:#373c41;"/><path d="M546.82,307.25c-6.87,0-12.12-1.49-15.9-4.48-6.48-5.09-6.46-12.73-6.45-16.39v-39.98h10.83v39.99c0,3.3,.16,6.17,2.32,7.88,2.15,1.7,8.28,3.93,25.14-.14l2.54,10.51c-7.12,1.72-13.27,2.59-18.48,2.59" style="fill:#373c41;"/><rect x="612.81" y="224.53" width="10.81" height="81.31" style="fill:#373c41;"/><path d="M601,307.25c-6.86,0-12.12-1.49-15.9-4.47-6.48-5.1-6.45-12.74-6.45-16.39v-18.38h10.82v18.4c0,3.3,.16,6.17,2.33,7.88,2.15,1.7,8.29,3.93,25.14-.14l2.54,10.52c-7.12,1.72-13.27,2.58-18.48,2.58" style="fill:#373c41;"/><path d="M589.48,283.39h-10.82v-18.38c0-3.5-.03-10.76,6.14-15.63,6.54-5.16,17.9-5.69,34.69-1.63l-2.54,10.52c-17.93-4.32-23.77-1.71-25.45-.39-1.87,1.49-2.02,3.99-2.02,7.1v18.4Z" style="fill:#373c41;"/><path d="M223.28,248.96c-10.7-7.65-30.69-1.95-35.54-.4l2.65,10.52c6.29-2.15,21.04-5.28,26.59-1.31,1,.72,2.17,1.97,2.17,5.26v42.81h10.82v-42.81c0-7.68-3.64-11.88-6.69-14.07" style="fill:#373c41;"/><path d="M203.62,307.25c-10.99,0-18.38-5.16-20.29-14.14-1.13-5.34-.31-10.22,2.35-14.12,2.97-4.37,8.01-7.17,14.97-8.32,13.8-2.28,24.45,1.4,24.89,1.56l-3.58,10.21c-.09-.03-8.6-2.9-19.54-1.08-2.7,.44-6.24,1.45-7.81,3.75-1.2,1.76-1.04,4.12-.69,5.78,.32,1.53,1.17,5.54,9.7,5.54,5.87,0,15.08-1.11,18.06-2.13l3.48,10.23c-4.47,1.52-14.95,2.73-21.54,2.73" style="fill:#373c41;"/><path d="M337.79,248.96c-10.69-7.65-30.7-1.95-35.53-.4l2.65,10.52c6.29-2.15,21.04-5.28,26.58-1.31,1.01,.72,2.16,1.97,2.16,5.26v42.81h10.83v-42.81c0-7.68-3.65-11.88-6.69-14.07" style="fill:#373c41;"/><path d="M318.13,307.25c-10.99,0-18.39-5.16-20.29-14.14-1.13-5.34-.32-10.22,2.35-14.12,2.98-4.37,8.02-7.17,14.98-8.32,13.8-2.28,24.44,1.4,24.88,1.56l-3.58,10.21c-.09-.03-8.61-2.9-19.54-1.08-2.7,.44-6.25,1.45-7.8,3.75-1.21,1.76-1.05,4.12-.7,5.78,.32,1.53,1.17,5.54,9.7,5.54,5.87,0,15.09-1.11,18.06-2.13l3.49,10.23c-4.47,1.52-14.96,2.73-21.55,2.73" style="fill:#373c41;"/><rect x="242.66" y="224.53" width="10.82" height="81.31" style="fill:#373c41;"/><path d="M267.44,307.25c-5.21,0-13.02-.86-20.14-2.58l2.54-10.52c16.86,4.07,24.65,1.84,26.8,.14,2.17-1.71,2.33-4.57,2.33-7.88v-18.4h10.81v18.38c0,3.67,.02,11.29-6.45,16.39-3.78,2.99-9.04,4.48-15.9,4.48" style="fill:#373c41;"/><path d="M289.78,283.38h-10.82v-18.4c0-3.12-.14-5.63-2.02-7.11-1.69-1.33-7.53-3.94-25.45,.39l-2.54-10.52c16.8-4.06,28.15-3.52,34.69,1.63,6.16,4.86,6.15,12.14,6.14,15.63v18.37Z" style="fill:#373c41;"/></svg>