<svg id="Layer_1" data-name="Layer 1" xmlns="http://www.w3.org/2000/svg" viewBox="0 0 1898.9672 228.9948">
  <defs>
    <style>
      .cls-1 {
        fill: #fff;
        fill-rule: evenodd;
      }

      .cls-2 {
        fill: #00a3ff;
      }

      .cls-3 {
        fill: #00c8dc;
      }

      .cls-4 {
        fill: #006eff;
      }
    </style>
  </defs>
  <g>
    <path class="cls-1" d="M1434.6,156.5065c-13.4763,14.8846-33.9714,27.4335-60.008,27.4335-38.62,0-63.58-26.6779-63.58-67.9771,0-42.0892,23.7811-68.229,62.0575-68.229,22.2583,0,45.4555,10.6483,59.3326,25.0635a1.2022,1.2022,0,0,0,2.0838-.8358V50.6651c-15.6517-14.0947-38.3337-22.59-61.4164-22.59-24.0444,0-44.402,8.4041-58.863,24.3078-14.3351,15.7434-21.9034,37.7269-21.9034,63.58,0,52.5543,33.0668,87.8768,82.2892,87.8768,23.4835,0,46.4173-8.7018,62.1034-23.1972V157.3194a1.2137,1.2137,0,0,0-2.0953-.8129M522.0446,32.46H386.6171V50.7223h57.7182V199.5h19.98V50.7109h57.7067ZM1839.9782,184.4209c-19.0066,0-39.4558-14.06-39.4558-44.9287,0-22.6934,11.9765-47.1043,38.265-47.1043,29.3228,0,39.7306,24.8574,39.7306,46.1425C1878.518,161.3383,1865.2707,184.4209,1839.9782,184.4209Zm39.0665-151.709V89.537c-10.3275-11.1864-27.5939-15.2625-40.0283-15.2625-16.6021,0-31.4867,6.1943-41.9518,17.4379-10.7628,11.5642-16.4419,27.5939-16.4419,46.3714,0,44.551,29.5746,64.5079,58.8745,64.5079,17.1173,0,31.2464-6.1256,39.5474-16.9456v14.0946h19.9226V32.7234h-19.9226ZM1463.133,199.7292h20.22V32.7234h-20.22ZM775.92,138.4273c0,38.4025,24.8688,64.1987,61.8973,64.1987a74.7375,74.7375,0,0,0,43.2456-13.1672V168.8035a1.2136,1.2136,0,0,0-2.0151-.9045c-13.007,11.7474-31.9105,16.3273-40.1658,16.3273-26.7923,0-44.1273-17.9761-44.1273-45.799,0-27.8114,17.3235-45.7875,44.1273-45.7875,8.2782,0,26.5978,2.3243,40.1886,14.0489a1.2063,1.2063,0,0,0,1.9923-.916V87.3615C872.8761,82.2091,855.6442,74.24,837.817,74.24c-37.0285,0-61.8973,25.7963-61.8973,64.1872M532.0517,126.92l.0343-.3778a36.9632,36.9632,0,0,1,37.5208-34.7614c21.7774,0,35.9636,13.3275,37.0285,34.7729l.0114.3663ZM570.145,74.263c-34.9561,0-57.5464,25.0291-57.5464,63.7865,1.2823,40.3374,24.1933,64.4162,61.29,64.4162,17.69,0,32.6661-5.9538,46.0738-17.6669V164.8762a1.2069,1.2069,0,0,0-2.1754-.7213c-8.885,11.7016-30.1129,21.1477-43.177,21.1477-12.48,0-24.2162-4.1219-30.6166-10.74a43.3027,43.3027,0,0,1-11.9077-30.4563h93.4527v-1.4312c0-26.3573-4.4883-41.2992-16.0181-53.2985-9.6178-10.0186-22.8766-15.1022-39.3757-15.1022Zm1167.9535,65.2292c0,33.2729-19.1784,45.0776-35.6087,45.0776-15.9267,0-32.8607-11.0147-32.8607-31.43V77.114h-19.0066v75.6827c0,29.3114,20.93,49.7835,50.8942,49.7835,16.5907,0,29.54-5.5875,37.7726-16.2357v13.35h18.1249V77.114h-19.3157ZM704.0611,74.2745c-15.2968,0-28.2579,5.1065-36.9483,14.4839V77.0453H648.2436V199.7292h19.2929V129.84c0-11.5528,3.5265-21.3652,9.9383-27.64,6.9157-6.7783,15.4572-9.9041,26.0711-9.5835,15.1136.458,30.3762,10.4651,30.3762,31.796v75.3278h19.3042V123.5083c0-15.1136-4.8089-27.7083-13.8885-36.4216-8.7247-8.37-20.93-12.8008-35.2767-12.8008M919.19,126.92l.0229-.3778a37.18,37.18,0,0,1,13.5793-26.4832,37.5631,37.5631,0,0,1,23.9529-8.2782c21.7774,0,35.9522,13.3275,37.0171,34.7729l.0228.3663ZM957.2835,74.263c-34.9675,0-57.5464,25.0291-57.5464,63.7865,1.2709,40.3374,24.1819,64.4162,61.29,64.4162,17.69,0,32.6547-5.9538,46.0624-17.6669V164.8762a1.2069,1.2069,0,0,0-2.1755-.7213c-8.885,11.7016-30.1128,21.1477-43.1655,21.1477-12.48,0-24.2162-4.1219-30.6281-10.74a43.3034,43.3034,0,0,1-11.8963-30.4563h93.4528v-1.4312c0-26.3573-4.5-41.2992-16.03-53.2985-9.6178-10.0186-22.8652-15.1022-39.3643-15.1022Zm133.5956.0115c-15.2969,0-28.258,5.1065-36.9483,14.4839V77.0453h-18.8692V199.7292h19.2928V129.84c0-11.5528,3.5265-21.3652,9.95-27.64,6.9042-6.7783,15.4572-9.9041,26.06-9.5835,15.1137.458,30.3762,10.4651,30.3762,31.796v75.3278h19.3042V123.5083c0-15.1136-4.8089-27.7083-13.8885-36.4216-8.7247-8.37-20.93-12.8008-35.2766-12.8008M1199.537,44.3448h-20.0484v32.689H1159.36V94.8725h20.1287v84.35c0,7.2592,2.21,12.87,6.5606,16.6938,4.0762,3.5723,10.0186,5.45,17.0945,5.4386,11.7016-.63,25.1207-5.702,25.1207-5.702v-18.48a1.2138,1.2138,0,0,0-1.603-1.145c-4.58,1.6144-15.1938,4.889-20.69,5.6791-2.0152.32-3.79.6068-5.1181-.5153-.87-.7557-1.3167-1.74-1.3167-3.8929V94.8611H1234.86V77.0338H1199.537Zm369.7465,139.7326c-24.5368,0-41.013-18.4455-41.0358-45.6615V138.37c.0686-27.1359,16.5449-45.3639,41.0358-45.3639,24.5369,0,41.0359,18.2967,41.0359,45.5356,0,27.2275-16.4877,45.5356-41.0359,45.5356m0-109.574c-35.5858,0-59.4928,25.7391-59.4928,64.0384s23.907,64.027,59.4928,64.027,59.4928-25.7276,59.4928-64.027-23.907-64.0383-59.4928-64.0383"/>
    <g>
      <path class="cls-2" d="M275.0509,187.0086c-5.1066,5.0951-15.32,12.7206-33.2043,12.7206H132.0208c33.2042-31.7959,61.3018-58.5081,63.8552-61.0614a196.8117,196.8117,0,0,1,15.32-13.9916c12.7779-11.45,22.9911-12.7207,31.9333-12.7207,12.7665,0,22.98,5.0837,31.9219,12.7092C292.9354,141.21,292.9354,170.4637,275.0509,187.0086Zm21.7087-82.69a71.4578,71.4578,0,0,0-52.36-22.9c-17.873,0-33.2042,6.366-47.253,16.5449-5.1066,5.0836-12.7665,10.1673-19.1555,17.8043C172.8849,120.8634,63.059,227.7238,63.059,227.7238c6.3775,1.271,14.0488,1.271,20.4263,1.271H222.6912c10.2132,0,17.8845,0,25.5329-1.271a78.6365,78.6365,0,0,0,47.2645-20.3576C324.8572,179.383,324.8572,132.3132,296.76,104.3186Z"/>
      <path class="cls-3" d="M117.9719,96.6816c-14.0488-10.1674-28.0976-15.2625-44.7-15.2625a71.4577,71.4577,0,0,0-52.36,22.9,73.908,73.908,0,0,0,1.2824,104.3185c12.7664,11.45,25.5329,17.8158,40.8641,19.0867l29.3686-27.9946H75.8254C59.2233,198.47,49.01,193.3746,42.6212,187.02A45.6043,45.6043,0,0,1,41.35,123.4053c8.9308-8.9079,19.1554-12.7207,31.9218-12.7207,7.6714,0,19.1555,1.26,30.651,12.7092,5.1066,5.0952,19.1554,15.274,24.2734,20.3691h1.26l19.1669-19.0867v-1.2709c-8.9308-8.9079-22.9911-20.3577-30.651-26.7237"/>
      <path class="cls-4" d="M252.06,64.8857A99.647,99.647,0,0,0,158.836,0c-49.8063,0-89.4,36.8911-97.0479,82.69,3.8356,0,7.6713-1.26,12.7779-1.26s11.484,1.26,16.6021,1.26c6.3775-31.8074,34.4751-54.7068,67.6794-54.7068a70.7264,70.7264,0,0,1,63.8437,40.7152s1.2824,1.271,1.2824,0c8.9308-1.2709,19.1554-3.8127,28.0862-3.8127h0"/>
    </g>
  </g>
</svg>
