<?xml version="1.0" encoding="utf-8"?>
<!-- Generator: Adobe Illustrator 25.4.1, SVG Export Plug-In . SVG Version: 6.00 Build 0)  -->
<svg version="1.1"
	 id="svg2" xmlns:cc="http://creativecommons.org/ns#" xmlns:dc="http://purl.org/dc/elements/1.1/" xmlns:rdf="http://www.w3.org/1999/02/22-rdf-syntax-ns#" xmlns:svg="http://www.w3.org/2000/svg"
	 xmlns="http://www.w3.org/2000/svg" xmlns:xlink="http://www.w3.org/1999/xlink" x="0px" y="0px" viewBox="0 0 95.7 20.4"
	 style="enable-background:new 0 0 95.7 20.4;" xml:space="preserve">
<style type="text/css">
	.st0{fill:#2D70DE;}
	.st1{fill:#17252E;}
</style>
<g>
	<g>
		<g id="g44" transform="translate(386.7049,451.9248)">
			<path id="path46" class="st0" d="M-372.6-437.7c0,0.5-0.3,1-0.9,1.2c-1.6,0.4-3,1.1-4.4,2.1c-1.1,0.8-2.1,1.5-3.2,2.2
				c-0.8,0.5-1.6,0.9-2.6,0.7c-1.3-0.2-2.2-1-2.5-2.4c-0.1-0.5-0.2-1-0.3-1.6c-0.1-0.9-0.1-1.7-0.2-2.6c0.1-3.8,1-7.3,3.2-10.4
				c1.4-2,3.3-3.1,5.7-3.3c0.8-0.1,1.7-0.1,2.5,0c0.7,0.1,1.1,0.7,1,1.4c0,0.1,0,0.1,0,0.2v0.1c0,0.2,0,0.4-0.1,0.7
				c-0.1,0.2-0.3,0.6-0.8,0.7h-2.1c-0.7,0-1.2,0.7-1.2,1.5s0.5,1.5,1.2,1.5h5.5c0.6,0.1,0.8,0.5,0.8,0.7c0.1,0.3,0.1,0.4,0.1,0.7
				v0.1c0,0.8,0.5,1.5,1.2,1.5h0.8c0.7,0,1.2,0.7,1.2,1.5s-0.5,1.5-1.2,1.5h-2.6c-0.7,0-1.2,0.7-1.2,1.5L-372.6-437.7z"/>
		</g>
		<g id="g48" transform="translate(467.9637,499.8276)">
			<path id="path50" class="st1" d="M-437-495.5c-1.7-2.9-4.3-4.2-7.6-4.1c-0.4,0-0.8,0-1.1,0.1c-0.3,0-0.5,0.4-0.4,0.7
				c0.2,0.3,0.2,0.6,0.2,0.9c0,0.8-0.5,1.5-1.2,1.5h-3.7c-0.7,0-1.2,0.7-1.2,1.5s0.5,1.5,1.2,1.5h2.8c0.6,0,1.2,0.6,1.2,1.4l0,0
				c0,0.4,0,0.5,0.1,0.9c0.1,0.2,0.3,0.6,0.8,0.7h3c0.7,0,1.2,0.7,1.2,1.5s-0.5,1.5-1.2,1.5h-4.8c-0.6,0.1-0.8,0.5-0.9,0.7
				c-0.1,0.3-0.1,0.4-0.1,0.7v0.1c0,0.1,0,0.1,0,0.2c-0.1,0.5,0.3,1,0.8,1.1c1.7,0.4,3.3,1.2,4.8,2.3c1.1,0.8,2.2,1.6,3.4,2.3
				c0.4,0.3,1,0.5,1.5,0.5c1.7,0.2,2.8-0.7,3.2-2.4c0.3-1.2,0.4-2.3,0.5-3.5C-434.3-489-435.1-492.4-437-495.5"/>
		</g>
	</g>
	<g>
		<path class="st1" d="M48.9,15.1l-1.5-3.7h-4.7l-1.4,3.7h-1.4l4.6-11.8h1.2l4.6,11.8H48.9z M47,10.2l-1.4-3.6
			c-0.2-0.5-0.4-1-0.5-1.7C45,5.4,44.8,6,44.6,6.6l-1.4,3.6H47z"/>
		<path class="st1" d="M58.9,6.3v0.8l-1.6,0.2c0.2,0.2,0.3,0.4,0.4,0.7c0.1,0.3,0.2,0.6,0.2,1c0,0.9-0.3,1.6-0.9,2.1
			s-1.4,0.8-2.4,0.8c-0.3,0-0.5,0-0.7-0.1c-0.6,0.3-0.9,0.7-0.9,1.1c0,0.2,0.1,0.4,0.3,0.5c0.2,0.1,0.5,0.2,1,0.2h1.6
			c1,0,1.7,0.2,2.2,0.6c0.5,0.4,0.8,1,0.8,1.8c0,1-0.4,1.7-1.2,2.2c-0.8,0.5-1.9,0.8-3.4,0.8c-1.2,0-2-0.2-2.7-0.6
			c-0.6-0.4-0.9-1-0.9-1.8c0-0.5,0.2-1,0.5-1.4s0.8-0.7,1.4-0.8c-0.2-0.1-0.4-0.3-0.6-0.5c-0.2-0.2-0.2-0.5-0.2-0.7
			c0-0.3,0.1-0.6,0.3-0.8c0.2-0.2,0.4-0.5,0.8-0.7c-0.5-0.2-0.8-0.5-1.1-1c-0.3-0.5-0.4-1-0.4-1.5c0-1,0.3-1.7,0.9-2.2
			c0.6-0.5,1.4-0.8,2.5-0.8c0.5,0,0.9,0.1,1.2,0.2L58.9,6.3L58.9,6.3z M51.9,16.6c0,0.5,0.2,0.8,0.6,1.1c0.4,0.2,1,0.4,1.7,0.4
			c1.1,0,2-0.2,2.5-0.5s0.8-0.8,0.8-1.4c0-0.5-0.1-0.8-0.4-1s-0.9-0.3-1.7-0.3h-1.6c-0.6,0-1.1,0.1-1.4,0.4S51.9,16.1,51.9,16.6z
			 M52.6,9.1c0,0.6,0.2,1.1,0.5,1.4s0.8,0.5,1.5,0.5c1.3,0,2-0.6,2-1.9s-0.7-2-2-2c-0.6,0-1.1,0.2-1.4,0.5C52.8,8,52.6,8.5,52.6,9.1
			z"/>
		<path class="st1" d="M68.3,10.7c0,1.4-0.4,2.6-1.1,3.4s-1.7,1.2-3,1.2c-0.8,0-1.5-0.2-2.1-0.6c-0.6-0.4-1.1-0.9-1.4-1.6
			s-0.5-1.5-0.5-2.4c0-1.4,0.4-2.6,1.1-3.4s1.7-1.2,3-1.2c1.2,0,2.2,0.4,2.9,1.2C68,8.2,68.3,9.3,68.3,10.7z M61.6,10.7
			c0,1.1,0.2,2,0.7,2.6s1.1,0.9,2,0.9s1.5-0.3,2-0.9c0.5-0.6,0.7-1.4,0.7-2.6c0-1.1-0.2-2-0.7-2.6s-1.1-0.9-2-0.9s-1.5,0.3-2,0.9
			S61.6,9.6,61.6,10.7z"/>
		<path class="st1" d="M76.7,15.1V9.4c0-0.7-0.2-1.3-0.5-1.6s-0.8-0.5-1.5-0.5c-0.9,0-1.6,0.2-2,0.7s-0.6,1.3-0.6,2.5v4.6h-1.3V6.3
			h1.1l0.2,1.2h0.1c0.3-0.4,0.7-0.8,1.2-1s1-0.4,1.6-0.4c1.1,0,1.9,0.3,2.4,0.8s0.8,1.3,0.8,2.5v5.8h-1.5V15.1z"/>
		<path class="st1" d="M84.5,15.3c-1.3,0-2.3-0.4-3.1-1.2s-1.1-1.9-1.1-3.3s0.3-2.6,1.1-3.4c0.7-0.8,1.6-1.3,2.8-1.3
			c1.1,0,2,0.4,2.6,1.1s1,1.7,1,2.9v0.8h-6.1c0,1,0.3,1.8,0.8,2.4c0.5,0.5,1.2,0.8,2.1,0.8c1,0,1.9-0.2,2.8-0.6v1.2
			c-0.5,0.2-0.9,0.3-1.3,0.4S85.1,15.3,84.5,15.3z M84.2,7.3c-0.7,0-1.3,0.2-1.7,0.7s-0.7,1.1-0.7,1.9h4.6c0-0.8-0.2-1.5-0.6-1.9
			C85.4,7.5,84.9,7.3,84.2,7.3z"/>
		<path class="st1" d="M95.7,12.7c0,0.8-0.3,1.5-0.9,1.9s-1.5,0.7-2.6,0.7c-1.2,0-2.1-0.2-2.7-0.6v-1.2c0.4,0.2,0.9,0.4,1.4,0.5
			s1,0.2,1.4,0.2c0.7,0,1.2-0.1,1.6-0.3s0.6-0.6,0.6-1c0-0.3-0.1-0.6-0.4-0.9s-0.9-0.5-1.7-0.9c-0.8-0.3-1.4-0.6-1.8-0.8
			c-0.3-0.2-0.6-0.5-0.8-0.8c-0.2-0.3-0.3-0.6-0.3-1c0-0.7,0.3-1.3,0.9-1.7c0.6-0.4,1.4-0.6,2.4-0.6c0.9,0,1.9,0.2,2.8,0.6l-0.5,1.1
			c-0.9-0.4-1.7-0.5-2.4-0.5c-0.6,0-1.1,0.1-1.4,0.3c-0.3,0.2-0.5,0.5-0.5,0.8c0,0.2,0.1,0.4,0.2,0.6s0.3,0.3,0.6,0.5
			c0.3,0.2,0.8,0.4,1.5,0.7c1,0.4,1.8,0.8,2.1,1.2C95.6,11.7,95.7,12.1,95.7,12.7z"/>
	</g>
</g>
</svg>
