<?xml version="1.0" encoding="utf-8"?>
<!-- Generator: Adobe Illustrator 25.4.1, SVG Export Plug-In . SVG Version: 6.00 Build 0)  -->
<svg version="1.1" id="Layer_1" xmlns="http://www.w3.org/2000/svg" xmlns:xlink="http://www.w3.org/1999/xlink" x="0px" y="0px"
	 viewBox="0 0 109.6 35.8" style="enable-background:new 0 0 109.6 35.8;" xml:space="preserve">
<style type="text/css">
	.st0{fill:#1A1918;}
</style>
<symbol  id="A" viewBox="-54.8 -17.9 109.7 35.8">
	<g>
		<g>
			<polygon class="st0" points="-36.6,-7 -32.1,4.5 -39.1,-1 			"/>
			<path class="st0" d="M-36.9,17.9c-9.9,0-17.9-8-17.9-17.9c0-9.9,8-17.9,17.9-17.9S-19-9.9-19,0C-19,9.9-27,17.9-36.9,17.9z
				 M-28.4,7.1L-35.6-10c-0.2-0.5-0.6-0.8-1.1-0.8s-1,0.3-1.1,0.8l-7.8,18.8h2.7l3.1-7.8l9.2,7.5c0.4,0.3,0.6,0.4,1,0.4
				c0.7,0,1.3-0.5,1.3-1.3C-28.3,7.5-28.3,7.3-28.4,7.1z"/>
		</g>
		<path class="st0" d="M5.5,5.4c-0.2,0-0.4,0-0.5-0.2l-5.9-7.8v8h-1.4v-9.8c0-0.4,0.3-0.7,0.7-0.7c0.2,0,0.4,0.1,0.5,0.2l5.9,7.8V-5
			h1.4v9.8C6.2,5,5.9,5.3,5.5,5.4L5.5,5.4 M13.3,5.4c-1.4,0-2.8-0.3-4.1-0.8l0.3-1.1c1.2,0.4,2.5,0.7,3.8,0.7c1.7,0,2.6-0.6,2.6-1.5
			c0-0.8-0.7-1.2-3.1-2.3S9.5-1.4,9.5-2.8c0-1.8,1.4-2.5,3.9-2.5c1.1,0,2.7,0.2,3.6,0.5l-0.2,1.2c-1-0.3-2.2-0.4-3.3-0.4
			C11.7-4,11-3.7,11-2.8c0,0.8,0.5,1.2,3.1,2.4c2.7,1.2,3.3,1.9,3.3,3.1C17.2,4.5,15.6,5.5,13.3,5.4 M20.4-5.1h1.4V5.3h-1.4V-5.1z
			 M31.1,0.4h-3.5V4h3.5C32.2,4,33,3.2,33,2.2S32.2,0.4,31.1,0.4 M30.4-4.1h-2.8v3.3h2.8c1.1,0,1.9-0.7,1.9-1.7
			C32.4-3.4,31.7-4.1,30.4-4.1 M31.1,5.1H27c-0.4,0-0.7-0.3-0.7-0.7v-9c0-0.4,0.3-0.7,0.7-0.7h3.5c2.1,0,3.4,1,3.4,2.7
			c0,0.9-0.5,1.7-1.3,2.2c1.2,0.4,2,1.3,2,2.5C34.5,3.8,33,5.1,31.1,5.1 M38.5,5c-0.4,0-0.7-0.3-0.7-0.7v-9.7h1.4v9.1h5.6V5H38.5z
			 M51.2,5.1c-2.9,0-4.6-1.1-4.6-3.2c0-1,0.6-2,1.7-2.4C47.5-1.1,47-1.9,47-2.7c0-1.9,1.5-2.9,4.3-2.9c1.1,0,2.3,0.1,3.4,0.4L54.5-4
			c-1.2-0.2-2.3-0.3-3.3-0.3c-1.8,0-2.8,0.5-2.8,1.7c0,1,0.9,1.7,2.1,1.7H53c0.3,0,0.6,0.3,0.6,0.6l0,0c0,0.3-0.3,0.6-0.6,0.6h-2.6
			C49,0.3,48.2,1,48.2,2c0,1.5,1.4,2,3.2,2c1,0,2.2-0.1,3.3-0.4l0.2,1.1C53.7,4.9,52.5,5.1,51.2,5.1 M-9.9-3.1L-7.4,3l-3.7-3
			L-9.9-3.1z M-5.6,4.5l-3.8-9.2C-9.5-5-9.7-5.1-9.9-5.1c-0.3,0-0.5,0.2-0.6,0.4l-4.1,10.4l1.4-0.3l1.6-4.2l4.9,4
			c0.2,0.2,0.3,0.2,0.5,0.2c0.4,0,0.7-0.3,0.7-0.7l0,0C-5.5,4.7-5.6,4.6-5.6,4.5L-5.6,4.5z"/>
	</g>
</symbol>
<g>
	
		<use xlink:href="#A"  width="109.7" height="35.8" id="XMLID_00000054977081087526827110000018093063126787364277_" x="-54.8" y="-17.9" transform="matrix(1 0 0 1 54.8 17.9)" style="overflow:visible;"/>
</g>
</svg>
