<?xml version="1.0" encoding="utf-8"?>
<!-- Generator: Adobe Illustrator 25.4.1, SVG Export Plug-In . SVG Version: 6.00 Build 0)  -->
<svg version="1.1" id="Layer_1" xmlns="http://www.w3.org/2000/svg" xmlns:xlink="http://www.w3.org/1999/xlink" x="0px" y="0px"
	 viewBox="0 0 505.3 183.9" style="enable-background:new 0 0 505.3 183.9;" xml:space="preserve">
<style type="text/css">
	.st0{fill:#425563;}
	.st1{fill:#EF9600;}
</style>
<path class="st0" d="M213.6,92.2V92c-0.3-18.6,14.6-34,33.2-34.3h1.4c9.8-0.5,19.3,3.2,26.2,10.2l-9.3,10.7
	c-4.5-4.6-10.6-7.2-17-7.4c-11.2,0-19.2,9.3-19.2,20.7s7.9,20.9,19.2,20.9c7.6,0,12.2-3,17.4-7.8l9.3,9.4
	c-6.8,7.9-16.8,12.3-27.2,11.8c-18.5,0.3-33.7-14.5-34-33L213.6,92.2 M291.8,58.9h14.6v26.2h26.9V58.9h14.6v66.3h-14.6V98.6h-26.9
	v26.6h-14.6V58.9z M365.7,58.9h50.1v13h-35.6v13.4h31.3v13h-31.3v13.9h36.1v13h-50.6V58.9z M435.3,58.9h50.6v13.2h-36v14.2h31.7
	v13.2h-31.7v25.7h-14.6V58.9z M496.8,68.5v-6.7h2.8c0.5,0,1.1,0,1.6,0.2c0.3,0.1,0.6,0.3,0.8,0.6c0.2,0.3,0.3,0.7,0.3,1.1
	c0,0.3-0.1,0.7-0.2,1c-0.1,0.1-0.1,0.2-0.2,0.3c-0.3,0.3-0.7,0.5-1.1,0.6c0.2,0.2,0.4,0.4,0.5,0.6c0.3,0.3,0.5,0.7,0.8,1.1l0.8,1.3
	h-1.6l-1-1.5c-0.2-0.3-0.5-0.7-0.7-1c-0.1-0.1-0.2-0.2-0.4-0.3c-0.2-0.1-0.5-0.1-0.7-0.1h-0.3v2.8H496.8L496.8,68.5z M498.2,64.6h1
	c0.4,0,0.8,0,1.2-0.1c0.2,0,0.3-0.1,0.4-0.3c0.1-0.2,0.1-0.3,0.1-0.5s-0.1-0.4-0.2-0.5s-0.3-0.2-0.5-0.3h-2.1L498.2,64.6z"/>
<path class="st0" d="M499.4,71.1c-0.8,0-1.6-0.2-2.3-0.5c-0.4-0.1-0.7-0.3-1-0.6c-0.3-0.2-0.6-0.5-0.9-0.7c-0.3-0.3-0.5-0.6-0.7-0.9
	c-1.1-1.7-1.3-3.8-0.6-5.7c0.2-0.4,0.3-0.7,0.6-1c0.2-0.3,0.5-0.6,0.7-0.9c0.3-0.3,0.6-0.5,0.9-0.7s0.7-0.4,1-0.6
	c1.5-0.6,3.2-0.6,4.6,0c0.4,0.2,0.7,0.3,1,0.6c0.3,0.2,0.6,0.5,0.9,0.7c0.3,0.3,0.5,0.6,0.7,0.9c0.2,0.3,0.4,0.7,0.5,1
	c0.6,1.5,0.6,3.2,0,4.7c-0.1,0.4-0.3,0.7-0.5,1s-0.5,0.6-0.7,0.9c-0.5,0.5-1.2,1-1.9,1.3C500.9,71,500.2,71.1,499.4,71.1
	 M499.4,59.7c-3,0-5.5,2.4-5.5,5.5c0,3,2.4,5.5,5.5,5.5c3,0,5.5-2.4,5.5-5.5C504.8,62.1,502.4,59.7,499.4,59.7 M0,94.6
	C0.3,105.4,2.5,116,6.5,126l11.3-4.6c-3.5-8.7-5.4-17.9-5.7-27.3C12.1,94.1,0,94.6,0,94.6z"/>
<path class="st1" d="M92,12c16.7,0,32.8,5.2,46.4,14.9l7.1-9.8c-41.3-29.5-98.8-20-128.4,21.3c-3.6,5.1-6.6,10.6-9.2,16.3l11.1,5
	C31.8,30.7,60.3,12.1,92,12z"/>
<path class="st0" d="M182.9,77.8c-1.8-11.5-5.7-22.6-11.7-32.6l-10.5,6c4.9,8.1,8.2,17.1,9.9,26.6H182.9z"/>
<path class="st1" d="M170.6,106c-7.7,43.4-49.2,72.3-92.6,64.5c-15.9-2.9-30.4-10.4-41.9-21.6l-8.4,8.7
	c36.3,35.6,94.6,34.9,130.1-1.4c13.5-13.7,22.2-31.3,25.2-50.3L170.6,106L170.6,106z M151.5,77.8h12.4
	c-4.8-23.8-20.8-43.7-43.1-53.2l-4.9,11C133.8,43.2,147,58.9,151.5,77.8z"/>
<path class="st0" d="M36,67.2c9.8-22.1,31.6-36.4,55.8-36.5l0.1-12.1c-28.9,0-55.2,17.1-67,43.6L36,67.2z"/>
<path class="st1" d="M68.3,148.3c-22.1-9.3-36.8-30.5-37.5-54.5l-12.1,0.4c0.9,28.7,18.5,54.3,45.1,65.4L68.3,148.3z"/>
<path class="st0" d="M151.5,106c-6.4,27.1-30.3,46.4-58.2,47.1l0.4,12.1c34.4-0.9,63.5-25.5,70.2-59.2
	C163.9,106,151.5,106,151.5,106z"/>
<path class="st0" d="M132.1,106c-7.8,22.1-32,33.7-54.1,26s-33.7-32-26-54.1s32-33.7,54.1-26c12.1,4.3,21.7,13.8,26,26h12.7
	C137,48.8,107.1,31.5,78,39.2S31.6,76.9,39.3,106s37.7,46.4,66.8,38.7c18.8-5.1,33.6-19.7,38.7-38.7C144.8,106,132.1,106,132.1,106z
	"/>
<path class="st1" d="M111.1,106c-2.4,3.3-5.7,5.8-9.3,7.5l5.3,10.9c8-3.8,14.4-10.3,17.8-18.4C124.9,106,111.1,106,111.1,106z"/>
<path class="st0" d="M92,115.7c-6.3,0-12.5-2.6-17-7.1l-8.4,8.7c6.8,6.7,15.9,10.6,25.4,10.6h0.4L92,115.7z"/>
<path class="st1" d="M91.2,68.2V56.1C71.4,56.4,55.7,72.8,56,92.6c0.1,4.3,0.9,8.4,2.5,12.4l11.2-4.6C65,88.2,71.1,74.5,83.3,69.8
	C85.9,68.8,88.6,68.3,91.2,68.2z"/>
<path class="st0" d="M106,58.9L101.1,70c4,1.7,7.4,4.4,10,7.8H125C121.3,69.3,114.4,62.6,106,58.9z"/>
</svg>
