<?xml version="1.0" encoding="utf-8"?>
<!-- Generator: Adobe Illustrator 25.4.1, SVG Export Plug-In . SVG Version: 6.00 Build 0)  -->
<svg version="1.1" id="Layer_1" xmlns="http://www.w3.org/2000/svg" xmlns:xlink="http://www.w3.org/1999/xlink" x="0px" y="0px"
	 viewBox="0 0 254.2 49.2" style="enable-background:new 0 0 254.2 49.2;" xml:space="preserve">
<style type="text/css">
	.st0{fill:#231F20;}
</style>
<g>
	<g transform="translate(0.992248, 367.131783)">
		<path class="st0" d="M34.6-360.6c-0.8,0.1-1.5,0.2-2.1,0.3c-0.6,0.1-1.2,0.2-2,0.4c-0.9,0.2-1.4,0.6-1.6,1.2
			c-0.2,0.6-0.4,1.2-0.4,2v24.2c0,2.2-0.5,4.3-1.4,6.2c-0.9,1.9-2.1,3.4-3.7,4.7c-1.6,1.2-3.4,2.2-5.4,2.8c-2,0.6-4.1,1-6.3,1
			c-3.9,0-6.9-0.9-9.3-2.8c-2.4-1.9-3.6-4.4-3.6-7.6c0-1.9,0.5-3.5,1.6-4.8c1.1-1.3,2.6-1.9,4.5-1.9c1.8,0,3.2,0.5,4.3,1.6
			c1.1,1.1,1.6,2.4,1.6,3.9c0,1.3-0.5,2.6-1.4,3.7c-0.9,1.1-2,2.2-3.2,3.1v0.4c0.2,0.4,0.6,0.8,1.2,1.1s1.3,0.4,1.9,0.4
			c2.5,0,4.5-0.9,5.9-2.7c1.4-1.8,2.1-4.5,2.1-8v-24.8c0-0.7-0.1-1.4-0.3-1.9c-0.2-0.5-0.8-0.9-1.7-1.3c-0.6-0.3-1.4-0.5-2.3-0.7
			c-0.9-0.2-1.6-0.3-2.2-0.4v-2.4h23.4v2.5H34.6z"/>
		<path class="st0" d="M71.3-326.4c-0.7,1.2-1.6,2.3-2.6,3.4c-1,1.1-2.2,1.9-3.5,2.7c-1.4,0.8-2.8,1.4-4.2,1.8
			c-1.4,0.4-3.1,0.6-4.9,0.6c-3.1,0-5.7-0.4-7.9-1.3c-2.2-0.9-4.1-2-5.5-3.5c-1.5-1.5-2.5-3.2-3.3-5.2c-0.7-2-1.1-4.2-1.1-6.4
			c0-2.1,0.4-4.2,1.2-6.1c0.8-1.9,1.9-3.7,3.3-5.2s3.2-2.7,5.4-3.6c2.2-0.9,4.6-1.4,7.1-1.4c2.9,0,5.3,0.4,7.1,1.1
			c1.9,0.7,3.4,1.7,4.6,2.9c1.2,1.2,2,2.6,2.6,4.2c0.5,1.6,0.8,3.3,0.8,5.1v2H49.6c0,4.3,0.8,7.4,2.5,9.6c1.6,2.2,4.3,3.3,7.7,3.3
			c2,0,3.7-0.5,5.3-1.6c1.6-1.1,2.9-2.4,4-4.1L71.3-326.4L71.3-326.4z M59.5-338.3c0-1.2-0.1-2.5-0.2-3.8s-0.3-2.4-0.7-3.2
			c-0.4-1-0.8-1.7-1.5-2.2c-0.6-0.5-1.4-0.7-2.3-0.7c-1.6,0-2.9,0.8-3.8,2.4c-1,1.6-1.5,4.2-1.6,7.6L59.5-338.3L59.5-338.3z"/>
		<path class="st0" d="M115.1-319.1H96.4v-2.3c0.4,0,0.9-0.1,1.4-0.2c0.6-0.1,1-0.2,1.3-0.3c0.4-0.2,0.7-0.6,0.9-1
			c0.2-0.4,0.3-1.1,0.3-1.9v-14.5c0-2.1-0.4-3.7-1.2-4.8c-0.8-1.1-1.9-1.6-3.5-1.6c-0.8,0-1.6,0.1-2.3,0.4c-0.7,0.2-1.4,0.6-2.1,1.1
			c-0.6,0.4-1.1,0.8-1.5,1.3c-0.4,0.4-0.7,0.8-0.9,1.2v16.6c0,0.7,0.1,1.3,0.3,1.8s0.6,0.9,1,1.1c0.3,0.2,0.7,0.4,1.2,0.5
			c0.5,0.1,1,0.2,1.5,0.3v2.3H74v-2.3c0.5,0,1-0.1,1.6-0.2c0.5-0.1,1-0.2,1.4-0.3c0.7-0.2,1.1-0.6,1.4-1.1c0.2-0.5,0.4-1.1,0.4-1.9
			v-18.1c0-0.6-0.2-1.3-0.5-1.9c-0.3-0.6-0.8-1.1-1.3-1.5c-0.4-0.2-0.8-0.5-1.4-0.6c-0.6-0.2-1.2-0.3-1.9-0.3v-2.3l14.8-0.8l0.5,0.5
			v4.5h0.1c0.6-0.5,1.3-1.1,2.1-1.9c0.8-0.7,1.6-1.3,2.3-1.8c0.8-0.5,1.8-0.9,3-1.3c1.2-0.4,2.6-0.5,4-0.5c3.4,0,5.9,1,7.5,2.9
			c1.7,1.9,2.5,4.5,2.5,7.6v15.2c0,0.8,0.1,1.4,0.3,1.8c0.2,0.5,0.7,0.8,1.3,1.1c0.3,0.1,0.7,0.3,1.2,0.4c0.5,0.1,1,0.2,1.7,0.3v2.4
			H115.1z"/>
		<path class="st0" d="M157.8-319.1h-14.6c-1.8-3.2-3.5-5.9-5-8c-1.5-2.2-2.9-4.3-4.2-6.1l-1.8,1.6v6.7c0,0.7,0.1,1.4,0.3,1.8
			c0.2,0.5,0.6,0.8,1.3,1.1c0.4,0.2,0.8,0.3,1.3,0.4c0.5,0.1,1,0.2,1.5,0.2v2.3h-19.2v-2.3c0.5,0,1-0.1,1.6-0.2
			c0.5-0.1,1-0.2,1.4-0.3c0.7-0.2,1.1-0.6,1.4-1.1c0.2-0.5,0.4-1.1,0.4-1.9v-34.5c0-0.7-0.2-1.4-0.5-2.1c-0.3-0.7-0.7-1.3-1.3-1.7
			c-0.4-0.2-1-0.5-1.8-0.6c-0.8-0.2-1.5-0.3-2.2-0.3v-2.3l15.4-0.8l0.5,0.5v32c1.5-1.4,3.3-3,5.2-4.8s3.5-3.3,4.6-4.5
			c0.7-0.7,1.1-1.2,1.1-1.6c0.1-0.4,0.1-0.6,0.1-0.7c0-0.4-0.3-0.7-1-0.9c-0.7-0.2-1.6-0.5-3-0.7v-2.2h15.7v2.2
			c-2.1,0.6-3.7,1.1-4.8,1.6c-1.1,0.5-2.3,1.2-3.6,2c-0.9,0.6-1.7,1.2-2.5,1.8c-0.8,0.6-1.7,1.4-2.8,2.3c2,3,3.9,5.7,5.6,8.1
			c1.7,2.5,3.5,5.2,5.4,7.9c0.6,1,1.4,1.6,2.4,2c1,0.3,1.9,0.5,2.9,0.6v2.4H157.8z"/>
		<path class="st0" d="M177.6-319.1h-19.5v-2.3c0.5,0,1.1-0.1,1.6-0.2c0.5-0.1,1-0.2,1.3-0.3c0.7-0.2,1.1-0.6,1.4-1.1
			c0.3-0.5,0.4-1.1,0.4-1.9v-18.1c0-0.7-0.2-1.4-0.5-1.9c-0.3-0.6-0.7-1-1.2-1.3c-0.4-0.2-0.9-0.5-1.7-0.7c-0.8-0.2-1.5-0.4-2.1-0.4
			v-2.3l15.2-0.8l0.5,0.5v24.6c0,0.7,0.2,1.3,0.5,1.9c0.3,0.5,0.8,0.9,1.3,1.1c0.4,0.2,0.9,0.4,1.4,0.5c0.5,0.1,1,0.2,1.6,0.3
			L177.6-319.1L177.6-319.1z M173.1-361.3c0,1.6-0.6,2.9-1.8,4c-1.2,1.1-2.7,1.7-4.3,1.7c-1.7,0-3.1-0.6-4.4-1.7
			c-1.2-1.1-1.8-2.5-1.8-4c0-1.6,0.6-2.9,1.8-4.1c1.2-1.1,2.7-1.7,4.4-1.7c1.7,0,3.1,0.6,4.3,1.7
			C172.6-364.3,173.1-362.9,173.1-361.3L173.1-361.3z"/>
		<path class="st0" d="M221.4-319.1h-18.7v-2.3c0.4,0,0.9-0.1,1.4-0.2c0.6-0.1,1-0.2,1.3-0.3c0.4-0.2,0.7-0.6,0.9-1
			c0.2-0.4,0.3-1.1,0.3-1.9v-14.5c0-2.1-0.4-3.7-1.2-4.8c-0.8-1.1-1.9-1.6-3.5-1.6c-0.8,0-1.6,0.1-2.3,0.4c-0.7,0.3-1.4,0.6-2.1,1.1
			c-0.6,0.4-1.1,0.8-1.5,1.3c-0.4,0.4-0.7,0.8-0.9,1.2v16.6c0,0.7,0.1,1.3,0.3,1.8c0.2,0.5,0.6,0.9,1,1.1c0.3,0.2,0.7,0.4,1.2,0.5
			c0.5,0.1,1,0.2,1.5,0.3v2.3h-18.9v-2.3c0.5,0,1-0.1,1.6-0.2c0.5-0.1,1-0.2,1.4-0.3c0.7-0.2,1.1-0.6,1.4-1.1
			c0.2-0.5,0.4-1.1,0.4-1.9v-18.1c0-0.6-0.2-1.3-0.5-1.9c-0.3-0.6-0.8-1.1-1.3-1.5c-0.4-0.2-0.8-0.5-1.4-0.6
			c-0.6-0.2-1.2-0.3-1.9-0.3v-2.3l14.8-0.8l0.5,0.5v4.5h0.1c0.6-0.5,1.3-1.1,2.1-1.9c0.8-0.7,1.6-1.3,2.3-1.8c0.8-0.5,1.8-0.9,3-1.3
			c1.2-0.4,2.6-0.5,4-0.5c3.4,0,5.9,1,7.5,2.9c1.7,1.9,2.5,4.5,2.5,7.6v15.2c0,0.8,0.1,1.4,0.3,1.8c0.2,0.5,0.7,0.8,1.3,1.1
			c0.3,0.1,0.7,0.3,1.2,0.4s1,0.2,1.7,0.3v2.4H221.4z"/>
		<path class="st0" d="M238.5-318c-2,0-4-0.3-5.9-0.9c-1.9-0.6-3.4-1.2-4.5-1.9l-0.9,2.1h-2.4l-0.4-11.5h2.3c0.3,0.9,0.8,2,1.6,3.2
			c0.7,1.2,1.6,2.2,2.5,3.2c1,0.9,2.1,1.7,3.4,2.4c1.3,0.6,2.6,1,4,1c1.9,0,3.3-0.4,4.2-1.1s1.4-1.9,1.4-3.4c0-0.8-0.2-1.5-0.6-2.1
			c-0.4-0.5-1-1-1.7-1.4c-0.8-0.4-1.7-0.8-2.7-1.1s-2.2-0.6-3.6-1.1c-1.4-0.4-2.6-0.8-3.6-1.3c-1-0.4-2.1-1.1-3.1-2
			c-0.9-0.8-1.7-1.8-2.2-2.9c-0.6-1.1-0.8-2.5-0.8-4.1c0-2.9,1.2-5.3,3.7-7s5.7-2.7,9.6-2.7c1.9,0,3.6,0.2,5.2,0.6
			c1.6,0.4,2.9,0.8,4,1.3l0.7-1.8h2.4l0.5,10.5h-2.2c-0.7-2.2-2-4-3.7-5.6c-1.8-1.6-3.7-2.4-5.7-2.4c-1.6,0-2.9,0.3-3.8,1
			s-1.4,1.6-1.4,2.8c0,1.6,0.7,2.7,2,3.4s3.2,1.4,5.6,2c3.7,1,6.4,2.3,8.1,3.9c1.7,1.7,2.6,3.8,2.6,6.3c0,3.4-1.3,6.1-4,7.8
			C246.3-319,242.8-318,238.5-318L238.5-318z"/>
	</g>
</g>
</svg>
