<?xml version="1.0" encoding="utf-8"?>
<!-- Generator: Adobe Illustrator 25.4.1, SVG Export Plug-In . SVG Version: 6.00 Build 0)  -->
<svg version="1.1" id="Layer_1" xmlns="http://www.w3.org/2000/svg" xmlns:xlink="http://www.w3.org/1999/xlink" x="0px" y="0px"
	 viewBox="0 0 500.6 84.5" style="enable-background:new 0 0 500.6 84.5;" xml:space="preserve">
<style type="text/css">
	.st0{fill:#326DE6;}
	.st1{fill:#FFFFFF;}
</style>
<g id="Layer_2_00000102514858993588710310000000235702368857650080_">
	<g id="Layer_1-2">
		<g>
			<path class="st0" d="M35,49.9l-9.9,1.7c1.4,4,4.2,7.5,7.7,9.8l3.8-9.2c0.2-0.3,0.2-0.7,0.1-1C36.6,50.4,35.8,49.9,35,49.9z"/>
			<path class="st0" d="M38.8,37.1c0.9,0,1.7-0.7,1.7-1.6l0.5-10l-2,0.4c-3.5,0.8-6.7,2.6-9.3,5.1l8.3,5.9
				C38.3,37,38.5,37.1,38.8,37.1z"/>
			<path class="st0" d="M34.4,43.6c0.6-0.7,0.5-1.7-0.2-2.3l-7.4-6.6c-2.2,3.7-3.2,8-2.9,12.2l9.7-2.8C34,44,34.2,43.9,34.4,43.6z"
				/>
			<polygon class="st0" points="40.8,47.1 43.5,48.4 46.2,47.1 46.9,44.2 45,41.8 42,41.8 40.1,44.2 			"/>
			<path class="st0" d="M46.7,36.4c0.5,0.7,1.5,0.8,2.2,0.4l8.2-5.8c-3-3-6.9-4.9-11.3-5.4l0.6,10.1C46.4,36,46.5,36.2,46.7,36.4z"
				/>
			<path class="st0" d="M60.1,34.7l-7.5,6.8c-0.2,0.2-0.3,0.4-0.4,0.7c-0.2,0.9,0.3,1.8,1.2,2l9.5,2.7c0.2-2.1,0.1-4.2-0.4-6.3
				C62,38.5,61.2,36.5,60.1,34.7z"/>
			<path class="st0" d="M44.1,54.2c-0.7-0.4-1.5-0.2-2,0.4l-4.9,8.9c2,0.6,4.2,1,6.3,1c1.5,0,2.9-0.2,4.3-0.5
				c0.7-0.2,1.3-0.3,1.9-0.4l-4.8-8.7C44.6,54.6,44.4,54.4,44.1,54.2z"/>
			<path class="st0" d="M51,50c-0.7,0.3-1.1,1.1-0.9,1.9l3.9,9.4c2.4-1.5,4.5-3.6,6-6c0.8-1.1,1.4-2.4,1.9-3.8l-10-1.7
				C51.6,49.8,51.3,49.9,51,50z"/>
			<path class="st0" d="M87.4,51.5l-7.6-32.7c-0.5-1.6-1.7-2.9-3.2-3.7L46.1,0.5C45.3,0.1,44.4,0,43.6,0c-0.8,0-1.7,0-2.5,0.2
				L10.6,14.9c-1.5,0.7-2.6,2-3,3.7L0.1,51.5c-0.3,1.7,0.1,3.4,1.1,4.8l21.1,26.1c1.2,1.2,2.9,2,4.6,2.1h33.6
				c1.8,0.2,3.5-0.6,4.6-2.1l21.1-26.1C87.2,54.9,87.6,53.2,87.4,51.5z M74.9,53.7c-0.2,0-0.3,0-0.5-0.1c-0.1-0.1-0.1-0.1-0.2-0.1
				c-0.2,0-0.3-0.1-0.4-0.1c-0.4-0.1-0.7-0.3-1.1-0.5c-0.2,0-0.4-0.1-0.6-0.2H72c-1-0.4-2.1-0.7-3.2-0.9h-0.1
				c-0.3,0-0.6,0.1-0.8,0.3c0,0,0,0.1-0.1,0.1L67,52.1c-1.8,5.7-5.7,10.5-10.8,13.6l0.3,0.8c0,0-0.1,0-0.1,0.1
				c-0.2,0.3-0.2,0.7-0.1,1c0.4,1,0.9,2,1.6,2.9v0.2c0.2,0.2,0.3,0.3,0.4,0.5c0.3,0.3,0.5,0.6,0.7,1c0.1,0.1,0.2,0.2,0.2,0.3
				c0,0,0.1,0,0.1,0.1c0.2,0.5,0.2,1,0.1,1.5c-0.1,0.5-0.5,0.9-0.9,1.1c-0.3,0.1-0.5,0.2-0.8,0.2c-0.8,0-1.5-0.5-1.9-1.2
				c-0.1,0-0.1-0.1-0.1-0.1c-0.1-0.1-0.1-0.2-0.2-0.3c-0.2-0.3-0.3-0.7-0.4-1.1l-0.2-0.6V72c-0.3-1.1-0.8-2.1-1.3-3.1
				c-0.2-0.3-0.5-0.5-0.8-0.6c0-0.1,0-0.1-0.1-0.1l-0.4-0.7c-1,0.3-2.1,0.7-3.2,0.9c-1.8,0.5-3.6,0.7-5.4,0.7c-3,0-5.9-0.5-8.7-1.6
				l-0.4,0.8c0,0.1,0,0.1-0.1,0.1c-0.3,0.1-0.6,0.3-0.8,0.6c-0.5,1-1,2-1.3,3.1l-0.2,0.6c-0.1,0.4-0.3,0.7-0.4,1.1
				c-0.1,0.1-0.2,0.2-0.2,0.3c-0.1,0-0.1,0.1-0.1,0.1c-0.4,0.7-1.1,1.2-1.9,1.2c-0.2,0-0.5-0.1-0.7-0.2c-0.9-0.5-1.3-1.7-0.8-2.7
				c0.1,0,0.1-0.1,0.1-0.1c0.1-0.1,0.1-0.2,0.2-0.3c0.3-0.4,0.5-0.8,0.7-1c0.2-0.2,0.3-0.3,0.4-0.5v-0.1c0.6-0.9,1.2-1.9,1.6-2.9
				c0.1-0.3,0.1-0.7-0.1-1c0,0-0.1,0-0.1-0.1l0.5-0.7c-1-0.5-1.8-1.1-2.7-1.8c-3.9-3-6.7-7.1-8.2-11.7l-0.9,0.1c0,0,0-0.1-0.1-0.1
				C19.3,52.1,19,52,18.7,52h-0.1c-1.2,0.2-2.2,0.5-3.3,0.9h-0.1c-0.2,0-0.4,0.1-0.6,0.2c-0.3,0.1-0.7,0.3-1.1,0.4
				c-0.1,0-0.4-0.1-0.4,0s0,0.1-0.1,0.1c-0.2,0.1-0.3,0.1-0.5,0.1c-0.9,0.1-1.8-0.5-2-1.4c-0.2-1.1,0.5-2.1,1.6-2.3
				c0.1-0.1,0.1-0.1,0.2-0.1c0.2,0,0.3-0.1,0.4-0.1c0.4,0,0.8-0.1,1.2-0.1c0.2-0.1,0.4-0.1,0.6-0.1c1.2-0.1,2.3-0.3,3.4-0.6
				c0.3-0.2,0.6-0.4,0.7-0.7c0,0,0.1,0,0.1-0.1l0.8-0.2c-0.9-5.7,0.4-11.5,3.5-16.4c0.1-0.2,0.2-0.3,0.3-0.5l-0.6-0.6
				c0,0,0,0.1,0,0.1v-0.1l0,0c0-0.3-0.1-0.6-0.3-0.8c-0.8-0.8-1.8-1.4-2.8-2c-0.2-0.1-0.4-0.2-0.6-0.3c-0.4-0.2-0.8-0.4-1.1-0.6
				c-0.1,0-0.3-0.2-0.3-0.2s0-0.1-0.1-0.1c-0.8-0.7-1-1.9-0.4-2.8c0.3-0.5,0.8-0.7,1.4-0.7c0.5,0,1,0.2,1.4,0.5c0,0,0,0,0.1,0.1
				c0.1,0.1,0.2,0.1,0.3,0.2c0.3,0.3,0.5,0.6,0.8,0.9c0.1,0.1,0.3,0.2,0.4,0.4c0.7,0.8,1.6,1.6,2.5,2.3c0.2,0.1,0.4,0.2,0.6,0.2
				c0.2,0,0.3-0.1,0.4-0.1h0.1l0.6,0.4c3.3-3.5,7.6-6,12.3-7c1.2-0.2,2.3-0.4,3.4-0.5l0.1-0.8v-0.2c0.3-0.2,0.4-0.5,0.5-0.8
				c0-1.2,0-2.3-0.2-3.4v-0.1c0-0.2,0-0.4-0.1-0.6c-0.1-0.4-0.2-0.8-0.2-1.2v-0.5c0-0.5,0.2-1,0.6-1.4c0.5-0.5,1.1-0.8,1.7-0.7
				c1,0.1,1.8,1.1,1.7,2.1v0.6c-0.1,0.4-0.1,0.8-0.2,1.2c0,0.2-0.1,0.4-0.1,0.6v0.1C45,16.5,45,17.6,45,18.7
				c0.1,0.3,0.2,0.6,0.5,0.8v-0.1l0.1,0.8c4.7,0.5,9.3,2.3,13,5.2c0.8,0.8,1.7,1.6,2.5,2.4l0.8-0.5H62c0.1,0.1,0.3,0.1,0.4,0.1
				c0.2,0,0.4-0.1,0.6-0.2c0.9-0.6,1.8-1.4,2.5-2.2c0.1-0.1,0.3-0.2,0.4-0.4c0.2-0.3,0.5-0.6,0.8-0.9c0.1,0,0.2-0.1,0.3-0.2l0.1-0.1
				c0.4-0.3,0.9-0.5,1.4-0.5s1.1,0.3,1.4,0.7c0.7,0.9,0.5,2.1-0.4,2.8c0,0.1,0.1,0.1,0,0.2c-0.1,0.1-0.2,0.1-0.3,0.2
				c-0.4,0.2-0.7,0.4-1.1,0.6c-0.2,0.1-0.4,0.2-0.6,0.3c-1,0.6-1.9,1.2-2.8,2c-0.2,0.2-0.3,0.6-0.3,0.9v0.1l-0.6,0.6
				c1.6,2.5,2.8,5.3,3.5,8.2c0.6,2.9,0.8,5.9,0.4,8.8l0.8,0.2c0.1,0.3,0.4,0.6,0.7,0.7c1.1,0.3,2.3,0.5,3.4,0.6h0.1
				c0.2,0.1,0.4,0.1,0.6,0.1c0.4,0,0.8,0,1.2,0.1c0.2,0,0.4,0,0.4,0.1c0,0.1,0.1,0.1,0.2,0.1c0.9,0.2,1.7,1,1.8,2.1
				C76.6,53.1,75.8,53.7,74.9,53.7z"/>
		</g>
		<g id="layer1">
			<g id="text4373">
				<path id="path2985" class="st1" d="M125.6,45.9c1.1-1.2,2.1-2.4,3.3-3.6c1.1-1.3,2.2-2.5,3.3-3.7c1.1-1.3,2.1-2.4,3-3.5
					s1.8-2.1,2.5-2.9h12.8c-2.6,2.9-5.1,5.8-7.5,8.5c-2.5,2.7-5.1,5.5-8,8.3c1.6,1.5,3.1,3,4.5,4.7c1.5,1.8,3,3.6,4.5,5.6
					c1.4,1.9,2.8,3.9,4,5.8s2.2,3.7,3,5.3h-12.4c-0.8-1.3-1.7-2.6-2.7-4.1s-2.1-3-3.1-4.6c-1.1-1.5-2.3-3-3.6-4.4
					c-1.1-1.3-2.3-2.5-3.6-3.5v16.7h-10.8V15.7l10.8-1.7L125.6,45.9"/>
				<path id="path2987" class="st1" d="M188.6,68.9c-2.3,0.6-4.7,1.1-7.1,1.4c-3,0.5-6.1,0.7-9.1,0.7c-2.8,0.1-5.5-0.4-8.1-1.3
					c-2-0.8-3.7-2-5.1-3.6c-1.3-1.7-2.2-3.6-2.7-5.7c-0.6-2.3-0.8-4.8-0.8-7.2V32.1h10.8V52c0,3.5,0.5,6,1.4,7.5s2.6,2.3,5.1,2.3
					c0.8,0,1.6,0,2.5-0.1s1.6-0.1,2.3-0.3V32.1h10.8V68.9"/>
				<path id="path2989" class="st1" d="M223.2,50.9c0-7-2.6-10.4-7.7-10.4c-1.1,0-2.2,0.1-3.3,0.4c-0.9,0.2-1.8,0.6-2.6,1.1v19.6
					c0.5,0.1,1.2,0.2,2,0.3c0.8,0.1,1.7,0.1,2.7,0.1c2.6,0.2,5.1-0.9,6.7-3C222.5,56.6,223.3,53.8,223.2,50.9 M234.2,51.3
					c0,2.8-0.4,5.6-1.4,8.3c-0.8,2.4-2.1,4.5-3.8,6.3c-1.8,1.8-3.9,3.2-6.2,4.1c-2.7,1-5.5,1.4-8.4,1.4c-1.3,0-2.7-0.1-4.1-0.2
					c-1.4-0.1-2.8-0.3-4.2-0.4c-1.3-0.2-2.6-0.4-3.9-0.7c-1.3-0.2-2.4-0.5-3.3-0.9V15.7l10.8-1.7v19c1.2-0.5,2.5-0.9,3.8-1.2
					c1.4-0.3,2.8-0.4,4.2-0.4c2.5,0,4.9,0.4,7.2,1.5c2,0.9,3.8,2.3,5.2,4c1.5,1.9,2.6,4,3.2,6.3C233.9,45.7,234.2,48.5,234.2,51.3"
					/>
				<path id="path2991" class="st1" d="M240.7,51.5c-0.1-3,0.5-6,1.5-8.8c0.9-2.4,2.3-4.5,4.1-6.4c1.7-1.7,3.6-3,5.8-3.8
					c2.2-0.9,4.5-1.3,6.8-1.3c5.4,0,9.7,1.7,12.8,5c3.1,3.3,4.7,8.2,4.7,14.5c0,0.6,0,1.3-0.1,2.1s-0.1,1.4-0.1,2h-24.5
					c0.2,2.1,1.3,4.1,3.1,5.3c2.2,1.4,4.8,2.1,7.4,2c1.9,0,3.9-0.2,5.8-0.5c1.6-0.3,3.2-0.8,4.7-1.4l1.5,8.8
					c-0.7,0.4-1.5,0.6-2.3,0.9c-1.1,0.3-2.2,0.6-3.3,0.7c-1.2,0.2-2.4,0.4-3.8,0.6c-1.3,0.1-2.7,0.2-4.1,0.2c-3.1,0.1-6.1-0.4-9-1.5
					c-2.4-0.9-4.5-2.3-6.3-4.1c-1.7-1.8-2.9-4-3.7-6.3C241.1,56.8,240.7,54.2,240.7,51.5 M266.1,47.4c0-0.9-0.2-1.8-0.5-2.7
					c-0.2-0.9-0.7-1.6-1.2-2.3c-0.6-0.7-1.3-1.3-2.1-1.7c-1-0.5-2-0.7-3.1-0.7s-2.1,0.2-3.1,0.7c-0.8,0.4-1.6,0.9-2.2,1.6
					c-0.6,0.7-1.1,1.5-1.4,2.4c-0.3,0.9-0.5,1.8-0.6,2.7H266.1"/>
				<path id="path2993" class="st1" d="M307.8,41.7c-1-0.2-2.1-0.5-3.4-0.7c-1.4-0.3-2.8-0.4-4.2-0.4c-0.8,0-1.6,0.1-2.5,0.2
					c-0.7,0.1-1.4,0.2-2.1,0.4v29.1h-10.8V34.1c2.2-0.8,4.5-1.4,6.8-1.9c2.9-0.7,5.9-1,8.8-0.9c0.7,0,1.4,0.1,2.1,0.1
					c0.8,0,1.6,0.1,2.5,0.3c0.8,0.1,1.6,0.2,2.5,0.4c0.7,0.1,1.4,0.3,2.1,0.6L307.8,41.7"/>
				<path id="path2995" class="st1" d="M315.4,33.4c2.3-0.6,4.7-1.1,7.1-1.5c3-0.5,6.1-0.7,9.1-0.7c2.7-0.1,5.4,0.4,8,1.3
					c2,0.7,3.8,1.9,5.1,3.5c1.3,1.6,2.2,3.5,2.7,5.5c0.6,2.3,0.8,4.7,0.8,7.1v21.5h-10.7V50c0-3.5-0.5-5.9-1.4-7.4
					c-0.9-1.4-2.6-2.2-5.1-2.2c-0.8,0-1.6,0-2.5,0.1c-0.9,0-1.6,0.1-2.3,0.2v29.4h-10.8L315.4,33.4"/>
				<path id="path2997" class="st1" d="M356.4,51.5c-0.1-3,0.5-6,1.5-8.8c0.9-2.4,2.3-4.5,4.1-6.4c1.7-1.7,3.6-3,5.8-3.8
					c2.2-0.9,4.5-1.3,6.8-1.3c5.4,0,9.7,1.7,12.8,5c3.1,3.3,4.7,8.2,4.7,14.6c0,0.6,0,1.3-0.1,2.1s-0.1,1.4-0.1,2h-24.5
					c0.2,2.1,1.3,4.1,3.1,5.3c2.2,1.4,4.8,2.1,7.4,2c1.9,0,3.9-0.2,5.8-0.5c1.6-0.3,3.2-0.8,4.8-1.5L390,69
					c-0.7,0.4-1.5,0.6-2.3,0.9c-1.1,0.3-2.2,0.6-3.3,0.7c-1.2,0.2-2.4,0.4-3.8,0.6c-1.3,0.1-2.7,0.2-4.1,0.2c-3.1,0.1-6.1-0.4-9-1.5
					c-2.4-0.9-4.5-2.3-6.3-4.1c-1.7-1.8-2.9-4-3.7-6.3C356.7,56.8,356.3,54.1,356.4,51.5 M381.7,47.4c0-0.9-0.2-1.8-0.5-2.7
					c-0.2-0.9-0.7-1.6-1.2-2.3c-0.6-0.7-1.3-1.3-2.1-1.7c-1-0.5-2-0.7-3.1-0.7s-2.1,0.2-3.1,0.7c-0.8,0.4-1.5,0.9-2.1,1.6
					c-0.6,0.7-1.1,1.5-1.4,2.4s-0.5,1.8-0.6,2.7H381.7"/>
				<path id="path2999" class="st1" d="M400.1,22.6l10.8-1.7v11.2h13v9h-13v13.4c-0.1,1.9,0.3,3.8,1.2,5.4c0.8,1.3,2.4,2,4.9,2
					c1.2,0,2.4-0.1,3.5-0.3c1.2-0.2,2.3-0.5,3.4-0.9l1.5,8.4c-1.4,0.6-2.9,1-4.4,1.4c-1.9,0.4-3.9,0.6-5.9,0.6
					c-2.5,0.1-5-0.3-7.3-1.2c-1.8-0.7-3.4-1.9-4.6-3.3c-1.2-1.5-2-3.3-2.5-5.2c-0.5-2.2-0.7-4.5-0.6-6.7V22.6"/>
				<path id="path3001" class="st1" d="M429.4,51.5c-0.1-3,0.5-6,1.5-8.8c0.9-2.4,2.3-4.5,4.1-6.4c1.7-1.7,3.6-3,5.8-3.8
					c2.2-0.9,4.5-1.3,6.8-1.3c5.4,0,9.7,1.7,12.8,5s4.7,8.2,4.7,14.6c0,0.6,0,1.3-0.1,2.1c0,0.8-0.1,1.4-0.1,2h-24.4
					c0.2,2.1,1.3,4.1,3.1,5.3c2.2,1.4,4.8,2.1,7.4,2c1.9,0,3.9-0.2,5.8-0.5c1.6-0.3,3.2-0.8,4.7-1.5L463,69
					c-0.7,0.4-1.5,0.6-2.3,0.9c-1.1,0.3-2.2,0.6-3.3,0.7c-1.2,0.2-2.4,0.4-3.8,0.6c-1.3,0.1-2.7,0.2-4.1,0.2c-3.1,0.1-6.1-0.4-9-1.5
					c-2.4-0.9-4.5-2.3-6.3-4.1c-1.7-1.8-2.9-4-3.7-6.3C429.8,56.8,429.4,54.1,429.4,51.5 M454.7,47.4c0-0.9-0.2-1.8-0.5-2.7
					c-0.2-0.9-0.7-1.6-1.2-2.3c-0.6-0.7-1.3-1.3-2.1-1.7c-1-0.5-2-0.7-3.1-0.7s-2.1,0.2-3.1,0.7c-0.8,0.4-1.6,0.9-2.2,1.6
					c-0.6,0.7-1.1,1.5-1.4,2.4s-0.5,1.8-0.6,2.7H454.7"/>
				<path id="path3003" class="st1" d="M484.5,62.5c1.4,0.1,2.9-0.1,4.2-0.6c0.8-0.4,1.3-1.3,1.2-2.2c-0.1-1-0.7-1.9-1.6-2.2
					c-1.5-0.9-3.2-1.7-4.9-2.2c-1.7-0.6-3.2-1.3-4.6-2c-1.3-0.6-2.4-1.4-3.5-2.4c-1-1-1.7-2.1-2.2-3.4c-0.6-1.5-0.8-3.1-0.8-4.7
					c-0.1-3.3,1.4-6.5,4-8.5c2.7-2.1,6.3-3.1,10.9-3.1c2.2,0,4.5,0.2,6.7,0.7c1.7,0.3,3.4,0.7,5.1,1.3l-1.9,8.5
					c-1.4-0.5-2.7-0.8-4.1-1.2c-1.6-0.4-3.3-0.5-4.9-0.5c-3.4,0-5.1,0.9-5.1,2.8c0,0.4,0.1,0.8,0.2,1.2c0.2,0.4,0.5,0.7,0.9,1
					s1,0.6,1.7,1s1.7,0.8,2.9,1.2c2,0.7,4,1.6,5.8,2.6c1.4,0.7,2.6,1.6,3.6,2.8c0.9,0.9,1.5,2,1.9,3.3c0.4,1.4,0.6,2.8,0.6,4.2
					c0.2,3.4-1.4,6.7-4.3,8.6c-2.8,1.9-6.8,2.9-12,2.9c-2.9,0.1-5.7-0.2-8.5-0.9c-1.6-0.4-3.1-0.9-4.6-1.4l1.8-8.8
					c1.8,0.7,3.7,1.3,5.6,1.7C480.6,62.3,482.5,62.5,484.5,62.5"/>
			</g>
		</g>
	</g>
</g>
</svg>
