<?xml version="1.0" encoding="utf-8"?>
<!-- Generator: Adobe Illustrator 25.4.1, SVG Export Plug-In . SVG Version: 6.00 Build 0)  -->
<svg version="1.1" id="Layer_1" xmlns="http://www.w3.org/2000/svg" xmlns:xlink="http://www.w3.org/1999/xlink" x="0px" y="0px"
	 viewBox="0 0 1385.4 480" style="enable-background:new 0 0 1385.4 480;" xml:space="preserve">
<style type="text/css">
	.st0{fill:#3D90CE;}
	.st1{fill:#3F90CE;}
</style>
<path class="st0" d="M0,0v480h480V0H0z M390.9,70L177.4,172.7l23-102.7H390.9z M70,70h115.1L145,249.4l-75-94.3V70z M70,179.1
	l113.3,142.5H70V179.1z M70,410v-73.5h195.1L207.6,410H70z M226.6,410l100.7-128.7L357.5,410H226.6z M410,410h-37.1l-49.3-210.1
	L410,242V410z M410,225.4L257.1,151L410,77.4V225.4z"/>
<g>
	<path class="st1" d="M642.6,101h18.3v253.8h146v17.4H642.6V101z"/>
	<path class="st1" d="M849.8,350.7C834,331.5,826,306.2,826,274.8s7.9-56.8,23.8-75.9c15.9-18.9,36.9-28.4,63.1-28.4
		s47.3,8.7,63.1,26.1c15.8,17.4,23.8,40.5,23.8,69.5v8.7H844.3c0,26.5,6.2,47.7,18.7,63.6s29.1,23.8,49.8,23.8
		c14.9,0.2,29.6-4.1,42.1-12.3c12.3-7.9,21.7-19.6,26.6-33.4h18.3c-3.1,18-12.8,32.9-29.3,44.8C954.1,373,934.9,379,912.9,379
		C886.7,379,865.7,369.6,849.8,350.7z M981.6,257.4v-6.9c-1.3-17.5-9.1-33.8-22-45.7c-12.6-11.9-29.4-18.4-46.7-18.3
		c-17.3-0.2-33.9,6.6-46.2,18.8c-13.2,12.3-21.2,29.1-22.4,47.1v5H981.6z"/>
	<path class="st1" d="M1042.8,372.2V177.3h18.3v32.9c5.4-11.5,14.2-21.1,25.2-27.4c11.3-7,24.3-10.6,37.5-10.5
		c19.2,0,35.5,6.3,48.9,18.8c13.7,12.8,20.6,28,20.6,45.7v135.4H1175V236.8c0.2-13.1-5.3-25.6-15.1-34.3
		c-9.7-9.3-22.7-14.4-36.1-14.2c-15-0.1-29.5,5.5-40.7,15.6c-11.7,10.3-19.5,24.4-21.9,39.8v128.5H1042.8z"/>
	<path class="st1" d="M1254.6,358.9c-14.6-12.2-22-27-22-44.4h16.9c0,13.1,5.6,24.4,16.9,33.8c11.3,9.1,24.8,13.7,40.7,13.7
		c18.3,0,33.1-4.1,44.4-12.3c10.6-7.8,16.7-20.2,16.4-33.4c0-10.4-5.8-19.2-17.4-26.5c-11.6-7-27.1-11.4-46.6-13.3
		c-20.7-1.8-37.2-7.6-49.4-17.4c-12.5-9.8-18.8-21.8-18.8-36.1c0-16.2,6.3-28.7,18.8-37.5c12.5-8.8,30-13.3,52.6-13.3
		c21.7,0,38.9,4.7,51.7,14.2c13.1,9.5,19.7,22.1,19.7,38h-17.3c-1.8-11.3-8-21.3-17.4-27.9c-9.4-6.7-21.6-10.1-36.6-10.1
		c-16.5,0-29.6,3.4-39.3,10.1c-9.7,6.7-14.6,15.5-14.6,26.5c0,10.4,5.9,19.2,17.8,26.5c11.6,7,27.1,11.4,46.7,13.3
		c20.4,1.8,36.9,7.9,49.4,18.3c12.2,10.4,18.3,23.3,18.3,38.8c0,17.4-7.2,31.3-21.5,41.6c-14,10.4-32.9,15.6-56.7,15.6
		C1286.4,377.2,1268.9,371.1,1254.6,358.9z"/>
</g>
</svg>
