<svg id="Layer_1" data-name="Layer 1" xmlns="http://www.w3.org/2000/svg" viewBox="0 0 1359.06 420"><defs><style>.cls-1{fill:#fff;}</style></defs><g id="Servers"><path id="S" class="cls-1" d="M1227.65,328.67a35,35,0,0,1-15,12.92q-9.86,4.77-23.63,4.76-20.91,0-34.42-10t-14.71-28.56h35.53q.51,6.3,3.91,9.35a12,12,0,0,0,8.33,3.06,9.92,9.92,0,0,0,6.89-2.21,8,8,0,0,0,2.46-6.29,9.32,9.32,0,0,0-4.93-8.41q-4.92-3-15.64-6.55a149.37,149.37,0,0,1-18.78-7.65A35.14,35.14,0,0,1,1145,277.84q-5.35-7.47-5.36-19.21a32.27,32.27,0,0,1,5.78-19.29,35.92,35.92,0,0,1,15.81-12.24,58.89,58.89,0,0,1,22.78-4.17q20.74,0,33.07,9.78t13.51,27.45h-35.87c-.45-3.74-1.61-6.51-3.48-8.33a10.2,10.2,0,0,0-7.4-2.72,8.7,8.7,0,0,0-6.12,2q-2.2,2-2.21,6.12,0,5.1,4.85,8t15.21,6.46a152.56,152.56,0,0,1,18.87,8,37.33,37.33,0,0,1,12.92,11.39q5.45,7.48,5.44,19.38A33.62,33.62,0,0,1,1227.65,328.67Z"/><path id="R" class="cls-1" d="M1093.18,345.16l-24.31-44.37h-3.4v44.37H1032V224.8h52.87q14.46,0,24.57,5a34.87,34.87,0,0,1,15.21,13.85,39,39,0,0,1,5.1,19.89,35.31,35.31,0,0,1-7,21.85q-7,9.27-20.06,13l27.37,46.75Zm-27.71-66.81H1082q13.95,0,13.94-12.58,0-5.94-3.48-9.35T1082,253h-16.49Z"/><path id="E" class="cls-1" d="M972.66,251.49v19.89h38.93v25.33H972.66v21.76h44v26.69H939.17V224.8h77.52v26.69Z"/><path id="V" class="cls-1" d="M839.55,224.8l27.2,86.7,27-86.7h35.53L888.17,345.16h-43L804,224.8Z"/><path id="R-2" data-name="R" class="cls-1" d="M762.71,345.16,738.4,300.79H735v44.37H701.51V224.8h52.87q14.45,0,24.56,5a34.9,34.9,0,0,1,15.22,13.85,39.11,39.11,0,0,1,5.1,19.89,35.37,35.37,0,0,1-7,21.85q-7,9.27-20.06,13l27.37,46.75ZM735,278.35h16.49q13.93,0,13.94-12.58,0-5.94-3.49-9.35T751.49,253H735Z"/><path id="E-2" data-name="E" class="cls-1" d="M642.18,251.49v19.89h38.93v25.33H642.18v21.76h44v26.69H608.69V224.8h77.52v26.69Z"/><path id="S-2" data-name="S" class="cls-1" d="M589,328.67a35,35,0,0,1-15,12.92q-9.87,4.77-23.63,4.76-20.91,0-34.43-10t-14.7-28.56h35.53q.51,6.3,3.91,9.35a12,12,0,0,0,8.33,3.06A9.91,9.91,0,0,0,555.9,318a8,8,0,0,0,2.47-6.29,9.34,9.34,0,0,0-4.93-8.41q-4.94-3-15.64-6.55A149,149,0,0,1,519,289.06a35.14,35.14,0,0,1-12.75-11.22q-5.36-7.47-5.35-19.21,0-11.22,5.78-19.29A35.81,35.81,0,0,1,522.5,227.1a58.85,58.85,0,0,1,22.78-4.17q20.73,0,33.06,9.78t13.52,27.45H556c-.46-3.74-1.62-6.51-3.49-8.33a10.17,10.17,0,0,0-7.39-2.72,8.67,8.67,0,0,0-6.12,2c-1.48,1.36-2.21,3.4-2.21,6.12q0,5.1,4.84,8t15.22,6.46a153.9,153.9,0,0,1,18.87,8,37.51,37.51,0,0,1,12.92,11.39q5.43,7.48,5.44,19.38A33.62,33.62,0,0,1,589,328.67Z"/></g><g id="Hyperion"><path id="N" class="cls-1" d="M1359.06,195.16h-33.49L1281.37,128v67.15h-33.49V75h33.49l44.2,68V75h33.49Z"/><path id="O" class="cls-1" d="M1202.75,80.84a57.76,57.76,0,0,1,22.1,22,62.91,62.91,0,0,1,8.07,31.79,62.31,62.31,0,0,1-8.16,31.79,58.26,58.26,0,0,1-22.18,22,64.38,64.38,0,0,1-61.8,0,58.08,58.08,0,0,1-22.27-22,62.31,62.31,0,0,1-8.16-31.79,62.36,62.36,0,0,1,8.16-31.79,58.13,58.13,0,0,1,22.27-22,64.64,64.64,0,0,1,62,0Zm-51.09,31.28q-7.31,8.25-7.31,22.52,0,14,7.31,22.27t20.06,8.33q12.58,0,19.89-8.33t7.31-22.27q0-14.28-7.22-22.52t-20-8.25Q1159,103.87,1151.66,112.12Z"/><path id="I" class="cls-1" d="M1095.22,74.8V195.16h-33.49V74.8Z"/><path id="R-3" data-name="R" class="cls-1" d="M1011.92,195.16l-24.31-44.37h-3.4v44.37H950.72V74.8h52.87q14.45,0,24.57,5a34.87,34.87,0,0,1,15.21,13.85,39.11,39.11,0,0,1,5.1,19.89,35.31,35.31,0,0,1-7,21.85q-7,9.27-20.06,13l27.37,46.75Zm-27.71-66.81h16.49q13.93,0,13.94-12.58,0-5.94-3.48-9.35T1000.7,103H984.21Z"/><path id="E-3" data-name="E" class="cls-1" d="M891.39,101.49v19.89h38.93v25.33H891.39v21.76h44v26.69H857.9V74.8h77.52v26.69Z"/><path id="P" class="cls-1" d="M783.62,154.87v40.29H750.13V74.8h50q21.75,0,33.23,11t11.48,29.32a40.65,40.65,0,0,1-5.1,20.4,35.62,35.62,0,0,1-15.22,14.2q-10.11,5.19-24.39,5.18ZM811,115.09q0-13.26-14.62-13.26H783.62v26.69h12.75Q811,128.52,811,115.09Z"/><path id="Y" class="cls-1" d="M740.27,74.8l-42.5,82.11v38.25H664.45V156.91L622,74.8H660.2l21.25,45.9,21.08-45.9Z"/><path id="H" class="cls-1" d="M611.92,74.8V195.16H578.6V146.54H537.8v48.62H504.31V74.8H537.8v45.05h40.8v-45Z"/></g><g id="Logomark"><path class="cls-1" d="M336,0V336H252V252H168V420H336a84,84,0,0,0,84-84h0V84A84,84,0,0,0,336,0Z"/><path class="cls-1" d="M168,168h84V0H84A84,84,0,0,0,0,84V336a84,84,0,0,0,84,84h0V84h84Z"/></g></svg>