<svg id="MetroXC" xmlns="http://www.w3.org/2000/svg" viewBox="0 0 1355.31 205.49"><defs><style>.cls-1{fill:#00b0f0;}.cls-2{fill:#fff;}</style></defs><g id="XC"><polygon id="X" class="cls-1" points="1017.05 114.75 961.21 203.5 1024.61 203.5 1049.39 161.31 1049.31 161.36 1017.05 114.75"/><path id="YC" class="cls-1" d="M1281.72,146.9a41.33,41.33,0,0,1-23.49,6.79q-18.4,0-29.72-13.87T1217.19,103q0-22.93,11.32-36.66t29.72-13.73a42,42,0,0,1,23.49,6.66,38.9,38.9,0,0,1,15,18.54h58.59a100.26,100.26,0,0,0-17.26-40.34,84.67,84.67,0,0,0-33-26.89q-20.23-9.48-46-9.48-29.71,0-51.94,12.88a87.22,87.22,0,0,0-34.25,36.09Q1162.25,70.63,1161,96.27h-61.5l59.24-93.16h-63.69l-32.27,55.2-38.21-55.2H958.67L1026,100.48h0l32,46.18,0,0,39.34,56.89h66l-63.49-91.71h61.36q1.53,24.42,11.72,44.16A87.1,87.1,0,0,0,1207.14,192q22.21,12.89,51.94,12.88,38.78,0,64.11-20.8t32.12-55.9h-58.59A39.79,39.79,0,0,1,1281.72,146.9Z"/></g><g id="Metro"><path class="cls-2" d="M912.14,13.16a96.09,96.09,0,0,1,36.79,36.65q13.44,23.5,13.45,52.93t-13.59,52.93a97,97,0,0,1-36.93,36.66,107.13,107.13,0,0,1-102.89,0,96.79,96.79,0,0,1-37.08-36.66q-13.57-23.49-13.58-52.93t13.58-52.93A96.9,96.9,0,0,1,809,13.16,103.65,103.65,0,0,1,860.49,0Q888.78,0,912.14,13.16Zm-85,52.08Q814.91,79,814.92,102.74q0,23.22,12.17,37.08t33.4,13.87q20.94,0,33.11-13.87t12.17-37.08q0-23.77-12-37.5T860.49,51.51Q839.25,51.51,827.09,65.24Z"/><path class="cls-2" d="M685.48,203.5,645,129.63h-5.66V203.5H583.59V3.11h88q24.06,0,40.9,8.35t25.34,23.07a65.06,65.06,0,0,1,8.49,33.12q0,20.94-11.61,36.37t-33.4,21.65L746.9,203.5ZM639.35,92.27H666.8Q690,92.27,690,71.33q0-9.91-5.8-15.57T666.8,50.1H639.35Z"/><path class="cls-2" d="M569.64,3.11V47.55H515.58v156H460.1V47.55H406.61V3.11Z"/><path class="cls-2" d="M321.5,47.55V80.67h64.82v42.17H321.5v36.23h73.31V203.5H265.74V3.11H394.81V47.55Z"/><path class="cls-2" d="M232.94,4V203.5H177.75V90.29L140.67,203.5H92.84L55.76,90.29V203.5H0V4H68.21l49.25,129.63L165.29,4Z"/></g></svg>