<svg id="OBNCO_Logo" data-name="OBNCO Logo" xmlns="http://www.w3.org/2000/svg" viewBox="0 0 1016.66 199.65"><defs><style>.oq-1{fill:#00b0f0;}.oq-2{fill:#fff;}</style></defs><g id="_." data-name="."><polygon class="oq-1" points="971.99 199.1 1016.66 199.1 1016.66 199.1 1016.66 154.42 971.99 154.42 971.99 199.1 971.99 199.1"/></g><path id="O" class="oq-2" d="M961.66,144.1h45.53q9.46-20.07,9.47-44.27,0-28.6-13.06-51.43a93.36,93.36,0,0,0-35.75-35.61Q945.16,0,917.66,0a100.62,100.62,0,0,0-50,12.79,94,94,0,0,0-36,35.61q-13.2,22.83-13.2,51.43t13.2,51.42a93.91,93.91,0,0,0,36,35.61,104.43,104.43,0,0,0,94,3.08Zm-44,5.23q-20.62,0-32.45-13.48t-11.82-36q0-23.1,11.82-36.44t32.45-13.34q20.63,0,32.31,13.34t11.69,36.44q0,22.55-11.82,36T917.66,149.33Z"/><path id="C" class="oq-2" d="M750.88,10.31a82.21,82.21,0,0,1,32,26.13,97.38,97.38,0,0,1,16.78,39.19H742.76a37.84,37.84,0,0,0-14.57-18,40.89,40.89,0,0,0-22.83-6.46q-17.88,0-28.87,13.34t-11,35.61q0,22.28,11,35.75t28.87,13.48a40.2,40.2,0,0,0,22.83-6.6,38.66,38.66,0,0,0,14.57-18.15h56.93q-6.6,34.1-31.21,54.31T706.19,199.1q-28.87,0-50.46-12.51a84.59,84.59,0,0,1-33.28-35.07Q610.76,129,610.76,100.1t11.69-51.42a84.65,84.65,0,0,1,33.28-35.07Q677.32,1.1,706.19,1.1,731.21,1.1,750.88,10.31Z"/><path id="N" class="oq-2" d="M586.29,197.73H532.12L460.62,89.1V197.73H406.44V3.3h54.18l71.5,110V3.3h54.17Z"/><path id="B" class="oq-2" d="M373.58,114.68a47.47,47.47,0,0,1,10,30q0,25.31-16.77,39.19t-48.13,13.89H222.47V3h94Q346,3,362.58,16t16.64,37.4q0,17.33-9.07,29a41.74,41.74,0,0,1-23.93,15.27Q363.54,101.76,373.58,114.68ZM276.65,80.85h27.22q20.36,0,20.35-17,0-17.59-20.62-17.6h-27Zm51.7,55.83q0-18.15-21.18-18.16H276.65v35.75h30.52Q328.35,154.27,328.35,136.68Z"/><path id="O-2" data-name="O" class="oq-2" d="M149.46,12.79A93.29,93.29,0,0,1,185.21,48.4q13.06,22.83,13.06,51.43t-13.2,51.42a94.24,94.24,0,0,1-35.88,35.61,99.89,99.89,0,0,1-49.92,12.79,100.59,100.59,0,0,1-50-12.79,93.93,93.93,0,0,1-36-35.61Q0,128.42,0,99.83T13.2,48.4a94,94,0,0,1,36-35.61A100.59,100.59,0,0,1,99.27,0Q126.78,0,149.46,12.79ZM66.82,63.39Q55,76.72,55,99.83q0,22.55,11.82,36t32.45,13.48q20.36,0,32.18-13.48t11.82-36q0-23.1-11.68-36.44T99.27,50.05Q78.65,50.05,66.82,63.39Z"/></svg>