<?xml version="1.0" encoding="utf-8"?>
<!-- Generator: Adobe Illustrator 27.0.0, SVG Export Plug-In . SVG Version: 6.00 Build 0)  -->
<svg version="1.1" id="AW" xmlns="http://www.w3.org/2000/svg" xmlns:xlink="http://www.w3.org/1999/xlink" x="0px" y="0px"
	 viewBox="0 0 283.5 86.3" style="enable-background:new 0 0 283.5 86.3;" xml:space="preserve">
<style type="text/css">
	.st0{fill:#1D1D1B;}
</style>
<path class="st0" d="M105,61.9c0,9.1,7.4,16.5,16.4,16.5h40.1V61.9h-37.8V50.1h35.3V35.5h-35.3V24.1h37.8V7.7h-40.1
	c-9.1,0-16.4,7.4-16.4,16.4V61.9z"/>
<path class="st0" d="M224.6,56.9L224.6,56.9c0-11.8-9.6-21.4-21.4-21.4h-17V24.1h35V7.7h-32.6c-11.7,0-21.2,9.5-21.2,21.2l0,0
	c0,11.7,9.5,21.2,21.2,21.2h17.2v11.8h-35v16.4h32.4C215.1,78.3,224.7,68.7,224.6,56.9z"/>
<path class="st0" d="M247.8,78.3h35.6V61.9h-33.3V7.7h-18.8v54.2C231.4,71,238.7,78.3,247.8,78.3z"/>
<path class="st0" d="M85.8,36.2c-3.8-23.5-26-39.5-49.5-35.7C12.7,4.4-3.3,26.5,0.6,50.1c3.8,23.5,26,39.5,49.5,35.7
	C73.6,81.9,89.6,59.8,85.8,36.2z M12,59.9L44.8,7.8c7.6,0.3,14.9,3.1,20.8,8L15.8,65.6C14.3,63.8,13,61.9,12,59.9z M77.6,51.3
	C73.1,70.4,54,82.2,35,77.7l42.8-27C77.7,50.9,77.7,51.1,77.6,51.3z M26.6,74.5c-2-1.1-3.9-2.3-5.7-3.8l49.8-49.8
	c4.8,5.9,7.6,13.2,7.9,20.9L26.6,74.5z"/>
</svg>
