<?xml version="1.0" encoding="UTF-8"?><svg id="Layer_1" xmlns="http://www.w3.org/2000/svg" viewBox="0 0 514 98.11"><defs><style>.cls-1{fill:#fff;}.cls-2{fill:#f50;}</style></defs><path class="cls-1" d="m5.4,23.5c-3.6,1.3-5.4,3-5.4,5.2v47.1h25.1v-22.2h35.1v-9.4H25.1v-10.8c0-1.3,1.3-2,4-2h31.1v-9.4H15c-3.3-.1-6.5.5-9.6,1.5h0Zm126.1.5c-3.1-1.3-6.4-2-9.8-2s-6.6.7-9.7,2.1c-2.9,1.4-5,3.2-6.1,5.4l-24.1,46.3h14l3.5-6.7h32.1l3.5,6.7h27.1l-24.3-46.6c-1.1-2.1-3.2-3.9-6.2-5.2Zm-27.2,35.6l11.1-21.3,11.1,21.3h-22.2Zm88.9-29.7c-7.8,5.3-11.8,11.6-11.8,19s3.9,13.7,11.8,19c7.8,5.3,17.3,7.9,28.3,7.9h30.1v-9.4h-30.1c-5.2,0-8.7-2.2-10.6-6.7-1-2.4-1.5-6-1.5-10.8s.5-8.4,1.5-10.8c1.8-4.4,5.4-6.7,10.6-6.7h30.1v-9.4h-30.1c-11,0-20.4,2.6-28.3,7.9h0Zm95.6-6.4c-3.6,1.3-5.4,3-5.4,5.2v40.4c0,2.2,1.8,3.9,5.4,5.2,3.1,1.1,6.4,1.6,9.7,1.5h45.1v-9.4h-31.1c-2.7,0-4-.7-4-2v-10.8h35.1v-9.4h-35.1v-10.8c0-1.3,1.3-2,4-2h31.1v-9.4h-45.1c-3.3-.1-6.6.5-9.7,1.5h0Zm97.5,52v-.1h27v-18.4l-27-11v29.5h0Zm50.2-53.5v9.4h22.2c2.6,0,3.9.7,3.9,2v42.4h25.3v-42.3c0-1.3,1.3-2,3.9-2h22.2v-9.5h-77.5Z"/><path class="cls-2" d="m413.8.4c0-.2-.1-.3-.3-.4-.2-.1-.4,0-.5.2-6.9,10.6-10.7,16.7-14.2,22.2h-41c-.5,0-.7.7-.3.8,17,6.5,41.5,16.2,55.3,21.6.4.1.9-.2.9-.4l.1-44h0Z"/></svg>