<?xml version="1.0" encoding="UTF-8"?><svg id="PacificES_Logo" xmlns="http://www.w3.org/2000/svg" viewBox="0 0 828.69 236.61"><g id="Text"><polygon points="765.28 93.75 787.46 93.75 787.46 87.12 765.28 87.12 765.28 69.3 788.36 69.3 788.36 62.67 758.44 62.67 758.44 117.88 788.84 117.88 788.84 111.32 765.28 111.32 765.28 93.75" style="fill:#fff;"/><path d="m815.01,87.05v-.06h-7.74c-6.59,0-8.81-2.22-8.81-8.81s2.14-8.95,8.81-8.95h17.23v-6.56h-17.29c-10.58,0-15.51,4.93-15.51,15.51,0,8.95,4.13,14.07,12.28,15.22l4.47.15h4.72c6.64,0,8.77,2.18,8.77,8.95s-2.22,8.81-8.81,8.81h-17.23v6.56h16.08l4.29-.14h.15c8.15-1.17,12.29-6.29,12.29-15.23,0-9.96-4.36-14.91-13.69-15.46Z" style="fill:#fff;"/><path d="m387.43,62.67l-39.88,110.34h16.31l10.04-28.2h41.55l9.89,28.2h16.32l-39.72-110.34h-14.51Zm22.58,67.32h-30.65l10.74-29.92c1.41-4.17,2.98-8.83,4.56-13.83,1.35,4.33,2.88,8.99,4.63,13.89l10.72,29.86Z" style="fill:#fff;"/><path d="m322.27,62.67h-41.59v110.34h15.71v-43.11h23.22l9.27-.3.38-.03c17.77-2.51,26.78-13.66,26.78-33.14,0-23.04-10.73-33.76-33.76-33.76Zm18.2,33.76c0,13.89-4.46,18.35-18.35,18.35h-25.73v-36.99h25.73c13.89,0,18.35,4.53,18.35,18.64Z" style="fill:#fff;"/><path d="m439.01,114.44v6.35c0,35.14,14.52,52.22,44.39,52.22h32.01v-15.12h-32.01c-20.48,0-28.83-10.75-28.83-37.1v-6.35c0-25.93,8.22-36.51,28.39-36.51h32.45s0-15.27,0-15.27h-32.45c-29.57,0-43.95,16.94-43.95,51.77Z" style="fill:#fff;"/><path d="m669.27,114.44v6.35c0,35.14,14.52,52.22,44.39,52.22h32.01v-15.12h-32.01c-20.48,0-28.83-10.75-28.83-37.1v-6.35c0-25.93,8.22-36.51,28.39-36.51h32.45s0-15.27,0-15.27h-32.45c-29.57,0-43.95,16.94-43.95,51.77Z" style="fill:#fff;"/><rect x="529.35" y="62.67" width="15.56" height="110.34" style="fill:#fff;"/><polygon points="564.19 173.01 579.9 173.01 579.9 127.54 625.66 127.54 625.66 112.27 579.9 112.27 579.9 77.94 627.58 77.94 627.58 62.67 564.19 62.67 564.19 173.01" style="fill:#fff;"/><rect x="640.65" y="62.67" width="15.56" height="110.34" style="fill:#fff;"/></g><g id="Symbol"><path d="m267.14,0h-22.8l-9.73,30.77-9.62-16.14H3.46l45.34,84.81,23.47-37.92h116.15l-24.09,40.87h-80.87L0,236.61h145.4l-43.88-24.95,23.66-38.29h71.41l56.35-111.85-13.98-23.45h13.98L267.14,0Z" style="fill:#fff;"/><path d="m277.46,0l-12.04,38.07h20.65L301.98,0h-24.52Z" style="fill:#fff;"/></g></svg>