<?xml version="1.0" encoding="utf-8"?>
<!-- Generator: Adobe Illustrator 16.0.0, SVG Export Plug-In . SVG Version: 6.00 Build 0)  -->
<!DOCTYPE svg PUBLIC "-//W3C//DTD SVG 1.1//EN" "http://www.w3.org/Graphics/SVG/1.1/DTD/svg11.dtd">
<svg version="1.1" id="Layer_1" xmlns="http://www.w3.org/2000/svg" xmlns:xlink="http://www.w3.org/1999/xlink" x="0px" y="0px"
	 width="676.77px" height="231.628px" viewBox="0 0 676.77 231.628" enable-background="new 0 0 676.77 231.628"
	 xml:space="preserve">
<polygon fill="#009687" points="0,89.222 17.522,127.008 72.547,63.151 88.068,110.059 139.37,41.999 222.072,0 92.347,191.326 
	57.975,122.126 9.875,166.04 "/>
<path fill="#FFFFFF" d="M489.463,64.578l-32.701,118.807h-39.159l3.218-10.884c-5.071,4.023-9.906,7.198-14.484,9.524
	c-4.583,2.323-10.225,3.49-16.925,3.49c-8.521,0-15.77-2.389-21.733-7.155c-5.965-4.774-10.238-11.146-12.821-19.116
	c-2.576-7.962-3.293-16.642-2.149-26.034c0.953-7.81,3.211-15.796,6.762-23.962c3.557-8.162,9.088-15.972,16.58-23.431
	c7.5-7.452,17.521-13.49,30.071-18.102c12.558-4.619,27.636-6.924,45.218-6.924c7.425,0,13.463,0.277,18.129,0.832
	C474.127,62.17,480.793,63.158,489.463,64.578 M443.791,89.787h-7.343c-7.094,0-13.835,2.008-20.198,6.032
	c-6.363,4.023-11.632,9.47-15.776,16.33c-4.146,6.859-6.708,14.278-7.682,22.246c-0.656,5.441,0.155,10.08,2.448,13.904
	c2.292,3.83,6.004,5.74,11.137,5.74c2.521,0,5.456-0.652,8.818-1.957c3.346-1.299,7.715-3.571,13.077-6.803L443.791,89.787z"/>
<path fill="#FFFFFF" d="M541.751,88.84c-5.376,0.082-8.277,1.853-8.73,5.559c-0.256,2.13,0.312,4.064,1.718,5.798
	c1.407,1.737,3.842,3.926,7.311,6.569c3.462,2.641,6.538,5.223,9.229,7.75c7.161,6.63,11.78,12.58,13.862,17.868
	c2.07,5.285,2.827,10.258,2.259,14.903c-0.717,5.924-3.178,11.858-7.377,17.812c-4.192,5.963-10.056,10.854-17.582,14.677
	s-16.377,5.738-26.554,5.738c-4.024,0-9.677-0.731-16.953-2.185c-7.277-1.46-13.092-3.422-20.632-7.604l6.857-28.438
	c8.324,3.558,14.755,6.14,19.292,7.757c4.537,1.616,9.481,2.424,14.85,2.424c3.238,0,5.828-0.746,7.791-2.248
	c1.96-1.498,3.049-3.191,3.279-5.085c0.291-2.37-0.67-4.677-2.888-6.924c-2.212-2.246-6.613-6.054-13.214-11.419
	c-6.011-5.052-10.906-10.356-14.688-15.914c-3.778-5.562-5.247-11.817-4.401-18.758c1.163-9.542,6.072-17.987,14.741-25.32
	c8.655-7.337,20.407-11.009,35.244-11.009c7.878,0,14.613,0.97,20.171,2.901c5.565,1.933,11.408,4.672,17.515,8.222L565.25,97.735
	C562.497,95.684,548.804,88.725,541.751,88.84"/>
<polygon fill="#FFFFFF" points="247.334,62.924 254.876,38.902 215.116,38.902 207.571,62.924 198.906,62.924 178.849,92.505 
	198.41,92.505 159.267,231.628 212.2,183.299 238.167,92.505 254.199,92.505 274.257,62.924 "/>
<path fill="#FFFFFF" d="M371.738,35.957c3.549,0,8.188,0.436,13.918,1.302l7.538-28.871c-5.2-1.338-9.688-2.326-13.482-2.958
	c-3.781-0.632-7.933-0.947-12.424-0.947c-10.42,0-19.186,1.735-26.31,5.204c-7.134,3.476-12.8,7.753-17.011,12.841
	c-4.209,5.088-7.271,9.818-9.185,14.197c-1.916,4.382-3.773,9.45-5.582,15.208l-3.377,10.992h-14.89l-20.058,29.581h27.085
	l-32.891,123.449l48.228-44.031l2.171-2.112l21.898-77.305h15.529l20.057-29.581h-27.604c2.616-10.492,5.936-17.402,9.952-21.226
	C359.31,37.874,364.787,35.957,371.738,35.957z"/>
<path fill="#FFFFFF" d="M590.171,149.763c-1.143,9.372,0.364,16.999,4.544,22.754c3.463,4.937,7.608,8.379,12.328,10.191
	c4.767,1.876,9.717,2.812,14.971,2.812c0.439,0,0.879,0,1.318-0.061l0.416-0.53l25.368-37.416c-3.584,1.366-6.847,2.124-9.724,2.124
	c-5.944,0-8.479-3.312-7.662-10.006c0.237-1.939,0.86-4.503,1.888-7.816l12.731-39.324h10.367l20.053-29.57h-21.249l7.546-24.006
	h-39.761l-7.547,24.006h-10.247l-20.051,29.57h21.128l-13.571,44.14C591.591,141.195,590.685,145.572,590.171,149.763z"/>
</svg>
