<svg id="Capa_1" enable-background="new 0 0 512 512" height="512" viewBox="0 0 512 512" width="512" xmlns="http://www.w3.org/2000/svg" fill="#fff"><g><path d="m259.653 142.235h29.214c16.472 0 29.873-13.401 29.873-29.873s-13.401-29.873-29.873-29.873h-29.214c-16.472 0-29.873 13.401-29.873 29.873s13.402 29.873 29.873 29.873zm0-44.746h29.214c8.201 0 14.873 6.672 14.873 14.873s-6.672 14.873-14.873 14.873h-29.214c-8.201 0-14.873-6.672-14.873-14.873s6.672-14.873 14.873-14.873z"/><path d="m512 204.017c0-23.45-10.306-44.528-26.612-58.978-13.787-28.456-32.538-53.855-55.773-75.499-3.031-2.822-7.776-2.653-10.601.376-2.823 3.031-2.654 7.777.376 10.601 15.783 14.701 29.359 31.246 40.578 49.376-8.366-3.032-17.384-4.693-26.785-4.693-11.728 0-22.854 2.593-32.866 7.207-.448-1.684-.984-3.523-1.64-5.515-1.294-3.934-5.531-6.073-9.468-4.78-3.935 1.294-6.075 5.533-4.78 9.468 1.176 3.575 1.905 6.575 2.354 8.781-8.746 6.392-16.124 14.539-21.625 23.92h-24.098c-29.347 0-53.222 23.876-53.222 53.223s23.875 53.222 53.222 53.222c18.513 0 33.573 15.061 33.573 33.573v14.769c-1.107.298-2.22.569-3.34.803-4.054.85-6.651 4.824-5.803 8.879.741 3.535 3.858 5.964 7.333 5.964.51 0 1.027-.053 1.546-.161.088-.018.175-.044.264-.063v40.552c0 21.789 13.444 40.174 34.25 46.836 5.13 1.643 10.306 2.44 15.385 2.44.853 0 1.702-.031 2.549-.076-.426.433-.842.873-1.272 1.303-45.287 45.287-105.5 70.228-169.545 70.228-8.48 0-16.891-.45-25.211-1.314v-42.049c0-3.029 1.18-5.878 3.323-8.02l29.068-29.068c14.17-2.888 27.247-9.642 37.984-19.721.265-.217.51-.457.743-.708.367-.353.744-.691 1.105-1.052 14.886-14.887 23.084-34.68 23.084-55.731 0-2.789-.167-5.566-.462-8.324 4.507 1.759 9.891 3.48 15.924 4.692.499.1.996.148 1.485.148 3.499 0 6.63-2.461 7.346-6.023.816-4.062-1.815-8.015-5.876-8.831-10.98-2.206-19.472-6.459-23.165-8.534-2.927-8.076-7.154-15.678-12.574-22.43-10.997-13.701-26.425-23.444-43.439-27.434-4.03-.947-8.068 1.558-9.014 5.59s1.557 8.068 5.59 9.014c22.227 5.212 39.297 21.482 46.038 42.233.084.32.183.636.309.943 1.849 6.009 2.838 12.379 2.838 18.957 0 11.022-2.791 21.61-8.011 30.981-2.693-10.073-11.664-17.606-22.448-18.127 1.749-4.235 2.721-8.87 2.721-13.729v-11.344c0-19.894-16.185-36.078-36.078-36.078-19.894 0-36.078 16.184-36.078 36.078v11.344c0 4.859.971 9.494 2.721 13.729-10.798.521-19.779 8.073-22.459 18.166-5.225-9.36-8-19.948-8-31.02 0-13.93 4.423-26.932 12.092-37.523.454-.462.852-.983 1.178-1.56 8.7-11.266 21.171-19.593 35.915-23.05 4.033-.945 6.535-4.98 5.59-9.014-.945-4.032-4.98-6.528-9.014-5.59-16.227 3.805-31 12.85-41.874 25.565l-30.647-7.378c-7.899-1.902-16.086-.108-22.468 4.919-6.381 5.026-10.041 12.569-10.041 20.692v73.675c0 8.714 3.394 16.906 9.555 23.068l29.18 29.179c2.143 2.142 3.322 4.992 3.322 8.021v39.349c-29.516-11.903-56.615-29.738-79.797-52.919-16.296-16.296-29.941-34.532-40.754-54.176 1.861-.003 3.761-.191 5.677-.579 13-2.626 21.735-13.294 21.735-26.546v-26.768c0-22.9 12.309-44.254 32.124-55.732l8.21-4.756c3.584-2.077 4.807-6.665 2.731-10.25-2.077-3.583-6.665-4.804-10.25-2.73l-8.209 4.756c-24.43 14.151-39.605 40.48-39.605 68.712v26.768c0 7.286-5.014 10.895-9.706 11.843-4.675.942-10.672-.431-13.489-7.12-.123-.291-.266-.566-.42-.833-11.985-28.812-18.271-59.989-18.271-92.134 0-30.288 5.553-59.672 16.484-87.504 13.355 9.658 29.379 14.895 46.105 14.895 10.614 0 20.906-2.089 30.412-6.064 3.415-.17 13.829-.42 26.818 1.829.434.075.864.111 1.289.111 3.58 0 6.749-2.572 7.381-6.221.707-4.081-2.028-7.963-6.109-8.67-2.509-.435-4.931-.785-7.244-1.067.452-.406.893-.827 1.338-1.244.265-.217.51-.457.743-.708.367-.353.743-.691 1.104-1.052 13.265-13.266 21.201-30.429 22.777-48.905l27.653 16.74c12.18 7.373 19.746 20.798 19.746 35.035 0 9.972-3.674 19.482-10.036 26.831-7.382-6.599-15.974-12.147-25.599-16.479-3.778-1.697-8.217-.015-9.918 3.762-1.699 3.777-.016 8.218 3.762 9.918 7.382 3.322 14.026 7.455 19.823 12.298l-48.495 28.09c-3.585 2.076-4.808 6.665-2.731 10.249 1.392 2.401 3.909 3.742 6.497 3.742 1.275 0 2.569-.326 3.752-1.011l50.037-28.984c17.214-9.972 27.908-28.524 27.908-48.418 0-19.451-10.338-37.793-26.979-47.866l-35.896-21.73c-.615-4.388-1.583-8.664-2.893-12.791 2.036-1.182 4.731-2.693 8.02-4.421 3.667-1.927 5.078-6.461 3.151-10.128-1.926-3.666-6.459-5.078-10.128-3.151-2.696 1.417-5.031 2.705-6.974 3.809-3.579-6.547-8.061-12.531-13.276-17.789 36.673-21.534 78.379-32.878 121.25-32.878 50.064 0 98.022 15.27 138.691 44.157 1.317.937 2.834 1.387 4.336 1.387 2.347-.001 4.659-1.099 6.121-3.158 2.398-3.377 1.605-8.059-1.771-10.457-43.221-30.702-94.183-46.93-147.377-46.93-47.386 0-93.443 13.043-133.534 37.762-12.506-8.35-27.517-13.231-43.65-13.231-43.46.001-78.816 35.357-78.816 78.817 0 20.03 7.364 38.768 20.812 53.339-12.988 31.084-19.585 64.053-19.585 98.086 0 68.052 26.501 132.031 74.621 180.151s112.1 74.621 180.151 74.621 132.031-26.501 180.151-74.621 74.621-112.1 74.621-180.151c0-10.122-.608-20.314-1.793-30.321 1.979-6.959 3.022-14.229 3.022-21.662zm-474.819-51.078v-11.066c0-5.224 4.249-9.473 9.472-9.473h10.333c6.066 4.626 13.631 7.38 21.831 7.38s15.765-2.754 21.831-7.38h10.333c5.223 0 9.472 4.249 9.472 9.473v11.045c-4.817 4.162-10.156 7.535-15.867 10.057-.049.02-.095.043-.143.064-7.975 3.498-16.655 5.354-25.626 5.354-15.392-.001-30.055-5.467-41.636-15.454zm62.714-49.238c0 11.622-9.456 21.078-21.078 21.078s-21.078-9.456-21.078-21.078v-11.344c0-11.622 9.456-21.078 21.078-21.078s21.078 9.456 21.078 21.078zm-21.079-62.942c32.808 0 59.903 24.889 63.419 56.776-.051.778.016 1.556.203 2.306.115 1.565.194 3.141.194 4.735 0 11.022-2.791 21.609-8.011 30.98-2.694-10.072-11.664-17.605-22.448-18.126 1.749-4.235 2.721-8.87 2.721-13.729v-11.344c0-19.894-16.185-36.078-36.078-36.078s-36.078 16.185-36.078 36.078v11.344c0 4.859.971 9.494 2.721 13.729-10.798.521-19.779 8.073-22.459 18.166-5.225-9.36-8-19.948-8-31.021 0-35.188 28.628-63.816 63.816-63.816zm147.386 285.134c0-11.622 9.456-21.078 21.078-21.078s21.078 9.456 21.078 21.078v11.344c0 11.622-9.456 21.078-21.078 21.078s-21.078-9.456-21.078-21.078zm-11.086 40.042h10.333c6.066 4.625 13.631 7.38 21.831 7.38 8.199 0 15.765-2.754 21.831-7.38h10.333c5.223 0 9.472 4.249 9.472 9.473v11.047c-11.578 10.001-26.182 15.473-41.636 15.473-15.391 0-30.055-5.466-41.636-15.454v-11.066c.001-5.224 4.25-9.473 9.472-9.473zm-41.579 54.552-29.18-29.18c-3.329-3.328-5.162-7.754-5.162-12.461v-73.675c0-3.498 1.576-6.745 4.323-8.91 2.748-2.164 6.273-2.939 9.675-2.117l25.016 6.022c-6.338 11.561-9.745 24.649-9.745 37.944 0 21.804 8.704 42.089 24.509 57.12 13.1 12.459 29.833 19.917 47.681 21.405l-17.148 17.148c-4.977 4.975-7.717 11.59-7.717 18.627v40.015c-11.761-1.975-23.299-4.81-34.537-8.482v-44.827c0-7.036-2.739-13.651-7.715-18.629zm259.647-280.287c35.189 0 63.816 28.628 63.816 63.816 0 11.022-2.791 21.61-8.011 30.981-2.693-10.073-11.664-17.606-22.448-18.127 1.749-4.235 2.721-8.87 2.721-13.729v-11.344c0-19.893-16.185-36.078-36.078-36.078-19.894 0-36.078 16.185-36.078 36.078v11.344c0 4.859.971 9.494 2.721 13.729-10.798.521-19.779 8.073-22.459 18.166-5.225-9.36-8-19.948-8-31.02-.001-35.188 28.627-63.816 63.816-63.816zm.051 127.632c-.02 0-.039.001-.059.001-15.389-.001-30.05-5.468-41.629-15.453v-11.066c0-5.224 4.249-9.473 9.472-9.473h10.333c6.066 4.625 13.631 7.38 21.831 7.38s15.765-2.754 21.831-7.38h10.333c5.223 0 9.472 4.249 9.472 9.473v11.047c-11.565 9.989-26.149 15.459-41.584 15.471zm21.027-64.689c0 11.622-9.456 21.078-21.078 21.078s-21.078-9.456-21.078-21.078v-11.344c0-11.622 9.456-21.078 21.078-21.078s21.078 9.456 21.078 21.078zm41.51 52.857c0 50.325-15.407 98.279-43.977 138.49-.169.192-.33.394-.482.607-10.543 14.773-26.467 16.143-37.855 12.496-11.518-3.689-23.825-14.176-23.825-32.551v-45.422c5.097-2.255 10.026-5.076 14.746-8.459 3.366-2.413 4.14-7.098 1.727-10.465-2.414-3.368-7.098-4.139-10.465-1.727-1.963 1.407-3.968 2.69-6.008 3.858v-8.528c0-26.783-21.79-48.573-48.573-48.573-21.075 0-38.222-17.146-38.222-38.222s17.147-38.223 38.222-38.223h17.306c-2.581 7.785-3.998 16.095-3.998 24.735 0 21.804 8.704 42.089 24.509 57.12 11.626 11.058 26.116 18.169 41.705 20.673-1.75 2.688-3.541 5.249-5.366 7.652-2.505 3.3-1.86 8.005 1.439 10.509 1.356 1.029 2.949 1.526 4.529 1.526 2.266 0 4.504-1.022 5.979-2.965 3.643-4.799 7.152-10.115 10.469-15.833 18.533-1.025 35.857-8.446 49.436-21.191.265-.217.51-.457.743-.708.367-.353.744-.691 1.105-1.052 2.465-2.465 4.729-5.077 6.82-7.795.023 1.351.036 2.7.036 4.048z"/><path d="m362.544 73.969c-3.136-2.707-7.87-2.36-10.578.775-2.707 3.136-2.359 7.871.775 10.578 7.354 6.35 13.761 13.439 19.04 21.07 1.456 2.105 3.796 3.234 6.175 3.234 1.472 0 2.958-.433 4.26-1.333 3.407-2.356 4.258-7.028 1.901-10.435-6.001-8.673-13.259-16.712-21.573-23.889z"/><path d="m332.644 69.995c2.659 0 5.235-1.417 6.596-3.917 1.979-3.64.634-8.193-3.006-10.173-8.875-4.827-18.63-9.063-28.992-12.59-3.923-1.335-8.183.762-9.517 4.683-1.335 3.922.762 8.183 4.683 9.517 9.56 3.254 18.529 7.146 26.66 11.568 1.137.619 2.365.912 3.576.912z"/><path d="m213.278 40.703c-9.802 2.419-19.844 5.607-29.849 9.477-3.863 1.494-5.783 5.838-4.289 9.701 1.15 2.974 3.988 4.796 6.997 4.796.899 0 1.814-.163 2.704-.507 9.413-3.642 18.844-6.637 28.03-8.904 4.021-.992 6.477-5.057 5.484-9.078-.991-4.022-5.055-6.479-9.077-5.485z"/><path d="m245.629 50.449c9.947-.829 19.666-.695 28.807.401.304.037.605.055.903.055 3.742-.001 6.979-2.798 7.436-6.607.494-4.112-2.439-7.847-6.553-8.34-10.144-1.219-20.886-1.372-31.842-.456-4.128.344-7.194 3.97-6.85 8.098.345 4.128 3.981 7.215 8.099 6.849z"/><path d="m205.439 213.924c-3.699 1.863-5.188 6.373-3.324 10.072 3.936 7.813 6.818 16.675 8.568 26.341.656 3.624 3.813 6.165 7.371 6.165.443 0 .894-.039 1.345-.121 4.076-.737 6.782-4.64 6.044-8.716-2.006-11.084-5.348-21.317-9.932-30.417-1.865-3.7-6.376-5.188-10.072-3.324z"/></g></svg>