<svg height="512" viewBox="0 0 60 60" width="512" xmlns="http://www.w3.org/2000/svg"><g id="Page-1" fill="none" fill-rule="evenodd"><g id="023---Big-Data" fill="#fff" fill-rule="nonzero"><path id="Shape" d="m10 30c0 11.045695 8.954305 20 20 20s20-8.954305 20-20-8.954305-20-20-20c-11.0404407.0126747-19.9873253 8.9595593-20 20zm25.855-9.5c-1.9337476.3340243-3.8926162.501306-5.855.5-1.9623838.001306-3.9212524-.1659757-5.855-.5 1.207-4.826 3.289-8.5 5.855-8.5s4.648 3.674 5.855 8.5zm-5.855 27.5c-2.566 0-4.648-3.674-5.855-8.5 3.8747535-.668002 7.8352465-.668002 11.71 0-1.207 4.826-3.289 8.5-5.855 8.5zm0-11c-2.1052566-.0006242-4.2065549.1824029-6.28.547-.4085202-2.1600312-.6426086-4.3494264-.7-6.547h13.959c-.0573914 2.1975736-.2914798 4.3869688-.7 6.547-2.0731162-.3645392-4.1740774-.5475661-6.279-.547zm-17.949-8c.1821219-3.3789814 1.3195256-6.6368803 3.28-9.395 2.0116474 1.0913286 4.1604234 1.9082603 6.389 2.429-.4253836 2.2986733-.6595184 4.6286486-.7 6.966zm8.971 2c.0404816 2.3373514.2746164 4.6673267.7 6.966-2.2295118.522152-4.378981 1.3407732-6.391 2.434-1.9613652-2.759537-3.0988126-6.0192945-3.28-9.4zm17.956 0h8.971c-.1811874 3.3807055-1.3186348 6.640463-3.28 9.4-2.0116474-1.0913286-4.1604234-1.9082603-6.389-2.429.4249875-2.3003737.6584544-4.6320323.698-6.971zm0-2c-.0404816-2.3373514-.2746164-4.6673267-.7-6.966 2.2285766-.5207397 4.3773526-1.3376714 6.389-2.429 1.9613652 2.759537 3.0988126 6.0192945 3.28 9.4zm-2 0h-13.957c.0573914-2.1975736.2914798-4.3869688.7-6.547 2.0731162.3645392 4.1740774.5475661 6.279.547 2.1052566.0006242 4.2065549-.1824029 6.28-.547.4081846 2.1600584.6419386 4.3494534.699 6.547zm-11.457-16.413c-1.6297905 2.2398708-2.7766709 4.7937909-3.368 7.5-1.9291673-.4549912-3.7944192-1.1476166-5.553-2.062 2.3702448-2.655253 5.4748614-4.5477431 8.921-5.438zm-8.921 29.388c1.7588497-.9148059 3.6244437-1.6077696 5.554-2.063.5913291 2.7062091 1.7382095 5.2601292 3.368 7.5-3.4463793-.8897998-6.5513526-2.7819473-8.922-5.437zm17.88 5.438c1.6297905-2.2398708 2.7766709-4.7937909 3.368-7.5 1.9288748.4549019 3.7938065 1.1475333 5.552 2.062-2.3702448 2.655253-5.4748614 4.5477431-8.921 5.438zm8.92-29.388c-1.7587785.9149665-3.6243929 1.6079378-5.554 2.063-.5913291-2.7062091-1.7382095-5.2601292-3.368-7.5 3.4463793.8897998 6.5513526 2.7819473 8.922 5.437z"/><path id="Shape" d="m30 0c-5.2661728-.00477793-10.4403598 1.38017946-15 4.015-4.5558451 2.64251705-8.34248295 6.4291549-10.985 10.985-.13323759.2298586-.16952779.5032896-.10086114.7599453s.23664494.4754359.46686114.6080547l5.21 3c.22992135.1324364.5030507.1680666.7592525.0990459s.4744698-.2370332.6067475-.4670459c3.9307754-6.8013051 11.1875116-10.99308671 19.043-11 .5522847 0 1-.44771525 1-1v-6c0-.55228475-.4477153-1-1-1zm-1 6.021c-7.8528136.33440776-15.0454734 4.4888887-19.259 11.124l-3.477-2c2.43542046-3.8761851 5.7767058-7.10215902 9.736-9.4 3.9624013-2.2889706 8.426708-3.56885299 13-3.727z"/><path id="Shape" d="m0 30c-.00477793 5.2661728 1.38017946 10.4403598 4.015 15 2.64251705 4.5558451 6.4291549 8.342483 10.985 10.985 9.2837424 5.3525978 20.7162576 5.3525978 30 0 .4770697-.2760939.6407695-.8861662.366-1.364l-3-5.21c-.2764929-.4779053-.8879815-.6412972-1.366-.365-6.8058091 3.9293362-15.1907655 3.9299614-21.9971605.0016402s-11.00049679-11.1889689-11.0028395-19.0476402c0-.5522847-.44771525-1-1-1h-6c-.55228475 0-1 .4477153-1 1zm6.021 1c.34064232 8.2109141 4.8599688 15.6762511 11.9772086 19.7847843 7.1172399 4.1085332 15.8420977 4.2885996 23.1227914.4772157l2 3.477c-8.5222857 4.5122715-18.7651411 4.329478-27.121-.484-4.2524231-2.4677775-7.78722254-6.0025769-10.255-10.255-2.2889706-3.9624013-3.56885299-8.426708-3.727-13z"/><path id="Shape" d="m45 4.015c-.2298586-.13323759-.5032896-.16952779-.7599453-.10086114s-.4754359.23664494-.6080547.46686114l-3 5.21c-.1324364.22992135-.1680666.5030507-.0990459.7592525s.2370332.4744698.4670459.6067475c5.0550368 2.913145 8.7438875 7.7171923 10.2532325 13.3529432s.7152392 11.6404064-2.2072325 16.6900568c-.1339573.2299159-.1707565.5037401-.1022525.7608647.068504.2571247.2366614.4763436.4672525.6091353l5.21 3c.4788804.2740999 1.0892769.1085231 1.364-.37 5.3525978-9.2837424 5.3525978-20.7162576 0-30-2.642517-4.5558451-6.4291549-8.34248295-10.985-10.985zm9.738 39.112-3.477-2c5.782661-11.0564981 2.1286487-24.6997086-8.406-31.386l2-3.477c3.8761851 2.43542046 7.102159 5.7767058 9.4 9.736 4.8153151 8.3571439 4.9981177 18.6023942.484 27.126z"/></g></g></svg>