<svg height="512" viewBox="0 0 60 60" width="512" xmlns="http://www.w3.org/2000/svg"><g id="Page-1" fill="none" fill-rule="evenodd"><g id="018---Upload-Download-Cloud" fill="#fff" fill-rule="nonzero" transform="translate(-1 -1)"><path id="Shape" d="m56.9 28.45c.0647377-.4806538.0981415-.9650097.1-1.45-.0071635-6.0721626-4.9278374-10.9928365-11-11h-.041c.027-.343.041-.675.041-1 .0042607-7.57726354-6.0207437-13.78272038-13.5948346-14.00200814-7.574091-.21928776-13.9480272 5.62719057-14.3821654 13.19200814-.6668938-.1265566-1.3442041-.1901695-2.023-.19-6.07216255.0071635-10.9928365 4.9278374-11 11-.00015234 1.0916139.16367556 2.177058.486 3.22-3.52325559 2.0392638-5.23773562 6.1905761-4.18022576 10.1216828 1.05750986 3.9311066 4.62336425 6.6619524 8.69422576 6.6583172h3v5c0 .5522847.4477153 1 1 1s1-.4477153 1-1v-5h7c.0033061 2.7600532 2.2399468 4.9966939 5 5h1v10c0 .5522847.4477153 1 1 1h4c.5522847 0 1-.4477153 1-1v-10h1c2.7600532-.0033061 4.9966939-2.2399468 5-5h7v8.149l-2.219-2.774c-.345178-.4313344-.9746656-.501178-1.406-.156s-.501178.9746656-.156 1.406l4 5c.1897684.2373126.4771426.375469.781.375469s.5912316-.1381564.781-.375469l4-5c.223291-.2790244.2807626-.655978.1507659-.9888658-.1299968-.3328879-.4277123-.5711366-.781-.625-.3532878-.0538635-.7084749.0848414-.9317659.3638658l-2.219 2.774v-8.149h3c3.2510623-.0001304 6.2493452-1.7535816 7.8434512-4.5869951 1.594106-2.8334136 1.5362114-6.3062999-.1514512-9.0850049-.7057707-1.154476-1.6594598-2.1375409-2.792-2.878zm-29.9-6.45c.5522847 0 1-.4477153 1-1v-2h2v2c0 .5522847.4477153 1 1 1s1-.4477153 1-1v-2h2v2c0 .5522847.4477153 1 1 1s1-.4477153 1-1v-2c.5522847 0 1 .4477153 1 1v12h-12v-12c0-.5522847.4477153-1 1-1v2c0 .5522847.4477153 1 1 1zm5 37h-2v-9h2zm6-14c0 1.6568542-1.3431458 3-3 3h-8c-1.6568542 0-3-1.3431458-3-3v-11h14zm14-2h-3v-6c0-.5522847-.4477153-1-1-1s-1 .4477153-1 1v6h-7v-9c-.002145-.7113268-.3832487-1.3675874-1-1.722v-12.278c0-1.6568542-1.3431458-3-3-3h-10c-1.6568542 0-3 1.3431458-3 3v12.278c-.6167513.3544126-.997855 1.0106732-1 1.722v9h-7v-9.149l2.219 2.774c.223291.2790244.5784781.4177293.9317659.3638658.3532877-.0538634.6510032-.2921121.781-.625.1299967-.3328878.0725251-.7098414-.1507659-.9888658l-4-5c-.1967485-.2257433-.4815505-.3553128-.781-.3553128s-.5842515.1295695-.781.3553128l-4 5c-.34517797.4313344-.27533439 1.060822.156 1.406s1.060822.2753344 1.406-.156l2.219-2.774v9.149h-3c-3.2946665-.0068721-6.13858511-2.3102963-6.82967151-5.531674-.69108641-3.2213777.95774596-6.4886377 3.95967151-7.846326.48894942-.219938.71745213-.7863424.518-1.284-1.29668405-3.2298431-.61236366-6.917972 1.75669166-9.4676491 2.36905534-2.5496771 5.99706064-3.5026547 9.31330834-2.4463509.3037795.0955342.6348976.0406725.8916325-.1477314.2567348-.1884039.4083869-.4878211.4083675-.8062686 0-.1-.006-.2-.012-.3-.006-.055-.006-.111-.006-.17-.0274821-4.5352737 2.5042972-8.69856365 6.5437625-10.76064575 4.0394653-2.06208211 8.8963814-1.6706024 12.5534262 1.01183786s5.4893285 7.19748479 4.7358113 11.66980789c-.0502246.31147.0494818.628376.2689974.8549791s.5330944.336326.8460026.2960209c.3487174-.0469542.700137-.0710057 1.052-.072 4.9682782.0055111 8.9944889 4.0317218 9 9-.0023203.5947672-.060239 1.1880151-.173 1.772-.0814695.4273534.1227065.8583467.505 1.066 1.0915975.5976422 2.0071261 1.4714462 2.655 2.534 1.3099895 2.161574 1.3529628 4.8614727.1124293 7.0636423-1.2405335 2.2021697-3.5718861 3.5645553-6.0994293 3.5643577z"/><path id="Shape" d="m33 36c-.5522847 0-1 .4477153-1 1v7h-2v-7c0-.5522847-.4477153-1-1-1s-1 .4477153-1 1v7c0 1.1045695.8954305 2 2 2h2c1.1045695 0 2-.8954305 2-2v-7c0-.5522847-.4477153-1-1-1z"/><path id="Shape" d="m26 25c0 .5522847.4477153 1 1 1s1-.4477153 1-1v-1c0-.5522847-.4477153-1-1-1s-1 .4477153-1 1z"/><path id="Shape" d="m31 26c.5522847 0 1-.4477153 1-1v-1c0-.5522847-.4477153-1-1-1s-1 .4477153-1 1v1c0 .5522847.4477153 1 1 1z"/><path id="Shape" d="m35 26c.5522847 0 1-.4477153 1-1v-1c0-.5522847-.4477153-1-1-1s-1 .4477153-1 1v1c0 .5522847.4477153 1 1 1z"/><path id="Shape" d="m15 56v-2c0-.5522847-.4477153-1-1-1s-1 .4477153-1 1v2c0 .5522847.4477153 1 1 1s1-.4477153 1-1z"/><path id="Shape" d="m48 30c-.5522847 0-1 .4477153-1 1v2c0 .5522847.4477153 1 1 1s1-.4477153 1-1v-2c0-.5522847-.4477153-1-1-1z"/></g></g></svg>