<svg height="512" viewBox="0 0 74 74" width="512" xmlns="http://www.w3.org/2000/svg"><g id="Icons" fill="#fff"><path d="m37.59 42.96h-2.74a1 1 0 0 1 0-2h2.74a1 1 0 0 1 0 2z"/><path d="m45.49 42.96h-2.38a1 1 0 0 1 0-2h2.38a2.635 2.635 0 1 0 0-5.27h-.27a1 1 0 0 1 -.993-1.117 3.217 3.217 0 0 0 .023-.373 5.448 5.448 0 0 0 -10.09-2.853 1.13 1.13 0 0 1 -1.03.466h-.005a3.557 3.557 0 0 0 -3.535 3.021 1 1 0 0 1 -.99.856 2.636 2.636 0 1 0 -.09 5.27h.82a1 1 0 0 1 0 2h-.82a4.635 4.635 0 0 1 -.72-9.214 5.571 5.571 0 0 1 4.989-3.928 7.447 7.447 0 0 1 13.457 3.932 4.635 4.635 0 0 1 -.746 9.21z"/><path d="m37 20.844a1 1 0 0 1 -1-1v-10.276a1 1 0 1 1 2 0v10.276a1 1 0 0 1 -1 1z"/><path d="m37 10.568a4.284 4.284 0 1 1 4.284-4.284 4.289 4.289 0 0 1 -4.284 4.284zm0-6.568a2.284 2.284 0 1 0 2.284 2.284 2.286 2.286 0 0 0 -2.284-2.284z"/><path d="m24.869 25.869a1 1 0 0 1 -.707-.293l-7.262-7.266a1 1 0 0 1 1.41-1.41l7.266 7.266a1 1 0 0 1 -.707 1.707z"/><path d="m15.28 19.562a4.283 4.283 0 0 1 -3.029-7.311 4.284 4.284 0 1 1 3.029 7.311zm0-6.565a2.264 2.264 0 0 0 -1.614.669 2.284 2.284 0 0 0 0 3.23 2.284 2.284 0 1 0 1.614-3.896z"/><path d="m19.844 38h-10.276a1 1 0 1 1 0-2h10.276a1 1 0 0 1 0 2z"/><path d="m6.284 41.284a4.284 4.284 0 1 1 4.284-4.284 4.289 4.289 0 0 1 -4.284 4.284zm0-6.568a2.284 2.284 0 1 0 2.284 2.284 2.286 2.286 0 0 0 -2.284-2.284z"/><path d="m17.6 57.4a1 1 0 0 1 -.7-1.71l7.266-7.266a1 1 0 0 1 1.414 1.414l-7.27 7.262a1 1 0 0 1 -.71.3z"/><path d="m15.28 63a4.257 4.257 0 0 1 -3.029-1.254 4.286 4.286 0 1 1 3.029 1.254zm0-6.566a2.283 2.283 0 0 0 -1.614 3.9 2.337 2.337 0 0 0 3.23 0 2.282 2.282 0 0 0 -1.616-3.9z"/><path d="m37 65.432a1 1 0 0 1 -1-1v-10.276a1 1 0 0 1 2 0v10.276a1 1 0 0 1 -1 1z"/><path d="m37 72a4.284 4.284 0 1 1 4.284-4.284 4.289 4.289 0 0 1 -4.284 4.284zm0-6.568a2.284 2.284 0 1 0 2.284 2.284 2.287 2.287 0 0 0 -2.284-2.284z"/><path d="m56.4 57.4a1 1 0 0 1 -.707-.293l-7.266-7.266a1 1 0 0 1 1.414-1.414l7.259 7.263a1 1 0 0 1 -.7 1.71z"/><path d="m58.72 63a4.281 4.281 0 1 1 3.029-1.254 4.257 4.257 0 0 1 -3.029 1.254zm0-6.566a2.282 2.282 0 0 0 -1.616 3.9 2.337 2.337 0 0 0 3.23 0 2.282 2.282 0 0 0 -1.614-3.9z"/><path d="m64.432 38h-10.276a1 1 0 0 1 0-2h10.276a1 1 0 0 1 0 2z"/><path d="m67.716 41.284a4.284 4.284 0 1 1 4.284-4.284 4.289 4.289 0 0 1 -4.284 4.284zm0-6.568a2.284 2.284 0 1 0 2.284 2.284 2.287 2.287 0 0 0 -2.284-2.284z"/><path d="m49.131 25.869a1 1 0 0 1 -.707-1.707l7.266-7.262a1 1 0 0 1 1.41 1.41l-7.266 7.266a1 1 0 0 1 -.703.293z"/><path d="m58.72 19.562a4.283 4.283 0 1 1 3.029-7.311 4.282 4.282 0 0 1 -3.029 7.311zm0-6.565a2.284 2.284 0 1 0 1.614.669 2.264 2.264 0 0 0 -1.614-.666z"/></g></svg>