<?xml version="1.0" encoding="UTF-8"?>
<svg xmlns="http://www.w3.org/2000/svg" id="icons" viewBox="0 0 60 60" width="512" height="512" fill="#fff"><path d="M21,14H39a3,3,0,0,0,3-3V7a3,3,0,0,0-3-3H21a3,3,0,0,0-3,3v4A3,3,0,0,0,21,14ZM20,7a1,1,0,0,1,1-1H39a1,1,0,0,1,1,1v4a1,1,0,0,1-1,1H21a1,1,0,0,1-1-1Z"/><path d="M21,26H39a3,3,0,0,0,3-3V19a3,3,0,0,0-3-3H21a3,3,0,0,0-3,3v4A3,3,0,0,0,21,26Zm-1-7a1,1,0,0,1,1-1H39a1,1,0,0,1,1,1v4a1,1,0,0,1-1,1H21a1,1,0,0,1-1-1Z"/><path d="M21,38H39a3,3,0,0,0,3-3V31a3,3,0,0,0-3-3H21a3,3,0,0,0-3,3v4A3,3,0,0,0,21,38Zm-1-7a1,1,0,0,1,1-1H39a1,1,0,0,1,1,1v4a1,1,0,0,1-1,1H21a1,1,0,0,1-1-1Z"/><path d="M21,50H39a3,3,0,0,0,3-3V43a3,3,0,0,0-3-3H21a3,3,0,0,0-3,3v4A3,3,0,0,0,21,50Zm-1-7a1,1,0,0,1,1-1H39a1,1,0,0,1,1,1v4a1,1,0,0,1-1,1H21a1,1,0,0,1-1-1Z"/><path d="M57,46.142V9a3,3,0,0,0-3-3H46V3a3,3,0,0,0-3-3H17a3,3,0,0,0-3,3V6H6A3,3,0,0,0,3,9V46.142A4,4,0,0,0,0,50v2a2,2,0,0,0,2,2h9.556A3.959,3.959,0,0,0,11,56v2a2,2,0,0,0,2,2H47a2,2,0,0,0,2-2V56a3.959,3.959,0,0,0-.556-2H58a2,2,0,0,0,2-2V50A4,4,0,0,0,57,46.142ZM54,8a1,1,0,0,1,1,1V46H46V44h4a3,3,0,0,0,3-3V37a3,3,0,0,0-3-3H46V32h4a3,3,0,0,0,3-3V25a3,3,0,0,0-3-3H46V20h4a3,3,0,0,0,3-3V13a3,3,0,0,0-3-3H46V8Zm-6,6H46V12h4a1,1,0,0,1,1,1v4a1,1,0,0,1-1,1H46V16h2a1,1,0,0,0,0-2ZM46,40h2a1,1,0,0,0,0-2H46V36h4a1,1,0,0,1,1,1v4a1,1,0,0,1-1,1H46Zm0-12h2a1,1,0,0,0,0-2H46V24h4a1,1,0,0,1,1,1v4a1,1,0,0,1-1,1H46ZM16,3a1,1,0,0,1,1-1H43a1,1,0,0,1,1,1V52H16ZM14,14H12a1,1,0,0,0,0,2h2v2H10a1,1,0,0,1-1-1V13a1,1,0,0,1,1-1h4Zm0,12H12a1,1,0,0,0,0,2h2v2H10a1,1,0,0,1-1-1V25a1,1,0,0,1,1-1h4Zm0,12H12a1,1,0,0,0,0,2h2v2H10a1,1,0,0,1-1-1V37a1,1,0,0,1,1-1h4ZM6,8h8v2H10a3,3,0,0,0-3,3v4a3,3,0,0,0,3,3h4v2H10a3,3,0,0,0-3,3v4a3,3,0,0,0,3,3h4v2H10a3,3,0,0,0-3,3v4a3,3,0,0,0,3,3h4v2H5V9A1,1,0,0,1,6,8ZM2,50a2,2,0,0,1,2-2H14v4H2Zm45,6,0,2H13V56a2,2,0,0,1,2-2H45A2,2,0,0,1,47,56Zm11-4H46V48H56a2,2,0,0,1,2,2Z"/><path d="M23,10h2a1,1,0,0,0,0-2H23a1,1,0,0,0,0,2Z"/><path d="M33,10h4a1,1,0,0,0,0-2H33a1,1,0,0,0,0,2Z"/><path d="M23,22h2a1,1,0,0,0,0-2H23a1,1,0,0,0,0,2Z"/><path d="M33,22h4a1,1,0,0,0,0-2H33a1,1,0,0,0,0,2Z"/><path d="M23,34h2a1,1,0,0,0,0-2H23a1,1,0,0,0,0,2Z"/><path d="M33,34h4a1,1,0,0,0,0-2H33a1,1,0,0,0,0,2Z"/><path d="M23,46h2a1,1,0,0,0,0-2H23a1,1,0,0,0,0,2Z"/><path d="M33,46h4a1,1,0,0,0,0-2H33a1,1,0,0,0,0,2Z"/></svg>
