<svg height="512" viewBox="0 0 60 60" width="512" xmlns="http://www.w3.org/2000/svg"><g id="Page-1" fill="none" fill-rule="evenodd"><g id="027---Web-Connections" fill="#fff" fill-rule="nonzero"><path id="Shape" d="m59.586 25.062c-.7304054-4.3840817-2.4311739-8.5495638-4.978-12.192-.0243697-.0394843-.0514339-.0772405-.081-.113-5.4207056-7.71736891-14.1568367-12.43420552-23.583-12.733h-.022c-.307-.01-.613-.024-.922-.024-7.6771742-.00341601-15.0611888 2.94789813-20.621 8.242-.04736062.03689402-.09091087.07843426-.13.124-6.80709616 6.4867736-10.1563115 15.8039445-9.037 25.14 0 .021 0 .04.007.06 1.26424885 10.4230635 7.87389281 19.431769 17.437 23.766.024.011.046.023.071.032 2.9358883 1.3254385 6.0677467 2.1647211 9.273 2.485.986.1 1.986.15 3 .15 8.1669537.0021426 15.9795754-3.3354914 21.624-9.238.0545739-.0463956.1041741-.0983418.148-.155 6.4744349-6.8069907 9.3699608-16.2629181 7.817-25.528zm-14.64-7.6c-.0294803-.2820499-.0830084-.5610649-.16-.834 2.7331453-1.0469011 5.5748097-1.7848215 8.472-2.2 1.7469491 2.5977992 3.0437632 5.4713447 3.836 8.5-3.7245538-2.4706349-7.8280229-4.3156422-12.148-5.462zm-4.946 10.538c.0041261 4.8599282-.8821718 9.6794907-2.615 14.22-.4487841-.1391302-.9151933-.2132168-1.385-.22-1.6313415.0022053-3.1585994.8016819-4.09 2.141-2.2237439-1.217046-4.3288952-2.6392284-6.288-4.248.8263075-1.9865038.2689615-4.2794343-1.377-5.665 2.9591221-5.1807534 7.0314093-9.6400155 11.923-13.056.867518 1.0518576 2.1297057 1.700311 3.49 1.793.2211932 1.6693291.3354262 3.351093.342 5.035zm-13.335 29.794c-2.6250433-.3101183-5.1923154-.9936915-7.624-2.03-.025-.553-.041-1.127-.041-1.764.003392-3.7364455.5322375-7.4538484 1.571-11.043.144.012.282.043.429.043 1.3108496-.000973 2.5684546-.5187469 3.5-1.441 2.0579047 1.6757594 4.2674519 3.156156 6.6 4.422-.3811805 1.8090544.2807451 3.6794284 1.715 4.846-1.7695863 2.5555559-3.8337835 4.8939725-6.15 6.967zm-16.665-34.794c0-1.6568542 1.3431458-3 3-3s3 1.3431458 3 3-1.3431458 3-3 3-3-1.3431458-3-3zm1.014-13.556c5.1621033-4.78900016 11.9445644-7.44825647 18.986-7.444.132 0 .262.008.394.01 2.9910569 3.4834912 5.3532763 7.4607905 6.981 11.754-.8762609.5380593-1.5657805 1.3326653-1.975 2.276-.466-.017-.932-.04-1.4-.04-5.9525732-.0101323-11.8379147 1.258125-17.258 3.719-1.149732-1.350461-2.9408852-1.9720065-4.68-1.624-.6645336-2.8366846-1.0159677-5.7376929-1.048-8.651zm6.986 13.556c-.0070268-.5221789-.0968082-1.0399409-.266-1.534 5.115397-2.2941147 10.6597393-3.4755171 16.266-3.466.336 0 .668.019 1 .029.0085667.4626965.0822915.9218776.219 1.364-5.2260137 3.6078532-9.5730787 8.3455697-12.719 13.862-1.0488667-.3629753-2.193124-.3377839-3.225.071-1.4485141-1.8823112-2.7259274-3.8902964-3.817-6 1.5644842-.879072 2.5354499-2.5314706 2.542-4.326zm3 12c1.6568542 0 3 1.3431458 3 3s-1.3431458 3-3 3-3-1.3431458-3-3 1.3431458-3 3-3zm12 12c0-1.6568542 1.3431458-3 3-3s3 1.3431458 3 3c-.0038323.3555234-.0715774.7074593-.2 1.039v.008c-.5055185 1.358418-1.9114971 2.1596456-3.3378735 1.9021601-1.4263763-.2574856-2.4634729-1.4997304-2.4621265-2.9491601zm7-26c-1.6568542 0-3-1.3431458-3-3s1.3431458-3 3-3 3 1.3431458 3 3-1.3431458 3-3 3zm11.928-8.381c-2.7616513.4669685-5.4686013 1.2138173-8.079 2.229-.9397397-1.1635663-2.3533515-1.8422763-3.849-1.848-.2509215.0059842-.5010027.0313935-.748.076-1.4825757-3.92241465-3.551064-7.59747944-6.135-10.9 7.4113664.83535828 14.1827031 4.59449228 18.811 10.443zm-42.851-1.2c.14462853 2.5115199.51682075 5.0047392 1.112 7.449-1.92691782 1.2915235-2.69537161 3.7499931-1.847 5.909-2.3117579 1.7815302-4.43064128 3.8002007-6.322 6.023-.007-.266-.02-.532-.02-.8-.00448517-6.8522865 2.51484988-13.4662085 7.077-18.579zm-6.826 22.272c2.07296139-2.6995921 4.48172345-5.1238122 7.168-7.214.9376419.9724248 2.2301553 1.522131 3.581 1.523.1755135-.0079479.3504498-.0256418.524-.053 1.1497484 2.2635714 2.5026349 4.4180815 4.042 6.437-1.169704 1.0950623-1.7378174 2.688069-1.5250112 4.2761755.2128063 1.5881065 1.1802727 2.9753455 2.5970112 3.7238245-1.0881795 3.7759953-1.6395858 7.6863343-1.638 11.616 0 .278.006.532.011.793-8.04834164-4.2271447-13.54952254-12.0920444-14.76-21.102zm27.139 24.293c1.9350128-1.8947925 3.6799922-3.9743659 5.21-6.209.4533897.1420564.9249306.2178397 1.4.225 1.7417416-.004686 3.3547888-.9179247 4.255-2.409 2.725597.7214377 5.5171016 1.165693 8.332 1.326-5.1140609 4.5660013-11.731202 7.0876137-18.587 7.083-.2 0-.406-.011-.61-.016zm21.167-9c-3.2495913-.0350927-6.4827814-.4662742-9.628-1.284.0405166-.2313158.0642452-.4652598.071-.7-.0057527-1.4891408-.6788054-2.8972667-1.834-3.837 1.8774845-4.8346591 2.8385232-9.9765893 2.834-15.163-.0014419-1.7721976-.1163436-3.542485-.344-5.3 1.4785916-.5243722 2.6243291-1.7138203 3.093-3.211 4.6635417 1.282039 9.0487494 3.4181875 12.933 6.3 1.2791426 8.4146397-1.343342 16.9538174-7.125 23.2z"/></g></g></svg>