<svg id="Capa_1" enable-background="new 0 0 597.805 597.805" height="512" viewBox="0 0 597.805 597.805" width="512" xmlns="http://www.w3.org/2000/svg" fill="#fff"><g><g id="Page-1_42_"><g id="_x30_93---Secure-CPU"><path id="Shape_241_" d="m384.398 214.213c-27.037-2.45-53.335-10.16-77.416-22.697-5-2.889-11.161-2.889-16.161 0-24.085 12.534-50.386 20.244-77.426 22.697-7.955.838-14.026 7.495-14.128 15.493v32.222c.017 32.421 10.065 64.043 28.764 90.528 16.362 23.146 38.246 41.839 63.666 54.38 4.549 2.238 9.878 2.238 14.427 0 55.988-26.647 91.864-82.904 92.411-144.908v-32.222c-.102-8.002-6.178-14.66-14.137-15.493zm-5.788 47.715c-.551 53.764-31.399 102.612-79.707 126.216-21.74-11.047-40.46-27.226-54.54-47.137-16.346-23.132-25.137-50.755-25.168-79.08v-28.386c27.804-2.934 54.827-10.98 79.707-23.733 24.881 12.751 51.904 20.797 79.707 23.733v28.387z"/><path id="Shape_240_" d="m587.841 129.524c5.503 0 9.963-4.461 9.963-9.963s-4.461-9.963-9.963-9.963h-49.817v-9.963c0-22.011-17.843-39.854-39.854-39.854h-9.963v-49.818c0-5.503-4.461-9.963-9.963-9.963s-9.963 4.461-9.963 9.963v49.817h-39.854v-49.817c0-5.503-4.461-9.963-9.963-9.963s-9.964 4.461-9.964 9.963v49.817h-39.854v-49.817c0-5.503-4.461-9.963-9.963-9.963s-9.963 4.461-9.963 9.963v49.817h-39.854v-49.817c0-5.503-4.461-9.963-9.963-9.963-5.503 0-9.963 4.461-9.963 9.963v49.817h-39.854v-49.817c0-5.503-4.461-9.963-9.963-9.963-5.503 0-9.963 4.461-9.963 9.963v49.817h-39.854v-49.817c0-5.503-4.461-9.963-9.963-9.963-5.503 0-9.963 4.461-9.963 9.963v49.817h-39.854v-49.817c0-5.503-4.461-9.963-9.963-9.963s-9.963 4.461-9.963 9.963v49.817h-9.963c-22.011 0-39.854 17.843-39.854 39.854v9.963h-49.82c-5.503 0-9.963 4.461-9.963 9.963s4.461 9.963 9.963 9.963h49.817v39.854h-49.817c-5.503 0-9.963 4.461-9.963 9.963 0 5.503 4.461 9.963 9.963 9.963h49.817v39.854h-49.817c-5.503 0-9.963 4.461-9.963 9.963 0 5.503 4.461 9.963 9.963 9.963h49.817v39.854h-49.817c-5.502.002-9.963 4.463-9.963 9.965 0 5.503 4.461 9.963 9.963 9.963h49.817v39.854h-49.817c-5.503 0-9.963 4.461-9.963 9.963s4.461 9.963 9.963 9.963h49.817v39.855h-49.817c-5.502 0-9.963 4.461-9.963 9.963s4.461 9.963 9.963 9.963h49.817v39.854h-49.817c-5.503 0-9.963 4.461-9.963 9.963s4.461 9.963 9.963 9.963h49.817v9.963c0 22.011 17.843 39.854 39.854 39.854h9.963v49.817c0 5.503 4.461 9.963 9.963 9.963s9.963-4.461 9.963-9.963v-49.817h39.854v49.817c0 5.503 4.461 9.963 9.963 9.963 5.503 0 9.963-4.461 9.963-9.963v-49.817h39.854v49.817c0 5.503 4.461 9.963 9.963 9.963 5.503 0 9.963-4.461 9.963-9.963v-49.817h39.854v49.817c0 5.503 4.461 9.963 9.963 9.963 5.503 0 9.963-4.461 9.963-9.963v-49.817h39.854v49.817c0 5.503 4.461 9.963 9.963 9.963s9.963-4.461 9.963-9.963v-49.817h39.857v49.817c0 5.503 4.461 9.963 9.963 9.963s9.963-4.461 9.963-9.963v-49.817h39.854v49.817c0 5.503 4.461 9.963 9.963 9.963s9.963-4.461 9.963-9.963v-49.817h9.963c22.011 0 39.854-17.843 39.854-39.854v-9.963h49.817c5.503 0 9.963-4.461 9.963-9.963s-4.461-9.963-9.963-9.963h-49.817v-39.854h49.817c5.503 0 9.963-4.461 9.963-9.963s-4.461-9.963-9.963-9.963h-49.817v-39.854h49.817c5.503 0 9.963-4.461 9.963-9.963s-4.461-9.963-9.963-9.963h-49.817v-39.854h49.817c5.503 0 9.963-4.461 9.963-9.963 0-5.503-4.461-9.963-9.963-9.963h-49.817v-39.854h49.817c5.503 0 9.963-4.461 9.963-9.963 0-5.503-4.461-9.963-9.963-9.963h-49.817v-39.854h49.817c5.503 0 9.963-4.461 9.963-9.963 0-5.503-4.461-9.963-9.963-9.963h-49.817v-39.854h49.818zm-69.744 368.646c0 11.005-8.922 19.927-19.927 19.927h-398.536c-11.005 0-19.927-8.922-19.927-19.927v-398.536c0-11.005 8.922-19.927 19.927-19.927h398.536c11.005 0 19.927 8.922 19.927 19.927z"/><path id="Shape_239_" d="m129.524 159.415c16.508 0 29.89-13.382 29.89-29.89s-13.382-29.89-29.89-29.89-29.89 13.382-29.89 29.89 13.382 29.89 29.89 29.89zm0-39.854c5.503 0 9.963 4.461 9.963 9.963 0 5.503-4.461 9.963-9.963 9.963-5.503 0-9.963-4.461-9.963-9.963s4.461-9.963 9.963-9.963z"/><path id="Shape_238_" d="m468.28 99.634c-12.089 0-22.989 7.283-27.615 18.452s-2.069 24.026 6.479 32.574c8.549 8.549 21.405 11.106 32.574 6.479 11.169-4.626 18.452-15.525 18.452-27.615 0-16.508-13.382-29.89-29.89-29.89zm0 39.854c-5.503 0-9.963-4.461-9.963-9.963 0-5.503 4.461-9.963 9.963-9.963s9.963 4.461 9.963 9.963c.001 5.502-4.46 9.963-9.963 9.963z"/><path id="Shape_237_" d="m129.524 438.39c-16.508 0-29.89 13.382-29.89 29.89s13.382 29.89 29.89 29.89 29.89-13.382 29.89-29.89-13.382-29.89-29.89-29.89zm0 39.854c-5.503 0-9.963-4.461-9.963-9.963s4.461-9.963 9.963-9.963c5.503 0 9.963 4.461 9.963 9.963s-4.46 9.963-9.963 9.963z"/><path id="Shape_236_" d="m468.28 438.39c-12.089 0-22.989 7.283-27.615 18.452s-2.069 24.025 6.479 32.574c8.549 8.549 21.405 11.106 32.574 6.479 11.169-4.626 18.452-15.526 18.452-27.615 0-16.508-13.382-29.89-29.89-29.89zm0 39.854c-5.503 0-9.963-4.461-9.963-9.963s4.461-9.963 9.963-9.963 9.963 4.461 9.963 9.963-4.46 9.963-9.963 9.963z"/><path id="Shape_235_" d="m448.353 199.268c-.033-27.5-22.318-49.784-49.817-49.817h-199.268c-27.5.033-49.784 22.318-49.817 49.817v199.268c.033 27.5 22.318 49.784 49.817 49.817h199.268c27.5-.033 49.784-22.318 49.817-49.817zm-19.926 199.268c0 16.508-13.382 29.89-29.89 29.89h-199.269c-16.508 0-29.89-13.382-29.89-29.89v-199.268c0-16.508 13.382-29.89 29.89-29.89h199.268c16.508 0 29.89 13.382 29.89 29.89v199.268z"/><path id="Shape_234_" d="m276.056 301.822c-3.909-3.776-10.124-3.722-13.967.121s-3.897 10.057-.121 13.967l9.963 9.963c3.891 3.889 10.198 3.889 14.088 0l49.817-49.817c3.776-3.909 3.722-10.124-.121-13.967s-10.057-3.897-13.967-.121l-42.773 42.773z"/></g></g></g></svg>