<svg xmlns="http://www.w3.org/2000/svg" xml:space="preserve" style="enable-background:new 0 0 469.333 469.333" viewBox="0 0 469.333 469.333" fill="#fff"><path d="M458.667 181.333c5.896 0 10.667-4.771 10.667-10.667S464.563 160 458.667 160h-32v-42.667h32c5.896 0 10.667-4.771 10.667-10.667S464.563 96 458.667 96h-32V85.333c0-23.531-19.135-42.667-42.667-42.667h-10.667v-32A10.66 10.66 0 0 0 362.667 0 10.66 10.66 0 0 0 352 10.667v32h-42.667v-32C309.333 4.771 304.562 0 298.667 0S288 4.771 288 10.667v32h-42.667v-32C245.333 4.771 240.562 0 234.667 0S224 4.771 224 10.667v32h-42.667v-32C181.333 4.771 176.562 0 170.667 0S160 4.771 160 10.667v32h-42.667v-32C117.333 4.771 112.562 0 106.667 0S96 4.771 96 10.667v32H85.333c-23.531 0-42.667 19.135-42.667 42.667V96h-32C4.771 96 0 100.771 0 106.667s4.771 10.667 10.667 10.667h32V160h-32C4.771 160 0 164.771 0 170.667s4.771 10.667 10.667 10.667h32V224h-32C4.771 224 0 228.771 0 234.667s4.771 10.667 10.667 10.667h32V288h-32C4.771 288 0 292.771 0 298.667s4.771 10.667 10.667 10.667h32V352h-32A10.66 10.66 0 0 0 0 362.667a10.66 10.66 0 0 0 10.667 10.667h32V384c0 23.531 19.135 42.667 42.667 42.667H96v32c0 5.896 4.771 10.667 10.667 10.667s10.667-4.771 10.667-10.667v-32H160v32c0 5.896 4.771 10.667 10.667 10.667s10.667-4.771 10.667-10.667v-32H224v32c0 5.896 4.771 10.667 10.667 10.667s10.667-4.771 10.667-10.667v-32H288v32c0 5.896 4.771 10.667 10.667 10.667s10.667-4.771 10.667-10.667v-32H352v32a10.66 10.66 0 0 0 10.667 10.667 10.66 10.66 0 0 0 10.667-10.667v-32H384c23.531 0 42.667-19.135 42.667-42.667v-10.667h32a10.66 10.66 0 0 0 10.667-10.667 10.66 10.66 0 0 0-10.667-10.667h-32v-42.667h32c5.896 0 10.667-4.771 10.667-10.667S464.563 288 458.667 288h-32v-42.667h32c5.896 0 10.667-4.771 10.667-10.667S464.563 224 458.667 224h-32v-42.667h32zM405.333 384c0 11.76-9.573 21.333-21.333 21.333H85.333C73.573 405.333 64 395.76 64 384V85.333C64 73.573 73.573 64 85.333 64H384c11.76 0 21.333 9.573 21.333 21.333V384z"/><path d="M373.333 85.333H96A10.66 10.66 0 0 0 85.333 96v277.333A10.66 10.66 0 0 0 96 384h277.333A10.66 10.66 0 0 0 384 373.333V96a10.66 10.66 0 0 0-10.667-10.667zm-10.666 277.334h-256v-256h256v256z"/></svg>