<svg height="512" viewBox="0 0 60 60" width="512" xmlns="http://www.w3.org/2000/svg"><g id="Page-1" fill="none" fill-rule="evenodd"><g id="039---Browser-Settings" fill="#fff" fill-rule="nonzero" transform="translate(-1)"><path id="Shape" d="m31.405 18.533c.266.041.536.06.807.077.3308619.0021888.6597638.0510023.977.145.2037702.0919654.3983157.2031342.581.332.2126438.146717.4340567.2802994.663.4.381218.1956381.8025496.300372 1.231.306.4784763.0081266.9442409-.1542176 1.314-.458.6008479-.5515056.8599924-1.3827526.679-2.178-.076483-.3587419-.1907886-.708363-.341-1.043-.048-.119-.1-.238-.141-.359-.2168881-.619232-.2553509-1.2869598-.111-1.927.222-.98.444-2.74-.571-3.507-.6612407-.45075914-1.5345634-.43674433-2.181.035-1.099012.6874781-2.0881227 1.5366838-2.934 2.519-.357.372-.7.735-1.041 1.05-.8293089.6131671-1.2993607 1.5986265-1.254 2.629.2595506 1.0954868 1.1992233 1.8963535 2.322 1.979zm.293-3.147c.366-.34.74-.731 1.125-1.132.705611-.8201989 1.5217448-1.5383967 2.425-2.134.0096957.4240146-.0353425.8475087-.134 1.26-.2276901 1.010447-.166703 2.064554.176 3.042.055.152.116.3.178.451.0947699.2084174.1694415.4254003.223.648.028.144 0 .263.026.263-.1364226.0084919-.2723466-.0231426-.391-.091-.1591932-.0841159-.3134451-.177268-.462-.279-.2977865-.2086097-.6173219-.3843039-.953-.524-.5065859-.1740342-1.0374262-.267176-1.573-.276-.21-.013-.42-.025-.626-.057-.2539739-.0107931-.4915392-.128486-.654-.324-.008-.051.013-.264.642-.847z"/><path id="Shape" d="m56 29h-1.085c.05-.663.085-1.331.085-2-.0121313-14.9066604-12.0933396-26.98786865-27-27-.56 0-1.115.023-1.666.056h-.041c-8.964801.57480173-17.05762819 5.56774591-21.593 13.322l-.009.009s0 .012-.006.017c-4.87973181 8.3474889-4.91935726 18.6680481-.10386821 27.0527615 4.81548906 8.3847135 13.74972721 13.5514242 23.41886821 13.5432385.323 0 .658-.007 1-.021v1.021c.0033061 2.7600532 2.2399468 4.9966939 5 5h22c2.7600532-.0033061 4.9966939-2.2399468 5-5v-21c-.0033061-2.7600532-2.2399468-4.9966939-5-5zm-3-2c0 .67-.038 1.338-.093 2h-7.807c-.1508716.0020739-.3013027-.016772-.447-.056-.3497644-.0900188-.6135899-.3777572-.673-.734 0-.429.6-.925 1.132-1.361l.235-.2c3.0337179-2.6295269 4.3187097-6.7490139 3.318-10.637-.2733429-.9171271-.612215-1.8134338-1.014-2.682-.3967537-.8434462-.7215744-1.7188898-.971-2.617-.034-.137-.054-.274-.077-.411 4.1321565 4.5783464 6.4124973 10.5306883 6.397 16.698zm-28.055-24.807c-.7187779 2.0015444-1.5789463 3.94945486-2.574 5.829-.3054948.75931979-.854581 1.39564072-1.561 1.809-.6036084.15470774-1.2349557.16669101-1.844.035-.9649233-.19747151-1.965414-.1283291-2.894.2-1.1357035.5342794-1.9343371 1.5948827-2.134 2.834-.1700239 1.0839124-.044266 2.1936224.364 3.212.6979215 1.8880694 1.9438305 3.5246743 3.578 4.7.516.368 1.064.686 1.6.994 1.1155722.494452 2.0705639 1.2911444 2.757 2.3.753 1.448.063 3.3-.831 4.551-.6466762.8394056-1.3592687 1.625899-2.131 2.352-.629.626-1.281 1.274-1.874 1.992-.8680633 1.0757534-1.5980704 2.2559259-2.173 3.513-.619 1.333-.984 1.5-1.152 1.479s-.4-.344-.448-.728c-.0268145-.4444886.0068259-.8905603.1-1.326.035-.221.07-.443.1-.662.2557788-2.1534957-.3271941-4.322814-1.628-6.058-.347-.463-.743-.9-1.126-1.316-.9-.986-1.749-1.917-1.733-2.948.15690314-.9337701.57266051-1.8047818 1.2-2.514l.14-.2c.9851395-1.1624151 1.4223331-2.6925928 1.2-4.2-.5033265-1.3576805-1.5114259-2.4685961-2.814-3.101-.718-.4453333-1.436-.892-2.154-1.34 4.0075018-6.30245037 10.6203723-10.48573639 18.032-11.407zm3.055 49.807c-8.7656995.0058969-16.8934234-4.5821322-21.41763145-12.0900656-4.524208-7.5079335-4.78315836-16.8376094-.68236855-24.5849344.70333333.4393333 1.40666667.8776667 2.11 1.315.87.539 1.734 1.13 1.928 1.9.0454079.9380608-.27756137 1.856729-.9 2.56l-.136.194c-.8743753 1.0215732-1.41893425 2.2839599-1.562 3.621-.028 1.833 1.185 3.163 2.256 4.336.367.4.715.783 1.007 1.171.9891608 1.3241045 1.4310115 2.9780008 1.234 4.619-.024.2-.055.39-.086.584-.1273418.6200669-.1657272 1.2551093-.114 1.886.0863962 1.2250323.9852079 2.2391183 2.191 2.472.0955696.0114658.1917451.0171428.288.017 1.7 0 2.577-1.9 2.92-2.638.5029052-1.1034798 1.1411399-2.1401074 1.9-3.086.529-.64 1.117-1.225 1.74-1.844.848989-.8025943 1.6321716-1.6720541 2.342-2.6 1.243-1.735 2.155-4.393.988-6.637-.8423861-1.3663364-2.0717323-2.4515859-3.532-3.118-.514-.3-1-.578-1.438-.891-1.3058577-.9395015-2.301673-2.2472925-2.86-3.756-.2828647-.684287-.3784716-1.4315393-.277-2.165.081985-.5839307.4400245-1.0927041.962-1.367.6071647-.1677817 1.2462874-.1835795 1.861-.046.9362657.1879442 1.9050721.1328592 2.814-.16 1.1645232-.5648158 2.0852397-1.5320655 2.592-2.723 1.1805913-2.23183586 2.1798112-4.55498869 2.988-6.947.297-.01.589-.022.884-.022 4.6991894-.0080792 9.3039648 1.31911431 13.278 3.827 1.1802889.74439216 2.2973844 1.584555 3.34 2.512-.155152.95122561-.1143169 1.9241215.12 2.859.2751084 1.0073779.6360976 1.9893085 1.079 2.935.3629316.7793307.6693875 1.5837359.917 2.407.7798439 3.1372051-.2527916 6.4475771-2.678 8.585l-.219.182c-1.0196932.6328194-1.7013772 1.6900352-1.857 2.88-.0008693.2767328.0451136.5516162.136.813h-8.116c-2.7600532.0033061-4.9966939 2.2399468-5 5v17.977c-.343.015-.678.023-1 .023zm31 3c0 1.6568542-1.3431458 3-3 3h-22c-1.6568542 0-3-1.3431458-3-3v-21c0-1.6568542 1.3431458-3 3-3h22c1.6568542 0 3 1.3431458 3 3z"/><path id="Shape" d="m36 33c-1.6568542 0-3 1.3431458-3 3s1.3431458 3 3 3 3-1.3431458 3-3-1.3431458-3-3-3zm0 4c-.5522847 0-1-.4477153-1-1s.4477153-1 1-1 1 .4477153 1 1-.4477153 1-1 1z"/><path id="Shape" d="m45 35h-3c-.5522847 0-1 .4477153-1 1s.4477153 1 1 1h3c.5522847 0 1-.4477153 1-1s-.4477153-1-1-1z"/><path id="Shape" d="m56 35h-7c-.5522847 0-1 .4477153-1 1s.4477153 1 1 1h7c.5522847 0 1-.4477153 1-1s-.4477153-1-1-1z"/><path id="Shape" d="m36 41c-1.6568542 0-3 1.3431458-3 3s1.3431458 3 3 3 3-1.3431458 3-3-1.3431458-3-3-3zm0 4c-.5522847 0-1-.4477153-1-1s.4477153-1 1-1 1 .4477153 1 1-.4477153 1-1 1z"/><path id="Shape" d="m45 43h-3c-.5522847 0-1 .4477153-1 1s.4477153 1 1 1h3c.5522847 0 1-.4477153 1-1s-.4477153-1-1-1z"/><path id="Shape" d="m56 43h-7c-.5522847 0-1 .4477153-1 1s.4477153 1 1 1h7c.5522847 0 1-.4477153 1-1s-.4477153-1-1-1z"/><path id="Shape" d="m36 49c-1.6568542 0-3 1.3431458-3 3s1.3431458 3 3 3 3-1.3431458 3-3-1.3431458-3-3-3zm0 4c-.5522847 0-1-.4477153-1-1s.4477153-1 1-1 1 .4477153 1 1-.4477153 1-1 1z"/><path id="Shape" d="m45 51h-3c-.5522847 0-1 .4477153-1 1s.4477153 1 1 1h3c.5522847 0 1-.4477153 1-1s-.4477153-1-1-1z"/><path id="Shape" d="m56 51h-7c-.5522847 0-1 .4477153-1 1s.4477153 1 1 1h7c.5522847 0 1-.4477153 1-1s-.4477153-1-1-1z"/></g></g></svg>