<?xml version="1.0" encoding="iso-8859-1"?>
<!-- Generator: Adobe Illustrator 19.0.0, SVG Export Plug-In . SVG Version: 6.00 Build 0)  -->
<svg version="1.1" id="Capa_1" xmlns="http://www.w3.org/2000/svg" xmlns:xlink="http://www.w3.org/1999/xlink" x="0px" y="0px"
	 viewBox="0 0 512.111 512.111" style="enable-background:new 0 0 512.111 512.111;" xml:space="preserve" fill="#fff">
<g>
	<g>
		<path d="M437.041,75.004c-47.899-48.174-113.082-75.181-181.017-75C152.474-0.004,59.118,62.371,19.492,158.039
			S1.778,363.825,75.007,437.037c64.661,64.721,158.946,90.016,247.319,66.352s157.401-92.692,181.065-181.065
			C527.057,233.95,501.762,139.665,437.041,75.004z M414.612,227.53c-5.028-1.281-10.295-1.296-15.33-0.045
			c-10.261-14.27-21.285-27.976-33.024-41.058c5.142-8.94,5.298-19.902,0.411-28.984l63.754-63.754
			C449.838,121.294,444.068,171.047,414.612,227.53z M419.674,256.024c-0.001,3.394-1.351,6.649-3.754,9.047
			c-5.065,4.833-13.035,4.833-18.1,0c-4.998-4.998-4.998-13.102,0-18.1c4.998-4.998,13.102-4.998,18.1,0l0.004,0.004
			C418.326,249.374,419.675,252.629,419.674,256.024z M384.604,275.731L384.604,275.731c-9.613,13.286-19.913,26.06-30.857,38.272
			c-8.667-4.08-18.732-3.933-27.277,0.397l-41.132-41.132c6.425-10.601,6.425-23.895,0-34.496l41.051-41.051
			c8.49,4.769,18.815,4.925,27.445,0.415c10.912,12.182,21.183,24.924,30.77,38.174
			C374.644,247.563,374.644,264.479,384.604,275.731z M349.553,349.546c-2.391,2.419-5.65,3.78-9.051,3.781
			c-3.401,0.001-6.661-1.359-9.053-3.777h0c-5-4.998-5.002-13.104-0.004-18.104c4.998-5,13.104-5.002,18.104-0.004
			S354.551,344.546,349.553,349.546z M313.908,353.831c-12.182,10.912-24.924,21.183-38.174,30.77
			c-11.253-9.957-28.165-9.957-39.419,0c-13.25-9.587-25.992-19.858-38.174-30.77c4.51-8.63,4.354-18.955-0.415-27.445
			l41.051-41.051c10.601,6.425,23.895,6.425,34.496,0l41.051,41.051C309.554,334.876,309.398,345.201,313.908,353.831z
			 M244.201,411.551c-0.121-0.302-0.323-0.578-0.42-0.886c-0.212-0.784-0.348-1.586-0.405-2.395
			c-0.04-0.355-0.166-0.701-0.176-1.057c0.014-0.775,0.1-1.547,0.256-2.307c0.061-0.386,0.033-0.781,0.131-1.161
			c0.295-1.154,0.75-2.26,1.353-3.286c0.567-0.961,1.25-1.848,2.033-2.642c5.001-4.992,13.099-4.992,18.1,0
			c0.772,0.785,1.446,1.66,2.007,2.608c1.155,1.965,1.766,4.201,1.772,6.48c0.008,2.46-0.714,4.867-2.075,6.917l-0.029,0.046
			l-0.029,0.042c-0.485,0.717-1.034,1.388-1.642,2.004l-0.009,0.009c-5.067,4.842-13.048,4.837-18.108-0.013l-0.013-0.017
			c-0.599-0.61-1.14-1.274-1.618-1.982v0C244.874,413.163,244.496,412.373,244.201,411.551z M158.299,314.002
			c-10.944-12.212-21.243-24.986-30.856-38.271c9.961-11.252,9.961-28.168,0-39.42c9.596-13.261,19.875-26.013,30.797-38.205
			c8.626,4.449,18.904,4.296,27.393-0.409l41.076,41.076c-6.425,10.601-6.425,23.895,0,34.496L185.578,314.4
			C177.033,310.067,166.967,309.92,158.299,314.002z M183.931,343.822c-1.182,4.423-4.637,7.878-9.06,9.06
			c-4.423,1.182-9.141-0.089-12.372-3.332c-3.245-3.23-4.516-7.948-3.335-12.371c1.181-4.423,4.635-7.879,9.058-9.062
			c4.423-1.183,9.141,0.086,12.373,3.329l0.004,0.004C183.843,334.681,185.113,339.399,183.931,343.822z M180.77,162.663
			c4.79,5.044,4.714,12.978-0.171,17.929l-0.001,0.003l-0.003,0.002c-3.678,3.673-9.211,4.757-14.003,2.742
			s-7.889-6.726-7.838-11.923c0.051-5.197,3.24-9.848,8.07-11.768C171.653,157.728,177.165,158.919,180.77,162.663z
			 M198.027,158.311c12.217-10.949,24.997-21.254,38.288-30.871c11.194,10.113,28.225,10.113,39.419,0
			c13.25,9.587,25.992,19.858,38.174,30.77c-4.51,8.63-4.354,18.955,0.414,27.446l-41.124,41.124
			c-10.683-5.924-23.665-5.924-34.348,0l-41.15-41.15C202.187,177.104,202.309,166.942,198.027,158.311z M248.893,94.532
			c5.081-3.398,11.854-2.733,16.177,1.588l0.004,0.004c2.409,2.393,3.759,5.651,3.75,9.046c0.005,6.112-4.309,11.376-10.303,12.573
			c-5.994,1.196-11.998-2.008-14.34-7.654S243.812,97.93,248.893,94.532z M268.091,268.087c-6.752,6.45-17.382,6.45-24.133,0
			c-4.882-4.881-6.343-12.222-3.701-18.6c2.641-6.378,8.865-10.536,15.768-10.536c6.903,0,13.127,4.159,15.768,10.536
			C274.433,255.866,272.973,263.207,268.091,268.087z M331.451,162.49c4.999-4.998,13.104-4.997,18.102,0.002
			c4.987,5.004,4.987,13.1,0,18.104c-5.066,4.836-13.04,4.834-18.104-0.004C326.451,175.593,326.452,167.488,331.451,162.49z
			 M354.601,145.377c-9.082-4.885-20.043-4.729-28.983,0.411c-13.023-11.686-26.664-22.664-40.865-32.885
			c1.528-5.082,1.516-10.503-0.035-15.578c56.389-29.369,106.062-35.096,133.638-15.703L354.601,145.377z M256.024,17.071
			c44.735-0.093,88.585,12.463,126.491,36.219c-30.13-1.401-66.918,8.525-106.884,29.543c-11.345-9.5-27.868-9.501-39.213-0.001
			c-39.966-21.02-76.76-30.942-106.893-29.536C167.432,29.536,211.286,16.978,256.024,17.071z M227.329,97.326
			c-1.55,5.075-1.562,10.495-0.034,15.577h0c-14.201,10.221-27.842,21.199-40.864,32.884c-8.94-5.14-19.902-5.295-28.983-0.41
			L93.691,81.621C121.265,62.227,170.926,67.966,227.329,97.326z M81.625,93.688l63.758,63.758
			c-4.831,9.071-4.648,19.991,0.483,28.896c-11.768,13.108-22.819,26.844-33.103,41.146c-5.034-1.251-10.3-1.237-15.327,0.042
			C67.98,171.047,62.21,121.294,81.625,93.688z M114.228,265.071c-5.066,4.836-13.04,4.834-18.104-0.004l0,0
			c-4.995-5-4.992-13.103,0.007-18.099c4.999-4.996,13.102-4.994,18.099,0.004S119.226,260.073,114.228,265.071z M17.074,256.021
			c-0.093-44.736,12.463-88.587,36.22-126.493c-1.403,30.127,8.52,66.912,29.532,106.87c-10.025,11.162-10.026,28.085,0,39.247
			c-21.012,39.957-30.935,76.742-29.532,106.869C29.537,344.608,16.981,300.757,17.074,256.021z M97.329,284.716L97.329,284.716
			c5.075,1.549,10.495,1.561,15.577,0.034c10.221,14.201,21.199,27.842,32.885,40.864c-5.142,8.939-5.297,19.902-0.41,28.983
			l-63.755,63.756C62.233,390.781,67.966,341.115,97.329,284.716z M157.446,366.665c9.04,5.056,20.092,4.899,28.984-0.411
			c12.992,11.659,26.6,22.612,40.766,32.814c-0.039,0.141-0.099,0.278-0.137,0.419c-0.207,0.802-0.314,1.616-0.452,2.427
			c-0.091,0.533-0.232,1.061-0.294,1.598c-0.119,1.138-0.172,2.281-0.157,3.425c0.001,0.207-0.031,0.414-0.027,0.622
			c0.071,2.438,0.443,4.858,1.11,7.204c-56.361,29.318-105.995,35.031-133.547,15.657L157.446,366.665z M256.024,494.971
			c-44.721,0.093-88.557-12.455-126.455-36.196c1.851,0.085,3.68,0.209,5.581,0.209c29.021-0.004,63.767-10.073,101.24-29.775
			c11.17,10.032,28.105,10.034,39.277,0.003c37.475,19.703,72.214,29.772,101.234,29.772c1.901,0,3.73-0.124,5.581-0.209
			C344.582,482.516,300.745,495.064,256.024,494.971z M284.809,414.763c1.433-5.131,1.447-10.555,0.041-15.693l0,0
			c14.166-10.202,27.775-21.156,40.768-32.815c8.893,5.31,19.945,5.466,28.984,0.41l63.755,63.755
			C390.796,449.801,341.17,444.085,284.809,414.763z M430.423,418.353L430.423,418.353l-63.754-63.755
			c4.886-9.082,4.731-20.045-0.411-28.984c11.686-13.022,22.664-26.663,32.885-40.864c5.082,1.528,10.502,1.516,15.577-0.034
			C444.082,341.115,449.815,390.781,430.423,418.353z M458.754,382.514c1.403-30.127-8.52-66.913-29.532-106.87
			c10.026-11.161,10.026-28.085,0-39.247c21.013-39.957,30.935-76.743,29.532-106.87c23.757,37.907,36.313,81.757,36.22,126.493
			C495.068,300.757,482.511,344.608,458.754,382.514z"/>
	</g>
</g>
<g>
</g>
<g>
</g>
<g>
</g>
<g>
</g>
<g>
</g>
<g>
</g>
<g>
</g>
<g>
</g>
<g>
</g>
<g>
</g>
<g>
</g>
<g>
</g>
<g>
</g>
<g>
</g>
<g>
</g>
</svg>
