<?xml version="1.0"?>
<svg xmlns="http://www.w3.org/2000/svg" width="512" height="512" viewBox="0 0 128 128" fill="#fff"><g><path d="M92.75,26.75H87.31V6.5a1.75,1.75,0,0,0-1.75-1.75H42.44A1.75,1.75,0,0,0,40.69,6.5V26.75H35.25A1.749,1.749,0,0,0,33.5,28.5V56.93a1.732,1.732,0,0,0,.1.57L40.69,78.063V86.35a7.759,7.759,0,0,0,7.75,7.75h4.81v7.254A1.749,1.749,0,0,0,55,103.1h4.25v18.4A1.749,1.749,0,0,0,61,123.25h6a1.749,1.749,0,0,0,1.75-1.75V103.1H73a1.749,1.749,0,0,0,1.75-1.75V94.1h4.81a7.759,7.759,0,0,0,7.75-7.75V78.063L94.4,57.5a1.732,1.732,0,0,0,.1-.57V28.5A1.749,1.749,0,0,0,92.75,26.75Zm-27.5,93h-2.5V103.1h2.5Zm6-20.146h-4.2c-.017,0-.032,0-.049,0s-.032,0-.049,0h-5.9c-.017,0-.032,0-.049,0s-.032,0-.049,0h-4.2V94.1h14.5ZM44.19,8.25H54.667V12.5a1.75,1.75,0,0,0,3.5,0V8.25H69.833V12.5a1.75,1.75,0,0,0,3.5,0V8.25H83.81v18.5H70.25V22.125a1.749,1.749,0,0,0-1.75-1.75h-9a1.749,1.749,0,0,0-1.75,1.75V26.75H44.19ZM61.25,23.875h5.5V36.5h-5.5ZM91,56.637,83.905,77.2a1.758,1.758,0,0,0-.095.571v8.58a4.255,4.255,0,0,1-4.25,4.25H48.44a4.255,4.255,0,0,1-4.25-4.25V77.77A1.758,1.758,0,0,0,44.1,77.2L37,56.637V30.25H57.75v8A1.749,1.749,0,0,0,59.5,40h9a1.749,1.749,0,0,0,1.75-1.75v-8H91Z"/><path d="M85,37.667v12a1.75,1.75,0,0,0,3.5,0v-12a1.75,1.75,0,0,0-3.5,0Z"/><path d="M76.56,76.08H51.44a1.75,1.75,0,1,0,0,3.5H76.56a1.75,1.75,0,0,0,0-3.5Z"/><path d="M79.62,65.64H48.38a1.75,1.75,0,0,0,0,3.5H79.62a1.75,1.75,0,0,0,0-3.5Z"/><path d="M83.23,55.19H44.77a1.75,1.75,0,0,0,0,3.5H83.23a1.75,1.75,0,1,0,0-3.5Z"/></g></svg>
