<svg xmlns="http://www.w3.org/2000/svg" viewBox="0 0 60 60" fill="#FFF"><path d="M41,2.1l.14.06A14,14,0,0,1,45,6c.61,1.73,2.11,3.71,5.74,3.71.45,0,.9,0,1.33-.06-.08.2-.13.33-.17.41a4.68,4.68,0,0,0-1.5,1.67,2,2,0,0,0-.28,1.15,5.15,5.15,0,0,1-.48,2.62h0a2.63,2.63,0,0,0-.22.55,4,4,0,0,1-1,1.88c-2.38.26-4,1.06-4.75,2.39a3.45,3.45,0,0,0-.46,1.45c-1.43.43-2.66,1.74-3.86,3A14.46,14.46,0,0,1,38.2,26a10.59,10.59,0,0,0-3.65,2.67c-.15.14-.27.27-.35.33s-1.13.79-2,1.32a1.74,1.74,0,0,0-.42.34h0a5,5,0,0,0-1.31.19c-2.21.6-3,2.21-2.88,3.45a2.38,2.38,0,0,0,.14.54l0,.06a2,2,0,0,0-.2,1.1.51.51,0,0,1-.12.21A4.44,4.44,0,0,0,26,39.42a6.93,6.93,0,0,1-.25,1,2.26,2.26,0,0,0-.63,1.81,2.3,2.3,0,0,0,.65,1.37c0,.15,0,.32.07.48l-.52.27a2.11,2.11,0,0,0-1.39,2.46,2,2,0,0,0,1.71,1.51,5.19,5.19,0,0,0,.49,2.21,2.36,2.36,0,0,1-.31.77l-.38.39a3.79,3.79,0,0,0-1.25,2l0,.07c-.45.26-1.42.84-1.73,1a2.85,2.85,0,0,0-1.21,1.89L19.91,58c-.3,0-.68,0-1.05,0a8,8,0,0,1-.9,0,4.94,4.94,0,0,0-3.37-1.16c-.25-.2-.64-.56-1.06-1a3.26,3.26,0,0,0-.63-2.51,2.31,2.31,0,0,1-.29-.81,4.19,4.19,0,0,0-.33-1.86l0,0a3.35,3.35,0,0,0-.35-2.37l-.11-.19a8,8,0,0,0-1-2.35,1.83,1.83,0,0,0-.35-.44,13.68,13.68,0,0,0,1-3.4c.07-.33.17-.79.21-.92a13.63,13.63,0,0,1,1.09-1.89l.22-.34a3,3,0,0,0,0-2.9,3,3,0,0,0,2.11-2.09,3.29,3.29,0,0,0,.16-1.5,3.11,3.11,0,0,0,.49-.53,3,3,0,0,0,.59-2A2.52,2.52,0,0,0,18,28.1c.19,0,.4.07.59.11a4.36,4.36,0,0,0,.95.14,2.14,2.14,0,0,0,1.06-.27l.12-.06.7-.39a2.73,2.73,0,0,0,1.26.31,2.91,2.91,0,0,0,1.68-.56,3.49,3.49,0,0,0,.54.15,1.69,1.69,0,0,0,.38,0,2.19,2.19,0,0,0,.36,0l.16,0,.56,0a3.38,3.38,0,0,0,3.12-1.88,4.1,4.1,0,0,0,.35-2.29,3,3,0,0,0,.89.14,3.72,3.72,0,0,0,3.1-2,3,3,0,0,0,.43-2.95,2.36,2.36,0,0,0-.2-.31,4.25,4.25,0,0,1-.14-.52,4,4,0,0,0,1.13-2,4.52,4.52,0,0,0,1.44-2l.06-.08A8.67,8.67,0,0,0,37.7,12.1l0,0c.22-.26.55-.66.9-1.15a3.87,3.87,0,0,0,.67-4,7.57,7.57,0,0,1-.23-2A11.13,11.13,0,0,0,41,2.19L41,2.1M40.91,0c-.42,0-.91.23-1.62,1.05A8.26,8.26,0,0,1,37.4,3.7c-.52.36-.31,2.79,0,3.77A2,2,0,0,1,37,9.73c-.69.95-1.26,1.5-1.13,1.51a13.4,13.4,0,0,1-1.13,1.51c0,.08-.46,1.42-1.13,1.51s-.18,2-1.51,2.26c-.61.32,0,2.81.38,3,.12.24-.65,2-1.75,2a1.07,1.07,0,0,1-.52-.14,1.65,1.65,0,0,0-.78-.18c-1.17,0-2.31,1.11-1.86,1.69s.5,2.66-1.2,2.66a1.67,1.67,0,0,1-.31,0l-.84-.09a.61.61,0,0,1,.09.09s-.55-.11-.33-.11l.24,0a1.18,1.18,0,0,0-.83-.38,1.4,1.4,0,0,0-1,.47,1,1,0,0,1-.73.37c-.6,0-1-.76-1.13-.76s0,0,0,0a15.21,15.21,0,0,1-1.89,1.13l-.1,0a15.58,15.58,0,0,0-1.77-.27,1.43,1.43,0,0,0-1.52,1c-.14.39-.24.63-.41.63s-.2-.08-.35-.25a.8.8,0,0,0-.61-.2,2.64,2.64,0,0,0-1.65.58c-.08.1-.13.14-.18.14s-.18-.31-.58-.52A7.19,7.19,0,0,0,9.84,27a5,5,0,0,0-2.24.45c-1.62.84-1.95,1.6-1.89,1.89h.07c.42,0,1.28-.85,1.82-1.14a6,6,0,0,1,2-.27,3.62,3.62,0,0,1,2.5.65c.11.41-.9,1-.76,1.13a.36.36,0,0,0,.21.05,2.89,2.89,0,0,0,1.3-.42,1.38,1.38,0,0,1,.72-.23.79.79,0,0,1,.79.6,1.14,1.14,0,0,1-.9,1.25.26.26,0,0,1-.23-.12.28.28,0,0,0-.23-.1c-.48,0-1.31.79-.53,1.24h.12c.5,0,.91.27.64,1.14a1,1,0,0,1-.88.77.7.7,0,0,1-.63-.4c-.3-.59.33-2.64-.36-2.64h0c-.47,0-1.45.23-2.4.23a3.35,3.35,0,0,1-1.37-.23C6.7,30.46,6.21,30,5.73,30a.66.66,0,0,0-.39.12c-.63.4-.07,1.65,1.13,1.89.82.39,1.5.69,1.22,2,0,.49.18.63.42.63a1.58,1.58,0,0,0,.71-.25s-.15.79.49.79l.27,0a.32.32,0,0,1,.14,0c.92,0,1.95,2.1,1.65,2.56a16.39,16.39,0,0,0-1.51,2.64c-.3.87-.66,3.85-1.51,4.53s-.63,1.26.76,1.89a5.17,5.17,0,0,1,.75,1.88,3.37,3.37,0,0,0,.38.76,1.68,1.68,0,0,1,0,1.13c-.15.46.44,1.23.38,1.89a3.79,3.79,0,0,0,.75,2.26c.41.46,0,1.88,0,1.88s2.11,2.2,2.64,2.27,2.2,0,2.64.75c.22.38,1.24.48,2.21.48s1.94-.1,1.94-.1l2.26-2.26s0-.9.38-1.14l1.89-1.13a2.47,2.47,0,0,0,.75-1.13c.11-.56.33-.67,1.13-1.51s1.19-2.93.76-3-.38-2.64-.38-2.64a1.23,1.23,0,0,0-1.09-.82,1.41,1.41,0,0,0-.42.07l-.23.06c-.19,0,2.26-1,2.12-1.57s-.38-2.26-.38-2.26-.86-.4-.38-.76.76-2.26.76-2.26a2.44,2.44,0,0,1,.75-1.89,2.4,2.4,0,0,0,.76-1.88l.37-.76s.54-.75,0-.75h0c-.53,0-.43-1.09,1.14-1.51a2.9,2.9,0,0,1,.78-.12c.76,0,.73.5.73.5L33.25,32S35,30.9,35.51,30.48s2.2-2.32,3.4-2.64,3.6-4.22,5.3-4.22a.92.92,0,0,1,.36.07h.06c.46,0,.69-1.13.69-1.13s-1-2.19,3.4-2.64c1.89-.26,2.64-3.4,2.64-3.4a7.08,7.08,0,0,0,.75-3.77c1.14-1.91,1.17-.06,2.26-3.77h0c.14,0,1.36-1.54-.39-1.54a2.49,2.49,0,0,0-.37,0,28.86,28.86,0,0,1-2.89.24c-1.67,0-3.23-.46-3.9-2.51A14.89,14.89,0,0,0,41.93.3a3.14,3.14,0,0,0-1-.3Z"/></svg>