<svg id="Layer_1" enable-background="new 0 0 512 512" height="512" fill="#fff" viewBox="0 0 512 512" width="512" xmlns="http://www.w3.org/2000/svg"><g><path d="m497.577 146.127c-5.313-2.554-12.063-6.68-14.689-9.628-.761-.853-1.14-1.465-1.896-2.684-2.123-3.428-5.032-8.123-16.723-19.864-7.661-7.693-16.829-11.399-26.079-10.628-2.95-4.12-8.16-10.665-15.779-13.687-5.135-2.034-10.945.477-12.982 5.609-2.036 5.135.476 10.946 5.609 12.982 1.435.569 2.908 1.9 4.229 3.378-4.932 4.203-9.149 9.815-12.205 16.465-2.948 6.416-7.133 7.104-22.211 6.433-2.974-.132-6.048-.269-9.239-.269-12.762 0-32.744-11.423-50.375-21.501-10.968-6.27-21.438-12.255-30.421-15.662-5.378-2.134-9.336-2.799-11.023-3.223-13.481-3.392-32.772-7.286-60.473-4.26-60.788 6.639-97.193 67.449-126.445 116.31-11.054 18.464-21.495 35.905-30.955 45.948-20.061 21.297-39.389 30.877-50.937 36.601-8.479 4.203-14.081 6.979-14.903 13.895-.456 3.837 1.073 7.537 4.196 10.15 3.545 2.966 9.46 5.523 28.591 4.179 9.175-.645 18.319-2.053 18.57-2.111 54.162-12.668 97.596-55.398 121.641-81.796-3.648 21.452-13.518 40.179-28.556 53.392-27.848 24.47-39.573 60.279-34.849 106.432.598 5.835 2.416 23.593 15.089 29.26 2.594 1.16 5.201 1.652 7.78 1.652 6.975 0 13.733-3.606 19.377-7.369 1.948-1.298 6.926-4.911 7.639-5.416 11.332-8.033 12.436-23.979 13.604-40.863.505-7.293 1.027-14.834 2.363-21.646 2.8-14.277 31.057-39.078 57.401-60.344 7.164-5.784 21.369-16.953 21.369-16.953 14.308-11.251 23.36-27.42 29.091-43.643 10.595 1.723 20.832 2.732 31.092 2.732h.069c3.787 0 7.673-.168 11.725-.435.885 4.111 1.477 10.729-.995 18.359-1.703 5.254 1.176 10.893 6.43 12.595 1.024.332 2.063.49 3.085.49 4.218 0 8.141-2.69 9.511-6.92 3.364-10.381 3.058-19.715 1.9-26.485 5.047-.683 10.146-1.502 15.265-2.457 5.431-1.01 9.02-6.278 8.011-11.708-.891-4.729-5.02-8.189-9.82-8.189-.62 0-18.45 2.855-26.43 3.555-6.75.6-12.86.887-18.681.887-8.622-.007-16.953-.639-25.693-1.956 4.304-19.657 4.408-35.67 4.408-37.027 0-5.522-4.478-10-10-10s-10 4.477-10 9.999c0 .599-.358 60.127-31.33 84.482 0 0-16.423 12.958-23.555 18.738-34.832 28.229-58.632 50.825-62.477 70.43-1.576 8.036-2.142 16.21-2.689 24.115-.683 9.866-1.618 23.377-5.218 25.928-.77.546-12.156 8.808-15.051 9.082-.619-.8-2.443-3.857-3.372-12.931-4.028-39.348 5.444-69.416 28.154-89.372 25.466-22.377 38.847-57.125 36.711-95.333-.236-4.22-2.932-7.827-6.868-9.189-6.551-2.27-11.125 2.518-13.323 4.82-1.647 1.725-3.758 4.12-6.431 7.152-19.29 21.88-64.41 73.053-120.556 86.369-1.128.171-2.265.331-3.404.482 10.837-6.695 23.674-16.173 36.624-29.921 10.947-11.621 21.425-29.124 33.557-49.388 26.977-45.061 60.55-101.14 111.456-106.702 23.386-2.553 39.647.394 51.915 3.401 2.161.53 6.657 1.256 11.347 3.29 7.235 2.891 16.674 8.287 26.558 13.937 20.76 11.867 42.225 24.137 60.301 24.137 2.747 0 5.596.127 8.352.249 14.394.64 32.312 1.435 41.271-18.062 3.23-7.028 8.632-12.159 13.76-13.073 1.349-.236 5.443-.97 11.103 4.714 10.071 10.114 12.28 13.681 13.894 16.284.961 1.551 2.049 3.307 3.964 5.456 6.068 6.813 17.194 12.529 20.77 14.259.781.532 1.911 1.788 2.628 2.896-.456.171-1.043.358-1.785.545-8.724 2.191-14.99.004-21.052-2.109-5.032-1.754-10.234-3.568-16.061-2.534-.34.06-1.999.495-2.462.644-2.213.713-3.919 1.669-5.814 2.728 0 0-6.21 3.94-8.71 5.7-2.189 1.53-3.64 3.83-4.1 6.46s.14 5.28 1.67 7.469c1.87 2.66 4.93 4.25 8.19 4.25 2.069 0 4.05-.63 5.75-1.829 2.899-2.04 9.026-5.693 9.063-5.708 1.09.053 3.838.99 5.89 1.706 7.16 2.496 17.985 6.266 32.505 2.622 14.067-3.533 16.986-12.137 17.475-16.952 1.14-11.27-8.942-21.228-14.336-23.821z"/><circle cx="403.221" cy="204.109" r="10"/></g></svg>