<svg id="Layer_1" enable-background="new 0 0 480 480" fill="#FFFFFF" height="512" viewBox="0 0 480 480" width="512" xmlns="http://www.w3.org/2000/svg"><g><path d="m472 463.782h-2.354c-4.418 0-8 3.582-8 8s3.582 8 8 8h2.354c4.418 0 8-3.582 8-8s-3.582-8-8-8z"/><path d="m440.29 463.782h-56.29v-77c0-4.418-3.582-8-8-8h-78c-4.418 0-8 3.582-8 8v46.903c0 4.418 3.582 8 8 8s8-3.582 8-8v-38.903h62v69h-120v-314c0-4.411 3.589-8 8-8h162c4.411 0 8 3.589 8 8v276.291c0 4.418 3.582 8 8 8s8-3.582 8-8v-276.291c0-13.233-10.767-24-24-24h-12v-18c0-4.418-3.582-8-8-8s-8 3.582-8 8v18h-134c-13.233 0-24 10.767-24 24v314h-178v-210c0-4.411 3.589-8 8-8h136.161c4.418 0 8-3.582 8-8s-3.582-8-8-8h-89.161v-23c0-4.418-3.582-8-8-8s-8 3.582-8 8v23h-31c-13.233 0-24 10.766-24 24v210h-30c-4.418 0-8 3.582-8 8s3.582 8 8 8h432.29c4.418 0 8-3.582 8-8s-3.582-8-8-8z"/><path d="m311 183.782h-18c-4.418 0-8 3.582-8 8s3.582 8 8 8h18c4.418 0 8-3.582 8-8s-3.582-8-8-8z"/><path d="m381 183.782h-18c-4.418 0-8 3.582-8 8s3.582 8 8 8h18c4.418 0 8-3.582 8-8s-3.582-8-8-8z"/><path d="m311 252.782h-18c-4.418 0-8 3.582-8 8s3.582 8 8 8h18c4.418 0 8-3.582 8-8s-3.582-8-8-8z"/><path d="m381 252.782h-18c-4.418 0-8 3.582-8 8s3.582 8 8 8h18c4.418 0 8-3.582 8-8s-3.582-8-8-8z"/><path d="m311 321.782h-18c-4.418 0-8 3.582-8 8s3.582 8 8 8h18c4.418 0 8-3.582 8-8s-3.582-8-8-8z"/><path d="m381 321.782h-18c-4.418 0-8 3.582-8 8s3.582 8 8 8h18c4.418 0 8-3.582 8-8s-3.582-8-8-8z"/><path d="m118 277.782h-17c-4.418 0-8 3.582-8 8s3.582 8 8 8h17c4.418 0 8-3.582 8-8s-3.582-8-8-8z"/><path d="m185 277.782h-17c-4.418 0-8 3.582-8 8s3.582 8 8 8h17c4.418 0 8-3.582 8-8s-3.582-8-8-8z"/><path d="m118 346.782h-17c-4.418 0-8 3.582-8 8s3.582 8 8 8h17c4.418 0 8-3.582 8-8s-3.582-8-8-8z"/><path d="m185 346.782h-17c-4.418 0-8 3.582-8 8s3.582 8 8 8h17c4.418 0 8-3.582 8-8s-3.582-8-8-8z"/><path d="m118 415.782h-17c-4.418 0-8 3.582-8 8s3.582 8 8 8h17c4.418 0 8-3.582 8-8s-3.582-8-8-8z"/><path d="m185 415.782h-17c-4.418 0-8 3.582-8 8s3.582 8 8 8h17c4.418 0 8-3.582 8-8s-3.582-8-8-8z"/><path d="m390.023 41.705c-4.385.543-7.499 4.538-6.956 8.923.544 4.384 4.522 7.495 8.923 6.956 14.985-1.855 29.692 3.194 40.353 13.854 1.563 1.563 3.609 2.343 5.657 2.343 7.06 0 10.715-8.599 5.657-13.657-14.173-14.172-33.721-20.884-53.634-18.419z"/><path d="m356.569 56.255c-1.457 1.22-2.878 2.522-4.227 3.871-3.124 3.124-3.124 8.189 0 11.313 3.126 3.125 8.189 3.124 11.314 0 1.018-1.018 2.091-2.001 3.189-2.922 3.387-2.838 3.831-7.884.992-11.27-2.836-3.387-7.882-3.83-11.268-.992z"/><path d="m472.657 42.439c3.124-3.124 3.124-8.189 0-11.313-.83-.83-1.669-1.642-2.519-2.438-3.225-3.02-8.287-2.854-11.308.37s-2.854 8.287.37 11.308c.723.677 1.437 1.368 2.142 2.074 3.126 3.123 8.19 3.123 11.315-.001z"/><path d="m329 44.782c2.047 0 4.095-.781 5.657-2.343 22.684-22.684 56.024-31.524 87.01-23.072 4.261 1.163 8.66-1.35 9.823-5.612s-1.35-8.661-5.612-9.823c-36.512-9.961-75.801.46-102.535 27.194-5.056 5.055-1.405 13.656 5.657 13.656z"/><path d="m165.376 144.448c3.123 3.122 8.188 3.123 11.313-.004 3.123-3.125 3.121-8.19-.005-11.313-.719-.719-1.444-1.425-2.179-2.119-3.208-3.035-8.273-2.894-11.31.317-3.035 3.21-2.894 8.274.317 11.309.629.593 1.249 1.196 1.864 1.81z"/><path d="m30.97 146.789c2.047 0 4.095-.781 5.657-2.343 25.366-25.365 63.415-33.477 96.931-20.669 4.127 1.576 8.752-.49 10.328-4.618 1.577-4.127-.49-8.751-4.617-10.329-39.405-15.057-84.134-5.518-113.956 24.302-5.056 5.056-1.405 13.657 5.657 13.657z"/><path d="m58.824 166.644c-3.124 3.124-3.124 8.189 0 11.313 3.125 3.125 8.189 3.125 11.314 0 17.016-17.017 44.707-17.017 61.723 0 1.563 1.563 3.609 2.343 5.657 2.343 7.06 0 10.715-8.599 5.657-13.657-23.255-23.255-61.095-23.255-84.351.001z"/></g></svg>