<svg id="Layer_1" enable-background="new 0 0 511.578 511.578" height="512" viewBox="0 0 511.578 511.578" width="512" xmlns="http://www.w3.org/2000/svg" fill="#fff"><g><g><path d="m440.273 179.417c-10.268-16.437-22.639-31.345-36.714-44.401l7.15-7.15 11.667 11.667c8.774 8.772 23.047 8.772 31.82-.001 8.772-8.772 8.772-23.047 0-31.82l-33.941-33.939c-8.375-8.729-23.445-8.729-31.82-.001-8.729 8.376-8.729 23.445 0 31.82l11.667 11.667-7.911 7.911c-11.624-9.38-24.219-17.587-37.62-24.44-3.687-1.884-8.207-.425-10.092 3.264-1.886 3.688-.425 8.206 3.263 10.092 68.122 34.833 110.44 103.963 110.44 180.414-11.104 268.608-393.904 268.599-405-.002-2.196-134.39 136.145-235.313 263.4-193.183 3.951 1.245 8.162-.949 9.407-4.9 1.244-3.951-.95-8.162-4.901-9.406-13.176-4.15-26.711-7.021-40.455-8.592v-30.404h60.29c13.165 0 23.875-10.71 23.875-23.875v-.263c-.002-13.165-10.713-23.875-23.877-23.875h-96.254c-9.931.344-9.923 14.66 0 15h96.254c4.894 0 8.875 3.981 8.875 8.875v.263c0 4.894-3.981 8.875-8.875 8.875h-67.732c-.02 0-.038-.003-.058-.003h-34.9c-.02 0-.038.003-.058.003h-64.503c-4.894 0-8.875-3.981-8.875-8.875v-.263c0-4.894 3.981-8.875 8.875-8.875h36.392c9.931-.344 9.923-14.66 0-15h-36.392c-13.165 0-23.875 10.71-23.875 23.875v.263c0 13.165 10.71 23.875 23.875 23.875h57.06v30.409c-41.011 4.655-79.454 20.754-111.566 46.741l-7.904-7.905 11.667-11.667c8.729-8.375 8.729-23.445 0-31.819-8.375-8.73-23.445-8.729-31.82-.001l-33.942 33.941c-8.772 8.772-8.772 23.047 0 31.82 8.773 8.772 23.047 8.772 31.82 0l11.667-11.667 7.153 7.153c-89.852 80.185-92.661 229.753-5.922 313.277 80.96 84.378 226.634 84.374 307.592 0 71.103-68.871 84.167-185.752 30.798-268.878zm-43.429-89.735c0-2.003.78-3.887 2.197-5.304 2.792-2.909 7.814-2.909 10.606.001l33.941 33.939c2.924 2.925 2.924 7.684 0 10.607-2.924 2.925-7.683 2.924-10.607 0l-33.941-33.941c-1.416-1.416-2.196-3.299-2.196-5.302zm-318.465 39.244c-2.924 2.926-7.683 2.924-10.606.001-2.924-2.925-2.924-7.684 0-10.607l33.942-33.941c2.792-2.909 7.814-2.909 10.606.001 2.91 2.791 2.91 7.815 0 10.605zm167.351-80.913h19.9v29.22c-6.611-.308-13.294-.307-19.9-.002z"/><path d="m255.681 482c248.741-10.299 248.676-364.736-.001-375-149.786-1.289-240.706 172.847-153.733 294.735 2.374 3.396 7.051 4.219 10.445 1.847 3.394-2.374 4.221-7.051 1.846-10.444-79.996-112.135 3.648-272.334 141.446-271.135 95.113-.003 172.497 77.38 172.497 172.497.363 151.022-183.953 229.449-292.186 124.107-2.981-2.877-7.729-2.791-10.604.19-2.876 2.98-2.791 7.729.19 10.604 35.159 33.919 81.362 52.599 130.1 52.599z"/><path d="m390.824 294.5c.315 9.877 14.635 9.98 15 0-8.258-199.208-292.079-199.107-300.287.001 0 4.141 3.358 7.499 7.5 7.499s7.5-3.357 7.5-7.5c7.434-179.308 262.9-179.213 270.287 0z"/><path d="m244.91 348.19c-3.967-.2-7.621 2.266-8.853 6.059-.028.086-.055.173-.08.261l-9.833 34.493-10.199-34.568c-.026-.09-.054-.178-.084-.267-1.27-3.78-4.946-6.233-8.916-5.968-3.979.267-7.286 3.188-8.056 7.19l-10.005 55.433c-.736 4.076 1.973 7.978 6.049 8.713 4.076.736 7.977-1.973 8.713-6.049l5.345-29.615 8.843 29.974c.026.089.054.178.083.266 1.205 3.587 4.547 5.988 8.328 5.988h.046c3.799-.02 7.14-2.461 8.312-6.074.027-.086.054-.172.079-.259l8.537-29.946 5.684 29.743c.778 4.068 4.704 6.744 8.774 5.958 4.069-.777 6.736-4.706 5.959-8.774l-10.615-55.537c-.794-3.908-4.13-6.795-8.111-7.021z"/><path d="m297.967 420.1c12.183 0 22.416-7.788 24.332-18.519 1.444-8.09-2.208-18.651-16.793-24.031-6.926-2.554-13.379-5.335-15.428-6.231-1.357-1.123-1.31-2.671-1.216-3.319.134-.932.816-3.21 4.258-4.246 7.808-2.354 15.081 3.367 15.31 3.551 3.171 2.627 7.873 2.208 10.527-.949 2.665-3.171 2.255-7.902-.916-10.567-.544-.457-13.502-11.14-29.248-6.397-16.073 4.49-20.612 25.502-6.539 34.765.332.217.679.406 1.041.567.33.146 8.18 3.642 17.02 6.901 1.876.692 7.942 3.266 7.218 7.321-2.723 9.51-18.533 6.662-23.845.181-2.782-3.068-7.525-3.302-10.594-.52-3.069 2.781-3.302 7.524-.521 10.594 6.28 6.925 15.535 10.899 25.394 10.899z"/><path d="m285.005 302.676c.087-25.271-30.418-38.663-48.898-21.812l-50.202-31.231c-3.518-2.189-8.142-1.11-10.33 2.406-2.188 3.518-1.111 8.143 2.406 10.33l49.887 31.035c-6.511 18.448 8.174 38.952 27.813 38.597 16.169-.001 29.324-13.156 29.324-29.325zm-29.324 14.324c-7.898 0-14.324-6.426-14.324-14.324.787-19.003 27.865-18.997 28.648 0 0 7.898-6.426 14.324-14.324 14.324z"/></g></g></svg>