<svg height="512" viewBox="0 0 53 60" width="512" xmlns="http://www.w3.org/2000/svg"><g id="Page-1" fill="none" fill-rule="evenodd"><g id="071---Online" fill="#fff" fill-rule="nonzero"><path id="Shape" d="m1 17c-.55228475 0-1 .4477153-1 1v40c0 1.1045695.8954305 2 2 2h23c.7211904-.0025835 1.3847202-.3945824 1.735-1.025 9.5558603-.2544369 18.264221-5.5447261 22.894-13.908.014-.021.027-.043.039-.064 4.4426386-8.0994604 4.4426386-17.9065396 0-26.006-.012-.021-.025-.043-.039-.064-4.629779-8.3632739-13.3381397-13.65356309-22.894-13.908-.3502798-.63041762-1.0138096-1.0224165-1.735-1.025h-2v-2c0-1.1045695-.8954305-2-2-2h-15c-1.1045695 0-2 .8954305-2 2v2h-2c-1.1045695 0-2 .8954305-2 2v7c0 .5522847.44771525 1 1 1s1-.4477153 1-1v-7h5c.55228475 0 1-.44771525 1-1s-.44771525-1-1-1h-1v-2h15v2h-9c-.5522847 0-1 .44771525-1 1s.4477153 1 1 1h13v52h-7v-7c0-1.1045695-.8954305-2-2-2h-5c-1.1045695 0-2 .8954305-2 2v7h-7v-40c0-.5522847-.44771525-1-1-1zm35.274 1h-9.274v-10.908c3.712.618 7.131 4.639 9.274 10.908zm.613 2c.9627425 3.5892987 1.4763338 7.2842007 1.529 11h-11.416v-11zm1.529 13c-.0526662 3.7157993-.5662575 7.4107013-1.529 11h-9.887v-11zm-2.142 13c-2.143 6.269-5.562 10.29-9.274 10.908v-10.908zm-3.761 10.133c2.76764-2.8370734 4.7835421-6.3199611 5.865-10.133h8.322c-3.3593917 4.971088-8.3950035 8.5677508-14.187 10.133zm15.425-12.133h-8.993c.920587-3.5961808 1.4143228-7.2882909 1.471-11h10.553c-.1441022 3.8520295-1.1817478 7.6178168-3.031 11zm3.031-13h-10.553c-.0566772-3.7117091-.550413-7.4038192-1.471-11h8.993c1.8493886 3.382128 2.8870432 7.147948 3.031 11zm-4.269-13h-8.322c-1.0814579-3.8130389-3.09736-7.2959266-5.865-10.133 5.7919965 1.56524922 10.8276083 5.161912 14.187 10.133zm-35.7 33h5v7h-5z"/><path id="Shape" d="m6 17h4c1.1045695 0 2-.8954305 2-2v-4c0-1.1045695-.8954305-2-2-2h-4c-1.1045695 0-2 .8954305-2 2v4c0 1.1045695.8954305 2 2 2zm0-6h4v4h-4z"/><path id="Shape" d="m17 17h4c1.1045695 0 2-.8954305 2-2v-4c0-1.1045695-.8954305-2-2-2h-4c-1.1045695 0-2 .8954305-2 2v4c0 1.1045695.8954305 2 2 2zm0-6h4v4h-4z"/><path id="Shape" d="m4 25c0 1.1045695.8954305 2 2 2h4c1.1045695 0 2-.8954305 2-2v-4c0-1.1045695-.8954305-2-2-2h-4c-1.1045695 0-2 .8954305-2 2zm2-4h4v4h-4z"/><path id="Shape" d="m15 25c0 1.1045695.8954305 2 2 2h4c1.1045695 0 2-.8954305 2-2v-4c0-1.1045695-.8954305-2-2-2h-4c-1.1045695 0-2 .8954305-2 2zm2-4h4v4h-4z"/><path id="Shape" d="m4 35c0 1.1045695.8954305 2 2 2h4c1.1045695 0 2-.8954305 2-2v-4c0-1.1045695-.8954305-2-2-2h-4c-1.1045695 0-2 .8954305-2 2zm2-4h4v4h-4z"/><path id="Shape" d="m15 35c0 1.1045695.8954305 2 2 2h4c1.1045695 0 2-.8954305 2-2v-4c0-1.1045695-.8954305-2-2-2h-4c-1.1045695 0-2 .8954305-2 2zm2-4h4v4h-4z"/><path id="Shape" d="m4 45c0 1.1045695.8954305 2 2 2h4c1.1045695 0 2-.8954305 2-2v-4c0-1.1045695-.8954305-2-2-2h-4c-1.1045695 0-2 .8954305-2 2zm2-4h4v4h-4z"/><path id="Shape" d="m15 45c0 1.1045695.8954305 2 2 2h4c1.1045695 0 2-.8954305 2-2v-4c0-1.1045695-.8954305-2-2-2h-4c-1.1045695 0-2 .8954305-2 2zm2-4h4v4h-4z"/></g></g></svg>