<svg xmlns="http://www.w3.org/2000/svg" data-name="Layer 2" viewBox="0 0 662.07 277.34" fill="#FFFFFF"><g data-name="Layer 1"><path d="M651.97 10.1v49.5l-15.48 34.59H617.3V44.74h-49.42V25.55l34.56-15.46h49.53m10.1-10.1h-61.78L557.78 19v35.83h49.42v49.45h35.83l19.04-42.54V0ZM643.13 110.05h-61.78l-42.51 19v35.83h49.42v49.45h35.83l19.04-42.53v-61.75zM541.67 29.93v49.5l-15.48 34.59H507V64.57h-49.42V45.38l34.56-15.46h49.53m10.1-10.1h-61.78l-42.51 19.01v35.83h49.42v49.45h35.83l19.04-42.54V19.83ZM5 218.21V140.7h54.5v16.96H26.04v13.32h30.13v16.96H26.04v30.28H5ZM66.15 218.21V140.7h33.46c5.75 0 10.79 1.05 15.1 3.14 4.31 2.09 7.67 5.11 10.07 9.05 2.4 3.94 3.6 8.65 3.6 14.15s-1.23 10.23-3.69 14.04-5.9 6.69-10.33 8.63c-4.43 1.94-9.59 2.91-15.5 2.91H78.88v-16.35h15.74c2.47 0 4.58-.31 6.34-.93s3.1-1.61 4.05-2.97c.95-1.36 1.42-3.14 1.42-5.34s-.47-4.03-1.42-5.43-2.3-2.43-4.05-3.1c-1.75-.67-3.87-1-6.34-1H87.2v60.71H66.16Zm45.42-35.58 19.38 35.58h-22.86l-18.92-35.58h22.41ZM211.32 179.46c0 8.63-1.68 15.9-5.03 21.82-3.36 5.92-7.88 10.4-13.59 13.44-5.7 3.04-12.06 4.56-19.07 4.56s-13.44-1.53-19.13-4.6c-5.69-3.07-10.21-7.56-13.55-13.47-3.34-5.92-5.01-13.16-5.01-21.74s1.67-15.9 5.01-21.82 7.86-10.39 13.55-13.43c5.69-3.04 12.07-4.56 19.13-4.56s13.37 1.52 19.07 4.56 10.23 7.52 13.59 13.43c3.36 5.92 5.03 13.19 5.03 21.82Zm-21.65 0c0-4.64-.61-8.56-1.84-11.75-1.22-3.19-3.03-5.61-5.41-7.27-2.38-1.65-5.32-2.48-8.8-2.48s-6.42.83-8.8 2.48c-2.38 1.65-4.19 4.08-5.41 7.27-1.22 3.19-1.84 7.11-1.84 11.75s.61 8.56 1.84 11.75c1.22 3.19 3.03 5.61 5.41 7.27 2.38 1.65 5.32 2.48 8.8 2.48s6.42-.83 8.8-2.48c2.38-1.65 4.19-4.08 5.41-7.27s1.84-7.11 1.84-11.75ZM287 140.7v77.51h-17.56l-28.01-40.72h-.45v40.72h-21.04V140.7h17.86l27.55 40.57h.61V140.7H287ZM293.81 157.66V140.7h67.37v16.96h-23.31v60.55h-20.74v-60.55h-23.31ZM389.02 140.7v77.51h-21.04V140.7h21.04ZM397.95 218.21V140.7h55.86v16.96h-34.82v13.32h31.94v16.96h-31.94v13.32h34.67v16.96h-55.71ZM463.19 218.21V140.7h33.46c5.75 0 10.79 1.05 15.1 3.14 4.31 2.09 7.67 5.11 10.07 9.05 2.4 3.94 3.6 8.65 3.6 14.15s-1.23 10.23-3.69 14.04-5.9 6.69-10.33 8.63c-4.43 1.94-9.59 2.91-15.5 2.91h-19.98v-16.35h15.74c2.47 0 4.58-.31 6.34-.93s3.1-1.61 4.05-2.97c.95-1.36 1.42-3.14 1.42-5.34s-.47-4.03-1.42-5.43-2.3-2.43-4.05-3.1c-1.75-.67-3.87-1-6.34-1h-7.42v60.71H463.2Zm45.42-35.58 19.38 35.58h-22.86l-18.92-35.58h22.41ZM40.9 126.14c-20.16 0-36.5-16.34-36.5-36.5s16.34-36.5 36.5-36.5 36.5 16.34 36.5 36.5c-.02 20.15-16.35 36.48-36.5 36.5Zm0-60.07c-13.02 0-23.57 10.55-23.57 23.57s10.55 23.57 23.57 23.57 23.57-10.55 23.57-23.57c-.01-13.01-10.56-23.56-23.57-23.57ZM82.69 72.3h11.54v4.78h.19c3.1-4.32 8.72-6.47 14.16-6.47 5.61.06 10.96 2.4 14.82 6.47.49.46.93.96 1.31 1.5 4.03 5.63 4.13 12.1 4.13 18.76v26.92h-12.48V99.78c0-4.03 0-9.19-2.16-12.66-1.78-2.72-5.06-4.32-8.25-4.32-3.38 0-7.04 1.78-8.72 4.6-2.25 3.56-2.06 9.19-2.06 13.32v23.54H82.69V72.29ZM146.77 103.81c1.88 5.97 7.44 10 13.7 9.94 4.69 0 9.19-1.78 11.63-4.5h13.79c-3.19 9.29-13.98 16.7-24.95 16.7-15.1.03-27.36-12.19-27.39-27.29 0-15.39 12.01-28.05 27.58-28.05s26.64 12.76 26.64 27.3c0 1.97-.38 3.94-.66 5.91h-40.34Zm28.42-11.07c-2.06-6.19-7.79-9.94-14.16-9.94s-12.57 3.94-14.45 9.94h28.61ZM266.06 116.34l-7.37-6.66c11.21-16.92 6.58-39.73-10.35-50.94-16.92-11.21-39.73-6.58-50.94 10.35-11.21 16.92-6.58 39.73 10.35 50.94 12.79 8.47 29.5 8.11 41.91-.91l7.65 6.91 8.75-9.68Zm-61.42-26.7c0-13.02 10.55-23.57 23.57-23.57s23.57 10.55 23.57 23.57-10.55 23.57-23.57 23.57c-13.01-.01-23.56-10.56-23.57-23.57ZM297.47 125.95c-15.27 0-27.65-12.38-27.65-27.65 0-15.27 12.38-27.65 27.65-27.65 15.27 0 27.65 12.38 27.65 27.65-.02 15.27-12.39 27.64-27.65 27.65Zm0-43.05c-8.5 0-15.4 6.89-15.4 15.4 0 8.5 6.89 15.4 15.4 15.4 8.5 0 15.4-6.89 15.4-15.4 0-8.5-6.9-15.39-15.4-15.4ZM371 54.94v22.7c-3.94-4.6-10.04-7.04-16.04-7.04-7.13 0-14.45 3.56-19.14 8.82-4.69 5.25-7.04 12.1-7.04 19.04.03 6.89 2.52 13.55 7.04 18.76 4.6 5.25 11.16 8.72 18.76 8.72 6.75 0 13.6-3 17.26-8.72h.19v7.04h11.44V54.94h-12.48Zm-2.73 53.14c-2.87 3.58-7.22 5.67-11.81 5.68-2.86 0-5.67-.84-8.06-2.41-7.24-4.43-9.51-13.88-5.09-21.12 1.7-2.77 4.23-4.94 7.24-6.18 1.8-.81 3.75-1.24 5.72-1.25 2.12 0 4.21.43 6.16 1.26.22.09.41.23.62.33.69.31 1.35.67 1.99 1.08.24.16.44.36.66.54.57.41 1.12.86 1.63 1.34.21.21.37.46.57.68.47.5.91 1.03 1.31 1.59.31.5.6 1.01.85 1.54.18.35.4.66.56 1.02 2.32 5.31 1.41 11.49-2.35 15.9ZM401.69 103.81c1.88 5.97 7.44 10 13.69 9.94 4.69 0 9.19-1.78 11.63-4.5h13.79c-3.19 9.29-13.98 16.7-24.95 16.7-15.1.03-27.36-12.19-27.39-27.29 0-15.39 12.01-28.05 27.58-28.05s26.64 12.76 26.64 27.3c0 1.97-.38 3.94-.66 5.91h-40.34Zm28.42-11.07c-2.06-6.19-7.79-9.94-14.16-9.94s-12.57 3.94-14.45 9.94h28.61ZM434 55.12h2.83l.92 3.8h.02l.92-3.8h2.83v6.45h-1.88v-4.14h-.02l-1.12 4.14h-1.48l-1.12-4.14h-.02v4.14H434v-6.45ZM429.5 56.78h-1.81v-1.65h5.6v1.65h-1.81v4.8h-1.99v-4.8ZM339.64 241.34h6.65v3.63c.11-.02.17-.02.18-.04 1.49-2.84 3.94-3.97 7.01-3.88 4.42.12 7.71 2.91 8.78 7.48.82 3.52.67 6.98-1.04 10.25-2.5 4.78-7.69 5.57-11.16 4.21-1.56-.62-2.34-1.34-3.72-3.46v14.16h-6.7v-32.35Zm16.24 10.96c-.02-.23-.03-.68-.08-1.13-.27-2.4-1.91-4-4.3-4.21-2.27-.2-4.29 1.13-4.94 3.3-.34 1.13-.36 2.29-.15 3.46.39 2.21 2.17 3.82 4.33 3.93 2.43.12 4.25-1.12 4.89-3.34.17-.58.22-1.19.26-2.01ZM392.82 245.09v-3.74h6.62v21.92h-6.64v-3.61c-.63.99-1.34 1.86-2.27 2.53-3.55 2.54-9.05 1.58-11.8-2.07-1.34-1.78-2.04-3.82-2.24-6.03-.27-2.92 0-5.76 1.45-8.39 2.56-4.65 7.59-5.41 11.05-4.1 1.52.57 2.26 1.25 3.84 3.49Zm-.03 7.28c0-.61-.03-1.16-.15-1.71-.49-2.22-2.29-3.68-4.57-3.72-2.3-.04-4.06 1.29-4.64 3.51-.23.89-.24 1.79-.17 2.7.2 2.55 1.86 4.29 4.24 4.5 2.46.21 4.45-1.17 5.09-3.53.16-.59.22-1.19.2-1.75ZM413.11 273.71h-7.27c-.11-.22.06-.37.13-.52 1.53-3.39 3.06-6.77 4.61-10.15.19-.41.19-.73.01-1.14-2.88-6.62-5.75-13.24-8.61-19.86-.09-.21-.25-.41-.21-.69h7.4c1.73 4.42 3.45 8.83 5.23 13.42 1.67-4.59 3.28-9.01 4.89-13.43h7.42c-4.54 10.82-9.06 21.58-13.6 32.38ZM506.19 253.53h-15.12c.08 2.7 1.18 4.19 3.35 4.58 2.11.38 3.72-.52 4.57-2.59h7.03c-.04.79-.31 1.5-.64 2.19-1.68 3.48-4.54 5.27-8.27 5.77-2.07.28-4.12.09-6.07-.7-3.92-1.59-5.92-4.65-6.43-8.78-.26-2.15-.12-4.28.66-6.3 1.56-4.08 4.66-6.15 8.89-6.59 2.38-.25 4.72.01 6.88 1.16 3.45 1.83 5.15 4.8 5.32 8.67.04.85.12 1.71-.16 2.59Zm-6.58-2.87c.08-2.65-1.55-4.31-4.16-4.28-2.55.02-4.38 1.85-4.29 4.28h8.44ZM298.07 253.55h-15.16c-.05 2.36 1.05 4.04 2.93 4.49 2.28.55 3.85-.25 4.98-2.53h7.04c-.31 1.73-1.04 3.21-2.16 4.5-4.04 4.65-12.28 4.82-16.5.34-1.65-1.75-2.53-3.87-2.78-6.25-.3-2.89-.04-5.7 1.53-8.22 2.2-3.51 5.54-4.83 9.52-4.83 2.67 0 5.15.66 7.21 2.44 3.06 2.65 3.87 6.09 3.39 10.05Zm-15.13-2.89h8.45c.18-2.44-1.37-4.17-3.78-4.27-2.74-.11-4.64 1.62-4.67 4.27ZM466.17 241.36l4.74 15.12h.13c1.55-5.03 3.11-10.07 4.67-15.13h7.14c-2.59 7.34-5.16 14.62-7.74 21.93h-8.34c-2.57-7.27-5.14-14.57-7.74-21.92h7.14ZM317.04 256h6.42c.8 2.27 2.15 3.13 4.5 2.84.91-.11 1.58-.7 1.71-1.5.15-.97-.21-1.65-1.16-2.05-1.59-.67-3.29-.94-4.95-1.37-.78-.21-1.58-.41-2.34-.7-2.09-.81-3.6-2.18-3.89-4.54-.29-2.42.39-4.48 2.4-5.98 1.75-1.3 3.79-1.63 5.91-1.65 2.67-.03 5.16.51 7.19 2.41 1.48 1.38 2.35 3.1 2.74 5.14h-6.26c-.33-1.22-1.01-2.18-2.29-2.6-.75-.24-1.51-.3-2.28-.11-.8.2-1.29.74-1.37 1.51-.09.77.22 1.35.97 1.73 1.36.68 2.85.91 4.3 1.29 1.14.3 2.29.58 3.37 1.04 2.16.92 3.63 2.4 3.85 4.88.24 2.68-.79 4.69-3.13 6.02-1.35.77-2.83 1.09-4.36 1.19-1.92.12-3.81-.04-5.64-.68-3.23-1.13-5.08-3.44-5.69-6.87ZM309.69 241.32h4.36v5.67h-4.24c-.17.21-.12.39-.12.56v7.44c0 .39 0 .77.08 1.16.17.73.62 1.15 1.35 1.29.96.18 1.93.03 2.93.11v5.77c-2.16-.03-4.33.19-6.44-.49-2.64-.86-4.06-2.73-4.48-5.44-.22-1.42-.15-2.84-.16-4.26-.01-2 0-4.01 0-6.09h-2.91v-5.69h2.87v-5.37h6.76v5.35ZM366.23 263.28v-29.1h6.64v29.1h-6.64ZM272.8 263.28h-6.61v-29.1h6.61v29.1ZM444.88 263.28h-6.64v-29.12h6.64v29.12ZM449.56 263.27v-21.91h6.65v21.91h-6.65ZM434.7 263.29h-6.87v-6.69h6.87v6.69ZM452.9 231.64c.51 0 1.03-.01 1.53.15 1.48.47 2.46 1.74 2.47 3.26.02 1.55-.87 2.82-2.36 3.33-1.07.36-2.15.37-3.22.02-1.7-.56-2.66-2.13-2.39-3.86.26-1.61 1.7-2.84 3.39-2.89h.58ZM4.87 272.68v-30.36h6.04v3.71h.27c.27-.59.66-1.2 1.17-1.82.51-.62 1.18-1.14 2.01-1.55s1.86-.62 3.1-.62c1.61 0 3.09.42 4.46 1.26 1.36.84 2.45 2.1 3.26 3.78.81 1.68 1.22 3.79 1.22 6.32s-.4 4.54-1.19 6.23c-.79 1.69-1.86 2.97-3.22 3.84-1.36.87-2.87 1.3-4.55 1.3-1.19 0-2.2-.2-3.03-.59-.83-.39-1.51-.89-2.03-1.49s-.93-1.21-1.21-1.82h-.19v11.82H4.86Zm5.99-19.32c0 1.31.18 2.46.55 3.44s.89 1.74 1.58 2.28c.69.54 1.53.81 2.52.81s1.84-.28 2.53-.83c.69-.55 1.21-1.32 1.57-2.3s.54-2.12.54-3.4-.18-2.4-.53-3.36c-.36-.97-.88-1.72-1.57-2.27-.69-.55-1.54-.82-2.54-.82s-1.84.26-2.52.79c-.69.53-1.21 1.27-1.57 2.24s-.55 2.11-.55 3.42ZM30.06 264.4v-22.08H36v3.85h.23c.4-1.37 1.08-2.41 2.03-3.11.95-.7 2.04-1.06 3.28-1.06.31 0 .64.02.99.06s.67.09.93.16v5.43c-.29-.09-.69-.16-1.19-.23-.51-.07-.97-.1-1.39-.1-.9 0-1.7.19-2.41.58-.7.39-1.26.93-1.67 1.62-.41.69-.61 1.49-.61 2.39v12.49h-6.12ZM55.23 264.83c-2.27 0-4.22-.46-5.86-1.39s-2.89-2.24-3.77-3.94c-.88-1.7-1.32-3.72-1.32-6.04s.44-4.26 1.32-5.98c.88-1.71 2.12-3.05 3.73-4.01 1.61-.96 3.49-1.44 5.66-1.44 1.46 0 2.81.23 4.08.7 1.26.47 2.36 1.16 3.31 2.09.94.93 1.68 2.1 2.21 3.5s.79 3.04.79 4.92v1.68H46.74v-3.79h12.88c0-.88-.19-1.66-.58-2.34-.38-.68-.91-1.21-1.59-1.6-.68-.39-1.46-.58-2.35-.58s-1.75.21-2.46.64c-.71.43-1.27 1-1.67 1.71s-.61 1.51-.62 2.38v3.61c0 1.09.2 2.04.61 2.83s.98 1.41 1.73 1.84c.75.43 1.63.65 2.66.65.68 0 1.3-.1 1.87-.29.57-.19 1.05-.48 1.45-.86.4-.38.71-.85.92-1.41l5.66.37c-.29 1.36-.88 2.55-1.76 3.56-.89 1.01-2.03 1.8-3.42 2.36-1.39.56-3 .84-4.82.84ZM87.32 248.62l-5.61.34c-.1-.48-.3-.91-.62-1.3s-.73-.7-1.24-.93c-.51-.23-1.12-.35-1.83-.35-.95 0-1.75.2-2.4.6-.65.4-.98.93-.98 1.59 0 .53.21.97.63 1.34.42.36 1.15.66 2.17.88l4 .8c2.15.44 3.75 1.15 4.8 2.13 1.05.98 1.58 2.26 1.58 3.85 0 1.45-.42 2.72-1.27 3.81-.85 1.09-2.01 1.94-3.48 2.55-1.47.61-3.16.91-5.08.91-2.92 0-5.25-.61-6.98-1.83s-2.74-2.89-3.04-5l6.02-.32c.18.89.62 1.57 1.32 2.03.7.46 1.59.7 2.69.7s1.94-.21 2.59-.62c.66-.42.99-.96 1-1.62 0-.56-.25-1.01-.71-1.37s-1.17-.63-2.13-.83l-3.82-.76c-2.16-.43-3.76-1.18-4.81-2.24-1.05-1.06-1.57-2.42-1.57-4.07 0-1.42.39-2.64 1.16-3.67.77-1.03 1.86-1.82 3.26-2.37 1.4-.56 3.05-.83 4.94-.83 2.79 0 4.99.59 6.59 1.77 1.61 1.18 2.54 2.78 2.81 4.82ZM101.35 264.83c-2.27 0-4.22-.46-5.86-1.39s-2.89-2.24-3.77-3.94c-.88-1.7-1.32-3.72-1.32-6.04s.44-4.26 1.32-5.98c.88-1.71 2.12-3.05 3.73-4.01 1.61-.96 3.49-1.44 5.66-1.44 1.46 0 2.81.23 4.08.7 1.26.47 2.36 1.16 3.31 2.09.94.93 1.68 2.1 2.21 3.5s.79 3.04.79 4.92v1.68H92.86v-3.79h12.88c0-.88-.19-1.66-.58-2.34-.38-.68-.91-1.21-1.59-1.6-.68-.39-1.46-.58-2.35-.58s-1.75.21-2.46.64c-.71.43-1.27 1-1.67 1.71s-.61 1.51-.62 2.38v3.61c0 1.09.2 2.04.61 2.83s.98 1.41 1.73 1.84c.75.43 1.63.65 2.66.65.68 0 1.3-.1 1.87-.29.57-.19 1.05-.48 1.45-.86.4-.38.71-.85.92-1.41l5.66.37c-.29 1.36-.88 2.55-1.76 3.56-.89 1.01-2.03 1.8-3.42 2.36-1.39.56-3 .84-4.82.84ZM121.2 251.64v12.76h-6.12v-22.08h5.84v3.9h.26c.49-1.28 1.31-2.3 2.46-3.05s2.54-1.13 4.18-1.13c1.53 0 2.87.33 4.01 1.01 1.14.67 2.03 1.63 2.66 2.87.63 1.24.95 2.72.95 4.43v14.06h-6.12v-12.96c0-1.35-.34-2.41-1.04-3.17s-1.66-1.14-2.89-1.14c-.82 0-1.55.18-2.18.53-.63.35-1.12.87-1.47 1.54s-.53 1.49-.54 2.44ZM151.58 242.32v4.6h-13.29v-4.6h13.29Zm-10.28-5.29h6.12v20.58c0 .57.09 1 .26 1.32.17.31.41.53.73.65.31.12.67.19 1.08.19.29 0 .58-.03.86-.08.29-.05.51-.09.66-.12l.96 4.56c-.31.1-.74.21-1.29.34-.56.13-1.23.21-2.03.24-1.48.06-2.77-.14-3.87-.59-1.11-.45-1.97-1.15-2.58-2.1-.61-.95-.92-2.15-.91-3.59v-21.39ZM164.99 264.83c-2.27 0-4.22-.46-5.86-1.39s-2.89-2.24-3.77-3.94c-.88-1.7-1.32-3.72-1.32-6.04s.44-4.26 1.32-5.98c.88-1.71 2.12-3.05 3.73-4.01 1.61-.96 3.49-1.44 5.66-1.44 1.46 0 2.81.23 4.08.7 1.26.47 2.36 1.16 3.31 2.09.94.93 1.68 2.1 2.21 3.5s.79 3.04.79 4.92v1.68H156.5v-3.79h12.88c0-.88-.19-1.66-.58-2.34-.38-.68-.91-1.21-1.59-1.6-.68-.39-1.46-.58-2.35-.58s-1.75.21-2.46.64c-.71.43-1.27 1-1.67 1.71s-.61 1.51-.62 2.38v3.61c0 1.09.2 2.04.61 2.83s.98 1.41 1.73 1.84c.75.43 1.63.65 2.66.65.68 0 1.3-.1 1.87-.29.57-.19 1.05-.48 1.45-.86.4-.38.71-.85.92-1.41l5.66.37c-.29 1.36-.88 2.55-1.76 3.56-.89 1.01-2.03 1.8-3.42 2.36-1.39.56-3 .84-4.82.84ZM186.85 264.76c-1.68 0-3.19-.43-4.55-1.3-1.36-.87-2.43-2.15-3.22-3.84s-1.19-3.77-1.19-6.23.41-4.63 1.22-6.32c.81-1.68 1.9-2.94 3.26-3.78 1.36-.84 2.84-1.26 4.46-1.26 1.24 0 2.27.21 3.1.62s1.5.93 2.01 1.55c.51.62.9 1.22 1.17 1.82h.19v-11.07h6.11v29.44h-6.04v-3.54h-.26c-.29.61-.69 1.22-1.21 1.82-.52.6-1.2 1.09-2.03 1.49-.83.39-1.84.59-3.03.59Zm1.94-4.87c.99 0 1.82-.27 2.51-.81.69-.54 1.21-1.3 1.58-2.28.37-.98.55-2.12.55-3.44s-.18-2.45-.55-3.42-.89-1.71-1.58-2.24c-.69-.53-1.53-.79-2.52-.79s-1.85.27-2.54.82c-.69.55-1.21 1.3-1.57 2.27s-.53 2.09-.53 3.36.18 2.42.54 3.4.88 1.75 1.57 2.3c.69.55 1.53.83 2.54.83ZM213.12 264.4v-29.44h6.12v11.07h.19c.27-.59.66-1.2 1.17-1.82.51-.62 1.18-1.14 2.01-1.55.83-.42 1.86-.62 3.1-.62 1.61 0 3.09.42 4.46 1.26 1.36.84 2.45 2.1 3.26 3.78.81 1.68 1.22 3.79 1.22 6.32s-.4 4.54-1.19 6.23c-.79 1.69-1.86 2.97-3.22 3.84-1.36.87-2.87 1.3-4.55 1.3-1.19 0-2.2-.2-3.03-.59-.83-.39-1.51-.89-2.03-1.49-.53-.6-.93-1.21-1.21-1.82h-.27v3.54h-6.04Zm5.99-11.04c0 1.31.18 2.46.55 3.44s.89 1.74 1.58 2.28c.69.54 1.53.81 2.52.81s1.84-.28 2.53-.83c.69-.55 1.21-1.32 1.57-2.3s.54-2.12.54-3.4-.18-2.4-.53-3.36-.88-1.72-1.57-2.27c-.69-.55-1.54-.82-2.54-.82s-1.84.26-2.52.79c-.69.53-1.21 1.27-1.57 2.24s-.55 2.11-.55 3.42ZM241.36 272.64c-.78 0-1.5-.06-2.18-.18-.67-.12-1.23-.27-1.67-.44l1.38-4.58c1.08.33 2 .42 2.74.27.74-.16 1.33-.74 1.76-1.73l.36-.93-7.92-22.71h6.44l4.57 16.21h.23l4.61-16.21 6.48.03-8.58 24.44c-.41 1.18-.97 2.21-1.67 3.08-.71.88-1.59 1.56-2.67 2.04-1.07.48-2.37.73-3.88.73Z"/></g></svg>