<?xml version="1.0" encoding="utf-8"?>
<!-- Generator: Adobe Illustrator 24.3.0, SVG Export Plug-In . SVG Version: 6.00 Build 0)  -->
<svg version="1.1" id="Guam_Cables" xmlns="http://www.w3.org/2000/svg" xmlns:xlink="http://www.w3.org/1999/xlink" x="0px"
	 y="0px" viewBox="0 0 3840 2160" style="enable-background:new 0 0 3840 2160;" xml:space="preserve">
<style type="text/css">
	.st0{fill-rule:evenodd;clip-rule:evenodd;}
	.st1{fill-rule:evenodd;clip-rule:evenodd;fill:none;stroke:#00B0F0;stroke-width:4;}
	.st2{fill-rule:evenodd;clip-rule:evenodd;fill:none;stroke:#00B0F0;}
	.st3{fill-rule:evenodd;clip-rule:evenodd;fill:#004B66;stroke:#00B0F0;}
	.st4{fill:#FFFFFF;}
	.st5{font-family:Poppins, sans-serif; font-weight: 600;}
	.st6{font-size:40px;}
	.st7{fill:#4F94CC;}
	.st8{font-family:Mulish, sans-serif; font-weight: 300;}
	.st9{font-size:30px;}
</style>
<rect class="st0" width="3840" height="2160"/>
<path class="st1" d="M1752.6,0c14.2,266.6,117,984.3,117,984.3S1827,248.8,1822.4,0"/>
<path class="st2" d="M1462.3,538.8"/>
<path class="st1" d="M3840,473c-742.3,186.7-1684.3,333.3-1822.4,358.7c-138.1,25.3-148,152.6-148,152.6s-1.1-17.6-13.8-19.1
	C1843.1,963.7,1035.7,601,0,455.2"/>
<path class="st1" d="M0,728.6C774.1,778,1843.1,963.3,1855.8,965.1c12.7,1.9,13.8,19.1,13.8,19.1"/>
<path class="st1" d="M1869.6,985c0,0,0.4-16.7-13.8-19.9c-14.2-3.1-65.2-2.1-60.3,49.5c2.9,30,79.2,258.3,114.6,1145.3"/>
<path id="Guam_Island" class="st3" d="M1961.6,875.6c-1,0.2-1.6,1.2-2.5,1.7c-0.5,0.7-1.3,1-1.8,1.7c-0.9,0.7-0.9,2.1-1.5,3.1
	c-0.7,1.6-1.3,3.3-2.5,4.7c-0.6,1.1-1.5,1.9-2.2,2.9c-0.7,0.9-1.5,1.7-2.2,2.5c-0.9,1.1-0.5,2.6-0.8,3.8c-0.2,1.6-0.1,3.2-0.6,4.7
	c0.2,0.4,0.6,1,0.3,1.7c0.2,0.6,0,1.1,0.3,1.7c0.3,0.5-0.1,1.4,0.2,1.7c0.9,0,0.7,1.4,0.9,2.1c0.4,0.7,0.7,1.9-0.4,1.9
	c-0.8,0.3-0.4,1.2-0.6,1.8c-0.1,0.6-0.6,1.1-0.7,1.7c-0.3,0.8-0.7,1.5-1.4,2.1c-0.6,0.6-0.9,1.5-1.1,2.3c-0.2,0.7-0.1,1.1,0.3,1.6
	c-0.1,0.7-0.7,1.6-1.5,1.2c-0.3-0.5-0.4,0.4-0.9,0.7c-0.6,0.3-1,0.7-1.4,1.1c-0.5,0.5-0.9,1.2-0.6,1.5c-0.5,0-1.2,0.4-1.3,1.1
	c-0.5,0.6,0.4,1.2-0.4,1.8c-0.2,1.1-1.5,1.5-1.6,2.7c-0.2,1.1-1,2.2-2.2,2.1c0.3,0.7-1,1.6-1.4,1.1c-1.1,0.5,0.1,0.8,0,1.5
	c-0.4,0.8-0.5,1.8-0.7,2.7c-0.3,0.9-0.9,1.5-1.5,2.1c0.6,1-1.1,1.3-1.1,2.3c-0.6,1.1-1.8,1.8-2.5,2.8c-0.4,1.1,1.1,1.8,0.7,2.9
	c-0.1,0.8,0.3,1.6,0.1,2.5c0.8,0.6,0,1.4,0.1,2.2c-0.5,0.6,0.3,0.9,0.8,1c0.9-0.2,0.8,0.9,0.5,1.4c-0.3,1-0.6,2-1.4,2.7
	c-1,1.4-1.7,3.2-3.3,4.1c-1.1,0.6-2.3,0.5-3.4,1.1c-1,0.3-2.2,0.2-3-0.5c-0.2-0.8-1.1-1.1-1.8-1.4c-0.4-0.3-1.2,0-1.7,0.1
	c-0.9,0.4-1.9,0.9-2.9,0.6c-0.8,0-1.1,0.7-1.5,1.1c-0.7,0.3-1.1,0.9-1.5,1.5c-1.7,3.3-0.8-0.4-0.7,2.3c0.5,0.6,0,1.6,0.6,1.9
	c0.6,0.2,1.1-0.1,1.7,0.2c1,0.3,1.1,1.7,1,2.6c-0.2,1.6-1.6,2.7-2.3,4.1c-0.6,0.9-1.4,1.9-2.6,2c-0.7,0.2-1.4,0.4-2,0.7
	c-1.4,0.3-2.9,0.3-4.3,0.4c-0.7,0.5-0.4-0.2-0.6-1c0.1-0.6-0.9-2-0.8-1c-0.4,0.7-0.9,1.7-1.5,2.2c-0.6,0-0.7-0.3,0-0.4
	c-0.8-0.1-1.1,0.9-1.1-0.6c-0.2-1.1,1-0.9,1.7-0.8c-0.1-0.6,0.2-1-0.7-0.3c-0.7,0.5-1.7-1-2,0.2c0.4,0.4,1.2,0.5,0.9,1.6
	c-0.1,0.4-1,0.1-1.5,0.2c-1.1,0.2-2.2-0.2-3.2-0.7c-1.5-0.3-2.9-0.1-4.4,0c-0.8,0.3-0.7,0.2-1.1-0.6c-0.5-0.6-1.3-0.9-1.3-0.1
	c0.7,0.6-0.3,0.9-0.9,0.9c-1.1,0.1-2.1,0.6-2.8,1.3c-0.9,0.6-1.9,1-2.8,1.6c-0.7,0.2-1.5-0.4-2.1,0c-0.6-0.4-1.6-0.2-2.3-0.7
	c-0.9-0.7,0.1-0.3-0.7-1.1c-0.5-0.5-1.6,1.1-1,0.6c0.1,0.6,0.1,1.3,0.1,1.9c0,0.8-1,1.3-1.6,1.8c-0.7,0.8-1.8,0.7-2.8,0.8
	c-0.7,0.6-1.6,1.1-2.6,1.2c-0.6,0.1-1.4,0.3-1.7,0.9c-0.5,0.5-1.2,0.4-1.6-0.1c-0.6,0-1.4-0.8-1.2-1.4c0.4-0.6,0.1-1-0.5-0.6
	c-0.8,0.1-1.6,0.4-2.3,0.8c-1.1,0.9-2.4,1.5-3.7,1.9c-1.5-0.1-3-0.2-4.4-0.9c-0.8-0.1-1.7-0.5-2.5-0.7c-1.1-0.3-0.3,0.5-1.2,0.6
	c-4.5,0-9,0-13.4,0c-1.7,0.4-2.7,1.9-4.1,2.8c-1.2,0.8-2.7,1-3.5,2.3c-1.1,0.5,0.3,1.4,0.1,0.4c0.8-1.4,2.3-1.7,3.6-2.4
	c1-0.8,1.9-1.8,2.9-2.3c0.9-0.6,1.9-0.6,3-0.6c1.3,0,2.7-0.3,3.9,0.5c0,0.2,0.4-0.9,0.6,0c0.4-1.2,1.1,0.3,1.9-0.2
	c0.6-0.6,1.6-0.2,2.3-0.2c0.6-0.5,1.2,0.7,1.5-0.2c0.6,0.3,0.8,0.9,1.3,0.1c1,0,0.5,1.1,0.9,1.7c0.4,0.6-1.8,1-0.5,1
	c0.5-0.6,1.3-0.9,1.9-1.4c0.5,1,1.3,1.1,2.3,1c1.1,0.1,2.1-0.2,3.2-0.1c0.8-0.2,0.7,0.4,1.3,0.1c0.3-0.3,1.9-0.8,1.3-0.8
	c-0.1-0.2,1.1-0.8,1.6-0.9c0.5-0.3,1.5-0.6,1.2,0.3c0.6-0.4,0.6,0.1,1.4-0.4c1.1-0.3,0,0.7-0.5,0.8c-0.4,0.7-1.5,0.4-1,0.8
	c0.1,1-0.2,0.3-0.3-0.3c0.1-0.5-1.4-0.3-1.4,0c0.7,0.1,1.2,0,1.3,0.8c0.3,1.1-0.2,1-0.4,1.2c-1.1,0.2-2.3-0.3-3.4,0
	c-0.8,0.4-1.2-0.4-1.8-0.2c-0.9,0.3-1.8-0.1-2.8,0c-0.7-0.2-1.9,0.4-1.4,1.3c0.7,0.7-0.8,1.3-0.3,1.9c0.8,0.3,1.2,0,1.1-0.9
	c0.2-0.5-0.8-1.4,0-1.6c0.3,0.7,0.7,1.3,1.5,1.6c0.5,0.2,1.3,0.6,1.7,0c0.9-0.2,1-1.2,1.7-1.5c0.9,0,1.6,0.2,2.5,0.1
	c0.8,0.1,0.6,1.3,0.2,1.7c-0.3,0.7,0.2,1.2,0.4,1.8c0.2,0.6,0.3,1,0.1,1.6c-0.7,0.4,0,1.5-0.7,2.1c-1.3-0.1,0.7,1.1-0.3,0.5
	c-0.4-0.4-1.6-0.6-1.4,0.2c0,1.2-0.1,0.6-0.4-0.1c-0.5-0.5-0.7-0.9-1.6-0.9c-0.4-0.3-0.5-1.5-1-0.7c0.2,0.2-1,0.1-1.5,0
	c-1.2-0.3,0.2,0.3,0.1,0.9c-0.1,1-1.5,0.5-1.9,1.1c0.2,1,0.1,2,0.1,2.9c1.2,0,2.2-0.5,3.4-0.5c0.1,0.9,0.6,0.7,1.3,1.1
	c0.1,0.9,0.5,1.9,0.1,2.8c-0.3,0.5,0.7,1.4-0.1,1.5c-0.8,0.3-0.7,1.3-1.3,1.8c0,0-1.1,0.9-1.3,1.6c-0.4,0.4-0.9,1.9-0.4,1.6
	c0.5,0.1,1.6,0.3,1.5,0.7c-0.4,0.4-1.5,0.3-1.6-0.4c0.1,0.3-0.8,0.8-1.4,0.6c-0.9-0.1-1-1.4-1.6-1.9c-0.7-1-1.3-2-2-3
	c0.5-0.7,2.1-1.5,0.5-1.8c-1.2-0.3-1.6-0.9-0.6-1.8c0.5-0.8,1.5-1.8-0.1-1.7c-1.5-0.4,0.7-0.5,0.7-1.4c1.3,0.3,1.3-0.9,1.1-1.8
	c-0.2-1-0.2,0.2-1-0.7c-0.4-0.3-1.5-0.4-1.8,0.1c-1,1,0-0.2-0.2-0.7c-0.5,0.9-1.2-0.3-1.5,0.7c-1.2,0.6,0.8,1.3-0.6,1.5
	c-0.9,0.4,0.1,1.3,0.3,1.9c-0.8,0.7-0.9-0.5-1.3-1.1c0-1.1,1.3-1.7,1.5-2.8c-1,0.1-1.3,1.3-1.7,2.1c-0.2,0.8-0.3-1.1,0.4-1.4
	c0.6-0.7-0.8-0.5-1.3-0.5c-0.6,0.4-1.6-0.2-1.9,0.4c-0.6,0.1-1.2,0.2-1.9,0.1c-0.6-0.4-0.3-0.7-1,0.2c-0.5,0.1-1.1,0.3-1.8,0.4
	c-1.1-0.3-2.1-0.7-3.3-0.7c-0.6-0.3-1.5-0.2-2-0.8c-0.4-0.6-0.6-1.2-1.5-0.8c-0.4-0.6-1-1.3-1.8-1.1c-0.9-0.3-2-0.7-2.8,0
	c-0.7,0.7,0.8,0.3,0.7,0.6c-0.7,0-1.4-0.1-2,0.1c-0.4,0.4,0.6,0.8,0.7,1.3c0.3,0.7,0.4,1.1,0.8,1.8c0.6,0.7,1.3,1.4,2,1.9
	c0.7,0.2,0.1,2.5,0.3,0.6c0-0.9,1.1,0.1,1.6,0.1c1.1,0.4,2.2,0.9,3.2,1.4c0.6,0.3,0.8,0.9,1.4,1.2c0.4,0.5,1.2,0.2,1.6,0.8
	c-0.1,0.6-0.1,1.2,0.2,1.8c0.5,0.5,0.5,1.1,0.6,1.7c0.4,0.6-0.4,1.2-0.1,1.8c0.7,0.4,1.1,1.4,1.9,1.5c0.9,0.9,0.5,0.2,1.4,0
	c0.7-0.4,1.7,0.7,1.3,1.3c-0.9-0.2-0.3,0.7,0.4,0.9c0.6-0.6,1.3-0.2,2.1-0.4c0.7,0.1,1.3,0.5,2,0.5c1.2,0.6,1.9,1.8,2.6,2.8
	c0.7,0.7,0.5,1.8,0.5,2.7c-0.5,0.6,1.3,0.5,0.8,1.2c-0.6,0.4,1.5,1.1,0.3,1.1c0.2,1.3-0.8,2.6-1.1,3.8c-0.6,0.5,0.3,1.4-0.4,2.1
	c-0.5,0.5-0.8,1.5-1.5,1.5c-0.6,0.5-1.3,0.9-1.2,1.7c-0.8,0.9-1,2.1-1.7,3c-0.1,0.7-1,1.1-0.6,1.7l0.2,0.2c0.4,1.2,0.3,2.8-0.5,3.8
	c-0.2,0.6-0.7,1.2-0.2,1.6c-0.1,0.8-1.6,0.9-0.8,1.8c0.1,0.7,0,1.2-0.5,1.7c-0.5,0.8-0.3,0.6-0.7,1.5c-0.5,0.6-0.5,1.5-1,2.1
	c-0.6,0.9-0.8,1.9-1.1,2.9c-0.1,0.7-1,0.9-1.1,1.7c-0.8,0.8-1,2.4-2.4,2.5c-1.1,1.2-1,1,0,1.6c0.6,0.5,1.3,0.3,2,0.6
	c0.3,0.5,1.2,0.2,1.7,0.3c0.9,0.3,0,1.3,1.1,1c0.8,0.3,0.4,1.1,1.1,1.4c0.1,0.6,1.1,0.9,0.8,1.5c0.1,0.5,0.6,1.2,0.4,1.4
	c-0.4,0.2,1-0.2,1.3,0.2c0.8,0.6-0.1,1.4-0.2,2c-0.2,0.5-0.7,1.5-0.7,1.9c0.8,0.5,0.5,0.9,0.9,1.7c-0.6-1.1,0.9,0.3,1.4,0.3
	c0.7,0.5,1.9,0.7,1.9,1.8c-0.5,0.9-1.6,0.8-2.4,0.6c-0.3,0.3-0.3-0.1-0.2,0.9c0.5,0.4-0.1,0.7,0.3,1.4c0.6,0.2,0.6,1.1,0.6,1.4
	c-0.2,1.5-0.1-0.2,0.4,0.4c0.2,0.4,1.5-0.3,1.5,0.6c0.5,0.7-0.8,0.8-0.6,1.5c-0.3,0.9,0.1,0.9,0.4,1.3c0,0.8,0.4,0.6,0.2,1.5
	c0-0.4,0.8-0.2,1.4-0.4c0.6-0.1,1.9,0.1,1.2,0.9c-0.3,0.8-1.2,0.7-1.7,1.3c-0.8,0.3-0.8,0.7-1.1,1.3c-0.8-0.4,0.3,1-0.1,1.5
	c0,0.6,0.5,1.1,0.8,1.7c0.6,2.2,2.1,0.8,2.1,2.1c-0.4,0.7-0.3,1.6-0.1,2.3c0.4,1.1,0,1.6,0.3,0.7c0.7,0.4,0.3,1.2,0.6,1.8
	c0,0.7-0.9,1.1-0.9,1.9c-0.3,0.7,0,1.1,0.7,1.6l1.9,1.9c1,0.6,2.1,1.2,2.8,2.1c0.9-0.1,0.9,0.3,1.2,0.8c0.7,0-0.3,1.1,0.2,1.6
	c0.4,1,1.3,1.8,2.1,2.4c0.6,0.2,1.4-0.3,1.9,0.3c-0.2-0.7,1.1,0.2,1.6,0c0.4-0.7,0.4-1,0.5-1.1c1.2,0.9,0.7-0.5,1.1-0.1
	c0.1,0.7,0.6,1,0.6,1.6l-0.2,1c0.4-0.9,1,0.6,1.8,0.4c0.6,0.2,1.3-0.3,1.8,0c1.2,0.3,2.3,1.1,3.3,1.8c0,0,1,0.3,1.6,0.3
	c0.9,0,1.8,0.2,2.6,0.4c0.7-0.3,1.1-0.2,1.9-0.5c0.6-0.3,1.5-0.3,1.8,0c0.6-0.4,1.3-0.4,1.7-1.1c0.7-0.3,1.1-1.1,2-1.1
	c0.7,0.5,1.2,1,0.8,1.8c0.5,0.8,1,0.2,1.3,0.9c0.4,0.5,1.8-0.2,1-0.5c0.2-0.7,1.2-0.5,1,0.3c0.2,0.7,1-0.2,0.4-0.7
	c-0.5-1,1-1.2,1.6-1.6c1.4,0.2,0.1-0.7,1-1c0.9,0.6,0.8-0.5,1-1c0.3-0.7,0.8-1.3,1.1-1.9c0.3-0.8,1-0.7,1.4-1
	c-0.4-0.4-0.5-1.3,0.1-1.7c0.2-0.7,1.1-0.3,1.6-0.5c0.5,0.6,0.8-0.3,1.1-0.8c1-0.1,0-0.6,0-1.2c-0.6,0-1.2,0.1-1.8,0.1
	c-0.7,0.3-1.2-1-0.4-0.8c0.6,0,1.3-0.2,1.9-0.3c1-0.3,1.5-1.5,2.6-1.5c0.9,0.1,0.4-0.3,1.2-0.5c0.6,0.5,1.3-0.6,1.3-1.1
	c0-1-1.2-0.3-1.4-1.2c-0.9-0.4-0.3-2.2,0.6-1.6c0.6,0.4,1.1,1,1.6,1.5c0.8,0,0.5,0.7,1,0.6c0.8-0.1,0.7-1.2,1.6-1.2
	c0.5-0.4,1-1,1.6-1.4c0.5-0.5-0.1-0.9-0.5-1.3c-0.8-0.7,0.6-1.2,0.7-0.4c0.7,0.5,1.2-0.3,1.7-0.7c0.6-0.5,0.4-1.4,1-1.9
	c-0.7,1.1-0.2-0.6-0.9-0.7c0.5-0.4,0.1-1.4,0.8-1.8c0.6-0.1,1.1-0.8,1.7-1.1c0.8-0.6,1.5-1.5,1.9-2.4c-0.5-0.6,0.2-1.4,0.6-1.9
	c0.2-0.8,0.9-1.6,0.5-2.5c0.4-1.1-0.7-2.2-0.2-3.3c-0.2-1.6-0.6-3.2,0.4-4.6c0.5-1,0-2.1,0.1-3.1c-0.2-0.6,0.2-1.2,0.1-1.8
	c0.4-1.1-1-1.7-0.9-2.8c-0.1-0.6,0.4-1.3-0.3-1.7c-0.1-0.9-1.1,0.5-1,0.3c-0.7,0.7-0.8-0.3-0.1-0.6c0.2-0.5-0.9,0.1-1.3-0.4
	c-0.6-0.3-1.3,0.2-1.6,0c-0.7-0.4,0.7-0.2-0.3-0.5c-0.8-0.3-1.8-0.8-2.5,0c-0.9,0.2-0.8,1.4-1.7,1.4c-0.9,0.2-1-1.2-1.9-1.1
	c-0.8-0.4,1.4,0,1.3,0.8c0.8,0.6,1.5-0.1,1.3-1c0.4-1,2-1.2,2.9-0.7c0.2-0.7,1.1-0.4,1.6-0.6c0.9-0.3,1.8,0.1,2.7,0.2
	c0.6,0.6,0.8,0.5,1.4-0.2c0.1-0.4,1-1.5,0.1-1.5c-0.8-0.7,0.7-0.5,0.3-1.3c0.2,0.2-1-0.6-0.3-1.3c0.4-1.1-0.3-2.3,0.1-3.4
	c0.2-1.1,0-0.3-0.2-1.3c-0.2-0.9,0.2-1.8-0.1-2.8c-0.1-0.9,0.2-1.7,0-2.6c-0.1,0.7-0.7-0.8-0.7-1.2c-0.3-0.6-0.6-1-0.2-1.7
	c0.2-0.4,1-1.9,1.2-1.2c-0.1,0.4,0.3-1.1,0.2-1.6c0.2-0.7-0.1-1.6,0.2-2.2c0.2-0.6,0.5-1.1,0.7-1.8c0.3-0.6,0.2-1.2,0.4-1.8
	c-0.1-0.7,0.3-1.1,0.4-1.6c-0.3-0.9,0.8-0.7,1.3-0.9c-0.5-0.4-1.4,0.1-1.2-0.9c-0.4-1.1,0-0.2-0.7-0.2c-0.3-0.6-0.3-1.2-0.9-1.6
	c-0.5,0-1.6-0.8-1.3-0.9c0.8,0.5,0.9-1,1.6-0.8c0.6-0.1,1.8,0,1.6,0.4c0.2-0.7,0.9-1.2,1.2-2c0.6-0.6,1.5-0.8,1.8-1.7
	c0.3-0.6,0.3-1.4-0.2-1.8c0.1-1,1.2-1.6,1.3-2.6c-0.4-0.9,0.6-1.3,1.2-1.5c0.7-0.2,1.1-0.7,1.5-1.2c0.7-0.3,0.1-0.9,0-1.3
	c-0.6-0.4-1.8-0.3-1.9-1.2c-0.8-0.5-0.3-1.6-0.6-2.4c0.6-0.8,1.2-1.9,2.3-2c0.9-0.4,1.9-0.1,2.6-0.8c0.7,0.2,1.3-0.2,1.7-0.6
	c0.5-0.5,2.1-0.9,1.2,0.2c0.1-0.7,1.3-0.1,1.8,0.2c0.6,0.1,1.2,0.1,1.7,0.3c0.6,0,1.2,0,1.7-0.3c1.2-0.4,1.5-1.8,1.8-2.9
	c0.4-0.5,0.5-1.2,1-1.6c0.5-0.4,0.6-1.1,1.1-1.3c0.3-0.6,0.9-0.8,1.4-1.3c0.7-0.4,0.8-0.8,1.3-1.4c0.5-0.5,1.2-0.2,1.8-0.3
	c0.8-0.3,1.8,0.1,2.6-0.4c0.9-0.3,0.5-1.4,0.7-1.7c0.4,0.5,1.4-0.2,1.4-0.7c0-0.6,1.2-0.1,1.5-0.9c0.4-0.6,1-1.2,0.9-1.8
	c-0.5-0.9,0.1-0.8,0.7-0.8c0.2-0.7,1-0.8,1.3-1.4c0.1,0.4,0.9-0.9,0.9-1.3c-0.2-0.8,1.2-0.1,1.3-0.9c-0.9-0.6,0.7-0.7,1.1-0.5
	c0.7,0,0.8-0.6,1.2-1c0.8-0.5,1.1,0.1,1.6-0.6c0.6,0,1.2-0.1,1.7-0.1c0.6-0.6,1.3-1.1,1.8-1.8c0.7-0.6,1-1.5,1.8-2.2
	c0.2-0.8,1.2-0.4,1.5-1.1c0.2-0.6,1-0.9,0.8-1.6c0.4-0.4,1.1-0.8,1.4-1.4c0.6-0.4,0.8-1.1,1.3-1.5c0.9-0.5,1.6-1.3,2.2-2.1
	c0.8-0.7-0.2-1.3,0.8-1.8c0.6-0.6,1.3-0.4,2-1c0.8-0.4,1.6-1.1,2.5-1.1c0.6-0.2,1-0.3,1.6-0.4c0.7-0.1,1.5,0.2,2-0.4
	c0.6-0.1,1.2-0.5,1.4-1.1c0.7-1.1,2.3-1.5,2.6-2.9c-0.2-0.6-0.5-1.3-0.3-1.8c0-0.6,0-1.2,0-1.8c0.1-0.8,0.6-1.3,1.4-1.4
	c0.6-0.3,1.6,0.5,1.6-0.6c0.1-0.5,0.6-1.1,1.1-1.1c0.6-0.2,0.9-0.8,1.4-1.2c0.6-0.4,1.2-0.7,1.8-0.7c0.7-0.1,1.2,0.1,1.7-0.6
	c0.4-0.4,1-0.5,1.6-0.6c0.6-0.7,1.1,0.2,1.7-0.1c0.7-0.1,1.1-0.4,1.6-0.8c0.6-0.2,1.2-0.3,1.7-0.7c0.6-0.6,1.4-0.6,2.2-0.6
	c1.3-0.6,2.7-1.5,3-2.9c0.3-0.6,0.3-1,0.6-1.6c-0.1-0.7,0.4-0.9,0.7-1.5c0-0.5,0.7-1.1,0.8-1.5c0-0.6,1-1,0.5-1.7
	c0.3-0.7,0.3-1.6,0.4-2.4c0.5-0.3,0.4-1.3,1.1-1.6c0.2-0.5,0.6-1.1,0.8-1.6c0.6,0,0.7-1,0.9-1.3c0.5-0.4,0.4-1.1,0.8-1.7
	c0.3-0.6,0.7-1.1,0.8-1.7c-0.2-0.4-0.2-0.9-0.2-1.7c-0.2-0.5-1-0.8-0.8-1.5c0.6-0.5-0.2-1.3,0.1-1.9c0.1-0.5,0.6-1.1,0.5-1.7
	c0.3-0.6,0.5-1.2,0.5-1.8c0.1-0.6,0.9-0.6,1.4-1c0.8,0,1.2-0.9,1.6-1.3c0.8-0.2,1.1-0.8,1.4-1.5c0.1-0.1,0.6-0.7,0.9-1.3
	c0.1-0.5,0.7-1.1,0.5-1.5c-0.1-0.5,0.3-1.2,0.2-1.8c0.1-0.8,0.4-1.6,0.6-2.4c0-0.8,0.5-1.4,0.8-2c0.2-0.5,0.7-1.1,0.7-1.4
	c0.2-0.1,0.7-0.3,0.8-1.1c0.5-0.6,0.6-1.4,0.6-2.1c-0.3-0.6-0.7-1.1-1.4-1.3c-0.8-0.2-1.8-0.7-2.6-0.1c-0.8,0.1-1.7,0.2-2.5,0.3
	c-0.6,0-1.3,0-2-0.2c-0.6,0-1.3-0.3-1.8,0.1c-0.7,0-1.3-0.2-2,0c-0.5-0.7-1.6-0.4-2.3-0.8c-0.6,0.2-1.1,0.8-1.8,0.8
	c-0.9,0.3-1.7-0.3-2.6-0.3c-1.3-0.4-2.7-0.7-4-1c-0.8-0.2-1.8-0.3-2.4-0.8c-0.9-0.2-1.9-0.6-2.9-0.8c-1-0.6-0.6-0.5-1.4-1
	c-0.4-0.8-0.3-1.6-0.5-2.4c-0.4-1.2-0.9-2.4-1.6-3.5c-0.5-0.5-0.6-1.3-1.2-1.7c-0.3-0.7-0.5-1.3-1.1-1.7c-1.3-1-1.9-2.6-3.4-3.4
	c-1.4-0.9-2-2.6-3.1-3.7c-1.3-1.7-2.5-3.6-4-5.1c-0.8-0.6-1.7-1.4-2.7-1.7c-0.9-0.7-1.7-1.4-2.7-2c-1.3-1.1-3.1-1.6-4.8-1.8
	C1962.6,875.8,1962.1,875.8,1961.6,875.6z M1881.9,1110.2C1880.8,1110.9,1880.6,1111.1,1881.9,1110.2L1881.9,1110.2z M1910.6,968.4
	C1909,968.7,1910.3,969.7,1910.6,968.4z M1860.7,983.3c0.3,0.3,1.5,1.4,0.9,1C1861.3,984,1860.8,983.8,1860.7,983.3z M1860.2,986.4
	C1860.5,987.1,1860.8,986.4,1860.2,986.4z M1858,986.9c-0.8,0.2-1.5,0.8-2.3,0.8c0.9,0.2,1.7-0.6,2.5-0.8L1858,986.9L1858,986.9z
	 M1858.8,987C1858.9,988,1859.3,987.4,1858.8,987z M1859.8,987.7c-0.7,0.1-1.4,0.5-2.2,0.4c-0.5,0.1-1.9,0-1.8,0.1
	c0.9,0.1,1.8,0,2.7,0c0.2,0.4,1.6,0.4,1.5-0.2C1860,987.8,1860,987.7,1859.8,987.7z M1848.1,993.2c-1.1,0.1-0.5,0.8,0.3,0.4
	C1849.1,993.5,1848.6,993,1848.1,993.2z M1824.1,994.1c-0.5,0.4-1.4,0.3-1.7,0.7c0.3,0.9,1.3,0.1,1.8-0.2
	C1824.3,994.4,1824.1,994.3,1824.1,994.1z M1842.4,997.3c1.2-0.2-0.1,1.9-0.5,1.1c-0.9-0.1-1.5-1-0.2-1
	C1841.9,997.3,1842.1,997.3,1842.4,997.3z M1859.7,998.3C1859.1,999.2,1859,998.2,1859.7,998.3z M1838.7,1013.6
	c-0.8,0.6,0.2,1.4,0.9,0.9C1840.2,1014.4,1838.9,1013.5,1838.7,1013.6z M1843.3,1029.5c-0.2,0.4,1.6,1,0.2,0L1843.3,1029.5
	L1843.3,1029.5z M1839.2,1032.9c-0.7,0.7-0.2,1.4,0.4,0.3C1839.8,1032.9,1839.4,1032.9,1839.2,1032.9z M1911,1041.5
	C1910.8,1042.2,1910.9,1042.1,1911,1041.5z M1871.9,1043.1c1.2,0,1.5,1.7,0.9,2.5c-0.1,0.8-1,0.7-1.5,0.1c-0.2,0.6,0.8,1.6,0.2,2.1
	c-0.8,0.9-1.3,0-1.9,0.7c0.1,0.7-0.3,1.6-1.4,1.3c-0.5,0.5,1.1,0.6,1.3,0.6c0.5,0.8-0.9,1.2-0.4,1.6c-0.2,0.8-0.6,1.3,0,2.1
	c0.7,0.6-1.1,0.6-1.3,1.2c-0.5,0.6,1.5,1.6,0.5,1.2c-0.7-0.4-0.1,1.6-0.6,1c0.1-0.9-0.5-1.4-0.3-2.3c0.8-0.8-0.9-0.5-0.2-1.4
	c1.3,1.1,0.4-1-0.1-0.4c-1.1,0-0.2-0.4,0.5-0.5c1,0.5,0-1.7-0.5-1.2c-0.7-0.2-0.7-1.1-0.5-1.9c1.1,0.2,1-0.7,1.9-1.2
	c1-0.1,1.3-1.9,0.4-1c-0.6-0.2-0.4-1.4,0.3-1.3c1.2,0.7,0.2-0.5,0.4-1.2c0-1.1,1.4-0.5,1.4-1.3
	C1871.4,1043.7,1871.3,1043.2,1871.9,1043.1z M1833.7,1045.9c-0.3,0.4-1.7,0.9-0.8,1.3C1833.3,1047.3,1834.7,1046.1,1833.7,1045.9z
	 M1910.1,1058.7C1910.1,1059,1910.1,1059,1910.1,1058.7z M1843.9,1075.8C1843.7,1076.1,1844,1075.9,1843.9,1075.8z M1899.9,1095
	C1899.6,1095.1,1899.3,1095.5,1899.9,1095z M1899.4,1095.1C1899.1,1095.5,1899.3,1095.6,1899.4,1095.1z M1895.4,1097.5
	C1894.9,1098.4,1896.7,1098.1,1895.4,1097.5z M1879.6,1109.3c-0.4,0.2-1.1,1.7-0.1,1.2C1879.9,1110.3,1880.1,1109.6,1879.6,1109.3z
	 M1884.6,1109.9c-0.3,0.4-0.8,1.6-0.3,0.7C1884.4,1110.3,1884.9,1110.2,1884.6,1109.9z M1874.4,1111.4c-0.6,0.6,0.4,2,0.3,0.7
	C1874.6,1111.9,1874.7,1111.4,1874.4,1111.4z M1872.9,1111.6C1873,1112.6,1874.2,1111.9,1872.9,1111.6z M1873.7,1112.1
	C1872.5,1112,1873.1,1112.6,1873.7,1112.1z M1845,1112.9c-1.9,1.1-3.8,2.5-5.9,3.1c-0.8,0.4-1.7,0.6-1.9,1.6
	c-0.3,0.7,1.4,0.1,1.9-0.1c2-0.5,3.6-1.8,5.3-2.8c0.5-0.4,2.4-0.5,1.6-1.2C1845.7,1113.2,1845.4,1112.8,1845,1112.9z M1857.5,1113.8
	c-1.2,0.3-2.6,0.4-3.9,0.4c-0.1,0.5,1.5,0.2,2,0.1C1856.3,1114.3,1857,1114.3,1857.5,1113.8z"/>
<text transform="matrix(1 0 0 1 1873.0905 268.165)"><tspan x="0" y="0" class="st4 st5 st6">Russia</tspan><tspan x="0" y="36" class="st7 st8 st9">60 milliseconds</tspan></text>
<text transform="matrix(1 0 0 1 1878.9808 416.4228)"><tspan x="0" y="0" class="st4 st5 st6">South Korea</tspan><tspan x="0" y="36" class="st7 st8 st9">40 milliseconds</tspan></text>
<text transform="matrix(1 0 0 1 1884.1235 564.6804)"><tspan x="0" y="0" class="st4 st5 st6">Japan </tspan><tspan x="0" y="36" class="st7 st8 st9">40 milliseconds</tspan></text>
<text transform="matrix(1 0 0 1 2395.6277 841.653)"><tspan x="0" y="0" class="st4 st5 st6">USA </tspan><tspan x="0" y="36" class="st7 st8 st9">90 milliseconds</tspan></text>
<text transform="matrix(1 0 0 1 1899.8555 1499.6669)"><tspan x="0" y="0" class="st4 st5 st6">Australia </tspan><tspan x="0" y="36" class="st7 st8 st9">60 milliseconds</tspan></text>
<text transform="matrix(1 0 0 1 833.8146 916.5144)"><tspan x="0" y="0" class="st4 st5 st6">Singapore </tspan><tspan x="0" y="36" class="st7 st8 st9">60 milliseconds</tspan></text>
<text transform="matrix(1 0 0 1 1200.5845 983.0886)"><tspan x="0" y="0" class="st4 st5 st6">Philippines </tspan><tspan x="0" y="36" class="st7 st8 st9">40 milliseconds</tspan></text>
<text transform="matrix(1 0 0 1 906.4137 553.4537)"><tspan x="0" y="0" class="st4 st5 st6">Taiwan </tspan><tspan x="0" y="36" class="st7 st8 st9">40 milliseconds</tspan></text>
<text transform="matrix(1 0 0 1 1269.4343 677.8799)"><tspan x="0" y="0" class="st4 st5 st6">Hong Kong </tspan><tspan x="0" y="36" class="st7 st8 st9">30 milliseconds</tspan></text>
</svg>
