<svg id="logo" xmlns="http://www.w3.org/2000/svg" viewBox="0 0 1449.6375 292.5575">
	<defs>
		<style>
		#text path {
			fill: #ffffff;
		}
		#symbol {
			fill: #27ade4;
		}
		</style>
	</defs>
	<path id="symbol" d="M276.7256,80.1718A146.2309,146.2309,0,0,0,7.3185,100.8475a146.122,146.122,0,0,0,210.7953,172.759,76.4859,76.4859,0,0,1-14.0684,1.3713,72.3593,72.3593,0,0,1-26.8639-5.1065l-25.5639-10.3052a113.3829,113.3829,0,1,1,102.4516-78.0076c-1.1675,3.5622-3.9874,10.433-3.9874,10.433v-.0038c-15.0135,35.5811-40.02,44.5369-56.8461,37.8191l-70.0691-28.244a60.16,60.16,0,0,1-33.7943-73.8775A59.9,59.9,0,1,1,172.228,200.31a60.3307,60.3307,0,0,1-13.3993,4.51s40.7243,16.2132,42.0294,16.4375A92.7259,92.7259,0,1,0,58.1517,117.4724c-14.9389,45.6745,8.0644,95.9259,52.5528,114.4829l70.3,28.3372c32.3172,12.8911,76.7794-2.0552,99.41-55.6972,0,0,3.45-8.4709,4.8752-12.8276A145.2858,145.2858,0,0,0,276.7256,80.1718Z" />
	<g id="text">
		<g id="oneqode">
			<path d="M428.636,238.703a92.7479,92.7479,0,1,1,92.7479-92.7479A92.851,92.851,0,0,1,428.636,238.703Zm0-152.6489a59.901,59.901,0,1,0,59.901,59.901A59.9687,59.9687,0,0,0,428.636,86.0541Z" />
			<path d="M534.8224,101.88h29.3183v12.1563h.4774C572.4848,103.0694,586.79,97.59,600.6132,97.59a52.7476,52.7476,0,0,1,37.6623,16.4459,25.4961,25.4961,0,0,1,3.3384,3.8158c10.25,14.301,10.489,30.7506,10.489,47.6739v68.4129H620.3974V171.7211c0-10.25,0-23.3576-5.4832-32.1792-4.5283-6.9118-12.8687-10.9664-20.9741-10.9664-8.5829,0-17.8782,4.532-22.1715,11.6826-5.7181,9.0565-5.2444,23.3613-5.2444,33.85v59.83H534.8224Z" />
			<path d="M697.658,181.9713A36.124,36.124,0,0,0,732.46,207.2387c11.9212,0,23.3613-4.5283,29.5607-11.44h35.04c-8.1054,23.6-35.5176,42.4294-63.4072,42.4294a69.4843,69.4843,0,0,1-69.6066-69.3641c0-39.0948,30.5119-71.274,70.084-71.274,37.6624,0,67.6968,32.418,67.6968,69.3642,0,5.0057-.9549,10.0114-1.6673,15.0172Zm72.2289-28.1246c-5.2445-15.7334-19.788-25.2712-35.9951-25.2712-15.7334,0-31.9442,10.0152-36.7112,25.2712Z" />
			<path d="M1000.8135,213.81l-18.7361-16.9311a93.4073,93.4073,0,1,0-22.9482,23.97l19.4443,17.5714ZM844.7446,145.9551a59.901,59.901,0,1,1,59.901,59.901A59.9687,59.9687,0,0,1,844.7446,145.9551Z" />
			<path d="M1080.6274,238.2181a70.2706,70.2706,0,1,1,70.27-70.2706A70.3495,70.3495,0,0,1,1080.6274,238.2181Zm0-109.3951a39.1246,39.1246,0,1,0,39.1245,39.1245A39.1672,39.1672,0,0,0,1080.6274,128.823Z" />
			<path d="M1267.4878,57.7789V115.468c-10.0115-11.6826-25.5061-17.8782-40.762-17.8782-18.1169,0-36.7113,9.0566-48.6288,22.4065s-17.8781,30.7505-17.8781,48.39A73.3292,73.3292,0,0,0,1178.097,216.06c11.6826,13.35,28.3671,22.1678,47.6739,22.1678,17.1657,0,34.5664-7.628,43.8617-22.1678h.4775v17.8782h29.0832V57.7789Zm-6.9346,135.0323a38.5084,38.5084,0,0,1-30.0116,14.4274,37.3493,37.3493,0,0,1-20.4831-6.1187,39.0386,39.0386,0,0,1,5.4659-69.3786,35.6446,35.6446,0,0,1,14.54-3.1659,40.0171,40.0171,0,0,1,15.6564,3.1962c.553.2326,1.037.5791,1.5764.836a39.7483,39.7483,0,0,1,5.0584,2.749c.6034.4052,1.11.9269,1.6893,1.3638a39.3973,39.3973,0,0,1,4.1334,3.4121c.5315.5283.9446,1.16,1.4449,1.7172a38.7748,38.7748,0,0,1,3.3323,4.0369,39.3337,39.3337,0,0,1,2.16,3.9137c.4579.878,1.0235,1.6851,1.4142,2.6022a38.5289,38.5289,0,0,1-5.976,40.4087Z" />
			<path d="M1345.4682,181.9713a36.1238,36.1238,0,0,0,34.8014,25.2674c11.9213,0,23.3613-4.5283,29.5607-11.44h35.04c-8.1054,23.6-35.5176,42.4294-63.4072,42.4294a69.4844,69.4844,0,0,1-69.6066-69.3641c0-39.0948,30.5119-71.274,70.0841-71.274,37.6623,0,67.6968,32.418,67.6968,69.3642,0,5.0057-.9549,10.0114-1.6674,15.0172Zm72.2288-28.1246c-5.2445-15.7334-19.788-25.2712-35.9951-25.2712-15.7333,0-31.9442,10.0152-36.7112,25.2712Z" />
		</g>
		<g id="trademark">
			<path d="M1427.5859,58.237h7.1878l2.3425,9.6459h.0447l2.3425-9.6459h7.1878V74.6343h-4.7782V64.1156h-.0447l-2.8461,10.5187h-3.7673l-2.8461-10.5187h-.0485V74.6343h-4.7744Z" />
			<path d="M1416.1346,62.4408h-4.5917V58.237h14.2376v4.2038h-4.5954V74.6343h-5.05Z" />
		</g>
	</g>
</svg>