<svg id="OneQode_Logo" data-name="OneQode Logo" xmlns="http://www.w3.org/2000/svg" viewBox="0 0 1497.77 200"><defs><style>.oq-1{fill:#fff;}.oq-2{fill:#00b0f0;}</style></defs><path id="M" class="oq-1" d="M1497.77,7.61V39.2h-7.69V19.45l-6.85,19.75h-6.65l-6.89-19.8V39.2H1462V7.61h9.4l8.6,22,8.41-22Z"/><path id="T" class="oq-1" d="M1458.76,7.39v6.12h-8.64V39.2h-7.74V13.51h-8.55V7.39Z"/><g id="_." data-name="."><polygon class="oq-2" points="1377.73 194.65 1422.4 194.65 1422.4 194.65 1422.4 149.97 1377.73 149.97 1377.73 194.65 1377.73 194.65"/></g><polygon id="E" class="oq-1" points="1422.4 52.06 1422.4 7.38 1263.76 7.38 1263.76 194.65 1370.14 194.65 1370.14 149.97 1315.39 149.97 1315.39 120.54 1374.52 120.54 1422.4 75.87 1315.13 75.87 1315.13 52.06 1422.4 52.06"/><path id="D" class="oq-1" d="M1056.17,7.38l37.45,44.68h45.21q12.3,0,21.41,4.28a45.89,45.89,0,0,1,24.47,27.15,56.16,56.16,0,0,1,3.08,18.33,55.37,55.37,0,0,1-3.08,18.06A45.89,45.89,0,0,1,1160.24,147q-9.1,4.29-21.41,4.28h-33.71v-88l-48.95,44.94v86.41h93.36q22.48,0,39.46-8a82.84,82.84,0,0,0,28.23-21.26,90.31,90.31,0,0,0,16.85-30,108,108,0,0,0,0-68.76,90.22,90.22,0,0,0-16.85-30A82.73,82.73,0,0,0,1189,15.41q-17-8-39.46-8Z"/><path id="O" class="oq-1" d="M897.66,140.48q-11.89-14.85-11.9-39.47,0-24.33,11.9-39.32t34.92-15a50.73,50.73,0,0,1,20.59,3.88,41.32,41.32,0,0,1,15,11.1A48.09,48.09,0,0,1,977.38,79,75,75,0,0,1,980.46,101a76.1,76.1,0,0,1-3.08,22.35,46.8,46.8,0,0,1-9.22,17.12,41.89,41.89,0,0,1-15,11,50.73,50.73,0,0,1-20.59,3.88q-23,0-34.92-14.84M892.45,9.13a87.47,87.47,0,0,0-51.23,51.22q-7.1,18.21-7.09,40.4,0,22.47,7.09,40.66a90.42,90.42,0,0,0,20.06,31.3,88.29,88.29,0,0,0,31.17,20.2Q910.63,200,932.84,200q22.47,0,40.67-7.09a88.35,88.35,0,0,0,51.49-51.5q7.1-18.18,7.09-40.66,0-22.2-7.09-40.4a88.46,88.46,0,0,0-20.19-31.16,90.7,90.7,0,0,0-31.3-20.06Q955.32,2,932.84,2q-22.2,0-40.39,7.09"/><path id="Q" class="oq-2" d="M745.83,94.55H692.44l67.72,100.69H814l-24.5-36.17a97.35,97.35,0,1,0-49.89,32.68l4.12-1.14-26.7-39.69-1.7.05c-.56,0-1.11,0-1.68,0a53.36,53.36,0,1,1,48.84-31.8Z"/><polygon id="E-2" data-name="E" class="oq-1" points="594.16 7.38 594.16 52.06 486.88 52.06 486.88 75.87 594.16 75.87 546.27 120.55 487.15 120.55 487.15 149.97 594.16 149.97 594.16 194.65 435.52 194.65 435.52 7.38 594.16 7.38"/><polygon id="N" class="oq-1" points="273.67 7.38 354.47 118.14 354.47 55.54 406.1 7.38 406.1 194.65 354.73 194.65 354.73 194.12 273.67 83.09 273.67 194.65 222.04 194.65 222.04 7.38 273.67 7.38"/><path id="O-2" data-name="O" class="oq-1" d="M0,100.75q0-22.2,7.09-40.4A87.52,87.52,0,0,1,58.32,9.12Q76.52,2,98.72,2q22.47,0,40.66,7.09a90.87,90.87,0,0,1,31.3,20.07,88.62,88.62,0,0,1,20.2,31.16Q198,78.56,198,100.75q0,22.47-7.09,40.66a88.4,88.4,0,0,1-51.5,51.5Q121.19,200,98.72,200q-22.22,0-40.4-7.09a88.29,88.29,0,0,1-31.17-20.2,90.42,90.42,0,0,1-20.06-31.3Q0,123.23,0,100.75m51.63.26q0,24.63,11.91,39.47t34.91,14.84a50.81,50.81,0,0,0,20.6-3.88,41.94,41.94,0,0,0,15-11,46.63,46.63,0,0,0,9.23-17.13A76,76,0,0,0,146.33,101,75,75,0,0,0,143.26,79,48,48,0,0,0,134,61.69a41.37,41.37,0,0,0-15-11.1,50.81,50.81,0,0,0-20.6-3.88q-23,0-34.91,15T51.63,101"/></svg>