<?xml version="1.0" encoding="UTF-8"?><svg id="a" xmlns="http://www.w3.org/2000/svg" xmlns:xlink="http://www.w3.org/1999/xlink" viewBox="0 0 1745.38 224.53"><defs><linearGradient id="b" x1="1230.07" y1="87.21" x2="1654.99" y2="158.42" gradientUnits="userSpaceOnUse"><stop offset="0" stop-color="#b3b3b3"/><stop offset="1" stop-color="#737373"/></linearGradient></defs><g><path d="M1219.11,100.54c4.65-8.15,11-14.5,19.05-19.05,8.05-4.55,17.07-6.83,27.07-6.83,11.7,0,21.95,3,30.75,9,8.8,6,14.95,14.3,18.45,24.9h-24.15c-2.4-5-5.78-8.75-10.12-11.25-4.35-2.5-9.38-3.75-15.08-3.75-6.1,0-11.53,1.43-16.28,4.28-4.75,2.85-8.45,6.88-11.1,12.08-2.65,5.2-3.98,11.3-3.98,18.3s1.32,12.97,3.98,18.22c2.65,5.25,6.35,9.3,11.1,12.15,4.75,2.85,10.17,4.28,16.28,4.28,5.7,0,10.72-1.28,15.08-3.83,4.35-2.55,7.72-6.32,10.12-11.33h24.15c-3.5,10.7-9.63,19.03-18.38,24.97-8.75,5.95-19.03,8.93-30.83,8.93-10,0-19.03-2.27-27.07-6.83-8.05-4.55-14.4-10.88-19.05-18.98-4.65-8.1-6.97-17.3-6.97-27.6s2.33-19.52,6.97-27.67Z" style="fill:url(#b);"/><path d="M1360.94,164.06h34.5v16.65h-55.5V76.01h21v88.05Z" style="fill:url(#b);"/><path d="M1437.89,174.86c-8.2-4.6-14.7-10.97-19.5-19.12-4.8-8.15-7.2-17.38-7.2-27.68s2.4-19.37,7.2-27.52c4.8-8.15,11.3-14.52,19.5-19.12,8.2-4.6,17.2-6.9,27-6.9s18.92,2.3,27.08,6.9c8.15,4.6,14.6,10.98,19.35,19.12,4.75,8.15,7.12,17.33,7.12,27.52s-2.38,19.53-7.12,27.68c-4.75,8.15-11.23,14.53-19.42,19.12-8.2,4.6-17.2,6.9-27,6.9s-18.8-2.3-27-6.9Zm43.65-16.12c4.8-2.85,8.55-6.92,11.25-12.23,2.7-5.3,4.05-11.45,4.05-18.45s-1.35-13.12-4.05-18.38c-2.7-5.25-6.45-9.27-11.25-12.07-4.8-2.8-10.35-4.2-16.65-4.2s-11.88,1.4-16.73,4.2c-4.85,2.8-8.62,6.82-11.32,12.07-2.7,5.25-4.05,11.38-4.05,18.38s1.35,13.15,4.05,18.45c2.7,5.3,6.47,9.38,11.32,12.23,4.85,2.85,10.43,4.27,16.73,4.27s11.85-1.42,16.65-4.27Z" style="fill:url(#b);"/><path d="M1562.23,76.01v64.8c0,7.1,1.85,12.53,5.55,16.28,3.7,3.75,8.9,5.62,15.6,5.62s12.05-1.88,15.75-5.62c3.7-3.75,5.55-9.17,5.55-16.28V76.01h21.15v64.65c0,8.9-1.93,16.42-5.78,22.58-3.85,6.15-9,10.78-15.45,13.88-6.45,3.1-13.63,4.65-21.52,4.65s-14.88-1.55-21.23-4.65c-6.35-3.1-11.38-7.73-15.08-13.88-3.7-6.15-5.55-13.67-5.55-22.58V76.01h21Z" style="fill:url(#b);"/><path d="M1719.21,82.46c8.35,4.3,14.8,10.42,19.35,18.38,4.55,7.95,6.83,17.17,6.83,27.67s-2.28,19.68-6.83,27.53c-4.55,7.85-11,13.93-19.35,18.22-8.35,4.3-18.03,6.45-29.02,6.45h-36.6V76.01h36.6c11,0,20.67,2.15,29.02,6.45Zm-4.27,71.4c6-6,9-14.45,9-25.35s-3-19.42-9-25.58c-6-6.15-14.5-9.22-25.5-9.22h-14.85v69.15h14.85c11,0,19.5-3,25.5-9Z" style="fill:url(#b);"/></g><g id="c"><g id="d"><path d="M1095.63,44.7h5.52l1.8,7.4h.03l1.8-7.4h5.52v12.58h-3.67v-8.07h-.03l-2.18,8.07h-2.89l-2.18-8.07h-.04v8.07h-3.66v-12.58Z" style="fill:#fff;"/><path d="M1086.84,47.92h-3.52v-3.23h10.93v3.23h-3.53v9.36h-3.88v-9.36Z" style="fill:#fff;"/></g><path id="e" d="M1032.61,139.66c3.66,11.71,14.45,19.39,26.71,19.39,9.15,0,17.93-3.48,22.69-8.78h26.89c-6.22,18.11-27.26,32.56-48.66,32.56-29.45,0-53.42-23.78-53.42-53.23s23.42-54.7,53.79-54.7,51.96,24.88,51.96,53.23c0,3.84-.73,7.68-1.28,11.53h-78.67Zm55.43-21.58c-4.02-12.07-15.19-19.39-27.63-19.39s-24.52,7.69-28.17,19.39h55.8Z" style="fill:#fff;"/><path id="f" d="M972.76,44.34v44.27c-7.68-8.97-19.58-13.72-31.28-13.72-13.9,0-28.17,6.95-37.32,17.2-9.15,10.25-13.72,23.6-13.72,37.14s5.12,26.71,13.72,36.59c8.97,10.25,21.77,17.01,36.59,17.01,13.17,0,26.53-5.85,33.66-17.01h.37v13.72h22.32V44.34h-24.33Zm-5.32,103.63c-5.46,6.69-13.62,11.07-23.03,11.07-5.9,0-11.22-1.78-15.72-4.7-8.56-5.31-14.32-14.71-14.32-25.5,0-12.49,7.66-23.21,18.52-27.75,3.48-1.55,7.26-2.43,11.16-2.43,4.26,0,8.32,.89,12.02,2.45,.42,.18,.8,.44,1.21,.64,1.34,.64,2.66,1.29,3.88,2.11,.46,.31,.85,.71,1.3,1.05,1.1,.83,2.2,1.65,3.17,2.62,.41,.41,.72,.89,1.11,1.32,.89,1,1.8,1.98,2.56,3.1,.64,.94,1.12,1.99,1.66,3,.35,.67,.79,1.29,1.09,2,1.58,3.65,2.47,7.66,2.47,11.89,0,7.3-2.72,13.91-7.06,19.12Z" style="fill:#fff;"/><path id="g" d="M829.35,182.83c-29.74,0-53.93-24.19-53.93-53.93s24.19-53.93,53.93-53.93,53.93,24.19,53.93,53.93-24.19,53.93-53.93,53.93Zm0-83.96c-16.56,0-30.03,13.47-30.03,30.03s13.47,30.03,30.03,30.03,30.03-13.47,30.03-30.03-13.47-30.03-30.03-30.03Z" style="fill:#fff;"/><path id="h" d="M768.09,164.09l-14.38-12.99c7.41-11.23,11.75-24.65,11.75-39.08,0-39.25-31.93-71.18-71.18-71.18s-71.18,31.93-71.18,71.18,31.93,71.18,71.18,71.18c15.63,0,30.06-5.13,41.81-13.7l14.92,13.49,17.07-18.89Zm-119.78-52.08c0-25.35,20.62-45.97,45.97-45.97s45.97,20.62,45.97,45.97-20.62,45.97-45.97,45.97-45.97-20.62-45.97-45.97Z" style="fill:#fff;"/><path id="i" d="M535.43,139.66c3.66,11.71,14.45,19.39,26.71,19.39,9.15,0,17.93-3.48,22.69-8.78h26.89c-6.22,18.11-27.26,32.56-48.66,32.56-29.45,0-53.42-23.78-53.42-53.23s23.42-54.7,53.79-54.7,51.96,24.88,51.96,53.23c0,3.84-.73,7.68-1.28,11.53h-78.67Zm55.43-21.58c-4.02-12.07-15.19-19.39-27.63-19.39s-24.52,7.69-28.17,19.39h55.8Z" style="fill:#fff;"/><path id="j" d="M410.46,78.19h22.5v9.33h.37c6.04-8.42,17.02-12.62,27.63-12.62s21.59,4.75,28.9,12.62c.92,.92,1.83,1.83,2.56,2.93,7.87,10.98,8.05,23.6,8.05,36.59v52.5h-24.33v-47.75c0-7.87,0-17.93-4.21-24.7-3.48-5.3-9.88-8.42-16.1-8.42-6.59,0-13.72,3.48-17.02,8.97-4.39,6.95-4.02,17.93-4.02,25.98v45.92h-24.33V78.19Z" style="fill:#fff;"/><path id="k" d="M328.97,183.2c-39.25,0-71.18-31.93-71.18-71.18s31.93-71.18,71.18-71.18,71.18,31.93,71.18,71.18-31.93,71.18-71.18,71.18Zm0-117.15c-25.35,0-45.97,20.62-45.97,45.97s20.62,45.97,45.97,45.97,45.97-20.62,45.97-45.97-20.62-45.97-45.97-45.97Z" style="fill:#fff;"/></g><path id="l" d="M212.38,61.53c-13.56-26.73-36.71-46.59-65.21-55.91C118.68-3.7,88.27-1.37,61.53,12.19,34.79,25.75,14.93,48.9,5.62,77.4c-9.32,28.49-6.99,58.91,6.57,85.64,13.56,26.74,36.71,46.59,65.21,55.91,11.44,3.74,23.23,5.58,34.93,5.58,19.19,0,38.15-5,55.07-14.54-3.62,.68-7.23,1.05-10.8,1.05-7.18,0-14.17-1.34-20.62-3.92l-19.62-7.91c-10.4,.49-20.93-.88-31.13-4.22-22.09-7.23-40.05-22.62-50.56-43.35-10.51-20.73-12.32-44.31-5.1-66.41C44.5,39.63,93.73,14.66,139.33,29.58c22.09,7.23,40.05,22.62,50.56,43.35s12.32,44.31,5.1,66.41c-.9,2.73-3.06,8.01-3.06,8.01h0c-11.52,27.3-30.71,34.18-43.63,29.02l-53.78-21.68c-21.95-9.15-33.34-34.06-25.94-56.7,3.82-11.67,11.95-21.16,22.9-26.71,10.96-5.55,23.42-6.5,35.08-2.69,11.67,3.82,21.16,11.95,26.71,22.9,5.55,10.95,6.51,23.41,2.69,35.08-3.93,12.03-12.39,21.68-23.8,27.16-3.28,1.57-6.75,2.7-10.28,3.46,0,0,31.25,12.44,32.26,12.62,12.05-8.72,21.05-20.92,25.79-35.39,5.91-18.07,4.43-37.36-4.17-54.32-8.6-16.96-23.29-29.55-41.36-35.46-18.08-5.91-37.36-4.43-54.32,4.17-16.96,8.6-29.55,23.29-35.46,41.36-11.47,35.05,6.19,73.62,40.33,87.86l53.95,21.75c24.8,9.89,58.93-1.58,76.29-42.75,0,0,2.65-6.5,3.74-9.84,9.32-28.49,6.99-58.91-6.57-85.65Z" style="fill:#00b0f0;"/></svg>