<svg xmlns="http://www.w3.org/2000/svg" xmlns:xlink="http://www.w3.org/1999/xlink" width="492" height="532" viewBox="0 0 492 532"><defs><style>.a{clip-path:url(#g);}.b{stroke:#555;fill:url(#a);}.c{fill:#363636;stroke:#3e3e3e;}.d{fill:url(#e);}.e{stroke:none;}.f{fill:none;}.g{fill:none;}</style><linearGradient id="a" x1="0.307" y1="2.555" x2="0.063" y2="-2.349" gradientUnits="objectBoundingBox"><stop offset="0" stop-color="#0a0a0a"/><stop offset="1" stop-color="#5b5b5b"/></linearGradient><linearGradient id="e" x1="0.012" y1="0.509" x2="1" y2="0.508" gradientUnits="objectBoundingBox"><stop offset="0"/><stop offset="1" stop-opacity="0"/></linearGradient><clipPath id="g"><rect width="492" height="532"/></clipPath></defs><g id="f" class="a"><rect class="g" width="492" height="532"/><g class="b" transform="translate(-267 135)"><rect class="e" width="759" height="128" rx="6"/><rect class="f" x="0.5" y="0.5" width="758" height="127" rx="5.5"/></g><g class="c" transform="translate(241 257) rotate(180)"><rect class="e" width="56" height="55" rx="6"/><rect class="f" x="0.5" y="0.5" width="55" height="54" rx="5.5"/></g><g class="c" transform="translate(179 257) rotate(180)"><rect class="e" width="55" height="55" rx="6"/><rect class="f" x="0.5" y="0.5" width="54" height="54" rx="5.5"/></g><g class="c" transform="translate(118 257) rotate(180)"><rect class="e" width="56" height="55" rx="6"/><rect class="f" x="0.5" y="0.5" width="55" height="54" rx="5.5"/></g><g class="c" transform="translate(241 196) rotate(180)"><rect class="e" width="56" height="55" rx="6"/><rect class="f" x="0.5" y="0.5" width="55" height="54" rx="5.5"/></g><g class="c" transform="translate(179 196) rotate(180)"><rect class="e" width="55" height="55" rx="6"/><rect class="f" x="0.5" y="0.5" width="54" height="54" rx="5.5"/></g><g class="c" transform="translate(118 196) rotate(180)"><rect class="e" width="56" height="55" rx="6"/><rect class="f" x="0.5" y="0.5" width="55" height="54" rx="5.5"/></g><g class="b" transform="translate(-267 269)"><rect class="e" width="759" height="128" rx="6"/><rect class="f" x="0.5" y="0.5" width="758" height="127" rx="5.5"/></g><g class="c" transform="translate(241 391) rotate(180)"><rect class="e" width="56" height="55" rx="6"/><rect class="f" x="0.5" y="0.5" width="55" height="54" rx="5.5"/></g><g class="c" transform="translate(179 391) rotate(180)"><rect class="e" width="55" height="55" rx="6"/><rect class="f" x="0.5" y="0.5" width="54" height="54" rx="5.5"/></g><g class="c" transform="translate(118 391) rotate(180)"><rect class="e" width="56" height="55" rx="6"/><rect class="f" x="0.5" y="0.5" width="55" height="54" rx="5.5"/></g><g class="c" transform="translate(241 330) rotate(180)"><rect class="e" width="56" height="55" rx="6"/><rect class="f" x="0.5" y="0.5" width="55" height="54" rx="5.5"/></g><g class="c" transform="translate(179 330) rotate(180)"><rect class="e" width="55" height="55" rx="6"/><rect class="f" x="0.5" y="0.5" width="54" height="54" rx="5.5"/></g><g class="c" transform="translate(118 330) rotate(180)"><rect class="e" width="56" height="55" rx="6"/><rect class="f" x="0.5" y="0.5" width="55" height="54" rx="5.5"/></g><g class="b" transform="translate(-267 403)"><rect class="e" width="759" height="129" rx="6"/><rect class="f" x="0.5" y="0.5" width="758" height="128" rx="5.5"/></g><g class="c" transform="translate(241 465) rotate(180)"><rect class="e" width="56" height="55" rx="6"/><rect class="f" x="0.5" y="0.5" width="55" height="54" rx="5.5"/></g><g class="c" transform="translate(179 465) rotate(180)"><rect class="e" width="55" height="55" rx="6"/><rect class="f" x="0.5" y="0.5" width="54" height="54" rx="5.5"/></g><g class="c" transform="translate(118 465) rotate(180)"><rect class="e" width="56" height="55" rx="6"/><rect class="f" x="0.5" y="0.5" width="55" height="54" rx="5.5"/></g><g class="b" transform="translate(-267)"><rect class="e" width="759" height="129" rx="6"/><rect class="f" x="0.5" y="0.5" width="758" height="128" rx="5.5"/></g><g class="c" transform="translate(485 122) rotate(180)"><rect class="e" width="55" height="55" rx="6"/><rect class="f" x="0.5" y="0.5" width="54" height="54" rx="5.5"/></g><g class="c" transform="translate(424 122) rotate(180)"><rect class="e" width="56" height="55" rx="6"/><rect class="f" x="0.5" y="0.5" width="55" height="54" rx="5.5"/></g><g class="c" transform="translate(363 122) rotate(180)"><rect class="e" width="55" height="55" rx="6"/><rect class="f" x="0.5" y="0.5" width="54" height="54" rx="5.5"/></g><g class="c" transform="translate(302 122) rotate(180)"><rect class="e" width="56" height="55" rx="6"/><rect class="f" x="0.5" y="0.5" width="55" height="54" rx="5.5"/></g><g class="c" transform="translate(241 122) rotate(180)"><rect class="e" width="56" height="55" rx="6"/><rect class="f" x="0.5" y="0.5" width="55" height="54" rx="5.5"/></g><g class="c" transform="translate(179 122) rotate(180)"><rect class="e" width="55" height="55" rx="6"/><rect class="f" x="0.5" y="0.5" width="54" height="54" rx="5.5"/></g><g class="c" transform="translate(118 122) rotate(180)"><rect class="e" width="56" height="55" rx="6"/><rect class="f" x="0.5" y="0.5" width="55" height="54" rx="5.5"/></g><g class="c" transform="translate(485 61) rotate(180)"><rect class="e" width="55" height="54" rx="6"/><rect class="f" x="0.5" y="0.5" width="54" height="53" rx="5.5"/></g><g class="c" transform="translate(424 61) rotate(180)"><rect class="e" width="56" height="54" rx="6"/><rect class="f" x="0.5" y="0.5" width="55" height="53" rx="5.5"/></g><g class="c" transform="translate(363 61) rotate(180)"><rect class="e" width="55" height="54" rx="6"/><rect class="f" x="0.5" y="0.5" width="54" height="53" rx="5.5"/></g><g class="c" transform="translate(302 61) rotate(180)"><rect class="e" width="56" height="54" rx="6"/><rect class="f" x="0.5" y="0.5" width="55" height="53" rx="5.5"/></g><g class="c" transform="translate(241 61) rotate(180)"><rect class="e" width="56" height="54" rx="6"/><rect class="f" x="0.5" y="0.5" width="55" height="53" rx="5.5"/></g><g class="c" transform="translate(179 61) rotate(180)"><rect class="e" width="55" height="54" rx="6"/><rect class="f" x="0.5" y="0.5" width="54" height="53" rx="5.5"/></g><g class="c" transform="translate(118 61) rotate(180)"><rect class="e" width="56" height="54" rx="6"/><rect class="f" x="0.5" y="0.5" width="55" height="53" rx="5.5"/></g><g class="c" transform="translate(485 257) rotate(180)"><rect class="e" width="55" height="55" rx="6"/><rect class="f" x="0.5" y="0.5" width="54" height="54" rx="5.5"/></g><g class="c" transform="translate(424 257) rotate(180)"><rect class="e" width="56" height="55" rx="6"/><rect class="f" x="0.5" y="0.5" width="55" height="54" rx="5.5"/></g><g class="c" transform="translate(363 257) rotate(180)"><rect class="e" width="55" height="55" rx="6"/><rect class="f" x="0.5" y="0.5" width="54" height="54" rx="5.5"/></g><g class="c" transform="translate(302 257) rotate(180)"><rect class="e" width="56" height="55" rx="6"/><rect class="f" x="0.5" y="0.5" width="55" height="54" rx="5.5"/></g><g class="c" transform="translate(485 196) rotate(180)"><rect class="e" width="55" height="55" rx="6"/><rect class="f" x="0.5" y="0.5" width="54" height="54" rx="5.5"/></g><g class="c" transform="translate(424 196) rotate(180)"><rect class="e" width="56" height="55" rx="6"/><rect class="f" x="0.5" y="0.5" width="55" height="54" rx="5.5"/></g><g class="c" transform="translate(363 196) rotate(180)"><rect class="e" width="55" height="55" rx="6"/><rect class="f" x="0.5" y="0.5" width="54" height="54" rx="5.5"/></g><g class="c" transform="translate(302 196) rotate(180)"><rect class="e" width="56" height="55" rx="6"/><rect class="f" x="0.5" y="0.5" width="55" height="54" rx="5.5"/></g><g class="c" transform="translate(485 391) rotate(180)"><rect class="e" width="55" height="55" rx="6"/><rect class="f" x="0.5" y="0.5" width="54" height="54" rx="5.5"/></g><g class="c" transform="translate(424 391) rotate(180)"><rect class="e" width="56" height="55" rx="6"/><rect class="f" x="0.5" y="0.5" width="55" height="54" rx="5.5"/></g><g class="c" transform="translate(363 391) rotate(180)"><rect class="e" width="55" height="55" rx="6"/><rect class="f" x="0.5" y="0.5" width="54" height="54" rx="5.5"/></g><g class="c" transform="translate(302 391) rotate(180)"><rect class="e" width="56" height="55" rx="6"/><rect class="f" x="0.5" y="0.5" width="55" height="54" rx="5.5"/></g><g class="c" transform="translate(485 330) rotate(180)"><rect class="e" width="55" height="55" rx="6"/><rect class="f" x="0.5" y="0.5" width="54" height="54" rx="5.5"/></g><g class="c" transform="translate(424 330) rotate(180)"><rect class="e" width="56" height="55" rx="6"/><rect class="f" x="0.5" y="0.5" width="55" height="54" rx="5.5"/></g><g class="c" transform="translate(363 330) rotate(180)"><rect class="e" width="55" height="55" rx="6"/><rect class="f" x="0.5" y="0.5" width="54" height="54" rx="5.5"/></g><g class="c" transform="translate(302 330) rotate(180)"><rect class="e" width="56" height="55" rx="6"/><rect class="f" x="0.5" y="0.5" width="55" height="54" rx="5.5"/></g><g class="c" transform="translate(485 465) rotate(180)"><rect class="e" width="55" height="55" rx="6"/><rect class="f" x="0.5" y="0.5" width="54" height="54" rx="5.5"/></g><g class="c" transform="translate(424 465) rotate(180)"><rect class="e" width="56" height="55" rx="6"/><rect class="f" x="0.5" y="0.5" width="55" height="54" rx="5.5"/></g><g class="c" transform="translate(363 465) rotate(180)"><rect class="e" width="55" height="55" rx="6"/><rect class="f" x="0.5" y="0.5" width="54" height="54" rx="5.5"/></g><g class="c" transform="translate(302 465) rotate(180)"><rect class="e" width="56" height="55" rx="6"/><rect class="f" x="0.5" y="0.5" width="55" height="54" rx="5.5"/></g><g class="c" transform="translate(56 257) rotate(180)"><rect class="e" width="55" height="55" rx="6"/><rect class="f" x="0.5" y="0.5" width="54" height="54" rx="5.5"/></g><g class="c" transform="translate(56 196) rotate(180)"><rect class="e" width="55" height="55" rx="6"/><rect class="f" x="0.5" y="0.5" width="54" height="54" rx="5.5"/></g><g class="c" transform="translate(56 391) rotate(180)"><rect class="e" width="55" height="55" rx="6"/><rect class="f" x="0.5" y="0.5" width="54" height="54" rx="5.5"/></g><g class="c" transform="translate(56 330) rotate(180)"><rect class="e" width="55" height="55" rx="6"/><rect class="f" x="0.5" y="0.5" width="54" height="54" rx="5.5"/></g><g class="c" transform="translate(241 525) rotate(180)"><rect class="e" width="56" height="54" rx="6"/><rect class="f" x="0.5" y="0.5" width="55" height="53" rx="5.5"/></g><g class="c" transform="translate(179 525) rotate(180)"><rect class="e" width="55" height="54" rx="6"/><rect class="f" x="0.5" y="0.5" width="54" height="53" rx="5.5"/></g><g class="c" transform="translate(118 525) rotate(180)"><rect class="e" width="56" height="54" rx="6"/><rect class="f" x="0.5" y="0.5" width="55" height="53" rx="5.5"/></g><g class="c" transform="translate(56 525) rotate(180)"><rect class="e" width="55" height="54" rx="6"/><rect class="f" x="0.5" y="0.5" width="54" height="53" rx="5.5"/></g><g class="c" transform="translate(56 465) rotate(180)"><rect class="e" width="55" height="55" rx="6"/><rect class="f" x="0.5" y="0.5" width="54" height="54" rx="5.5"/></g><g class="c" transform="translate(56 122) rotate(180)"><rect class="e" width="55" height="55" rx="6"/><rect class="f" x="0.5" y="0.5" width="54" height="54" rx="5.5"/></g><g class="c" transform="translate(56 61) rotate(180)"><rect class="e" width="55" height="54" rx="6"/><rect class="f" x="0.5" y="0.5" width="54" height="53" rx="5.5"/></g><g class="c" transform="translate(485 525) rotate(180)"><rect class="e" width="55" height="54" rx="6"/><rect class="f" x="0.5" y="0.5" width="54" height="53" rx="5.5"/></g><g class="c" transform="translate(424 525) rotate(180)"><rect class="e" width="56" height="54" rx="6"/><rect class="f" x="0.5" y="0.5" width="55" height="53" rx="5.5"/></g><g class="c" transform="translate(363 525) rotate(180)"><rect class="e" width="55" height="54" rx="6"/><rect class="f" x="0.5" y="0.5" width="54" height="53" rx="5.5"/></g><g class="c" transform="translate(302 525) rotate(180)"><rect class="e" width="56" height="54" rx="6"/><rect class="f" x="0.5" y="0.5" width="55" height="53" rx="5.5"/></g><rect class="d" width="350" height="532"/></g></svg>