<svg id="Logo" xmlns="http://www.w3.org/2000/svg" viewBox="0 0 283.4646 283.4154">
  <path fill="#00b0f0" d="M268.0782,77.7157A141.6613,141.6613,0,0,0,7.09,97.7453a141.5558,141.5558,0,0,0,204.2082,167.36,74.097,74.097,0,0,1-13.6288,1.3285,70.1,70.1,0,0,1-26.0244-4.9469L146.88,251.5041a109.84,109.84,0,1,1,99.25-75.57c-1.131,3.4509-3.8628,10.107-3.8628,10.107v-.0036c-14.5443,34.4691-38.7692,43.1451-55.07,36.6372l-67.8795-27.3614A58.28,58.28,0,0,1,86.58,123.7444a58.0278,58.0278,0,1,1,80.2666,70.3548,58.4489,58.4489,0,0,1-12.9806,4.3687s39.4517,15.7065,40.716,15.9238a89.8283,89.8283,0,1,0-138.247-100.541c-14.472,44.2472,7.8124,92.9283,50.9106,110.9054l68.1035,27.4517c31.3074,12.4883,74.38-1.991,96.3033-53.9567,0,0,3.3425-8.2063,4.7229-12.4268A140.7455,140.7455,0,0,0,268.0782,77.7157Z" transform="translate(0 -0.0492)"/>
</svg>
