<svg 
 xmlns="http://www.w3.org/2000/svg"
 xmlns:xlink="http://www.w3.org/1999/xlink"
 width="675px" height="8px">
<defs>
<linearGradient id="PSgrad_0" x1="0%" x2="100%" y1="0%" y2="0%">
  <stop offset="0%" stop-color="rgb(0,176,240)" stop-opacity="1" />
  <stop offset="65%" stop-color="rgb(0,0,0)" stop-opacity="1" />
</linearGradient>

</defs>
<path fill-rule="evenodd"  fill="rgb(39, 39, 39)"
 d="M3.465,0.750 L671.535,0.750 C673.328,0.750 674.781,2.203 674.781,3.996 L674.781,4.004 C674.781,5.797 673.328,7.250 671.535,7.250 L3.465,7.250 C1.672,7.250 0.219,5.797 0.219,4.004 L0.219,3.996 C0.219,2.203 1.672,0.750 3.465,0.750 Z"/>
<path stroke="rgb(0, 0, 0)" stroke-width="0px" stroke-linecap="butt" stroke-linejoin="miter" fill="url(#PSgrad_0)"
 d="M3.465,0.750 L671.535,0.750 C673.328,0.750 674.781,2.203 674.781,3.996 L674.781,4.004 C674.781,5.797 673.328,7.250 671.535,7.250 L3.465,7.250 C1.672,7.250 0.219,5.797 0.219,4.004 L0.219,3.996 C0.219,2.203 1.672,0.750 3.465,0.750 Z"/>
</svg>